<?xml version="1.0" encoding="utf-8" standalone="no"?>
<!DOCTYPE svg PUBLIC "-//W3C//DTD SVG 1.1//EN"
  "http://www.w3.org/Graphics/SVG/1.1/DTD/svg11.dtd">
<svg xmlns:xlink="http://www.w3.org/1999/xlink" width="996.451556pt" height="424.8pt" viewBox="0 0 996.451556 424.8" xmlns="http://www.w3.org/2000/svg" version="1.1">
 <metadata>
  <rdf:RDF xmlns:dc="http://purl.org/dc/elements/1.1/" xmlns:cc="http://creativecommons.org/ns#" xmlns:rdf="http://www.w3.org/1999/02/22-rdf-syntax-ns#">
   <cc:Work>
    <dc:type rdf:resource="http://purl.org/dc/dcmitype/StillImage"/>
    <dc:date>2026-05-01T19:29:54.958084</dc:date>
    <dc:format>image/svg+xml</dc:format>
    <dc:creator>
     <cc:Agent>
      <dc:title>Matplotlib v3.10.7, https://matplotlib.org/</dc:title>
     </cc:Agent>
    </dc:creator>
   </cc:Work>
  </rdf:RDF>
 </metadata>
 <defs>
  <style type="text/css">*{stroke-linejoin: round; stroke-linecap: butt}</style>
 </defs>
 <g id="figure_1">
  <g id="patch_1">
   <path d="M 0 424.8 
L 996.451556 424.8 
L 996.451556 0 
L 0 0 
z
" style="fill: #ffffff"/>
  </g>
  <g id="axes_1">
   <g id="patch_2">
    <path d="M 49.807187 381.669687 
L 486.476104 381.669687 
L 486.476104 51.604687 
L 49.807187 51.604687 
z
" style="fill: #ffffff"/>
   </g>
   <g id="matplotlib.axis_1">
    <g id="xtick_1">
     <g id="line2d_1">
      <path d="M 67.54498 381.669687 
L 67.54498 51.604687 
" clip-path="url(#p956dc9c829)" style="fill: none; stroke-dasharray: 3.7,1.6; stroke-dashoffset: 0; stroke: #dddddd; stroke-opacity: 0.3"/>
     </g>
     <g id="text_1">
      <!-- 0 -->
      <g style="fill: #262626" transform="translate(64.045605 399.527969) scale(0.11 -0.11)">
       <defs>
        <path id="DejaVuSerif-30" d="M 2034 219 
Q 2513 219 2750 744 
Q 2988 1269 2988 2328 
Q 2988 3391 2750 3916 
Q 2513 4441 2034 4441 
Q 1556 4441 1318 3916 
Q 1081 3391 1081 2328 
Q 1081 1269 1318 744 
Q 1556 219 2034 219 
z
M 2034 -91 
Q 1275 -91 848 546 
Q 422 1184 422 2328 
Q 422 3475 848 4112 
Q 1275 4750 2034 4750 
Q 2797 4750 3222 4112 
Q 3647 3475 3647 2328 
Q 3647 1184 3222 546 
Q 2797 -91 2034 -91 
z
" transform="scale(0.015625)"/>
       </defs>
       <use xlink:href="#DejaVuSerif-30"/>
      </g>
     </g>
    </g>
    <g id="xtick_2">
     <g id="line2d_2">
      <path d="M 123.832828 381.669687 
L 123.832828 51.604687 
" clip-path="url(#p956dc9c829)" style="fill: none; stroke-dasharray: 3.7,1.6; stroke-dashoffset: 0; stroke: #dddddd; stroke-opacity: 0.3"/>
     </g>
     <g id="text_2">
      <!-- 20000 -->
      <g style="fill: #262626" transform="translate(106.335953 399.527969) scale(0.11 -0.11)">
       <defs>
        <path id="DejaVuSerif-32" d="M 819 3553 
L 469 3553 
L 469 4384 
Q 803 4563 1142 4656 
Q 1481 4750 1806 4750 
Q 2534 4750 2956 4397 
Q 3378 4044 3378 3438 
Q 3378 2753 2422 1800 
Q 2347 1728 2309 1691 
L 1131 513 
L 3078 513 
L 3078 1088 
L 3444 1088 
L 3444 0 
L 434 0 
L 434 341 
L 1850 1753 
Q 2319 2222 2519 2614 
Q 2719 3006 2719 3438 
Q 2719 3909 2473 4175 
Q 2228 4441 1797 4441 
Q 1350 4441 1106 4219 
Q 863 3997 819 3553 
z
" transform="scale(0.015625)"/>
       </defs>
       <use xlink:href="#DejaVuSerif-32"/>
       <use xlink:href="#DejaVuSerif-30" transform="translate(63.623047 0)"/>
       <use xlink:href="#DejaVuSerif-30" transform="translate(127.246094 0)"/>
       <use xlink:href="#DejaVuSerif-30" transform="translate(190.869141 0)"/>
       <use xlink:href="#DejaVuSerif-30" transform="translate(254.492188 0)"/>
      </g>
     </g>
    </g>
    <g id="xtick_3">
     <g id="line2d_3">
      <path d="M 180.120676 381.669687 
L 180.120676 51.604687 
" clip-path="url(#p956dc9c829)" style="fill: none; stroke-dasharray: 3.7,1.6; stroke-dashoffset: 0; stroke: #dddddd; stroke-opacity: 0.3"/>
     </g>
     <g id="text_3">
      <!-- 40000 -->
      <g style="fill: #262626" transform="translate(162.623801 399.527969) scale(0.11 -0.11)">
       <defs>
        <path id="DejaVuSerif-34" d="M 2234 1581 
L 2234 4063 
L 641 1581 
L 2234 1581 
z
M 3609 0 
L 1484 0 
L 1484 331 
L 2234 331 
L 2234 1247 
L 197 1247 
L 197 1588 
L 2241 4750 
L 2859 4750 
L 2859 1581 
L 3750 1581 
L 3750 1247 
L 2859 1247 
L 2859 331 
L 3609 331 
L 3609 0 
z
" transform="scale(0.015625)"/>
       </defs>
       <use xlink:href="#DejaVuSerif-34"/>
       <use xlink:href="#DejaVuSerif-30" transform="translate(63.623047 0)"/>
       <use xlink:href="#DejaVuSerif-30" transform="translate(127.246094 0)"/>
       <use xlink:href="#DejaVuSerif-30" transform="translate(190.869141 0)"/>
       <use xlink:href="#DejaVuSerif-30" transform="translate(254.492188 0)"/>
      </g>
     </g>
    </g>
    <g id="xtick_4">
     <g id="line2d_4">
      <path d="M 236.408523 381.669687 
L 236.408523 51.604687 
" clip-path="url(#p956dc9c829)" style="fill: none; stroke-dasharray: 3.7,1.6; stroke-dashoffset: 0; stroke: #dddddd; stroke-opacity: 0.3"/>
     </g>
     <g id="text_4">
      <!-- 60000 -->
      <g style="fill: #262626" transform="translate(218.911648 399.527969) scale(0.11 -0.11)">
       <defs>
        <path id="DejaVuSerif-36" d="M 2094 219 
Q 2534 219 2771 542 
Q 3009 866 3009 1472 
Q 3009 2078 2771 2401 
Q 2534 2725 2094 2725 
Q 1647 2725 1412 2412 
Q 1178 2100 1178 1509 
Q 1178 888 1415 553 
Q 1653 219 2094 219 
z
M 1075 2569 
Q 1288 2803 1556 2918 
Q 1825 3034 2163 3034 
Q 2859 3034 3264 2615 
Q 3669 2197 3669 1472 
Q 3669 763 3233 336 
Q 2797 -91 2069 -91 
Q 1278 -91 853 498 
Q 428 1088 428 2181 
Q 428 3406 931 4078 
Q 1434 4750 2350 4750 
Q 2597 4750 2869 4703 
Q 3141 4656 3425 4563 
L 3425 3794 
L 3072 3794 
Q 3034 4109 2831 4275 
Q 2628 4441 2284 4441 
Q 1678 4441 1381 3981 
Q 1084 3522 1075 2569 
z
" transform="scale(0.015625)"/>
       </defs>
       <use xlink:href="#DejaVuSerif-36"/>
       <use xlink:href="#DejaVuSerif-30" transform="translate(63.623047 0)"/>
       <use xlink:href="#DejaVuSerif-30" transform="translate(127.246094 0)"/>
       <use xlink:href="#DejaVuSerif-30" transform="translate(190.869141 0)"/>
       <use xlink:href="#DejaVuSerif-30" transform="translate(254.492188 0)"/>
      </g>
     </g>
    </g>
    <g id="xtick_5">
     <g id="line2d_5">
      <path d="M 292.696371 381.669687 
L 292.696371 51.604687 
" clip-path="url(#p956dc9c829)" style="fill: none; stroke-dasharray: 3.7,1.6; stroke-dashoffset: 0; stroke: #dddddd; stroke-opacity: 0.3"/>
     </g>
     <g id="text_5">
      <!-- 80000 -->
      <g style="fill: #262626" transform="translate(275.199496 399.527969) scale(0.11 -0.11)">
       <defs>
        <path id="DejaVuSerif-38" d="M 2981 1275 
Q 2981 1775 2732 2051 
Q 2484 2328 2034 2328 
Q 1584 2328 1336 2051 
Q 1088 1775 1088 1275 
Q 1088 772 1336 495 
Q 1584 219 2034 219 
Q 2484 219 2732 495 
Q 2981 772 2981 1275 
z
M 2853 3541 
Q 2853 3966 2637 4203 
Q 2422 4441 2034 4441 
Q 1650 4441 1433 4203 
Q 1216 3966 1216 3541 
Q 1216 3113 1433 2875 
Q 1650 2638 2034 2638 
Q 2422 2638 2637 2875 
Q 2853 3113 2853 3541 
z
M 2516 2484 
Q 3047 2413 3344 2092 
Q 3641 1772 3641 1275 
Q 3641 619 3225 264 
Q 2809 -91 2034 -91 
Q 1263 -91 845 264 
Q 428 619 428 1275 
Q 428 1772 725 2092 
Q 1022 2413 1556 2484 
Q 1084 2569 832 2842 
Q 581 3116 581 3541 
Q 581 4103 968 4426 
Q 1356 4750 2034 4750 
Q 2713 4750 3100 4426 
Q 3488 4103 3488 3541 
Q 3488 3116 3236 2842 
Q 2984 2569 2516 2484 
z
" transform="scale(0.015625)"/>
       </defs>
       <use xlink:href="#DejaVuSerif-38"/>
       <use xlink:href="#DejaVuSerif-30" transform="translate(63.623047 0)"/>
       <use xlink:href="#DejaVuSerif-30" transform="translate(127.246094 0)"/>
       <use xlink:href="#DejaVuSerif-30" transform="translate(190.869141 0)"/>
       <use xlink:href="#DejaVuSerif-30" transform="translate(254.492188 0)"/>
      </g>
     </g>
    </g>
    <g id="xtick_6">
     <g id="line2d_6">
      <path d="M 348.984219 381.669687 
L 348.984219 51.604687 
" clip-path="url(#p956dc9c829)" style="fill: none; stroke-dasharray: 3.7,1.6; stroke-dashoffset: 0; stroke: #dddddd; stroke-opacity: 0.3"/>
     </g>
     <g id="text_6">
      <!-- 100000 -->
      <g style="fill: #262626" transform="translate(327.987969 399.527969) scale(0.11 -0.11)">
       <defs>
        <path id="DejaVuSerif-31" d="M 909 0 
L 909 331 
L 1722 331 
L 1722 4213 
L 781 3603 
L 781 4013 
L 1919 4750 
L 2350 4750 
L 2350 331 
L 3163 331 
L 3163 0 
L 909 0 
z
" transform="scale(0.015625)"/>
       </defs>
       <use xlink:href="#DejaVuSerif-31"/>
       <use xlink:href="#DejaVuSerif-30" transform="translate(63.623047 0)"/>
       <use xlink:href="#DejaVuSerif-30" transform="translate(127.246094 0)"/>
       <use xlink:href="#DejaVuSerif-30" transform="translate(190.869141 0)"/>
       <use xlink:href="#DejaVuSerif-30" transform="translate(254.492188 0)"/>
       <use xlink:href="#DejaVuSerif-30" transform="translate(318.115234 0)"/>
      </g>
     </g>
    </g>
    <g id="xtick_7">
     <g id="line2d_7">
      <path d="M 405.272066 381.669687 
L 405.272066 51.604687 
" clip-path="url(#p956dc9c829)" style="fill: none; stroke-dasharray: 3.7,1.6; stroke-dashoffset: 0; stroke: #dddddd; stroke-opacity: 0.3"/>
     </g>
     <g id="text_7">
      <!-- 120000 -->
      <g style="fill: #262626" transform="translate(384.275816 399.527969) scale(0.11 -0.11)">
       <use xlink:href="#DejaVuSerif-31"/>
       <use xlink:href="#DejaVuSerif-32" transform="translate(63.623047 0)"/>
       <use xlink:href="#DejaVuSerif-30" transform="translate(127.246094 0)"/>
       <use xlink:href="#DejaVuSerif-30" transform="translate(190.869141 0)"/>
       <use xlink:href="#DejaVuSerif-30" transform="translate(254.492188 0)"/>
       <use xlink:href="#DejaVuSerif-30" transform="translate(318.115234 0)"/>
      </g>
     </g>
    </g>
    <g id="xtick_8">
     <g id="line2d_8">
      <path d="M 461.559914 381.669687 
L 461.559914 51.604687 
" clip-path="url(#p956dc9c829)" style="fill: none; stroke-dasharray: 3.7,1.6; stroke-dashoffset: 0; stroke: #dddddd; stroke-opacity: 0.3"/>
     </g>
     <g id="text_8">
      <!-- 140000 -->
      <g style="fill: #262626" transform="translate(440.563664 399.527969) scale(0.11 -0.11)">
       <use xlink:href="#DejaVuSerif-31"/>
       <use xlink:href="#DejaVuSerif-34" transform="translate(63.623047 0)"/>
       <use xlink:href="#DejaVuSerif-30" transform="translate(127.246094 0)"/>
       <use xlink:href="#DejaVuSerif-30" transform="translate(190.869141 0)"/>
       <use xlink:href="#DejaVuSerif-30" transform="translate(254.492188 0)"/>
       <use xlink:href="#DejaVuSerif-30" transform="translate(318.115234 0)"/>
      </g>
     </g>
    </g>
    <g id="text_9">
     <!-- Total Packet Delay (ms) -->
     <g style="fill: #262626" transform="translate(196.362896 414.93375) scale(0.12 -0.12)">
      <defs>
       <path id="DejaVuSerif-54" d="M 1222 0 
L 1222 331 
L 1819 331 
L 1819 4294 
L 447 4294 
L 447 3566 
L 63 3566 
L 63 4666 
L 4206 4666 
L 4206 3566 
L 3822 3566 
L 3822 4294 
L 2450 4294 
L 2450 331 
L 3047 331 
L 3047 0 
L 1222 0 
z
" transform="scale(0.015625)"/>
       <path id="DejaVuSerif-6f" d="M 1925 219 
Q 2388 219 2623 584 
Q 2859 950 2859 1663 
Q 2859 2375 2623 2739 
Q 2388 3103 1925 3103 
Q 1463 3103 1227 2739 
Q 991 2375 991 1663 
Q 991 950 1228 584 
Q 1466 219 1925 219 
z
M 1925 -91 
Q 1200 -91 759 389 
Q 319 869 319 1663 
Q 319 2456 758 2934 
Q 1197 3413 1925 3413 
Q 2653 3413 3092 2934 
Q 3531 2456 3531 1663 
Q 3531 869 3092 389 
Q 2653 -91 1925 -91 
z
" transform="scale(0.015625)"/>
       <path id="DejaVuSerif-74" d="M 691 2988 
L 184 2988 
L 184 3322 
L 691 3322 
L 691 4353 
L 1269 4353 
L 1269 3322 
L 2350 3322 
L 2350 2988 
L 1269 2988 
L 1269 878 
Q 1269 456 1350 337 
Q 1431 219 1650 219 
Q 1875 219 1978 351 
Q 2081 484 2088 781 
L 2522 781 
Q 2497 328 2275 118 
Q 2053 -91 1600 -91 
Q 1103 -91 897 129 
Q 691 350 691 878 
L 691 2988 
z
" transform="scale(0.015625)"/>
       <path id="DejaVuSerif-61" d="M 2547 1044 
L 2547 1747 
L 1806 1747 
Q 1378 1747 1168 1562 
Q 959 1378 959 997 
Q 959 650 1171 447 
Q 1384 244 1747 244 
Q 2106 244 2326 466 
Q 2547 688 2547 1044 
z
M 3122 2075 
L 3122 331 
L 3634 331 
L 3634 0 
L 2547 0 
L 2547 359 
Q 2356 128 2106 18 
Q 1856 -91 1522 -91 
Q 969 -91 644 203 
Q 319 497 319 997 
Q 319 1513 691 1797 
Q 1063 2081 1741 2081 
L 2547 2081 
L 2547 2309 
Q 2547 2688 2317 2895 
Q 2088 3103 1672 3103 
Q 1328 3103 1125 2947 
Q 922 2791 872 2484 
L 575 2484 
L 575 3156 
Q 875 3284 1158 3348 
Q 1441 3413 1709 3413 
Q 2400 3413 2761 3070 
Q 3122 2728 3122 2075 
z
" transform="scale(0.015625)"/>
       <path id="DejaVuSerif-6c" d="M 1313 331 
L 1856 331 
L 1856 0 
L 184 0 
L 184 331 
L 738 331 
L 738 4531 
L 184 4531 
L 184 4863 
L 1313 4863 
L 1313 331 
z
" transform="scale(0.015625)"/>
       <path id="DejaVuSerif-20" transform="scale(0.015625)"/>
       <path id="DejaVuSerif-50" d="M 1581 2375 
L 2406 2375 
Q 2872 2375 3115 2626 
Q 3359 2878 3359 3353 
Q 3359 3831 3115 4081 
Q 2872 4331 2406 4331 
L 1581 4331 
L 1581 2375 
z
M 353 0 
L 353 331 
L 947 331 
L 947 4331 
L 353 4331 
L 353 4666 
L 2559 4666 
Q 3259 4666 3668 4311 
Q 4078 3956 4078 3353 
Q 4078 2753 3668 2397 
Q 3259 2041 2559 2041 
L 1581 2041 
L 1581 331 
L 2303 331 
L 2303 0 
L 353 0 
z
" transform="scale(0.015625)"/>
       <path id="DejaVuSerif-63" d="M 3291 997 
Q 3169 466 2822 187 
Q 2475 -91 1925 -91 
Q 1200 -91 759 389 
Q 319 869 319 1663 
Q 319 2459 759 2936 
Q 1200 3413 1925 3413 
Q 2241 3413 2553 3339 
Q 2866 3266 3181 3116 
L 3181 2266 
L 2847 2266 
Q 2781 2703 2561 2903 
Q 2341 3103 1931 3103 
Q 1466 3103 1228 2742 
Q 991 2381 991 1663 
Q 991 944 1227 581 
Q 1463 219 1931 219 
Q 2303 219 2525 412 
Q 2747 606 2828 997 
L 3291 997 
z
" transform="scale(0.015625)"/>
       <path id="DejaVuSerif-6b" d="M 1831 0 
L 219 0 
L 219 331 
L 738 331 
L 738 4531 
L 184 4531 
L 184 4863 
L 1313 4863 
L 1313 1697 
L 2713 2988 
L 2234 2988 
L 2234 3322 
L 3738 3322 
L 3738 2988 
L 3169 2988 
L 2181 2075 
L 3444 331 
L 3922 331 
L 3922 0 
L 2284 0 
L 2284 331 
L 2759 331 
L 1766 1697 
L 1313 1275 
L 1313 331 
L 1831 331 
L 1831 0 
z
" transform="scale(0.015625)"/>
       <path id="DejaVuSerif-65" d="M 3469 1600 
L 991 1600 
L 991 1575 
Q 991 903 1244 561 
Q 1497 219 1991 219 
Q 2369 219 2611 417 
Q 2853 616 2950 1006 
L 3413 1006 
Q 3275 459 2904 184 
Q 2534 -91 1931 -91 
Q 1203 -91 761 389 
Q 319 869 319 1663 
Q 319 2450 753 2931 
Q 1188 3413 1894 3413 
Q 2647 3413 3050 2948 
Q 3453 2484 3469 1600 
z
M 2791 1931 
Q 2772 2513 2545 2808 
Q 2319 3103 1894 3103 
Q 1497 3103 1269 2806 
Q 1041 2509 991 1931 
L 2791 1931 
z
" transform="scale(0.015625)"/>
       <path id="DejaVuSerif-44" d="M 1581 331 
L 2163 331 
Q 3072 331 3558 850 
Q 4044 1369 4044 2338 
Q 4044 3306 3559 3818 
Q 3075 4331 2163 4331 
L 1581 4331 
L 1581 331 
z
M 353 0 
L 353 331 
L 947 331 
L 947 4331 
L 353 4331 
L 353 4666 
L 2209 4666 
Q 3416 4666 4089 4050 
Q 4763 3434 4763 2338 
Q 4763 1238 4088 619 
Q 3413 0 2209 0 
L 353 0 
z
" transform="scale(0.015625)"/>
       <path id="DejaVuSerif-79" d="M 1381 -609 
L 1600 -56 
L 359 2988 
L -19 2988 
L -19 3322 
L 1509 3322 
L 1509 2988 
L 978 2988 
L 1913 703 
L 2847 2988 
L 2350 2988 
L 2350 3322 
L 3597 3322 
L 3597 2988 
L 3225 2988 
L 1703 -750 
Q 1547 -1138 1356 -1280 
Q 1166 -1422 819 -1422 
Q 672 -1422 517 -1397 
Q 363 -1372 206 -1325 
L 206 -691 
L 500 -691 
Q 519 -903 608 -995 
Q 697 -1088 884 -1088 
Q 1056 -1088 1161 -992 
Q 1266 -897 1381 -609 
z
" transform="scale(0.015625)"/>
       <path id="DejaVuSerif-28" d="M 2041 -997 
Q 1281 -656 893 83 
Q 506 822 506 1931 
Q 506 3044 893 3783 
Q 1281 4522 2041 4863 
L 2041 4556 
Q 1559 4225 1350 3623 
Q 1141 3022 1141 1931 
Q 1141 844 1350 242 
Q 1559 -359 2041 -691 
L 2041 -997 
z
" transform="scale(0.015625)"/>
       <path id="DejaVuSerif-6d" d="M 3316 2675 
Q 3481 3041 3739 3227 
Q 3997 3413 4341 3413 
Q 4863 3413 5119 3089 
Q 5375 2766 5375 2113 
L 5375 331 
L 5894 331 
L 5894 0 
L 4300 0 
L 4300 331 
L 4800 331 
L 4800 2047 
Q 4800 2556 4650 2772 
Q 4500 2988 4153 2988 
Q 3769 2988 3567 2697 
Q 3366 2406 3366 1850 
L 3366 331 
L 3866 331 
L 3866 0 
L 2291 0 
L 2291 331 
L 2791 331 
L 2791 2069 
Q 2791 2566 2641 2777 
Q 2491 2988 2144 2988 
Q 1759 2988 1557 2697 
Q 1356 2406 1356 1850 
L 1356 331 
L 1856 331 
L 1856 0 
L 263 0 
L 263 331 
L 781 331 
L 781 2994 
L 231 2994 
L 231 3322 
L 1356 3322 
L 1356 2731 
Q 1516 3063 1762 3238 
Q 2009 3413 2322 3413 
Q 2709 3413 2968 3220 
Q 3228 3028 3316 2675 
z
" transform="scale(0.015625)"/>
       <path id="DejaVuSerif-73" d="M 359 184 
L 359 959 
L 691 959 
Q 703 588 923 403 
Q 1144 219 1575 219 
Q 1963 219 2166 364 
Q 2369 509 2369 788 
Q 2369 1006 2220 1140 
Q 2072 1275 1594 1428 
L 1178 1569 
Q 750 1706 558 1912 
Q 366 2119 366 2438 
Q 366 2894 700 3153 
Q 1034 3413 1625 3413 
Q 1888 3413 2178 3344 
Q 2469 3275 2778 3144 
L 2778 2419 
L 2447 2419 
Q 2434 2741 2221 2922 
Q 2009 3103 1644 3103 
Q 1281 3103 1095 2975 
Q 909 2847 909 2591 
Q 909 2381 1050 2254 
Q 1191 2128 1613 1997 
L 2069 1856 
Q 2541 1709 2748 1489 
Q 2956 1269 2956 922 
Q 2956 450 2595 179 
Q 2234 -91 1600 -91 
Q 1278 -91 972 -22 
Q 666 47 359 184 
z
" transform="scale(0.015625)"/>
       <path id="DejaVuSerif-29" d="M 453 -997 
L 453 -691 
Q 934 -359 1145 242 
Q 1356 844 1356 1931 
Q 1356 3022 1145 3623 
Q 934 4225 453 4556 
L 453 4863 
Q 1216 4522 1603 3783 
Q 1991 3044 1991 1931 
Q 1991 822 1603 83 
Q 1216 -656 453 -997 
z
" transform="scale(0.015625)"/>
      </defs>
      <use xlink:href="#DejaVuSerif-54"/>
      <use xlink:href="#DejaVuSerif-6f" transform="translate(58.949219 0)"/>
      <use xlink:href="#DejaVuSerif-74" transform="translate(119.154297 0)"/>
      <use xlink:href="#DejaVuSerif-61" transform="translate(159.339844 0)"/>
      <use xlink:href="#DejaVuSerif-6c" transform="translate(218.958984 0)"/>
      <use xlink:href="#DejaVuSerif-20" transform="translate(250.941406 0)"/>
      <use xlink:href="#DejaVuSerif-50" transform="translate(282.728516 0)"/>
      <use xlink:href="#DejaVuSerif-61" transform="translate(345.513672 0)"/>
      <use xlink:href="#DejaVuSerif-63" transform="translate(405.132812 0)"/>
      <use xlink:href="#DejaVuSerif-6b" transform="translate(461.138672 0)"/>
      <use xlink:href="#DejaVuSerif-65" transform="translate(521.734375 0)"/>
      <use xlink:href="#DejaVuSerif-74" transform="translate(580.914062 0)"/>
      <use xlink:href="#DejaVuSerif-20" transform="translate(621.099609 0)"/>
      <use xlink:href="#DejaVuSerif-44" transform="translate(652.886719 0)"/>
      <use xlink:href="#DejaVuSerif-65" transform="translate(733.0625 0)"/>
      <use xlink:href="#DejaVuSerif-6c" transform="translate(792.242188 0)"/>
      <use xlink:href="#DejaVuSerif-61" transform="translate(824.224609 0)"/>
      <use xlink:href="#DejaVuSerif-79" transform="translate(883.84375 0)"/>
      <use xlink:href="#DejaVuSerif-20" transform="translate(940.337891 0)"/>
      <use xlink:href="#DejaVuSerif-28" transform="translate(972.125 0)"/>
      <use xlink:href="#DejaVuSerif-6d" transform="translate(1011.138672 0)"/>
      <use xlink:href="#DejaVuSerif-73" transform="translate(1105.962891 0)"/>
      <use xlink:href="#DejaVuSerif-29" transform="translate(1157.28125 0)"/>
     </g>
    </g>
   </g>
   <g id="matplotlib.axis_2">
    <g id="ytick_1">
     <g id="line2d_9">
      <path d="M 49.807187 366.666733 
L 486.476104 366.666733 
" clip-path="url(#p956dc9c829)" style="fill: none; stroke-dasharray: 3.7,1.6; stroke-dashoffset: 0; stroke: #dddddd; stroke-opacity: 0.3"/>
     </g>
     <g id="text_10">
      <!-- 0.0 -->
      <g style="fill: #262626" transform="translate(22.81375 370.845874) scale(0.11 -0.11)">
       <defs>
        <path id="DejaVuSerif-2e" d="M 603 325 
Q 603 500 722 622 
Q 841 744 1019 744 
Q 1191 744 1312 622 
Q 1434 500 1434 325 
Q 1434 153 1312 31 
Q 1191 -91 1019 -91 
Q 841 -91 722 29 
Q 603 150 603 325 
z
" transform="scale(0.015625)"/>
       </defs>
       <use xlink:href="#DejaVuSerif-30"/>
       <use xlink:href="#DejaVuSerif-2e" transform="translate(63.623047 0)"/>
       <use xlink:href="#DejaVuSerif-30" transform="translate(95.410156 0)"/>
      </g>
     </g>
    </g>
    <g id="ytick_2">
     <g id="line2d_10">
      <path d="M 49.807187 306.521258 
L 486.476104 306.521258 
" clip-path="url(#p956dc9c829)" style="fill: none; stroke-dasharray: 3.7,1.6; stroke-dashoffset: 0; stroke: #dddddd; stroke-opacity: 0.3"/>
     </g>
     <g id="text_11">
      <!-- 0.2 -->
      <g style="fill: #262626" transform="translate(22.81375 310.700399) scale(0.11 -0.11)">
       <use xlink:href="#DejaVuSerif-30"/>
       <use xlink:href="#DejaVuSerif-2e" transform="translate(63.623047 0)"/>
       <use xlink:href="#DejaVuSerif-32" transform="translate(95.410156 0)"/>
      </g>
     </g>
    </g>
    <g id="ytick_3">
     <g id="line2d_11">
      <path d="M 49.807187 246.375783 
L 486.476104 246.375783 
" clip-path="url(#p956dc9c829)" style="fill: none; stroke-dasharray: 3.7,1.6; stroke-dashoffset: 0; stroke: #dddddd; stroke-opacity: 0.3"/>
     </g>
     <g id="text_12">
      <!-- 0.4 -->
      <g style="fill: #262626" transform="translate(22.81375 250.554924) scale(0.11 -0.11)">
       <use xlink:href="#DejaVuSerif-30"/>
       <use xlink:href="#DejaVuSerif-2e" transform="translate(63.623047 0)"/>
       <use xlink:href="#DejaVuSerif-34" transform="translate(95.410156 0)"/>
      </g>
     </g>
    </g>
    <g id="ytick_4">
     <g id="line2d_12">
      <path d="M 49.807187 186.230309 
L 486.476104 186.230309 
" clip-path="url(#p956dc9c829)" style="fill: none; stroke-dasharray: 3.7,1.6; stroke-dashoffset: 0; stroke: #dddddd; stroke-opacity: 0.3"/>
     </g>
     <g id="text_13">
      <!-- 0.6 -->
      <g style="fill: #262626" transform="translate(22.81375 190.409449) scale(0.11 -0.11)">
       <use xlink:href="#DejaVuSerif-30"/>
       <use xlink:href="#DejaVuSerif-2e" transform="translate(63.623047 0)"/>
       <use xlink:href="#DejaVuSerif-36" transform="translate(95.410156 0)"/>
      </g>
     </g>
    </g>
    <g id="ytick_5">
     <g id="line2d_13">
      <path d="M 49.807187 126.084834 
L 486.476104 126.084834 
" clip-path="url(#p956dc9c829)" style="fill: none; stroke-dasharray: 3.7,1.6; stroke-dashoffset: 0; stroke: #dddddd; stroke-opacity: 0.3"/>
     </g>
     <g id="text_14">
      <!-- 0.8 -->
      <g style="fill: #262626" transform="translate(22.81375 130.263974) scale(0.11 -0.11)">
       <use xlink:href="#DejaVuSerif-30"/>
       <use xlink:href="#DejaVuSerif-2e" transform="translate(63.623047 0)"/>
       <use xlink:href="#DejaVuSerif-38" transform="translate(95.410156 0)"/>
      </g>
     </g>
    </g>
    <g id="ytick_6">
     <g id="line2d_14">
      <path d="M 49.807187 65.939359 
L 486.476104 65.939359 
" clip-path="url(#p956dc9c829)" style="fill: none; stroke-dasharray: 3.7,1.6; stroke-dashoffset: 0; stroke: #dddddd; stroke-opacity: 0.3"/>
     </g>
     <g id="text_15">
      <!-- 1.0 -->
      <g style="fill: #262626" transform="translate(22.81375 70.1185) scale(0.11 -0.11)">
       <use xlink:href="#DejaVuSerif-31"/>
       <use xlink:href="#DejaVuSerif-2e" transform="translate(63.623047 0)"/>
       <use xlink:href="#DejaVuSerif-30" transform="translate(95.410156 0)"/>
      </g>
     </g>
    </g>
    <g id="text_16">
     <!-- P(X ≤ x) -->
     <g style="fill: #262626" transform="translate(16.318125 241.852187) rotate(-90) scale(0.12 -0.12)">
      <defs>
       <path id="DejaVuSerif-58" d="M 2119 1997 
L 978 331 
L 1581 331 
L 1581 0 
L 38 0 
L 38 331 
L 575 331 
L 1919 2291 
L 556 4331 
L 56 4331 
L 56 4666 
L 1906 4666 
L 1906 4331 
L 1356 4331 
L 2356 2828 
L 3384 4331 
L 2784 4331 
L 2784 4666 
L 4313 4666 
L 4313 4331 
L 3788 4331 
L 2553 2534 
L 4025 331 
L 4525 331 
L 4525 0 
L 2675 0 
L 2675 331 
L 3231 331 
L 2119 1997 
z
" transform="scale(0.015625)"/>
       <path id="DejaVuSerif-2264" d="M 4684 3206 
L 1388 2309 
L 4684 1416 
L 4684 897 
L 678 2047 
L 678 2578 
L 4684 3725 
L 4684 3206 
z
M 678 488 
L 4684 488 
L 4684 0 
L 678 0 
L 678 488 
z
" transform="scale(0.015625)"/>
       <path id="DejaVuSerif-78" d="M 1863 2028 
L 2559 2988 
L 2113 2988 
L 2113 3322 
L 3391 3322 
L 3391 2988 
L 2950 2988 
L 2059 1759 
L 3097 331 
L 3531 331 
L 3531 0 
L 1997 0 
L 1997 331 
L 2419 331 
L 1697 1325 
L 972 331 
L 1403 331 
L 1403 0 
L 141 0 
L 141 331 
L 581 331 
L 1497 1594 
L 488 2988 
L 78 2988 
L 78 3322 
L 1563 3322 
L 1563 2988 
L 1166 2988 
L 1863 2028 
z
" transform="scale(0.015625)"/>
      </defs>
      <use xlink:href="#DejaVuSerif-50"/>
      <use xlink:href="#DejaVuSerif-28" transform="translate(67.285156 0)"/>
      <use xlink:href="#DejaVuSerif-58" transform="translate(106.298828 0)"/>
      <use xlink:href="#DejaVuSerif-20" transform="translate(177.490234 0)"/>
      <use xlink:href="#DejaVuSerif-2264" transform="translate(209.277344 0)"/>
      <use xlink:href="#DejaVuSerif-20" transform="translate(293.066406 0)"/>
      <use xlink:href="#DejaVuSerif-78" transform="translate(324.853516 0)"/>
      <use xlink:href="#DejaVuSerif-29" transform="translate(381.25 0)"/>
     </g>
    </g>
   </g>
   <g id="line2d_15">
    <path d="M 69.655775 366.666733 
L 69.655775 365.99845 
L 70.922251 365.330167 
L 70.922251 364.661884 
L 73.877363 363.993601 
L 73.877363 363.325318 
L 74.158802 362.657035 
L 74.158802 361.988752 
L 75.847438 361.320469 
L 75.847438 360.652185 
L 77.113914 359.983902 
L 77.113914 359.315619 
L 78.380391 358.647336 
L 78.380391 357.979053 
L 78.80255 357.31077 
L 78.80255 356.642487 
L 79.224709 355.974204 
L 79.224709 355.305921 
L 80.631905 354.637638 
L 80.631905 353.969355 
L 81.898382 353.301072 
L 81.898382 352.632789 
L 82.883419 351.964506 
L 82.883419 351.296223 
L 83.305578 350.62794 
L 83.305578 349.959657 
L 83.869587 349.291374 
L 83.869588 348.623091 
L 84.009176 347.954807 
L 84.009176 347.286524 
L 84.290615 346.618241 
L 84.290615 345.949958 
L 84.853494 345.281675 
L 84.853494 344.613392 
L 84.994213 343.945109 
L 84.994213 343.276826 
L 86.26069 342.608543 
L 86.26069 341.94026 
L 86.542129 341.271977 
L 86.542129 340.603694 
L 86.68398 339.935411 
L 86.68398 339.267128 
L 87.246858 338.598845 
L 87.246858 337.930562 
L 87.527166 337.262279 
L 87.527166 336.593996 
L 87.808606 335.925713 
L 87.81048 333.920863 
L 88.751427 333.25258 
L 88.751427 332.584297 
L 89.217676 331.916014 
L 89.217676 331.247731 
L 89.358218 330.579448 
L 89.358218 329.911165 
L 89.637961 329.242882 
L 89.637961 328.574599 
L 90.060119 327.906316 
L 90.102335 325.901467 
L 90.482278 325.233184 
L 90.484152 321.891768 
L 91.509531 321.223485 
L 91.609909 317.88207 
L 91.889474 315.877221 
L 91.987978 314.540655 
L 92.114626 313.872372 
L 92.452353 313.204089 
L 92.64936 312.535806 
L 92.733792 310.530956 
L 93.352959 296.497012 
L 93.943981 293.82388 
L 94.281708 293.155597 
L 94.281708 292.487314 
L 94.732011 291.819031 
L 94.98718 291.150748 
L 95.097882 288.477616 
L 95.182314 287.809333 
L 95.632616 287.14105 
L 95.690778 285.1362 
L 95.690778 284.467917 
L 95.829624 283.799634 
L 95.887043 282.463068 
L 96.112937 281.794785 
L 96.112937 279.789936 
L 96.251783 279.121653 
L 96.251783 278.45337 
L 96.590641 277.785087 
L 96.675815 276.448521 
L 96.816535 275.780238 
L 97.266838 275.111955 
L 97.51939 274.443672 
L 97.941549 273.775389 
L 97.941549 272.438822 
L 98.871042 271.102256 
L 99.039905 270.433973 
L 99.462064 269.76569 
L 100.22195 269.097407 
L 100.475245 268.429124 
L 100.475245 267.760841 
L 100.699654 267.092558 
L 101.291419 266.424275 
L 101.712835 265.755992 
L 101.881699 265.087709 
L 101.937987 263.08286 
L 103.599221 262.414577 
L 103.711797 261.746294 
L 104.556114 261.078011 
L 104.837554 260.409727 
L 104.837554 258.404878 
L 105.258969 257.736595 
L 105.25897 257.068312 
L 105.539278 256.400029 
L 105.539278 255.731746 
L 105.681871 255.063463 
L 105.681871 253.058614 
L 106.160318 252.390331 
L 106.469901 251.722048 
L 106.469901 251.053765 
L 106.946474 250.385482 
L 106.946474 249.717199 
L 107.144612 249.048916 
L 109.199861 248.380633 
L 109.199862 247.712349 
L 109.760866 247.044066 
L 109.760866 246.375783 
L 111.535807 245.7075 
L 111.676527 245.039217 
L 112.997417 244.370934 
L 113.982455 241.697802 
L 113.982455 241.029519 
L 114.125048 240.361236 
L 114.125048 238.356387 
L 114.462775 237.688104 
L 115.250805 237.019821 
L 115.250805 235.014971 
L 118.768053 234.346688 
L 118.768053 233.678405 
L 119.894553 233.010122 
L 119.894553 231.005273 
L 120.061542 230.33699 
L 121.018436 229.000424 
L 121.018436 226.995575 
L 122.708945 226.327292 
L 122.708945 225.659009 
L 123.271081 224.990726 
L 123.271081 224.322443 
L 126.64722 223.65416 
L 126.64722 222.985877 
L 126.872372 221.64931 
L 128.225154 218.307895 
L 128.647313 217.639612 
L 128.675457 216.971329 
L 129.041328 215.634763 
L 129.041328 213.629914 
L 129.182048 212.961631 
L 129.461613 212.293348 
L 129.461613 211.625065 
L 129.57532 210.956782 
L 132.276005 210.288498 
L 132.276005 208.283649 
L 132.840015 207.615366 
L 132.840015 206.947083 
L 133.767633 206.2788 
L 137.343785 205.610517 
L 137.343786 204.942234 
L 138.4688 204.273951 
L 139.609371 202.937385 
L 139.609371 200.932536 
L 140.157435 200.264253 
L 140.157435 199.59597 
L 140.719182 198.927687 
L 140.719182 198.259404 
L 140.847704 197.59112 
L 140.847704 195.586271 
L 141.000622 194.917988 
L 141.507212 194.249705 
L 141.844939 193.581422 
L 143.436945 192.244856 
L 143.676168 188.235158 
L 144.239047 187.566875 
L 146.687568 186.898592 
L 146.91272 184.893742 
L 147.616318 184.225459 
L 147.616318 182.22061 
L 148.516923 180.884044 
L 150.823982 180.215761 
L 151.415747 179.547478 
L 151.415748 177.542629 
L 151.976752 176.874346 
L 151.976752 176.206063 
L 153.245102 175.53778 
L 153.245103 173.532931 
L 154.370859 172.864648 
L 154.370859 170.859798 
L 154.791144 170.191515 
L 154.791144 169.523232 
L 155.496616 168.854949 
L 155.496616 166.8501 
L 155.637336 166.181817 
L 155.637336 165.513534 
L 155.778055 164.845251 
L 155.778055 162.840402 
L 155.918775 162.172119 
L 155.918775 160.16727 
L 158.873887 159.498986 
L 158.873887 157.494137 
L 159.141254 156.825854 
L 159.197542 154.152722 
L 160.154436 153.484439 
L 160.590666 152.147873 
L 160.787674 150.811307 
L 160.815818 150.143024 
L 161.181689 149.474741 
L 161.266121 148.138175 
L 161.828999 147.469891 
L 161.855269 146.801608 
L 162.19487 146.133325 
L 162.223014 145.465042 
L 162.757749 143.460193 
L 163.742786 141.455344 
L 163.742786 140.787061 
L 164.924831 140.118778 
L 164.924831 138.113929 
L 167.176345 137.445646 
L 168.639829 136.10908 
L 168.893124 135.440797 
L 169.427858 134.772513 
L 169.427859 134.10423 
L 169.707424 133.435947 
L 171.284615 132.767664 
L 171.67863 132.099381 
L 171.67863 131.431098 
L 174.491891 130.762815 
L 174.491891 130.094532 
L 179.953686 129.426249 
L 180.120676 128.757966 
L 180.120676 128.089683 
L 183.132076 127.4214 
L 187.158531 126.753117 
L 187.158531 124.748268 
L 187.721409 124.079985 
L 187.721409 122.075135 
L 197.401045 121.406852 
L 200.836477 120.738569 
L 201.061629 120.070286 
L 204.044142 119.402003 
L 204.044142 118.73372 
L 205.958672 118.065437 
L 206.831134 117.397154 
L 210.236548 116.728871 
L 211.080866 116.060588 
L 211.13528 114.724022 
L 213.893384 114.055739 
L 213.893384 113.387456 
L 215.302454 112.719173 
L 215.302454 110.714324 
L 215.583151 110.046041 
L 215.583151 109.377757 
L 222.366579 108.709474 
L 223.998184 107.372908 
L 226.559281 106.704625 
L 226.559281 106.036342 
L 235.537193 105.368059 
L 236.691094 104.699776 
L 236.691094 104.031493 
L 237.31026 103.36321 
L 263.850723 102.026644 
L 263.991443 101.358361 
L 264.554321 100.690078 
L 264.554321 98.685229 
L 264.666897 98.016946 
L 265.145343 97.348662 
L 267.931592 96.680379 
L 267.931592 94.67553 
L 270.182929 94.007247 
L 270.182929 93.338964 
L 284.255068 92.670681 
L 284.255068 90.665832 
L 285.831128 89.997549 
L 286.394006 89.329266 
L 288.195217 88.660983 
L 288.195217 87.9927 
L 290.165115 87.324417 
L 294.104698 86.656134 
L 294.104698 85.987851 
L 295.512637 85.319568 
L 295.512637 83.314718 
L 297.228674 82.646435 
L 298.326853 81.978152 
L 298.326853 81.309869 
L 307.023325 80.641586 
L 307.642669 79.30502 
L 310.006758 78.636737 
L 316.338964 77.968454 
L 316.338964 77.300171 
L 330.43907 76.631888 
L 339.923006 75.963605 
L 342.512247 75.295322 
L 342.512247 74.627039 
L 396.830586 73.958756 
L 396.830586 73.290473 
L 399.082277 72.62219 
L 399.082277 70.61734 
L 400.038993 69.949057 
L 421.681848 69.280774 
L 421.76628 68.612491 
L 464.150852 67.944208 
L 466.627517 67.275925 
L 466.627517 66.607642 
L 466.627517 66.607642 
" clip-path="url(#p956dc9c829)" style="fill: none; stroke: #1f77b4; stroke-width: 2.5; stroke-linecap: round"/>
   </g>
   <g id="line2d_16">
    <path d="M 69.655775 366.666733 
L 69.655775 365.99845 
L 70.922251 365.330167 
L 70.922251 364.661884 
L 73.877363 363.993601 
L 73.877363 363.325318 
L 74.158802 362.657035 
L 74.158802 361.988752 
L 75.847438 361.320469 
L 75.847438 360.652185 
L 77.113914 359.983902 
L 77.113914 359.315619 
L 78.380391 358.647336 
L 78.380391 357.979053 
L 78.80255 357.31077 
L 78.80255 356.642487 
L 79.224709 355.974204 
L 79.224709 355.305921 
L 80.631905 354.637638 
L 80.631905 353.969355 
L 81.898382 353.301072 
L 81.898382 352.632789 
L 82.883419 351.964506 
L 82.883419 351.296223 
L 83.305578 350.62794 
L 83.305578 349.959657 
L 83.869587 349.291374 
L 83.869588 348.623091 
L 84.009176 347.954807 
L 84.009176 347.286524 
L 84.290615 346.618241 
L 84.290615 345.949958 
L 84.853494 345.281675 
L 84.853494 344.613392 
L 84.994213 343.945109 
L 84.994213 343.276826 
L 86.26069 342.608543 
L 86.26069 341.94026 
L 86.542129 341.271977 
L 86.542129 340.603694 
L 86.68398 339.935411 
L 86.68398 339.267128 
L 87.246858 338.598845 
L 87.246858 337.930562 
L 87.527166 337.262279 
L 87.527166 336.593996 
L 87.808606 335.925713 
L 87.808606 335.257429 
L 88.751427 334.589146 
L 88.751427 333.920863 
L 89.358218 333.25258 
L 89.358218 332.584297 
L 89.637961 331.916014 
L 89.637961 331.247731 
L 90.060119 330.579448 
L 90.102335 328.574599 
L 90.482278 327.906316 
L 90.482278 327.238033 
L 91.18927 326.56975 
L 91.18927 325.901467 
L 91.509531 325.233184 
L 91.509531 324.564901 
L 91.847259 323.228334 
L 91.973906 319.886919 
L 92.311633 319.218636 
L 92.508641 317.213787 
L 92.677504 316.545504 
L 92.818224 315.208938 
L 92.902656 313.204089 
L 92.9308 311.19924 
L 93.071519 309.862673 
L 93.352959 305.184692 
L 93.690686 304.516409 
L 93.831405 303.179843 
L 93.862943 299.838428 
L 94.084701 298.501862 
L 94.281708 296.497012 
L 94.675723 295.828729 
L 95.688904 293.155597 
L 95.688904 292.487314 
L 95.829624 291.819031 
L 95.829624 291.150748 
L 95.973737 290.482465 
L 95.973737 289.814182 
L 96.251783 289.145899 
L 96.251783 288.477616 
L 96.787648 287.809333 
L 97.631966 287.14105 
L 97.857118 286.472767 
L 97.941549 285.1362 
L 97.997837 284.467917 
L 98.307986 283.799634 
L 98.365971 282.463068 
L 98.365971 281.126502 
L 99.491728 280.458219 
L 99.491728 278.45337 
L 100.277495 275.111955 
L 101.51809 273.775389 
L 101.881699 273.107105 
L 101.937987 271.102256 
L 102.44684 269.76569 
L 102.44684 269.097407 
L 105.120512 268.429124 
L 105.120512 266.424275 
L 105.258969 265.755992 
L 105.25897 265.087709 
L 105.539278 264.419426 
L 105.539278 263.751143 
L 106.471421 263.08286 
L 106.865436 262.414577 
L 106.946474 260.409727 
L 107.231307 259.741444 
L 107.25945 258.404878 
L 107.372026 257.736595 
L 109.760866 257.068312 
L 109.760866 256.400029 
L 110.158275 255.731746 
L 110.833729 255.063463 
L 112.437932 254.39518 
L 112.437932 252.390331 
L 112.715978 251.722048 
L 112.828554 251.053765 
L 113.166281 250.385482 
L 113.250713 249.717199 
L 113.982455 249.048916 
L 113.982455 248.380633 
L 118.768053 247.712349 
L 118.768053 247.044066 
L 119.586489 246.375783 
L 119.639383 245.7075 
L 119.980504 245.039217 
L 119.980504 244.370934 
L 121.018436 243.034368 
L 121.018436 241.029519 
L 122.710465 240.361236 
L 122.710465 239.692953 
L 123.271081 239.02467 
L 123.271081 238.356387 
L 125.947016 237.688104 
L 125.947016 237.019821 
L 126.64722 236.351538 
L 126.64722 235.683255 
L 127.295662 235.014971 
L 127.519682 234.346688 
L 127.57597 233.678405 
L 128.282962 233.010122 
L 129.461613 232.341839 
L 129.461613 231.673556 
L 129.913047 231.005273 
L 132.276005 230.33699 
L 132.276005 228.332141 
L 132.840015 227.663858 
L 132.840015 226.995575 
L 134.443087 226.327292 
L 138.131072 225.659009 
L 138.611782 224.990726 
L 138.611782 222.985877 
L 140.129291 222.317593 
L 140.157435 220.981027 
L 140.719182 220.312744 
L 140.719182 219.644461 
L 140.831758 218.976178 
L 141.535356 217.639612 
L 147.899277 216.971329 
L 147.899277 214.96648 
L 148.064746 214.298197 
L 149.025034 213.629914 
L 149.025034 211.625065 
L 151.246141 210.956782 
L 151.976752 210.288498 
L 151.976752 209.620215 
L 153.668781 208.951932 
L 153.668781 206.947083 
L 154.791144 206.2788 
L 154.791144 205.610517 
L 160.592186 204.942234 
L 161.239497 204.273951 
L 161.577224 202.937385 
L 162.027527 202.269102 
L 162.333716 200.264253 
L 162.674837 199.59597 
L 162.674837 197.59112 
L 162.787413 196.922837 
L 164.92635 196.254554 
L 164.926351 194.249705 
L 168.585061 193.581422 
L 168.922788 192.913139 
L 169.03197 192.244856 
L 171.67863 190.90829 
L 171.67863 190.240007 
L 172.806649 189.571724 
L 172.806649 188.903441 
L 173.369528 188.235158 
L 173.369528 187.566875 
L 174.491891 186.898592 
L 174.491891 186.230309 
L 179.70191 185.562026 
L 179.70191 183.557176 
L 180.120676 182.888893 
L 180.120676 182.22061 
L 182.178576 181.552327 
L 182.20672 180.884044 
L 182.991356 180.215761 
L 183.219901 179.547478 
L 188.004368 178.879195 
L 188.004368 178.210912 
L 190.269954 177.542629 
L 190.269954 175.53778 
L 191.1002 174.869497 
L 191.1002 172.864648 
L 191.508287 172.196364 
L 191.508287 170.191515 
L 193.506505 169.523232 
L 194.266391 168.854949 
L 194.322679 168.186666 
L 194.491543 167.518383 
L 194.815198 166.8501 
L 196.616409 166.181817 
L 196.672697 165.513534 
L 198.248756 164.176968 
L 204.044142 163.508685 
L 204.044142 162.840402 
L 204.918867 162.172119 
L 205.059586 161.503836 
L 211.223105 160.835553 
L 211.275999 158.16242 
L 213.893384 157.494137 
L 213.893384 156.825854 
L 214.459656 156.157571 
L 214.459657 155.489288 
L 215.163255 154.821005 
L 215.163255 152.816156 
L 215.583151 152.147873 
L 215.583151 151.47959 
L 220.792039 150.811307 
L 220.79204 148.806458 
L 221.917796 148.138175 
L 221.917796 146.133325 
L 223.043553 145.465042 
L 223.043553 143.460193 
L 223.184273 142.79191 
L 223.184273 142.123627 
L 223.324992 141.455344 
L 223.324992 139.450495 
L 223.913752 138.782212 
L 226.420824 138.113929 
L 226.420824 136.10908 
L 226.559281 135.440797 
L 226.559281 134.772513 
L 226.688191 134.10423 
L 226.688192 132.099381 
L 227.363645 131.431098 
L 227.448077 130.762815 
L 228.278323 130.094532 
L 228.362755 129.426249 
L 228.869345 128.757966 
L 228.897489 128.089683 
L 229.066353 126.753117 
L 229.207073 124.079985 
L 229.516656 123.411702 
L 229.5448 122.743419 
L 230.360974 122.075135 
L 230.642413 121.406852 
L 231.543018 120.070286 
L 232.471768 119.402003 
L 232.471768 117.397154 
L 234.779569 116.728871 
L 235.480905 116.060588 
L 235.764607 115.392305 
L 236.691094 114.724022 
L 236.691094 114.055739 
L 237.479124 113.387456 
L 237.819113 112.719173 
L 237.819113 110.714324 
L 244.517367 110.046041 
L 244.855094 109.377757 
L 244.855094 108.709474 
L 256.365959 107.372908 
L 256.985126 106.704625 
L 267.145082 106.036342 
L 267.145082 105.368059 
L 270.182929 104.699776 
L 270.182929 104.031493 
L 271.310383 103.36321 
L 271.310383 101.358361 
L 282.849391 100.690078 
L 282.849391 98.685229 
L 290.420107 98.016946 
L 290.530986 97.348662 
L 290.926698 96.680379 
L 294.104698 96.012096 
L 294.104698 95.343813 
L 294.951279 94.67553 
L 294.951279 94.007247 
L 297.228674 93.338964 
L 298.326853 92.670681 
L 298.326853 92.002398 
L 316.338964 90.665832 
L 316.338964 89.997549 
L 317.072403 89.329266 
L 330.579789 88.660983 
L 332.101258 87.9927 
L 332.101258 85.987851 
L 332.607849 85.319568 
L 332.833 84.651284 
L 339.838575 83.983001 
L 342.512247 83.314718 
L 342.512247 82.646435 
L 351.802005 81.978152 
L 351.802005 79.973303 
L 353.800223 79.30502 
L 354.053519 78.636737 
L 363.059574 77.968454 
L 363.059574 75.963605 
L 375.020742 75.295322 
L 375.105174 74.627039 
L 396.830586 73.958756 
L 396.830586 73.290473 
L 399.72941 72.62219 
L 412.59288 71.953906 
L 412.59288 69.949057 
L 435.586466 69.280774 
L 435.783474 68.612491 
L 463.925701 67.944208 
L 466.627517 67.275925 
L 466.627517 66.607642 
L 466.627517 66.607642 
" clip-path="url(#p956dc9c829)" style="fill: none; stroke: #d62728; stroke-width: 2.5; stroke-linecap: round"/>
   </g>
   <g id="patch_3">
    <path d="M 49.807187 381.669687 
L 49.807187 51.604687 
" style="fill: none; stroke: #000000; stroke-width: 1.5; stroke-linejoin: miter; stroke-linecap: square"/>
   </g>
   <g id="patch_4">
    <path d="M 486.476104 381.669687 
L 486.476104 51.604687 
" style="fill: none; stroke: #000000; stroke-width: 1.5; stroke-linejoin: miter; stroke-linecap: square"/>
   </g>
   <g id="patch_5">
    <path d="M 49.807187 381.669687 
L 486.476104 381.669687 
" style="fill: none; stroke: #000000; stroke-width: 1.5; stroke-linejoin: miter; stroke-linecap: square"/>
   </g>
   <g id="patch_6">
    <path d="M 49.807187 51.604687 
L 486.476104 51.604687 
" style="fill: none; stroke: #000000; stroke-width: 1.5; stroke-linejoin: miter; stroke-linecap: square"/>
   </g>
   <g id="text_17">
    <!-- CDF — Total Packet Delay -->
    <g style="fill: #262626" transform="translate(188.735396 45.604687) scale(0.11 -0.11)">
     <defs>
      <path id="DejaVuSerif-Bold-43" d="M 4769 1331 
Q 4584 609 4106 259 
Q 3628 -91 2822 -91 
Q 1641 -91 955 561 
Q 269 1213 269 2328 
Q 269 3447 955 4098 
Q 1641 4750 2822 4750 
Q 3238 4750 3688 4650 
Q 4138 4550 4641 4347 
L 4641 3200 
L 4244 3200 
Q 4122 3788 3800 4080 
Q 3478 4372 2950 4372 
Q 2269 4372 1937 3870 
Q 1606 3369 1606 2328 
Q 1606 1288 1937 788 
Q 2269 288 2956 288 
Q 3422 288 3717 547 
Q 4013 806 4147 1331 
L 4769 1331 
z
" transform="scale(0.015625)"/>
      <path id="DejaVuSerif-Bold-44" d="M 2100 378 
L 2534 378 
Q 3266 378 3605 847 
Q 3944 1316 3944 2338 
Q 3944 3353 3606 3820 
Q 3269 4288 2534 4288 
L 2100 4288 
L 2100 378 
z
M 300 0 
L 300 378 
L 897 378 
L 897 4288 
L 300 4288 
L 300 4666 
L 2694 4666 
Q 3950 4666 4615 4066 
Q 5281 3466 5281 2338 
Q 5281 1203 4614 601 
Q 3947 0 2694 0 
L 300 0 
z
" transform="scale(0.015625)"/>
      <path id="DejaVuSerif-Bold-46" d="M 300 0 
L 300 378 
L 897 378 
L 897 4288 
L 300 4288 
L 300 4666 
L 4459 4666 
L 4459 3566 
L 4031 3566 
L 4031 4238 
L 2106 4238 
L 2106 2741 
L 3291 2741 
L 3291 3334 
L 3719 3334 
L 3719 1722 
L 3291 1722 
L 3291 2316 
L 2106 2316 
L 2106 378 
L 2841 378 
L 2841 0 
L 300 0 
z
" transform="scale(0.015625)"/>
      <path id="DejaVuSerif-Bold-20" transform="scale(0.015625)"/>
      <path id="DejaVuSerif-Bold-2014" d="M 344 2075 
L 6056 2075 
L 6056 1325 
L 344 1325 
L 344 2075 
z
" transform="scale(0.015625)"/>
      <path id="DejaVuSerif-Bold-54" d="M 1159 0 
L 1159 378 
L 1778 378 
L 1778 4238 
L 500 4238 
L 500 3500 
L 72 3500 
L 72 4666 
L 4697 4666 
L 4697 3500 
L 4275 3500 
L 4275 4238 
L 2988 4238 
L 2988 378 
L 3609 378 
L 3609 0 
L 1159 0 
z
" transform="scale(0.015625)"/>
      <path id="DejaVuSerif-Bold-6f" d="M 2138 263 
Q 2488 263 2630 563 
Q 2772 863 2772 1663 
Q 2772 2463 2631 2761 
Q 2491 3059 2138 3059 
Q 1784 3059 1640 2757 
Q 1497 2456 1497 1663 
Q 1497 869 1640 566 
Q 1784 263 2138 263 
z
M 2138 -91 
Q 1259 -91 761 376 
Q 263 844 263 1663 
Q 263 2484 761 2948 
Q 1259 3413 2138 3413 
Q 3019 3413 3516 2948 
Q 4013 2484 4013 1663 
Q 4013 844 3514 376 
Q 3016 -91 2138 -91 
z
" transform="scale(0.015625)"/>
      <path id="DejaVuSerif-Bold-74" d="M 634 2944 
L 153 2944 
L 153 3322 
L 634 3322 
L 634 4353 
L 1741 4353 
L 1741 3322 
L 2663 3322 
L 2663 2944 
L 1741 2944 
L 1741 909 
Q 1741 475 1809 369 
Q 1878 263 2059 263 
Q 2259 263 2356 397 
Q 2453 531 2459 813 
L 2925 813 
Q 2897 313 2651 111 
Q 2406 -91 1806 -91 
Q 1122 -91 878 123 
Q 634 338 634 909 
L 634 2944 
z
" transform="scale(0.015625)"/>
      <path id="DejaVuSerif-Bold-61" d="M 3525 2041 
L 3525 378 
L 4000 378 
L 4000 0 
L 2419 0 
L 2419 422 
Q 2200 159 1931 34 
Q 1663 -91 1319 -91 
Q 809 -91 536 182 
Q 263 456 263 966 
Q 263 1525 655 1803 
Q 1047 2081 1838 2081 
L 2419 2081 
L 2419 2278 
Q 2419 2681 2228 2873 
Q 2038 3066 1638 3066 
Q 1306 3066 1126 2930 
Q 947 2794 872 2484 
L 519 2484 
L 519 3200 
Q 816 3306 1134 3359 
Q 1453 3413 1806 3413 
Q 2697 3413 3111 3081 
Q 3525 2750 3525 2041 
z
M 2419 1044 
L 2419 1709 
L 2003 1709 
Q 1694 1709 1528 1540 
Q 1363 1372 1363 1056 
Q 1363 741 1483 584 
Q 1603 428 1850 428 
Q 2106 428 2262 597 
Q 2419 766 2419 1044 
z
" transform="scale(0.015625)"/>
      <path id="DejaVuSerif-Bold-6c" d="M 1797 378 
L 2272 378 
L 2272 0 
L 219 0 
L 219 378 
L 691 378 
L 691 4488 
L 219 4488 
L 219 4863 
L 1797 4863 
L 1797 378 
z
" transform="scale(0.015625)"/>
      <path id="DejaVuSerif-Bold-50" d="M 300 0 
L 300 378 
L 897 378 
L 897 4288 
L 300 4288 
L 300 4666 
L 2956 4666 
Q 3734 4666 4193 4295 
Q 4653 3925 4653 3303 
Q 4653 2678 4192 2304 
Q 3731 1931 2956 1931 
L 2100 1931 
L 2100 378 
L 2853 378 
L 2853 0 
L 300 0 
z
M 2100 2309 
L 2450 2309 
Q 2856 2309 3098 2579 
Q 3341 2850 3341 3303 
Q 3341 3753 3100 4020 
Q 2859 4288 2450 4288 
L 2100 4288 
L 2100 2309 
z
" transform="scale(0.015625)"/>
      <path id="DejaVuSerif-Bold-63" d="M 3609 1038 
Q 3491 469 3123 189 
Q 2756 -91 2125 -91 
Q 1238 -91 750 368 
Q 263 828 263 1663 
Q 263 2488 744 2950 
Q 1225 3413 2081 3413 
Q 2428 3413 2781 3347 
Q 3134 3281 3500 3150 
L 3500 2228 
L 3150 2228 
Q 3100 2650 2903 2854 
Q 2706 3059 2350 3059 
Q 1888 3059 1692 2746 
Q 1497 2434 1497 1663 
Q 1497 909 1687 586 
Q 1878 263 2309 263 
Q 2644 263 2845 463 
Q 3047 663 3091 1038 
L 3609 1038 
z
" transform="scale(0.015625)"/>
      <path id="DejaVuSerif-Bold-6b" d="M 2216 0 
L 219 0 
L 219 378 
L 691 378 
L 691 4488 
L 219 4488 
L 219 4863 
L 1797 4863 
L 1797 1741 
L 3138 2944 
L 2741 2944 
L 2741 3322 
L 4256 3322 
L 4256 2944 
L 3641 2944 
L 2784 2175 
L 4184 378 
L 4544 378 
L 4544 0 
L 2638 0 
L 2638 378 
L 3028 378 
L 2106 1563 
L 1797 1288 
L 1797 378 
L 2216 378 
L 2216 0 
z
" transform="scale(0.015625)"/>
      <path id="DejaVuSerif-Bold-65" d="M 2566 1875 
Q 2566 2531 2444 2795 
Q 2322 3059 2028 3059 
Q 1744 3059 1620 2800 
Q 1497 2541 1497 1931 
L 1497 1875 
L 2566 1875 
z
M 3781 1503 
L 1497 1503 
L 1497 1478 
Q 1497 834 1690 548 
Q 1884 263 2316 263 
Q 2675 263 2897 453 
Q 3119 644 3181 1006 
L 3700 1006 
Q 3566 441 3166 175 
Q 2766 -91 2047 -91 
Q 1184 -91 723 364 
Q 263 819 263 1663 
Q 263 2488 734 2950 
Q 1206 3413 2047 3413 
Q 2872 3413 3312 2927 
Q 3753 2441 3781 1503 
z
" transform="scale(0.015625)"/>
      <path id="DejaVuSerif-Bold-79" d="M 1997 -750 
Q 1847 -1116 1634 -1269 
Q 1422 -1422 1063 -1422 
Q 909 -1422 721 -1387 
Q 534 -1353 313 -1288 
L 313 -594 
L 666 -597 
Q 675 -838 779 -953 
Q 884 -1069 1094 -1069 
Q 1297 -1069 1422 -958 
Q 1547 -847 1672 -538 
L 1722 -422 
L 275 2944 
L -84 2944 
L -84 3322 
L 1831 3322 
L 1831 2944 
L 1434 2944 
L 2278 978 
L 3066 2944 
L 2625 2944 
L 2625 3322 
L 3872 3322 
L 3872 2944 
L 3469 2944 
L 1997 -750 
z
" transform="scale(0.015625)"/>
     </defs>
     <use xlink:href="#DejaVuSerif-Bold-43"/>
     <use xlink:href="#DejaVuSerif-Bold-44" transform="translate(79.589844 0)"/>
     <use xlink:href="#DejaVuSerif-Bold-46" transform="translate(166.308594 0)"/>
     <use xlink:href="#DejaVuSerif-Bold-20" transform="translate(237.304688 0)"/>
     <use xlink:href="#DejaVuSerif-Bold-2014" transform="translate(272.119141 0)"/>
     <use xlink:href="#DejaVuSerif-Bold-20" transform="translate(372.119141 0)"/>
     <use xlink:href="#DejaVuSerif-Bold-54" transform="translate(406.933594 0)"/>
     <use xlink:href="#DejaVuSerif-Bold-6f" transform="translate(469.847656 0)"/>
     <use xlink:href="#DejaVuSerif-Bold-74" transform="translate(536.546875 0)"/>
     <use xlink:href="#DejaVuSerif-Bold-61" transform="translate(582.738281 0)"/>
     <use xlink:href="#DejaVuSerif-Bold-6c" transform="translate(647.533203 0)"/>
     <use xlink:href="#DejaVuSerif-Bold-20" transform="translate(685.521484 0)"/>
     <use xlink:href="#DejaVuSerif-Bold-50" transform="translate(720.335938 0)"/>
     <use xlink:href="#DejaVuSerif-Bold-61" transform="translate(792.90625 0)"/>
     <use xlink:href="#DejaVuSerif-Bold-63" transform="translate(857.701172 0)"/>
     <use xlink:href="#DejaVuSerif-Bold-6b" transform="translate(918.589844 0)"/>
     <use xlink:href="#DejaVuSerif-Bold-65" transform="translate(987.876953 0)"/>
     <use xlink:href="#DejaVuSerif-Bold-74" transform="translate(1051.5 0)"/>
     <use xlink:href="#DejaVuSerif-Bold-20" transform="translate(1097.691406 0)"/>
     <use xlink:href="#DejaVuSerif-Bold-44" transform="translate(1132.505859 0)"/>
     <use xlink:href="#DejaVuSerif-Bold-65" transform="translate(1219.224609 0)"/>
     <use xlink:href="#DejaVuSerif-Bold-6c" transform="translate(1282.847656 0)"/>
     <use xlink:href="#DejaVuSerif-Bold-61" transform="translate(1320.835938 0)"/>
     <use xlink:href="#DejaVuSerif-Bold-79" transform="translate(1385.630859 0)"/>
    </g>
   </g>
   <g id="legend_1">
    <g id="patch_7">
     <path d="M 57.507188 92.696562 
L 119.181094 92.696562 
Q 121.381094 92.696562 121.381094 90.496562 
L 121.381094 59.304687 
Q 121.381094 57.104687 119.181094 57.104687 
L 57.507188 57.104687 
Q 55.307187 57.104687 55.307187 59.304687 
L 55.307187 90.496562 
Q 55.307187 92.696562 57.507188 92.696562 
z
" style="fill: #ffffff; opacity: 0.8; stroke: #cccccc; stroke-linejoin: miter"/>
    </g>
    <g id="line2d_17">
     <path d="M 59.707187 66.012969 
L 70.707188 66.012969 
L 81.707188 66.012969 
" style="fill: none; stroke: #1f77b4; stroke-width: 2.5; stroke-linecap: round"/>
    </g>
    <g id="text_18">
     <!-- BLA -->
     <g style="fill: #262626" transform="translate(90.507188 69.862969) scale(0.11 -0.11)">
      <defs>
       <path id="DejaVuSerif-42" d="M 1581 331 
L 2516 331 
Q 3078 331 3337 575 
Q 3597 819 3597 1350 
Q 3597 1878 3339 2120 
Q 3081 2363 2516 2363 
L 1581 2363 
L 1581 331 
z
M 1581 2694 
L 2375 2694 
Q 2888 2694 3123 2891 
Q 3359 3088 3359 3513 
Q 3359 3941 3123 4136 
Q 2888 4331 2375 4331 
L 1581 4331 
L 1581 2694 
z
M 353 0 
L 353 331 
L 947 331 
L 947 4331 
L 353 4331 
L 353 4666 
L 2656 4666 
Q 3363 4666 3720 4377 
Q 4078 4088 4078 3513 
Q 4078 3097 3829 2850 
Q 3581 2603 3103 2547 
Q 3697 2472 4005 2167 
Q 4313 1863 4313 1350 
Q 4313 656 3875 328 
Q 3438 0 2509 0 
L 353 0 
z
" transform="scale(0.015625)"/>
       <path id="DejaVuSerif-4c" d="M 353 0 
L 353 331 
L 947 331 
L 947 4331 
L 353 4331 
L 353 4666 
L 2175 4666 
L 2175 4331 
L 1581 4331 
L 1581 384 
L 3713 384 
L 3713 1166 
L 4097 1166 
L 4097 0 
L 353 0 
z
" transform="scale(0.015625)"/>
       <path id="DejaVuSerif-41" d="M 1281 1691 
L 2994 1691 
L 2138 3909 
L 1281 1691 
z
M -38 0 
L -38 331 
L 372 331 
L 2034 4666 
L 2559 4666 
L 4225 331 
L 4684 331 
L 4684 0 
L 2988 0 
L 2988 331 
L 3506 331 
L 3116 1356 
L 1153 1356 
L 763 331 
L 1275 331 
L 1275 0 
L -38 0 
z
" transform="scale(0.015625)"/>
      </defs>
      <use xlink:href="#DejaVuSerif-42"/>
      <use xlink:href="#DejaVuSerif-4c" transform="translate(73.486328 0)"/>
      <use xlink:href="#DejaVuSerif-41" transform="translate(139.892578 0)"/>
     </g>
    </g>
    <g id="line2d_18">
     <path d="M 59.707187 82.158906 
L 70.707188 82.158906 
L 81.707188 82.158906 
" style="fill: none; stroke: #d62728; stroke-width: 2.5; stroke-linecap: round"/>
    </g>
    <g id="text_19">
     <!-- First -->
     <g style="fill: #262626" transform="translate(90.507188 86.008906) scale(0.11 -0.11)">
      <defs>
       <path id="DejaVuSerif-46" d="M 353 0 
L 353 331 
L 947 331 
L 947 4331 
L 353 4331 
L 353 4666 
L 4172 4666 
L 4172 3628 
L 3788 3628 
L 3788 4281 
L 1581 4281 
L 1581 2719 
L 3175 2719 
L 3175 3303 
L 3559 3303 
L 3559 1753 
L 3175 1753 
L 3175 2338 
L 1581 2338 
L 1581 331 
L 2328 331 
L 2328 0 
L 353 0 
z
" transform="scale(0.015625)"/>
       <path id="DejaVuSerif-69" d="M 622 4353 
Q 622 4497 726 4603 
Q 831 4709 978 4709 
Q 1122 4709 1226 4603 
Q 1331 4497 1331 4353 
Q 1331 4206 1228 4103 
Q 1125 4000 978 4000 
Q 831 4000 726 4103 
Q 622 4206 622 4353 
z
M 1356 331 
L 1900 331 
L 1900 0 
L 231 0 
L 231 331 
L 781 331 
L 781 2988 
L 231 2988 
L 231 3322 
L 1356 3322 
L 1356 331 
z
" transform="scale(0.015625)"/>
       <path id="DejaVuSerif-72" d="M 3059 3328 
L 3059 2497 
L 2728 2497 
Q 2713 2744 2591 2866 
Q 2469 2988 2234 2988 
Q 1809 2988 1582 2694 
Q 1356 2400 1356 1850 
L 1356 331 
L 2022 331 
L 2022 0 
L 263 0 
L 263 331 
L 781 331 
L 781 2994 
L 231 2994 
L 231 3322 
L 1356 3322 
L 1356 2731 
Q 1525 3078 1790 3245 
Q 2056 3413 2438 3413 
Q 2578 3413 2733 3391 
Q 2888 3369 3059 3328 
z
" transform="scale(0.015625)"/>
      </defs>
      <use xlink:href="#DejaVuSerif-46"/>
      <use xlink:href="#DejaVuSerif-69" transform="translate(69.384766 0)"/>
      <use xlink:href="#DejaVuSerif-72" transform="translate(101.367188 0)"/>
      <use xlink:href="#DejaVuSerif-73" transform="translate(149.169922 0)"/>
      <use xlink:href="#DejaVuSerif-74" transform="translate(200.488281 0)"/>
     </g>
    </g>
   </g>
  </g>
  <g id="axes_2">
   <g id="patch_8">
    <path d="M 542.043292 381.669687 
L 978.712209 381.669687 
L 978.712209 51.604687 
L 542.043292 51.604687 
z
" style="fill: #ffffff"/>
   </g>
   <g id="matplotlib.axis_3">
    <g id="xtick_9">
     <g id="line2d_19">
      <path d="M 559.849852 381.669687 
L 559.849852 51.604687 
" clip-path="url(#p44fe240109)" style="fill: none; stroke-dasharray: 3.7,1.6; stroke-dashoffset: 0; stroke: #dddddd; stroke-opacity: 0.3"/>
     </g>
     <g id="text_20">
      <!-- 0 -->
      <g style="fill: #262626" transform="translate(556.350477 399.527969) scale(0.11 -0.11)">
       <use xlink:href="#DejaVuSerif-30"/>
      </g>
     </g>
    </g>
    <g id="xtick_10">
     <g id="line2d_20">
      <path d="M 641.530943 381.669687 
L 641.530943 51.604687 
" clip-path="url(#p44fe240109)" style="fill: none; stroke-dasharray: 3.7,1.6; stroke-dashoffset: 0; stroke: #dddddd; stroke-opacity: 0.3"/>
     </g>
     <g id="text_21">
      <!-- 20000 -->
      <g style="fill: #262626" transform="translate(624.034068 399.527969) scale(0.11 -0.11)">
       <use xlink:href="#DejaVuSerif-32"/>
       <use xlink:href="#DejaVuSerif-30" transform="translate(63.623047 0)"/>
       <use xlink:href="#DejaVuSerif-30" transform="translate(127.246094 0)"/>
       <use xlink:href="#DejaVuSerif-30" transform="translate(190.869141 0)"/>
       <use xlink:href="#DejaVuSerif-30" transform="translate(254.492188 0)"/>
      </g>
     </g>
    </g>
    <g id="xtick_11">
     <g id="line2d_21">
      <path d="M 723.212033 381.669687 
L 723.212033 51.604687 
" clip-path="url(#p44fe240109)" style="fill: none; stroke-dasharray: 3.7,1.6; stroke-dashoffset: 0; stroke: #dddddd; stroke-opacity: 0.3"/>
     </g>
     <g id="text_22">
      <!-- 40000 -->
      <g style="fill: #262626" transform="translate(705.715158 399.527969) scale(0.11 -0.11)">
       <use xlink:href="#DejaVuSerif-34"/>
       <use xlink:href="#DejaVuSerif-30" transform="translate(63.623047 0)"/>
       <use xlink:href="#DejaVuSerif-30" transform="translate(127.246094 0)"/>
       <use xlink:href="#DejaVuSerif-30" transform="translate(190.869141 0)"/>
       <use xlink:href="#DejaVuSerif-30" transform="translate(254.492188 0)"/>
      </g>
     </g>
    </g>
    <g id="xtick_12">
     <g id="line2d_22">
      <path d="M 804.893124 381.669687 
L 804.893124 51.604687 
" clip-path="url(#p44fe240109)" style="fill: none; stroke-dasharray: 3.7,1.6; stroke-dashoffset: 0; stroke: #dddddd; stroke-opacity: 0.3"/>
     </g>
     <g id="text_23">
      <!-- 60000 -->
      <g style="fill: #262626" transform="translate(787.396249 399.527969) scale(0.11 -0.11)">
       <use xlink:href="#DejaVuSerif-36"/>
       <use xlink:href="#DejaVuSerif-30" transform="translate(63.623047 0)"/>
       <use xlink:href="#DejaVuSerif-30" transform="translate(127.246094 0)"/>
       <use xlink:href="#DejaVuSerif-30" transform="translate(190.869141 0)"/>
       <use xlink:href="#DejaVuSerif-30" transform="translate(254.492188 0)"/>
      </g>
     </g>
    </g>
    <g id="xtick_13">
     <g id="line2d_23">
      <path d="M 886.574215 381.669687 
L 886.574215 51.604687 
" clip-path="url(#p44fe240109)" style="fill: none; stroke-dasharray: 3.7,1.6; stroke-dashoffset: 0; stroke: #dddddd; stroke-opacity: 0.3"/>
     </g>
     <g id="text_24">
      <!-- 80000 -->
      <g style="fill: #262626" transform="translate(869.07734 399.527969) scale(0.11 -0.11)">
       <use xlink:href="#DejaVuSerif-38"/>
       <use xlink:href="#DejaVuSerif-30" transform="translate(63.623047 0)"/>
       <use xlink:href="#DejaVuSerif-30" transform="translate(127.246094 0)"/>
       <use xlink:href="#DejaVuSerif-30" transform="translate(190.869141 0)"/>
       <use xlink:href="#DejaVuSerif-30" transform="translate(254.492188 0)"/>
      </g>
     </g>
    </g>
    <g id="xtick_14">
     <g id="line2d_24">
      <path d="M 968.255306 381.669687 
L 968.255306 51.604687 
" clip-path="url(#p44fe240109)" style="fill: none; stroke-dasharray: 3.7,1.6; stroke-dashoffset: 0; stroke: #dddddd; stroke-opacity: 0.3"/>
     </g>
     <g id="text_25">
      <!-- 100000 -->
      <g style="fill: #262626" transform="translate(947.259056 399.527969) scale(0.11 -0.11)">
       <use xlink:href="#DejaVuSerif-31"/>
       <use xlink:href="#DejaVuSerif-30" transform="translate(63.623047 0)"/>
       <use xlink:href="#DejaVuSerif-30" transform="translate(127.246094 0)"/>
       <use xlink:href="#DejaVuSerif-30" transform="translate(190.869141 0)"/>
       <use xlink:href="#DejaVuSerif-30" transform="translate(254.492188 0)"/>
       <use xlink:href="#DejaVuSerif-30" transform="translate(318.115234 0)"/>
      </g>
     </g>
    </g>
    <g id="text_26">
     <!-- Queuing Delay (ms) -->
     <g style="fill: #262626" transform="translate(700.042125 414.93375) scale(0.12 -0.12)">
      <defs>
       <path id="DejaVuSerif-51" d="M 2700 -91 
Q 1628 -91 993 567 
Q 359 1225 359 2328 
Q 359 2894 529 3339 
Q 700 3784 1050 4134 
Q 1356 4441 1750 4595 
Q 2144 4750 2625 4750 
Q 3641 4750 4266 4084 
Q 4891 3419 4891 2328 
Q 4891 1403 4422 773 
Q 3953 144 3128 -38 
Q 3297 -247 3539 -347 
Q 3781 -447 4122 -447 
L 4219 -447 
L 4219 -1025 
Q 3691 -1000 3314 -767 
Q 2938 -534 2700 -91 
z
M 2625 244 
Q 3391 244 3781 770 
Q 4172 1297 4172 2328 
Q 4172 3363 3781 3889 
Q 3391 4416 2625 4416 
Q 1856 4416 1465 3889 
Q 1075 3363 1075 2328 
Q 1075 1297 1465 770 
Q 1856 244 2625 244 
z
" transform="scale(0.015625)"/>
       <path id="DejaVuSerif-75" d="M 2266 3322 
L 3341 3322 
L 3341 331 
L 3884 331 
L 3884 0 
L 2766 0 
L 2766 588 
Q 2606 256 2353 82 
Q 2100 -91 1766 -91 
Q 1213 -91 952 223 
Q 691 538 691 1209 
L 691 2988 
L 172 2988 
L 172 3322 
L 1269 3322 
L 1269 1388 
Q 1269 781 1417 556 
Q 1566 331 1947 331 
Q 2347 331 2556 625 
Q 2766 919 2766 1478 
L 2766 2988 
L 2266 2988 
L 2266 3322 
z
" transform="scale(0.015625)"/>
       <path id="DejaVuSerif-6e" d="M 263 0 
L 263 331 
L 781 331 
L 781 2988 
L 231 2988 
L 231 3322 
L 1356 3322 
L 1356 2731 
Q 1516 3069 1770 3241 
Q 2025 3413 2363 3413 
Q 2913 3413 3172 3097 
Q 3431 2781 3431 2113 
L 3431 331 
L 3944 331 
L 3944 0 
L 2356 0 
L 2356 331 
L 2853 331 
L 2853 1931 
Q 2853 2541 2703 2767 
Q 2553 2994 2175 2994 
Q 1775 2994 1565 2701 
Q 1356 2409 1356 1850 
L 1356 331 
L 1856 331 
L 1856 0 
L 263 0 
z
" transform="scale(0.015625)"/>
       <path id="DejaVuSerif-67" d="M 3359 2988 
L 3359 72 
Q 3359 -644 2965 -1033 
Q 2572 -1422 1844 -1422 
Q 1516 -1422 1216 -1362 
Q 916 -1303 641 -1184 
L 641 -488 
L 941 -488 
Q 997 -813 1206 -963 
Q 1416 -1113 1806 -1113 
Q 2313 -1113 2548 -827 
Q 2784 -541 2784 72 
L 2784 519 
Q 2616 206 2355 57 
Q 2094 -91 1709 -91 
Q 1097 -91 708 395 
Q 319 881 319 1663 
Q 319 2444 706 2928 
Q 1094 3413 1709 3413 
Q 2094 3413 2355 3264 
Q 2616 3116 2784 2803 
L 2784 3322 
L 3909 3322 
L 3909 2988 
L 3359 2988 
z
M 2784 1825 
Q 2784 2422 2554 2737 
Q 2325 3053 1888 3053 
Q 1444 3053 1217 2703 
Q 991 2353 991 1663 
Q 991 975 1217 622 
Q 1444 269 1888 269 
Q 2325 269 2554 583 
Q 2784 897 2784 1497 
L 2784 1825 
z
" transform="scale(0.015625)"/>
      </defs>
      <use xlink:href="#DejaVuSerif-51"/>
      <use xlink:href="#DejaVuSerif-75" transform="translate(81.982422 0)"/>
      <use xlink:href="#DejaVuSerif-65" transform="translate(146.386719 0)"/>
      <use xlink:href="#DejaVuSerif-75" transform="translate(205.566406 0)"/>
      <use xlink:href="#DejaVuSerif-69" transform="translate(269.970703 0)"/>
      <use xlink:href="#DejaVuSerif-6e" transform="translate(301.953125 0)"/>
      <use xlink:href="#DejaVuSerif-67" transform="translate(366.357422 0)"/>
      <use xlink:href="#DejaVuSerif-20" transform="translate(430.371094 0)"/>
      <use xlink:href="#DejaVuSerif-44" transform="translate(462.158203 0)"/>
      <use xlink:href="#DejaVuSerif-65" transform="translate(542.333984 0)"/>
      <use xlink:href="#DejaVuSerif-6c" transform="translate(601.513672 0)"/>
      <use xlink:href="#DejaVuSerif-61" transform="translate(633.496094 0)"/>
      <use xlink:href="#DejaVuSerif-79" transform="translate(693.115234 0)"/>
      <use xlink:href="#DejaVuSerif-20" transform="translate(749.609375 0)"/>
      <use xlink:href="#DejaVuSerif-28" transform="translate(781.396484 0)"/>
      <use xlink:href="#DejaVuSerif-6d" transform="translate(820.410156 0)"/>
      <use xlink:href="#DejaVuSerif-73" transform="translate(915.234375 0)"/>
      <use xlink:href="#DejaVuSerif-29" transform="translate(966.552734 0)"/>
     </g>
    </g>
   </g>
   <g id="matplotlib.axis_4">
    <g id="ytick_7">
     <g id="line2d_25">
      <path d="M 542.043292 366.666733 
L 978.712209 366.666733 
" clip-path="url(#p44fe240109)" style="fill: none; stroke-dasharray: 3.7,1.6; stroke-dashoffset: 0; stroke: #dddddd; stroke-opacity: 0.3"/>
     </g>
     <g id="text_27">
      <!-- 0.0 -->
      <g style="fill: #262626" transform="translate(515.049854 370.845874) scale(0.11 -0.11)">
       <use xlink:href="#DejaVuSerif-30"/>
       <use xlink:href="#DejaVuSerif-2e" transform="translate(63.623047 0)"/>
       <use xlink:href="#DejaVuSerif-30" transform="translate(95.410156 0)"/>
      </g>
     </g>
    </g>
    <g id="ytick_8">
     <g id="line2d_26">
      <path d="M 542.043292 306.521258 
L 978.712209 306.521258 
" clip-path="url(#p44fe240109)" style="fill: none; stroke-dasharray: 3.7,1.6; stroke-dashoffset: 0; stroke: #dddddd; stroke-opacity: 0.3"/>
     </g>
     <g id="text_28">
      <!-- 0.2 -->
      <g style="fill: #262626" transform="translate(515.049854 310.700399) scale(0.11 -0.11)">
       <use xlink:href="#DejaVuSerif-30"/>
       <use xlink:href="#DejaVuSerif-2e" transform="translate(63.623047 0)"/>
       <use xlink:href="#DejaVuSerif-32" transform="translate(95.410156 0)"/>
      </g>
     </g>
    </g>
    <g id="ytick_9">
     <g id="line2d_27">
      <path d="M 542.043292 246.375783 
L 978.712209 246.375783 
" clip-path="url(#p44fe240109)" style="fill: none; stroke-dasharray: 3.7,1.6; stroke-dashoffset: 0; stroke: #dddddd; stroke-opacity: 0.3"/>
     </g>
     <g id="text_29">
      <!-- 0.4 -->
      <g style="fill: #262626" transform="translate(515.049854 250.554924) scale(0.11 -0.11)">
       <use xlink:href="#DejaVuSerif-30"/>
       <use xlink:href="#DejaVuSerif-2e" transform="translate(63.623047 0)"/>
       <use xlink:href="#DejaVuSerif-34" transform="translate(95.410156 0)"/>
      </g>
     </g>
    </g>
    <g id="ytick_10">
     <g id="line2d_28">
      <path d="M 542.043292 186.230309 
L 978.712209 186.230309 
" clip-path="url(#p44fe240109)" style="fill: none; stroke-dasharray: 3.7,1.6; stroke-dashoffset: 0; stroke: #dddddd; stroke-opacity: 0.3"/>
     </g>
     <g id="text_30">
      <!-- 0.6 -->
      <g style="fill: #262626" transform="translate(515.049854 190.409449) scale(0.11 -0.11)">
       <use xlink:href="#DejaVuSerif-30"/>
       <use xlink:href="#DejaVuSerif-2e" transform="translate(63.623047 0)"/>
       <use xlink:href="#DejaVuSerif-36" transform="translate(95.410156 0)"/>
      </g>
     </g>
    </g>
    <g id="ytick_11">
     <g id="line2d_29">
      <path d="M 542.043292 126.084834 
L 978.712209 126.084834 
" clip-path="url(#p44fe240109)" style="fill: none; stroke-dasharray: 3.7,1.6; stroke-dashoffset: 0; stroke: #dddddd; stroke-opacity: 0.3"/>
     </g>
     <g id="text_31">
      <!-- 0.8 -->
      <g style="fill: #262626" transform="translate(515.049854 130.263974) scale(0.11 -0.11)">
       <use xlink:href="#DejaVuSerif-30"/>
       <use xlink:href="#DejaVuSerif-2e" transform="translate(63.623047 0)"/>
       <use xlink:href="#DejaVuSerif-38" transform="translate(95.410156 0)"/>
      </g>
     </g>
    </g>
    <g id="ytick_12">
     <g id="line2d_30">
      <path d="M 542.043292 65.939359 
L 978.712209 65.939359 
" clip-path="url(#p44fe240109)" style="fill: none; stroke-dasharray: 3.7,1.6; stroke-dashoffset: 0; stroke: #dddddd; stroke-opacity: 0.3"/>
     </g>
     <g id="text_32">
      <!-- 1.0 -->
      <g style="fill: #262626" transform="translate(515.049854 70.1185) scale(0.11 -0.11)">
       <use xlink:href="#DejaVuSerif-31"/>
       <use xlink:href="#DejaVuSerif-2e" transform="translate(63.623047 0)"/>
       <use xlink:href="#DejaVuSerif-30" transform="translate(95.410156 0)"/>
      </g>
     </g>
    </g>
    <g id="text_33">
     <!-- P(X ≤ x) -->
     <g style="fill: #262626" transform="translate(508.554229 241.852187) rotate(-90) scale(0.12 -0.12)">
      <use xlink:href="#DejaVuSerif-50"/>
      <use xlink:href="#DejaVuSerif-28" transform="translate(67.285156 0)"/>
      <use xlink:href="#DejaVuSerif-58" transform="translate(106.298828 0)"/>
      <use xlink:href="#DejaVuSerif-20" transform="translate(177.490234 0)"/>
      <use xlink:href="#DejaVuSerif-2264" transform="translate(209.277344 0)"/>
      <use xlink:href="#DejaVuSerif-20" transform="translate(293.066406 0)"/>
      <use xlink:href="#DejaVuSerif-78" transform="translate(324.853516 0)"/>
      <use xlink:href="#DejaVuSerif-29" transform="translate(381.25 0)"/>
     </g>
    </g>
   </g>
   <g id="line2d_31">
    <path d="M 561.891879 366.666733 
L 561.891879 364.661884 
L 563.933906 363.993601 
L 563.933906 361.988752 
L 565.975934 361.320469 
L 565.975934 359.315619 
L 568.017961 358.647336 
L 568.017961 356.642487 
L 570.059988 355.974204 
L 570.059988 353.969355 
L 572.102015 353.301072 
L 572.102015 351.296223 
L 574.144043 350.62794 
L 574.144043 348.623091 
L 576.18607 347.954807 
L 576.18607 345.949958 
L 577.818879 345.281675 
L 577.818879 344.613392 
L 578.228097 343.945109 
L 578.228097 340.603694 
L 580.270124 339.935411 
L 580.270124 336.593996 
L 582.312152 335.925713 
L 582.312152 332.584297 
L 583.537384 331.916014 
L 583.537384 331.247731 
L 583.944961 330.579448 
L 583.944961 329.911165 
L 584.354179 329.242882 
L 584.354179 325.901467 
L 585.171006 325.233184 
L 585.171088 323.228334 
L 585.37438 322.560051 
L 585.37438 321.891768 
L 586.396206 321.223485 
L 586.396206 317.88207 
L 587.621439 317.213787 
L 587.621439 316.545504 
L 588.43816 315.877221 
L 588.438234 311.19924 
L 589.254232 310.530956 
L 589.254232 309.862673 
L 590.480261 309.19439 
L 590.480261 305.852975 
L 590.888682 305.184692 
L 590.888682 303.179843 
L 592.521475 302.51156 
L 592.522288 297.833578 
L 594.564315 297.165295 
L 594.645996 292.487314 
L 596.606343 259.073161 
L 596.60644 249.717199 
L 597.912427 249.048916 
L 598.64837 247.712349 
L 598.64837 245.7075 
L 599.055962 245.039217 
L 599.056791 241.697802 
L 599.260165 241.029519 
L 599.750182 240.361236 
L 600.077805 239.02467 
L 600.281179 238.356387 
L 600.281179 237.019821 
L 600.690397 236.351538 
L 600.731254 233.678405 
L 601.588815 233.010122 
L 602.241525 232.341839 
L 602.242435 231.673556 
L 602.487397 231.005273 
L 602.487397 230.33699 
L 603.180858 229.000424 
L 603.180858 228.332141 
L 603.957657 226.995575 
L 603.957657 226.327292 
L 604.733627 225.659009 
L 606.407261 224.990726 
L 606.407261 224.322443 
L 606.653133 223.65416 
L 606.816577 222.317593 
L 607.224072 221.64931 
L 607.224072 220.981027 
L 607.836692 220.312744 
L 609.307768 219.644461 
L 609.675333 218.976178 
L 609.757014 211.625065 
L 612.125766 210.956782 
L 612.125766 208.951932 
L 614.086194 208.283649 
L 614.576199 206.947083 
L 614.576199 206.2788 
L 617.312515 205.610517 
L 618.660253 204.942234 
L 618.660253 202.937385 
L 620.987335 202.269102 
L 621.518263 201.600819 
L 621.518263 200.932536 
L 622.743479 200.264253 
L 622.744308 196.922837 
L 622.906841 196.254554 
L 629.400487 195.586271 
L 629.686372 194.917988 
L 629.6872 194.249705 
L 630.218127 193.581422 
L 630.258968 192.913139 
L 630.749055 192.244856 
L 631.03502 191.576573 
L 631.198301 190.240007 
L 631.525025 189.571724 
L 634.17966 188.903441 
L 634.17966 188.235158 
L 636.221688 187.566875 
L 636.221688 185.562026 
L 638.222046 184.893742 
L 639.774815 184.225459 
L 639.774897 182.22061 
L 640.714148 181.552327 
L 640.714148 180.884044 
L 641.65348 180.215761 
L 641.65348 178.210912 
L 642.756175 177.542629 
L 642.756175 175.53778 
L 644.144835 174.869497 
L 644.389797 174.201214 
L 644.389797 172.196364 
L 645.41081 171.528081 
L 645.615013 170.191515 
L 645.819216 169.523232 
L 648.35133 168.854949 
L 648.514692 168.186666 
L 650.393357 167.518383 
L 650.924284 166.8501 
L 650.924284 164.845251 
L 651.332689 164.176968 
L 651.332771 159.498986 
L 653.210526 158.830703 
L 653.782293 158.16242 
L 653.783122 154.821005 
L 654.191528 154.152722 
L 654.191528 152.147873 
L 654.599933 151.47959 
L 654.599933 150.811307 
L 659.092393 150.143024 
L 659.092393 148.138175 
L 660.031726 147.469891 
L 660.113407 144.796759 
L 661.297782 144.128476 
L 661.501985 143.460193 
L 661.950403 139.450495 
L 662.441318 138.782212 
L 662.686361 137.445646 
L 663.176448 136.777363 
L 663.298969 136.10908 
L 663.544012 135.440797 
L 663.911577 133.435947 
L 664.401664 132.767664 
L 664.932591 131.431098 
L 664.932673 130.762815 
L 665.218475 130.094532 
L 665.218475 129.426249 
L 667.668908 128.757966 
L 667.668908 126.753117 
L 667.87311 126.084834 
L 668.853283 125.416551 
L 669.3017 124.748268 
L 669.38421 123.411702 
L 669.751775 122.743419 
L 678.287449 122.075135 
L 678.287449 120.070286 
L 680.492839 119.402003 
L 681.554693 118.73372 
L 681.554693 116.728871 
L 686.454729 116.060588 
L 686.45473 115.392305 
L 689.721973 114.724022 
L 689.721973 114.055739 
L 690.906349 113.387456 
L 699.481965 112.719173 
L 700.586387 112.05089 
L 700.830602 111.382607 
L 700.912213 110.714324 
L 705.568934 110.046041 
L 706.834991 109.377757 
L 709.734669 108.709474 
L 710.836535 108.041191 
L 710.959886 107.372908 
L 710.959886 104.031493 
L 721.210863 103.36321 
L 722.313557 102.694927 
L 739.547438 102.026644 
L 739.547439 101.358361 
L 744.080739 100.690078 
L 757.926423 100.021795 
L 757.926423 99.353512 
L 761.397959 98.685229 
L 761.602162 98.016946 
L 762.010567 97.348662 
L 762.010567 95.343813 
L 762.17393 94.67553 
L 762.868219 94.007247 
L 767.319838 93.338964 
L 767.319838 91.334115 
L 774.671136 90.665832 
L 774.671136 89.997549 
L 774.997032 89.329266 
L 778.754362 88.660983 
L 778.754362 87.9927 
L 780.388813 87.324417 
L 780.388813 85.319568 
L 782.675883 84.651284 
L 783.492694 83.983001 
L 786.514895 83.314718 
L 786.514895 81.309869 
L 786.92321 80.641586 
L 790.598859 79.973303 
L 790.598859 79.30502 
L 803.217689 78.636737 
L 803.586243 77.968454 
L 804.11717 77.300171 
L 805.301456 76.631888 
L 805.301456 75.963605 
L 806.322559 75.295322 
L 825.762569 74.627039 
L 881.26496 73.958756 
L 881.26496 71.953906 
L 888.616168 71.285623 
L 888.616168 70.61734 
L 893.27199 69.949057 
L 914.059918 69.280774 
L 914.18244 68.612491 
L 955.267938 67.944208 
L 958.861906 67.275925 
L 958.861906 66.607642 
L 958.861906 66.607642 
" clip-path="url(#p44fe240109)" style="fill: none; stroke: #1f77b4; stroke-width: 2.5; stroke-linecap: round"/>
   </g>
   <g id="line2d_32">
    <path d="M 561.891879 366.666733 
L 561.891879 364.661884 
L 563.933906 363.993601 
L 563.933906 361.988752 
L 565.975934 361.320469 
L 565.975934 359.315619 
L 568.017961 358.647336 
L 568.017961 356.642487 
L 570.059988 355.974204 
L 570.059988 353.969355 
L 572.102015 353.301072 
L 572.102015 351.296223 
L 574.144043 350.62794 
L 574.144043 348.623091 
L 576.18607 347.954807 
L 576.18607 345.949958 
L 577.820512 345.281675 
L 577.820513 344.613392 
L 578.228097 343.945109 
L 578.228097 340.603694 
L 580.270124 339.935411 
L 580.270124 336.593996 
L 582.312152 335.925713 
L 582.312152 332.584297 
L 583.946594 331.916014 
L 583.946594 331.247731 
L 584.354179 330.579448 
L 584.354179 327.238033 
L 585.376013 326.56975 
L 585.376014 325.901467 
L 586.396206 325.233184 
L 586.396206 321.891768 
L 586.807895 321.223485 
L 586.807895 320.555202 
L 588.438234 319.886919 
L 588.439875 315.208938 
L 589.255865 314.540655 
L 589.255865 313.872372 
L 590.480261 313.204089 
L 590.480261 309.862673 
L 592.522288 309.19439 
L 592.523109 304.516409 
L 594.159193 303.848126 
L 594.159193 300.506711 
L 594.564315 299.838428 
L 594.645996 295.160446 
L 596.606343 261.746294 
L 596.606343 259.073161 
L 598.243248 258.404878 
L 598.243248 256.400029 
L 598.64837 255.731746 
L 598.64837 253.726897 
L 599.057596 253.058614 
L 599.057596 252.390331 
L 599.220958 251.722048 
L 599.833567 251.053765 
L 599.876869 249.048916 
L 599.956088 247.712349 
L 600.282813 246.375783 
L 600.282813 245.7075 
L 600.690397 245.039217 
L 600.690397 243.034368 
L 601.427168 242.366085 
L 601.630551 241.697802 
L 601.671391 241.029519 
L 602.327302 240.361236 
L 602.327302 238.356387 
L 603.144113 235.683255 
L 603.182491 233.010122 
L 604.451011 232.341839 
L 606.368054 231.005273 
L 606.408894 229.668707 
L 607.225705 229.000424 
L 607.225705 228.332141 
L 609.392717 227.663858 
L 609.964484 226.995575 
L 610.495411 224.990726 
L 610.495411 224.322443 
L 612.905003 223.65416 
L 613.885176 222.985877 
L 616.213088 222.317593 
L 616.213088 220.312744 
L 621.234012 219.644461 
L 621.519896 218.976178 
L 621.519896 218.307895 
L 622.257488 217.639612 
L 622.745112 216.971329 
L 622.829256 213.629914 
L 623.398561 212.961631 
L 628.465251 212.293348 
L 628.465251 211.625065 
L 629.197919 210.956782 
L 629.282062 209.620215 
L 629.282062 208.283649 
L 630.834003 207.615366 
L 630.872381 206.947083 
L 638.836287 206.2788 
L 642.351037 205.610517 
L 642.351037 203.605668 
L 644.801469 202.937385 
L 644.801469 200.932536 
L 651.335957 200.264253 
L 651.335957 198.259404 
L 651.905262 197.59112 
L 653.783927 196.922837 
L 653.783927 196.254554 
L 657.462038 195.586271 
L 657.462038 193.581422 
L 660.729282 192.913139 
L 660.729282 190.90829 
L 661.586934 190.240007 
L 661.952036 189.571724 
L 661.952036 188.903441 
L 662.526266 188.235158 
L 662.607947 187.566875 
L 662.81215 186.898592 
L 663.138874 186.230309 
L 663.58812 183.557176 
L 663.955685 182.888893 
L 668.488986 182.22061 
L 668.488986 181.552327 
L 669.303334 180.884044 
L 669.305797 179.547478 
L 669.795883 178.879195 
L 671.756229 178.210912 
L 671.756229 176.206063 
L 682.497293 175.53778 
L 682.538133 174.869497 
L 683.191582 174.201214 
L 683.191582 173.532931 
L 683.599987 172.864648 
L 684.825204 172.196364 
L 684.825204 170.191515 
L 686.456363 169.523232 
L 686.456363 168.854949 
L 688.786737 168.186666 
L 688.786737 166.181817 
L 689.723607 165.513534 
L 689.723607 164.845251 
L 690.665402 164.176968 
L 690.665402 162.172119 
L 690.785461 161.503836 
L 693.483399 160.835553 
L 694.667775 160.16727 
L 694.749456 158.830703 
L 694.912819 158.16242 
L 696.301397 157.494137 
L 696.383078 156.825854 
L 698.057541 156.157571 
L 699.402816 155.489288 
L 701.077279 154.821005 
L 701.569827 154.152722 
L 701.569827 152.147873 
L 704.877912 151.47959 
L 705.082114 150.811307 
L 706.062287 150.143024 
L 706.062287 149.474741 
L 708.104315 148.806458 
L 708.104315 146.801608 
L 710.429763 146.133325 
L 716.272424 145.465042 
L 716.272424 143.460193 
L 716.680829 142.79191 
L 716.680829 138.113929 
L 719.131262 137.445646 
L 719.131262 135.440797 
L 719.948073 134.772513 
L 719.948073 134.10423 
L 724.440533 133.435947 
L 724.440533 131.431098 
L 725.379865 130.762815 
L 725.379865 128.757966 
L 726.360039 128.089683 
L 726.48256 127.4214 
L 727.136009 126.753117 
L 727.299371 126.084834 
L 727.299371 124.079985 
L 728.238704 120.070286 
L 728.483747 117.397154 
L 728.72879 116.728871 
L 729.341398 116.060588 
L 729.341398 115.392305 
L 730.19905 114.724022 
L 730.648296 114.055739 
L 733.017047 113.387456 
L 733.017047 111.382607 
L 733.302931 110.714324 
L 734.73235 110.046041 
L 739.549072 109.377757 
L 739.549072 108.709474 
L 743.145503 108.041191 
L 743.635589 107.372908 
L 743.635589 106.704625 
L 744.082373 106.036342 
L 754.21329 105.368059 
L 755.111782 104.699776 
L 757.928138 104.031493 
L 757.928138 103.36321 
L 764.545948 102.694927 
L 764.545948 102.026644 
L 770.590349 101.358361 
L 770.590349 99.353512 
L 774.876144 98.685229 
L 776.308026 98.016946 
L 776.308026 96.012096 
L 778.755996 95.343813 
L 778.755996 94.67553 
L 781.208891 94.007247 
L 781.208891 93.338964 
L 787.294132 92.670681 
L 787.455853 92.002398 
L 788.029262 91.334115 
L 790.600575 90.665832 
L 790.600575 89.997549 
L 803.955433 89.329266 
L 805.303171 88.660983 
L 805.303171 87.9927 
L 813.30956 87.324417 
L 825.968487 86.656134 
L 827.358707 85.987851 
L 827.358707 83.983001 
L 828.093837 83.314718 
L 828.420561 82.646435 
L 845.736953 81.978152 
L 845.736953 79.973303 
L 848.636631 79.30502 
L 849.004196 78.636737 
L 851.863035 77.968454 
L 851.863035 75.963605 
L 869.220266 75.295322 
L 869.342788 74.627039 
L 888.617884 73.958756 
L 888.617884 73.290473 
L 892.82446 72.62219 
L 894.337202 71.953906 
L 894.337202 69.949057 
L 927.703927 69.280774 
L 927.989811 68.612491 
L 954.942929 67.944208 
L 958.863622 67.275925 
L 958.863622 66.607642 
L 958.863622 66.607642 
" clip-path="url(#p44fe240109)" style="fill: none; stroke: #d62728; stroke-width: 2.5; stroke-linecap: round"/>
   </g>
   <g id="patch_9">
    <path d="M 542.043292 381.669687 
L 542.043292 51.604687 
" style="fill: none; stroke: #000000; stroke-width: 1.5; stroke-linejoin: miter; stroke-linecap: square"/>
   </g>
   <g id="patch_10">
    <path d="M 978.712209 381.669687 
L 978.712209 51.604687 
" style="fill: none; stroke: #000000; stroke-width: 1.5; stroke-linejoin: miter; stroke-linecap: square"/>
   </g>
   <g id="patch_11">
    <path d="M 542.043292 381.669687 
L 978.712209 381.669687 
" style="fill: none; stroke: #000000; stroke-width: 1.5; stroke-linejoin: miter; stroke-linecap: square"/>
   </g>
   <g id="patch_12">
    <path d="M 542.043292 51.604687 
L 978.712209 51.604687 
" style="fill: none; stroke: #000000; stroke-width: 1.5; stroke-linejoin: miter; stroke-linecap: square"/>
   </g>
   <g id="text_34">
    <!-- CDF — Queuing Delay -->
    <g style="fill: #262626" transform="translate(692.74236 45.604687) scale(0.11 -0.11)">
     <defs>
      <path id="DejaVuSerif-Bold-51" d="M 2766 -91 
Q 1584 -72 926 565 
Q 269 1203 269 2328 
Q 269 3459 939 4104 
Q 1609 4750 2784 4750 
Q 3963 4750 4631 4106 
Q 5300 3463 5300 2328 
Q 5300 1334 4786 715 
Q 4272 97 3322 -50 
Q 3488 -228 3725 -306 
Q 3963 -384 4341 -384 
L 4500 -384 
L 4500 -1153 
L 4409 -1153 
Q 3816 -1153 3419 -897 
Q 3022 -641 2766 -91 
z
M 2784 288 
Q 3381 288 3672 791 
Q 3963 1294 3963 2328 
Q 3963 3366 3672 3869 
Q 3381 4372 2784 4372 
Q 2191 4372 1898 3864 
Q 1606 3356 1606 2328 
Q 1606 1303 1898 795 
Q 2191 288 2784 288 
z
" transform="scale(0.015625)"/>
      <path id="DejaVuSerif-Bold-75" d="M 3963 3322 
L 3963 378 
L 4434 378 
L 4434 0 
L 2853 0 
L 2853 469 
Q 2656 172 2400 40 
Q 2144 -91 1753 -91 
Q 1194 -91 908 239 
Q 622 569 622 1209 
L 622 2944 
L 147 2944 
L 147 3322 
L 1728 3322 
L 1728 1381 
Q 1728 763 1831 595 
Q 1934 428 2209 428 
Q 2544 428 2698 675 
Q 2853 922 2853 1459 
L 2853 2944 
L 2450 2944 
L 2450 3322 
L 3963 3322 
z
" transform="scale(0.015625)"/>
      <path id="DejaVuSerif-Bold-69" d="M 588 4263 
Q 588 4516 763 4689 
Q 938 4863 1191 4863 
Q 1438 4863 1611 4689 
Q 1784 4516 1784 4263 
Q 1784 4016 1611 3842 
Q 1438 3669 1191 3669 
Q 938 3669 763 3841 
Q 588 4013 588 4263 
z
M 1797 378 
L 2272 378 
L 2272 0 
L 219 0 
L 219 378 
L 691 378 
L 691 2944 
L 219 2944 
L 219 3322 
L 1797 3322 
L 1797 378 
z
" transform="scale(0.015625)"/>
      <path id="DejaVuSerif-Bold-6e" d="M 219 0 
L 219 378 
L 691 378 
L 691 2944 
L 219 2944 
L 219 3322 
L 1797 3322 
L 1797 2853 
Q 1997 3150 2253 3281 
Q 2509 3413 2900 3413 
Q 3459 3413 3745 3083 
Q 4031 2753 4031 2113 
L 4031 378 
L 4506 378 
L 4506 0 
L 2522 0 
L 2522 378 
L 2925 378 
L 2925 2144 
Q 2925 2566 2817 2730 
Q 2709 2894 2444 2894 
Q 2109 2894 1953 2648 
Q 1797 2403 1797 1869 
L 1797 378 
L 2203 378 
L 2203 0 
L 219 0 
z
" transform="scale(0.015625)"/>
      <path id="DejaVuSerif-Bold-67" d="M 3853 2944 
L 3853 44 
Q 3853 -656 3354 -1039 
Q 2856 -1422 1947 -1422 
Q 1616 -1422 1275 -1370 
Q 934 -1319 575 -1216 
L 575 -422 
L 928 -422 
Q 975 -750 1192 -909 
Q 1409 -1069 1813 -1069 
Q 2325 -1069 2536 -823 
Q 2747 -578 2747 44 
L 2747 422 
Q 2606 163 2367 36 
Q 2128 -91 1778 -91 
Q 1072 -91 667 378 
Q 263 847 263 1663 
Q 263 2481 667 2947 
Q 1072 3413 1778 3413 
Q 2128 3413 2367 3286 
Q 2606 3159 2747 2900 
L 2747 3322 
L 4325 3322 
L 4325 2944 
L 3853 2944 
z
M 2747 1825 
Q 2747 2406 2597 2665 
Q 2447 2925 2119 2925 
Q 1775 2925 1636 2651 
Q 1497 2378 1497 1663 
Q 1497 947 1637 672 
Q 1778 397 2119 397 
Q 2447 397 2597 656 
Q 2747 916 2747 1497 
L 2747 1825 
z
" transform="scale(0.015625)"/>
     </defs>
     <use xlink:href="#DejaVuSerif-Bold-43"/>
     <use xlink:href="#DejaVuSerif-Bold-44" transform="translate(79.589844 0)"/>
     <use xlink:href="#DejaVuSerif-Bold-46" transform="translate(166.308594 0)"/>
     <use xlink:href="#DejaVuSerif-Bold-20" transform="translate(237.304688 0)"/>
     <use xlink:href="#DejaVuSerif-Bold-2014" transform="translate(272.119141 0)"/>
     <use xlink:href="#DejaVuSerif-Bold-20" transform="translate(372.119141 0)"/>
     <use xlink:href="#DejaVuSerif-Bold-51" transform="translate(406.933594 0)"/>
     <use xlink:href="#DejaVuSerif-Bold-75" transform="translate(494.042969 0)"/>
     <use xlink:href="#DejaVuSerif-Bold-65" transform="translate(566.748047 0)"/>
     <use xlink:href="#DejaVuSerif-Bold-75" transform="translate(630.371094 0)"/>
     <use xlink:href="#DejaVuSerif-Bold-69" transform="translate(703.076172 0)"/>
     <use xlink:href="#DejaVuSerif-Bold-6e" transform="translate(741.064453 0)"/>
     <use xlink:href="#DejaVuSerif-Bold-67" transform="translate(813.769531 0)"/>
     <use xlink:href="#DejaVuSerif-Bold-20" transform="translate(883.691406 0)"/>
     <use xlink:href="#DejaVuSerif-Bold-44" transform="translate(918.505859 0)"/>
     <use xlink:href="#DejaVuSerif-Bold-65" transform="translate(1005.224609 0)"/>
     <use xlink:href="#DejaVuSerif-Bold-6c" transform="translate(1068.847656 0)"/>
     <use xlink:href="#DejaVuSerif-Bold-61" transform="translate(1106.835938 0)"/>
     <use xlink:href="#DejaVuSerif-Bold-79" transform="translate(1171.630859 0)"/>
    </g>
   </g>
   <g id="legend_2">
    <g id="patch_13">
     <path d="M 549.743292 92.696562 
L 611.417198 92.696562 
Q 613.617198 92.696562 613.617198 90.496562 
L 613.617198 59.304687 
Q 613.617198 57.104687 611.417198 57.104687 
L 549.743292 57.104687 
Q 547.543292 57.104687 547.543292 59.304687 
L 547.543292 90.496562 
Q 547.543292 92.696562 549.743292 92.696562 
z
" style="fill: #ffffff; opacity: 0.8; stroke: #cccccc; stroke-linejoin: miter"/>
    </g>
    <g id="line2d_33">
     <path d="M 551.943292 66.012969 
L 562.943292 66.012969 
L 573.943292 66.012969 
" style="fill: none; stroke: #1f77b4; stroke-width: 2.5; stroke-linecap: round"/>
    </g>
    <g id="text_35">
     <!-- BLA -->
     <g style="fill: #262626" transform="translate(582.743292 69.862969) scale(0.11 -0.11)">
      <use xlink:href="#DejaVuSerif-42"/>
      <use xlink:href="#DejaVuSerif-4c" transform="translate(73.486328 0)"/>
      <use xlink:href="#DejaVuSerif-41" transform="translate(139.892578 0)"/>
     </g>
    </g>
    <g id="line2d_34">
     <path d="M 551.943292 82.158906 
L 562.943292 82.158906 
L 573.943292 82.158906 
" style="fill: none; stroke: #d62728; stroke-width: 2.5; stroke-linecap: round"/>
    </g>
    <g id="text_36">
     <!-- First -->
     <g style="fill: #262626" transform="translate(582.743292 86.008906) scale(0.11 -0.11)">
      <use xlink:href="#DejaVuSerif-46"/>
      <use xlink:href="#DejaVuSerif-69" transform="translate(69.384766 0)"/>
      <use xlink:href="#DejaVuSerif-72" transform="translate(101.367188 0)"/>
      <use xlink:href="#DejaVuSerif-73" transform="translate(149.169922 0)"/>
      <use xlink:href="#DejaVuSerif-74" transform="translate(200.488281 0)"/>
     </g>
    </g>
   </g>
  </g>
  <g id="text_37">
   <!-- Fig 3: Delay CDF — dataset-mini -->
   <g style="fill: #262626" transform="translate(380.212188 17.077969) scale(0.13 -0.13)">
    <defs>
     <path id="DejaVuSerif-Bold-33" d="M 550 4531 
Q 963 4641 1350 4695 
Q 1738 4750 2106 4750 
Q 2950 4750 3401 4448 
Q 3853 4147 3853 3584 
Q 3853 3163 3593 2900 
Q 3334 2638 2834 2547 
Q 3444 2450 3744 2131 
Q 4044 1813 4044 1259 
Q 4044 606 3526 257 
Q 3009 -91 2028 -91 
Q 1659 -91 1267 -28 
Q 875 34 447 159 
L 447 1184 
L 825 1184 
Q 859 741 1103 508 
Q 1347 275 1778 275 
Q 2253 275 2512 539 
Q 2772 803 2772 1288 
Q 2772 1794 2501 2069 
Q 2231 2344 1734 2344 
L 1528 2344 
L 1528 2719 
L 1691 2719 
Q 2150 2719 2381 2931 
Q 2613 3144 2613 3566 
Q 2613 3963 2395 4173 
Q 2178 4384 1772 4384 
Q 1403 4384 1187 4182 
Q 972 3981 928 3597 
L 550 3597 
L 550 4531 
z
" transform="scale(0.015625)"/>
     <path id="DejaVuSerif-Bold-3a" d="M 588 2541 
Q 588 2788 761 2963 
Q 934 3138 1178 3138 
Q 1422 3138 1597 2961 
Q 1772 2784 1772 2541 
Q 1772 2297 1598 2125 
Q 1425 1953 1178 1953 
Q 931 1953 759 2125 
Q 588 2297 588 2541 
z
M 588 506 
Q 588 750 761 925 
Q 934 1100 1178 1100 
Q 1422 1100 1597 925 
Q 1772 750 1772 506 
Q 1772 259 1597 84 
Q 1422 -91 1178 -91 
Q 934 -91 761 84 
Q 588 259 588 506 
z
" transform="scale(0.015625)"/>
     <path id="DejaVuSerif-Bold-64" d="M 2747 1497 
L 2747 1825 
Q 2747 2406 2597 2665 
Q 2447 2925 2119 2925 
Q 1775 2925 1636 2651 
Q 1497 2378 1497 1663 
Q 1497 947 1637 672 
Q 1778 397 2119 397 
Q 2447 397 2597 656 
Q 2747 916 2747 1497 
z
M 3853 378 
L 4325 378 
L 4325 0 
L 2747 0 
L 2747 422 
Q 2606 163 2367 36 
Q 2128 -91 1778 -91 
Q 1072 -91 667 378 
Q 263 847 263 1663 
Q 263 2481 667 2947 
Q 1072 3413 1778 3413 
Q 2128 3413 2367 3286 
Q 2606 3159 2747 2900 
L 2747 4488 
L 2272 4488 
L 2272 4863 
L 3853 4863 
L 3853 378 
z
" transform="scale(0.015625)"/>
     <path id="DejaVuSerif-Bold-73" d="M 300 97 
L 300 1025 
L 653 1025 
Q 697 653 931 458 
Q 1166 263 1569 263 
Q 1906 263 2086 380 
Q 2266 497 2266 716 
Q 2266 916 2152 1025 
Q 2038 1134 1709 1216 
L 1253 1331 
Q 738 1459 506 1698 
Q 275 1938 275 2344 
Q 275 2884 650 3148 
Q 1025 3413 1806 3413 
Q 2100 3413 2433 3364 
Q 2766 3316 3169 3213 
L 3169 2375 
L 2816 2375 
Q 2788 2716 2573 2887 
Q 2359 3059 1959 3059 
Q 1622 3059 1448 2951 
Q 1275 2844 1275 2638 
Q 1275 2469 1375 2372 
Q 1475 2275 1734 2209 
L 2188 2094 
Q 2841 1928 3091 1684 
Q 3341 1441 3341 1006 
Q 3341 444 2939 176 
Q 2538 -91 1691 -91 
Q 1381 -91 1034 -44 
Q 688 3 300 97 
z
" transform="scale(0.015625)"/>
     <path id="DejaVuSerif-Bold-2d" d="M 347 2138 
L 2309 2138 
L 2309 1294 
L 347 1294 
L 347 2138 
z
" transform="scale(0.015625)"/>
     <path id="DejaVuSerif-Bold-6d" d="M 3884 2778 
Q 4116 3109 4384 3261 
Q 4653 3413 5013 3413 
Q 5584 3413 5867 3089 
Q 6150 2766 6150 2113 
L 6150 378 
L 6625 378 
L 6625 0 
L 4647 0 
L 4647 378 
L 5044 378 
L 5044 1947 
Q 5044 2569 4948 2731 
Q 4853 2894 4594 2894 
Q 4300 2894 4137 2667 
Q 3975 2441 3975 2022 
L 3975 378 
L 4372 378 
L 4372 0 
L 2472 0 
L 2472 378 
L 2869 378 
L 2869 1947 
Q 2869 2569 2772 2731 
Q 2675 2894 2419 2894 
Q 2122 2894 1959 2667 
Q 1797 2441 1797 2022 
L 1797 378 
L 2194 378 
L 2194 0 
L 219 0 
L 219 378 
L 691 378 
L 691 2944 
L 219 2944 
L 219 3322 
L 1797 3322 
L 1797 2853 
Q 1991 3144 2241 3278 
Q 2491 3413 2834 3413 
Q 3241 3413 3494 3258 
Q 3747 3103 3884 2778 
z
" transform="scale(0.015625)"/>
    </defs>
    <use xlink:href="#DejaVuSerif-Bold-46"/>
    <use xlink:href="#DejaVuSerif-Bold-69" transform="translate(70.996094 0)"/>
    <use xlink:href="#DejaVuSerif-Bold-67" transform="translate(108.984375 0)"/>
    <use xlink:href="#DejaVuSerif-Bold-20" transform="translate(178.90625 0)"/>
    <use xlink:href="#DejaVuSerif-Bold-33" transform="translate(213.720703 0)"/>
    <use xlink:href="#DejaVuSerif-Bold-3a" transform="translate(283.300781 0)"/>
    <use xlink:href="#DejaVuSerif-Bold-20" transform="translate(320.214844 0)"/>
    <use xlink:href="#DejaVuSerif-Bold-44" transform="translate(355.029297 0)"/>
    <use xlink:href="#DejaVuSerif-Bold-65" transform="translate(441.748047 0)"/>
    <use xlink:href="#DejaVuSerif-Bold-6c" transform="translate(505.371094 0)"/>
    <use xlink:href="#DejaVuSerif-Bold-61" transform="translate(543.359375 0)"/>
    <use xlink:href="#DejaVuSerif-Bold-79" transform="translate(608.154297 0)"/>
    <use xlink:href="#DejaVuSerif-Bold-20" transform="translate(666.259766 0)"/>
    <use xlink:href="#DejaVuSerif-Bold-43" transform="translate(701.074219 0)"/>
    <use xlink:href="#DejaVuSerif-Bold-44" transform="translate(780.664062 0)"/>
    <use xlink:href="#DejaVuSerif-Bold-46" transform="translate(867.382812 0)"/>
    <use xlink:href="#DejaVuSerif-Bold-20" transform="translate(938.378906 0)"/>
    <use xlink:href="#DejaVuSerif-Bold-2014" transform="translate(973.193359 0)"/>
    <use xlink:href="#DejaVuSerif-Bold-20" transform="translate(1073.193359 0)"/>
    <use xlink:href="#DejaVuSerif-Bold-64" transform="translate(1108.007812 0)"/>
    <use xlink:href="#DejaVuSerif-Bold-61" transform="translate(1177.929688 0)"/>
    <use xlink:href="#DejaVuSerif-Bold-74" transform="translate(1242.724609 0)"/>
    <use xlink:href="#DejaVuSerif-Bold-61" transform="translate(1288.916016 0)"/>
    <use xlink:href="#DejaVuSerif-Bold-73" transform="translate(1353.710938 0)"/>
    <use xlink:href="#DejaVuSerif-Bold-65" transform="translate(1410.009766 0)"/>
    <use xlink:href="#DejaVuSerif-Bold-74" transform="translate(1473.632812 0)"/>
    <use xlink:href="#DejaVuSerif-Bold-2d" transform="translate(1519.824219 0)"/>
    <use xlink:href="#DejaVuSerif-Bold-6d" transform="translate(1561.328125 0)"/>
    <use xlink:href="#DejaVuSerif-Bold-69" transform="translate(1667.138672 0)"/>
    <use xlink:href="#DejaVuSerif-Bold-6e" transform="translate(1705.126953 0)"/>
    <use xlink:href="#DejaVuSerif-Bold-69" transform="translate(1777.832031 0)"/>
   </g>
  </g>
 </g>
 <defs>
  <clipPath id="p956dc9c829">
   <rect x="49.807187" y="51.604687" width="436.668917" height="330.065"/>
  </clipPath>
  <clipPath id="p44fe240109">
   <rect x="542.043292" y="51.604687" width="436.668917" height="330.065"/>
  </clipPath>
 </defs>
</svg>
