<?xml version="1.0" encoding="utf-8" standalone="no"?>
<!DOCTYPE svg PUBLIC "-//W3C//DTD SVG 1.1//EN"
  "http://www.w3.org/Graphics/SVG/1.1/DTD/svg11.dtd">
<svg xmlns:xlink="http://www.w3.org/1999/xlink" width="996.48pt" height="424.8pt" viewBox="0 0 996.48 424.8" xmlns="http://www.w3.org/2000/svg" version="1.1">
 <metadata>
  <rdf:RDF xmlns:dc="http://purl.org/dc/elements/1.1/" xmlns:cc="http://creativecommons.org/ns#" xmlns:rdf="http://www.w3.org/1999/02/22-rdf-syntax-ns#">
   <cc:Work>
    <dc:type rdf:resource="http://purl.org/dc/dcmitype/StillImage"/>
    <dc:date>2026-05-02T12:13:31.398091</dc:date>
    <dc:format>image/svg+xml</dc:format>
    <dc:creator>
     <cc:Agent>
      <dc:title>Matplotlib v3.10.7, https://matplotlib.org/</dc:title>
     </cc:Agent>
    </dc:creator>
   </cc:Work>
  </rdf:RDF>
 </metadata>
 <defs>
  <style type="text/css">*{stroke-linejoin: round; stroke-linecap: butt}</style>
 </defs>
 <g id="figure_1">
  <g id="patch_1">
   <path d="M 0 424.8 
L 996.48 424.8 
L 996.48 0 
L 0 0 
z
" style="fill: #ffffff"/>
  </g>
  <g id="axes_1">
   <g id="patch_2">
    <path d="M 49.807187 381.669687 
L 491.76 381.669687 
L 491.76 51.604687 
L 49.807187 51.604687 
z
" style="fill: #ffffff"/>
   </g>
   <g id="matplotlib.axis_1">
    <g id="xtick_1">
     <g id="line2d_1">
      <path d="M 68.804543 381.669687 
L 68.804543 51.604687 
" clip-path="url(#pea65b7b004)" style="fill: none; stroke-dasharray: 3.7,1.6; stroke-dashoffset: 0; stroke: #dddddd; stroke-opacity: 0.3"/>
     </g>
     <g id="text_1">
      <!-- 0.0 -->
      <g style="fill: #262626" transform="translate(60.057825 399.527969) scale(0.11 -0.11)">
       <defs>
        <path id="DejaVuSerif-30" d="M 2034 219 
Q 2513 219 2750 744 
Q 2988 1269 2988 2328 
Q 2988 3391 2750 3916 
Q 2513 4441 2034 4441 
Q 1556 4441 1318 3916 
Q 1081 3391 1081 2328 
Q 1081 1269 1318 744 
Q 1556 219 2034 219 
z
M 2034 -91 
Q 1275 -91 848 546 
Q 422 1184 422 2328 
Q 422 3475 848 4112 
Q 1275 4750 2034 4750 
Q 2797 4750 3222 4112 
Q 3647 3475 3647 2328 
Q 3647 1184 3222 546 
Q 2797 -91 2034 -91 
z
" transform="scale(0.015625)"/>
        <path id="DejaVuSerif-2e" d="M 603 325 
Q 603 500 722 622 
Q 841 744 1019 744 
Q 1191 744 1312 622 
Q 1434 500 1434 325 
Q 1434 153 1312 31 
Q 1191 -91 1019 -91 
Q 841 -91 722 29 
Q 603 150 603 325 
z
" transform="scale(0.015625)"/>
       </defs>
       <use xlink:href="#DejaVuSerif-30"/>
       <use xlink:href="#DejaVuSerif-2e" transform="translate(63.623047 0)"/>
       <use xlink:href="#DejaVuSerif-30" transform="translate(95.410156 0)"/>
      </g>
     </g>
    </g>
    <g id="xtick_2">
     <g id="line2d_2">
      <path d="M 130.817024 381.669687 
L 130.817024 51.604687 
" clip-path="url(#pea65b7b004)" style="fill: none; stroke-dasharray: 3.7,1.6; stroke-dashoffset: 0; stroke: #dddddd; stroke-opacity: 0.3"/>
     </g>
     <g id="text_2">
      <!-- 0.5 -->
      <g style="fill: #262626" transform="translate(122.070305 399.527969) scale(0.11 -0.11)">
       <defs>
        <path id="DejaVuSerif-35" d="M 3219 4666 
L 3219 4153 
L 1081 4153 
L 1081 2816 
Q 1244 2928 1461 2984 
Q 1678 3041 1947 3041 
Q 2703 3041 3140 2622 
Q 3578 2203 3578 1478 
Q 3578 738 3136 323 
Q 2694 -91 1894 -91 
Q 1572 -91 1234 -12 
Q 897 66 544 225 
L 544 1131 
L 897 1131 
Q 925 688 1179 453 
Q 1434 219 1894 219 
Q 2388 219 2653 544 
Q 2919 869 2919 1478 
Q 2919 2084 2655 2407 
Q 2391 2731 1894 2731 
Q 1613 2731 1398 2631 
Q 1184 2531 1019 2322 
L 750 2322 
L 750 4666 
L 3219 4666 
z
" transform="scale(0.015625)"/>
       </defs>
       <use xlink:href="#DejaVuSerif-30"/>
       <use xlink:href="#DejaVuSerif-2e" transform="translate(63.623047 0)"/>
       <use xlink:href="#DejaVuSerif-35" transform="translate(95.410156 0)"/>
      </g>
     </g>
    </g>
    <g id="xtick_3">
     <g id="line2d_3">
      <path d="M 192.829504 381.669687 
L 192.829504 51.604687 
" clip-path="url(#pea65b7b004)" style="fill: none; stroke-dasharray: 3.7,1.6; stroke-dashoffset: 0; stroke: #dddddd; stroke-opacity: 0.3"/>
     </g>
     <g id="text_3">
      <!-- 1.0 -->
      <g style="fill: #262626" transform="translate(184.082785 399.527969) scale(0.11 -0.11)">
       <defs>
        <path id="DejaVuSerif-31" d="M 909 0 
L 909 331 
L 1722 331 
L 1722 4213 
L 781 3603 
L 781 4013 
L 1919 4750 
L 2350 4750 
L 2350 331 
L 3163 331 
L 3163 0 
L 909 0 
z
" transform="scale(0.015625)"/>
       </defs>
       <use xlink:href="#DejaVuSerif-31"/>
       <use xlink:href="#DejaVuSerif-2e" transform="translate(63.623047 0)"/>
       <use xlink:href="#DejaVuSerif-30" transform="translate(95.410156 0)"/>
      </g>
     </g>
    </g>
    <g id="xtick_4">
     <g id="line2d_4">
      <path d="M 254.841984 381.669687 
L 254.841984 51.604687 
" clip-path="url(#pea65b7b004)" style="fill: none; stroke-dasharray: 3.7,1.6; stroke-dashoffset: 0; stroke: #dddddd; stroke-opacity: 0.3"/>
     </g>
     <g id="text_4">
      <!-- 1.5 -->
      <g style="fill: #262626" transform="translate(246.095266 399.527969) scale(0.11 -0.11)">
       <use xlink:href="#DejaVuSerif-31"/>
       <use xlink:href="#DejaVuSerif-2e" transform="translate(63.623047 0)"/>
       <use xlink:href="#DejaVuSerif-35" transform="translate(95.410156 0)"/>
      </g>
     </g>
    </g>
    <g id="xtick_5">
     <g id="line2d_5">
      <path d="M 316.854465 381.669687 
L 316.854465 51.604687 
" clip-path="url(#pea65b7b004)" style="fill: none; stroke-dasharray: 3.7,1.6; stroke-dashoffset: 0; stroke: #dddddd; stroke-opacity: 0.3"/>
     </g>
     <g id="text_5">
      <!-- 2.0 -->
      <g style="fill: #262626" transform="translate(308.107746 399.527969) scale(0.11 -0.11)">
       <defs>
        <path id="DejaVuSerif-32" d="M 819 3553 
L 469 3553 
L 469 4384 
Q 803 4563 1142 4656 
Q 1481 4750 1806 4750 
Q 2534 4750 2956 4397 
Q 3378 4044 3378 3438 
Q 3378 2753 2422 1800 
Q 2347 1728 2309 1691 
L 1131 513 
L 3078 513 
L 3078 1088 
L 3444 1088 
L 3444 0 
L 434 0 
L 434 341 
L 1850 1753 
Q 2319 2222 2519 2614 
Q 2719 3006 2719 3438 
Q 2719 3909 2473 4175 
Q 2228 4441 1797 4441 
Q 1350 4441 1106 4219 
Q 863 3997 819 3553 
z
" transform="scale(0.015625)"/>
       </defs>
       <use xlink:href="#DejaVuSerif-32"/>
       <use xlink:href="#DejaVuSerif-2e" transform="translate(63.623047 0)"/>
       <use xlink:href="#DejaVuSerif-30" transform="translate(95.410156 0)"/>
      </g>
     </g>
    </g>
    <g id="xtick_6">
     <g id="line2d_6">
      <path d="M 378.866945 381.669687 
L 378.866945 51.604687 
" clip-path="url(#pea65b7b004)" style="fill: none; stroke-dasharray: 3.7,1.6; stroke-dashoffset: 0; stroke: #dddddd; stroke-opacity: 0.3"/>
     </g>
     <g id="text_6">
      <!-- 2.5 -->
      <g style="fill: #262626" transform="translate(370.120226 399.527969) scale(0.11 -0.11)">
       <use xlink:href="#DejaVuSerif-32"/>
       <use xlink:href="#DejaVuSerif-2e" transform="translate(63.623047 0)"/>
       <use xlink:href="#DejaVuSerif-35" transform="translate(95.410156 0)"/>
      </g>
     </g>
    </g>
    <g id="xtick_7">
     <g id="line2d_7">
      <path d="M 440.879425 381.669687 
L 440.879425 51.604687 
" clip-path="url(#pea65b7b004)" style="fill: none; stroke-dasharray: 3.7,1.6; stroke-dashoffset: 0; stroke: #dddddd; stroke-opacity: 0.3"/>
     </g>
     <g id="text_7">
      <!-- 3.0 -->
      <g style="fill: #262626" transform="translate(432.132707 399.527969) scale(0.11 -0.11)">
       <defs>
        <path id="DejaVuSerif-33" d="M 622 4469 
Q 988 4606 1323 4678 
Q 1659 4750 1953 4750 
Q 2638 4750 3022 4454 
Q 3406 4159 3406 3634 
Q 3406 3213 3140 2930 
Q 2875 2647 2388 2547 
Q 2963 2466 3280 2130 
Q 3597 1794 3597 1259 
Q 3597 606 3158 257 
Q 2719 -91 1894 -91 
Q 1528 -91 1179 -12 
Q 831 66 488 225 
L 488 1131 
L 838 1131 
Q 869 681 1141 450 
Q 1413 219 1906 219 
Q 2384 219 2661 495 
Q 2938 772 2938 1253 
Q 2938 1803 2653 2086 
Q 2369 2369 1819 2369 
L 1522 2369 
L 1522 2688 
L 1678 2688 
Q 2225 2688 2498 2914 
Q 2772 3141 2772 3597 
Q 2772 4006 2547 4223 
Q 2322 4441 1900 4441 
Q 1478 4441 1245 4241 
Q 1013 4041 972 3647 
L 622 3647 
L 622 4469 
z
" transform="scale(0.015625)"/>
       </defs>
       <use xlink:href="#DejaVuSerif-33"/>
       <use xlink:href="#DejaVuSerif-2e" transform="translate(63.623047 0)"/>
       <use xlink:href="#DejaVuSerif-30" transform="translate(95.410156 0)"/>
      </g>
     </g>
    </g>
    <g id="text_8">
     <!-- Total Packet Delay (ms) -->
     <g style="fill: #262626" transform="translate(199.004844 414.93375) scale(0.12 -0.12)">
      <defs>
       <path id="DejaVuSerif-54" d="M 1222 0 
L 1222 331 
L 1819 331 
L 1819 4294 
L 447 4294 
L 447 3566 
L 63 3566 
L 63 4666 
L 4206 4666 
L 4206 3566 
L 3822 3566 
L 3822 4294 
L 2450 4294 
L 2450 331 
L 3047 331 
L 3047 0 
L 1222 0 
z
" transform="scale(0.015625)"/>
       <path id="DejaVuSerif-6f" d="M 1925 219 
Q 2388 219 2623 584 
Q 2859 950 2859 1663 
Q 2859 2375 2623 2739 
Q 2388 3103 1925 3103 
Q 1463 3103 1227 2739 
Q 991 2375 991 1663 
Q 991 950 1228 584 
Q 1466 219 1925 219 
z
M 1925 -91 
Q 1200 -91 759 389 
Q 319 869 319 1663 
Q 319 2456 758 2934 
Q 1197 3413 1925 3413 
Q 2653 3413 3092 2934 
Q 3531 2456 3531 1663 
Q 3531 869 3092 389 
Q 2653 -91 1925 -91 
z
" transform="scale(0.015625)"/>
       <path id="DejaVuSerif-74" d="M 691 2988 
L 184 2988 
L 184 3322 
L 691 3322 
L 691 4353 
L 1269 4353 
L 1269 3322 
L 2350 3322 
L 2350 2988 
L 1269 2988 
L 1269 878 
Q 1269 456 1350 337 
Q 1431 219 1650 219 
Q 1875 219 1978 351 
Q 2081 484 2088 781 
L 2522 781 
Q 2497 328 2275 118 
Q 2053 -91 1600 -91 
Q 1103 -91 897 129 
Q 691 350 691 878 
L 691 2988 
z
" transform="scale(0.015625)"/>
       <path id="DejaVuSerif-61" d="M 2547 1044 
L 2547 1747 
L 1806 1747 
Q 1378 1747 1168 1562 
Q 959 1378 959 997 
Q 959 650 1171 447 
Q 1384 244 1747 244 
Q 2106 244 2326 466 
Q 2547 688 2547 1044 
z
M 3122 2075 
L 3122 331 
L 3634 331 
L 3634 0 
L 2547 0 
L 2547 359 
Q 2356 128 2106 18 
Q 1856 -91 1522 -91 
Q 969 -91 644 203 
Q 319 497 319 997 
Q 319 1513 691 1797 
Q 1063 2081 1741 2081 
L 2547 2081 
L 2547 2309 
Q 2547 2688 2317 2895 
Q 2088 3103 1672 3103 
Q 1328 3103 1125 2947 
Q 922 2791 872 2484 
L 575 2484 
L 575 3156 
Q 875 3284 1158 3348 
Q 1441 3413 1709 3413 
Q 2400 3413 2761 3070 
Q 3122 2728 3122 2075 
z
" transform="scale(0.015625)"/>
       <path id="DejaVuSerif-6c" d="M 1313 331 
L 1856 331 
L 1856 0 
L 184 0 
L 184 331 
L 738 331 
L 738 4531 
L 184 4531 
L 184 4863 
L 1313 4863 
L 1313 331 
z
" transform="scale(0.015625)"/>
       <path id="DejaVuSerif-20" transform="scale(0.015625)"/>
       <path id="DejaVuSerif-50" d="M 1581 2375 
L 2406 2375 
Q 2872 2375 3115 2626 
Q 3359 2878 3359 3353 
Q 3359 3831 3115 4081 
Q 2872 4331 2406 4331 
L 1581 4331 
L 1581 2375 
z
M 353 0 
L 353 331 
L 947 331 
L 947 4331 
L 353 4331 
L 353 4666 
L 2559 4666 
Q 3259 4666 3668 4311 
Q 4078 3956 4078 3353 
Q 4078 2753 3668 2397 
Q 3259 2041 2559 2041 
L 1581 2041 
L 1581 331 
L 2303 331 
L 2303 0 
L 353 0 
z
" transform="scale(0.015625)"/>
       <path id="DejaVuSerif-63" d="M 3291 997 
Q 3169 466 2822 187 
Q 2475 -91 1925 -91 
Q 1200 -91 759 389 
Q 319 869 319 1663 
Q 319 2459 759 2936 
Q 1200 3413 1925 3413 
Q 2241 3413 2553 3339 
Q 2866 3266 3181 3116 
L 3181 2266 
L 2847 2266 
Q 2781 2703 2561 2903 
Q 2341 3103 1931 3103 
Q 1466 3103 1228 2742 
Q 991 2381 991 1663 
Q 991 944 1227 581 
Q 1463 219 1931 219 
Q 2303 219 2525 412 
Q 2747 606 2828 997 
L 3291 997 
z
" transform="scale(0.015625)"/>
       <path id="DejaVuSerif-6b" d="M 1831 0 
L 219 0 
L 219 331 
L 738 331 
L 738 4531 
L 184 4531 
L 184 4863 
L 1313 4863 
L 1313 1697 
L 2713 2988 
L 2234 2988 
L 2234 3322 
L 3738 3322 
L 3738 2988 
L 3169 2988 
L 2181 2075 
L 3444 331 
L 3922 331 
L 3922 0 
L 2284 0 
L 2284 331 
L 2759 331 
L 1766 1697 
L 1313 1275 
L 1313 331 
L 1831 331 
L 1831 0 
z
" transform="scale(0.015625)"/>
       <path id="DejaVuSerif-65" d="M 3469 1600 
L 991 1600 
L 991 1575 
Q 991 903 1244 561 
Q 1497 219 1991 219 
Q 2369 219 2611 417 
Q 2853 616 2950 1006 
L 3413 1006 
Q 3275 459 2904 184 
Q 2534 -91 1931 -91 
Q 1203 -91 761 389 
Q 319 869 319 1663 
Q 319 2450 753 2931 
Q 1188 3413 1894 3413 
Q 2647 3413 3050 2948 
Q 3453 2484 3469 1600 
z
M 2791 1931 
Q 2772 2513 2545 2808 
Q 2319 3103 1894 3103 
Q 1497 3103 1269 2806 
Q 1041 2509 991 1931 
L 2791 1931 
z
" transform="scale(0.015625)"/>
       <path id="DejaVuSerif-44" d="M 1581 331 
L 2163 331 
Q 3072 331 3558 850 
Q 4044 1369 4044 2338 
Q 4044 3306 3559 3818 
Q 3075 4331 2163 4331 
L 1581 4331 
L 1581 331 
z
M 353 0 
L 353 331 
L 947 331 
L 947 4331 
L 353 4331 
L 353 4666 
L 2209 4666 
Q 3416 4666 4089 4050 
Q 4763 3434 4763 2338 
Q 4763 1238 4088 619 
Q 3413 0 2209 0 
L 353 0 
z
" transform="scale(0.015625)"/>
       <path id="DejaVuSerif-79" d="M 1381 -609 
L 1600 -56 
L 359 2988 
L -19 2988 
L -19 3322 
L 1509 3322 
L 1509 2988 
L 978 2988 
L 1913 703 
L 2847 2988 
L 2350 2988 
L 2350 3322 
L 3597 3322 
L 3597 2988 
L 3225 2988 
L 1703 -750 
Q 1547 -1138 1356 -1280 
Q 1166 -1422 819 -1422 
Q 672 -1422 517 -1397 
Q 363 -1372 206 -1325 
L 206 -691 
L 500 -691 
Q 519 -903 608 -995 
Q 697 -1088 884 -1088 
Q 1056 -1088 1161 -992 
Q 1266 -897 1381 -609 
z
" transform="scale(0.015625)"/>
       <path id="DejaVuSerif-28" d="M 2041 -997 
Q 1281 -656 893 83 
Q 506 822 506 1931 
Q 506 3044 893 3783 
Q 1281 4522 2041 4863 
L 2041 4556 
Q 1559 4225 1350 3623 
Q 1141 3022 1141 1931 
Q 1141 844 1350 242 
Q 1559 -359 2041 -691 
L 2041 -997 
z
" transform="scale(0.015625)"/>
       <path id="DejaVuSerif-6d" d="M 3316 2675 
Q 3481 3041 3739 3227 
Q 3997 3413 4341 3413 
Q 4863 3413 5119 3089 
Q 5375 2766 5375 2113 
L 5375 331 
L 5894 331 
L 5894 0 
L 4300 0 
L 4300 331 
L 4800 331 
L 4800 2047 
Q 4800 2556 4650 2772 
Q 4500 2988 4153 2988 
Q 3769 2988 3567 2697 
Q 3366 2406 3366 1850 
L 3366 331 
L 3866 331 
L 3866 0 
L 2291 0 
L 2291 331 
L 2791 331 
L 2791 2069 
Q 2791 2566 2641 2777 
Q 2491 2988 2144 2988 
Q 1759 2988 1557 2697 
Q 1356 2406 1356 1850 
L 1356 331 
L 1856 331 
L 1856 0 
L 263 0 
L 263 331 
L 781 331 
L 781 2994 
L 231 2994 
L 231 3322 
L 1356 3322 
L 1356 2731 
Q 1516 3063 1762 3238 
Q 2009 3413 2322 3413 
Q 2709 3413 2968 3220 
Q 3228 3028 3316 2675 
z
" transform="scale(0.015625)"/>
       <path id="DejaVuSerif-73" d="M 359 184 
L 359 959 
L 691 959 
Q 703 588 923 403 
Q 1144 219 1575 219 
Q 1963 219 2166 364 
Q 2369 509 2369 788 
Q 2369 1006 2220 1140 
Q 2072 1275 1594 1428 
L 1178 1569 
Q 750 1706 558 1912 
Q 366 2119 366 2438 
Q 366 2894 700 3153 
Q 1034 3413 1625 3413 
Q 1888 3413 2178 3344 
Q 2469 3275 2778 3144 
L 2778 2419 
L 2447 2419 
Q 2434 2741 2221 2922 
Q 2009 3103 1644 3103 
Q 1281 3103 1095 2975 
Q 909 2847 909 2591 
Q 909 2381 1050 2254 
Q 1191 2128 1613 1997 
L 2069 1856 
Q 2541 1709 2748 1489 
Q 2956 1269 2956 922 
Q 2956 450 2595 179 
Q 2234 -91 1600 -91 
Q 1278 -91 972 -22 
Q 666 47 359 184 
z
" transform="scale(0.015625)"/>
       <path id="DejaVuSerif-29" d="M 453 -997 
L 453 -691 
Q 934 -359 1145 242 
Q 1356 844 1356 1931 
Q 1356 3022 1145 3623 
Q 934 4225 453 4556 
L 453 4863 
Q 1216 4522 1603 3783 
Q 1991 3044 1991 1931 
Q 1991 822 1603 83 
Q 1216 -656 453 -997 
z
" transform="scale(0.015625)"/>
      </defs>
      <use xlink:href="#DejaVuSerif-54"/>
      <use xlink:href="#DejaVuSerif-6f" transform="translate(58.949219 0)"/>
      <use xlink:href="#DejaVuSerif-74" transform="translate(119.154297 0)"/>
      <use xlink:href="#DejaVuSerif-61" transform="translate(159.339844 0)"/>
      <use xlink:href="#DejaVuSerif-6c" transform="translate(218.958984 0)"/>
      <use xlink:href="#DejaVuSerif-20" transform="translate(250.941406 0)"/>
      <use xlink:href="#DejaVuSerif-50" transform="translate(282.728516 0)"/>
      <use xlink:href="#DejaVuSerif-61" transform="translate(345.513672 0)"/>
      <use xlink:href="#DejaVuSerif-63" transform="translate(405.132812 0)"/>
      <use xlink:href="#DejaVuSerif-6b" transform="translate(461.138672 0)"/>
      <use xlink:href="#DejaVuSerif-65" transform="translate(521.734375 0)"/>
      <use xlink:href="#DejaVuSerif-74" transform="translate(580.914062 0)"/>
      <use xlink:href="#DejaVuSerif-20" transform="translate(621.099609 0)"/>
      <use xlink:href="#DejaVuSerif-44" transform="translate(652.886719 0)"/>
      <use xlink:href="#DejaVuSerif-65" transform="translate(733.0625 0)"/>
      <use xlink:href="#DejaVuSerif-6c" transform="translate(792.242188 0)"/>
      <use xlink:href="#DejaVuSerif-61" transform="translate(824.224609 0)"/>
      <use xlink:href="#DejaVuSerif-79" transform="translate(883.84375 0)"/>
      <use xlink:href="#DejaVuSerif-20" transform="translate(940.337891 0)"/>
      <use xlink:href="#DejaVuSerif-28" transform="translate(972.125 0)"/>
      <use xlink:href="#DejaVuSerif-6d" transform="translate(1011.138672 0)"/>
      <use xlink:href="#DejaVuSerif-73" transform="translate(1105.962891 0)"/>
      <use xlink:href="#DejaVuSerif-29" transform="translate(1157.28125 0)"/>
     </g>
    </g>
    <g id="text_9">
     <!-- 1e6 -->
     <g style="fill: #262626" transform="translate(471.251875 413.173906) scale(0.11 -0.11)">
      <defs>
       <path id="DejaVuSerif-36" d="M 2094 219 
Q 2534 219 2771 542 
Q 3009 866 3009 1472 
Q 3009 2078 2771 2401 
Q 2534 2725 2094 2725 
Q 1647 2725 1412 2412 
Q 1178 2100 1178 1509 
Q 1178 888 1415 553 
Q 1653 219 2094 219 
z
M 1075 2569 
Q 1288 2803 1556 2918 
Q 1825 3034 2163 3034 
Q 2859 3034 3264 2615 
Q 3669 2197 3669 1472 
Q 3669 763 3233 336 
Q 2797 -91 2069 -91 
Q 1278 -91 853 498 
Q 428 1088 428 2181 
Q 428 3406 931 4078 
Q 1434 4750 2350 4750 
Q 2597 4750 2869 4703 
Q 3141 4656 3425 4563 
L 3425 3794 
L 3072 3794 
Q 3034 4109 2831 4275 
Q 2628 4441 2284 4441 
Q 1678 4441 1381 3981 
Q 1084 3522 1075 2569 
z
" transform="scale(0.015625)"/>
      </defs>
      <use xlink:href="#DejaVuSerif-31"/>
      <use xlink:href="#DejaVuSerif-65" transform="translate(63.623047 0)"/>
      <use xlink:href="#DejaVuSerif-36" transform="translate(122.802734 0)"/>
     </g>
    </g>
   </g>
   <g id="matplotlib.axis_2">
    <g id="ytick_1">
     <g id="line2d_8">
      <path d="M 49.807187 366.666733 
L 491.76 366.666733 
" clip-path="url(#pea65b7b004)" style="fill: none; stroke-dasharray: 3.7,1.6; stroke-dashoffset: 0; stroke: #dddddd; stroke-opacity: 0.3"/>
     </g>
     <g id="text_10">
      <!-- 0.0 -->
      <g style="fill: #262626" transform="translate(22.81375 370.845874) scale(0.11 -0.11)">
       <use xlink:href="#DejaVuSerif-30"/>
       <use xlink:href="#DejaVuSerif-2e" transform="translate(63.623047 0)"/>
       <use xlink:href="#DejaVuSerif-30" transform="translate(95.410156 0)"/>
      </g>
     </g>
    </g>
    <g id="ytick_2">
     <g id="line2d_9">
      <path d="M 49.807187 306.588161 
L 491.76 306.588161 
" clip-path="url(#pea65b7b004)" style="fill: none; stroke-dasharray: 3.7,1.6; stroke-dashoffset: 0; stroke: #dddddd; stroke-opacity: 0.3"/>
     </g>
     <g id="text_11">
      <!-- 0.2 -->
      <g style="fill: #262626" transform="translate(22.81375 310.767301) scale(0.11 -0.11)">
       <use xlink:href="#DejaVuSerif-30"/>
       <use xlink:href="#DejaVuSerif-2e" transform="translate(63.623047 0)"/>
       <use xlink:href="#DejaVuSerif-32" transform="translate(95.410156 0)"/>
      </g>
     </g>
    </g>
    <g id="ytick_3">
     <g id="line2d_10">
      <path d="M 49.807187 246.509589 
L 491.76 246.509589 
" clip-path="url(#pea65b7b004)" style="fill: none; stroke-dasharray: 3.7,1.6; stroke-dashoffset: 0; stroke: #dddddd; stroke-opacity: 0.3"/>
     </g>
     <g id="text_12">
      <!-- 0.4 -->
      <g style="fill: #262626" transform="translate(22.81375 250.688729) scale(0.11 -0.11)">
       <defs>
        <path id="DejaVuSerif-34" d="M 2234 1581 
L 2234 4063 
L 641 1581 
L 2234 1581 
z
M 3609 0 
L 1484 0 
L 1484 331 
L 2234 331 
L 2234 1247 
L 197 1247 
L 197 1588 
L 2241 4750 
L 2859 4750 
L 2859 1581 
L 3750 1581 
L 3750 1247 
L 2859 1247 
L 2859 331 
L 3609 331 
L 3609 0 
z
" transform="scale(0.015625)"/>
       </defs>
       <use xlink:href="#DejaVuSerif-30"/>
       <use xlink:href="#DejaVuSerif-2e" transform="translate(63.623047 0)"/>
       <use xlink:href="#DejaVuSerif-34" transform="translate(95.410156 0)"/>
      </g>
     </g>
    </g>
    <g id="ytick_4">
     <g id="line2d_11">
      <path d="M 49.807187 186.431017 
L 491.76 186.431017 
" clip-path="url(#pea65b7b004)" style="fill: none; stroke-dasharray: 3.7,1.6; stroke-dashoffset: 0; stroke: #dddddd; stroke-opacity: 0.3"/>
     </g>
     <g id="text_13">
      <!-- 0.6 -->
      <g style="fill: #262626" transform="translate(22.81375 190.610157) scale(0.11 -0.11)">
       <use xlink:href="#DejaVuSerif-30"/>
       <use xlink:href="#DejaVuSerif-2e" transform="translate(63.623047 0)"/>
       <use xlink:href="#DejaVuSerif-36" transform="translate(95.410156 0)"/>
      </g>
     </g>
    </g>
    <g id="ytick_5">
     <g id="line2d_12">
      <path d="M 49.807187 126.352444 
L 491.76 126.352444 
" clip-path="url(#pea65b7b004)" style="fill: none; stroke-dasharray: 3.7,1.6; stroke-dashoffset: 0; stroke: #dddddd; stroke-opacity: 0.3"/>
     </g>
     <g id="text_14">
      <!-- 0.8 -->
      <g style="fill: #262626" transform="translate(22.81375 130.531585) scale(0.11 -0.11)">
       <defs>
        <path id="DejaVuSerif-38" d="M 2981 1275 
Q 2981 1775 2732 2051 
Q 2484 2328 2034 2328 
Q 1584 2328 1336 2051 
Q 1088 1775 1088 1275 
Q 1088 772 1336 495 
Q 1584 219 2034 219 
Q 2484 219 2732 495 
Q 2981 772 2981 1275 
z
M 2853 3541 
Q 2853 3966 2637 4203 
Q 2422 4441 2034 4441 
Q 1650 4441 1433 4203 
Q 1216 3966 1216 3541 
Q 1216 3113 1433 2875 
Q 1650 2638 2034 2638 
Q 2422 2638 2637 2875 
Q 2853 3113 2853 3541 
z
M 2516 2484 
Q 3047 2413 3344 2092 
Q 3641 1772 3641 1275 
Q 3641 619 3225 264 
Q 2809 -91 2034 -91 
Q 1263 -91 845 264 
Q 428 619 428 1275 
Q 428 1772 725 2092 
Q 1022 2413 1556 2484 
Q 1084 2569 832 2842 
Q 581 3116 581 3541 
Q 581 4103 968 4426 
Q 1356 4750 2034 4750 
Q 2713 4750 3100 4426 
Q 3488 4103 3488 3541 
Q 3488 3116 3236 2842 
Q 2984 2569 2516 2484 
z
" transform="scale(0.015625)"/>
       </defs>
       <use xlink:href="#DejaVuSerif-30"/>
       <use xlink:href="#DejaVuSerif-2e" transform="translate(63.623047 0)"/>
       <use xlink:href="#DejaVuSerif-38" transform="translate(95.410156 0)"/>
      </g>
     </g>
    </g>
    <g id="ytick_6">
     <g id="line2d_13">
      <path d="M 49.807187 66.273872 
L 491.76 66.273872 
" clip-path="url(#pea65b7b004)" style="fill: none; stroke-dasharray: 3.7,1.6; stroke-dashoffset: 0; stroke: #dddddd; stroke-opacity: 0.3"/>
     </g>
     <g id="text_15">
      <!-- 1.0 -->
      <g style="fill: #262626" transform="translate(22.81375 70.453013) scale(0.11 -0.11)">
       <use xlink:href="#DejaVuSerif-31"/>
       <use xlink:href="#DejaVuSerif-2e" transform="translate(63.623047 0)"/>
       <use xlink:href="#DejaVuSerif-30" transform="translate(95.410156 0)"/>
      </g>
     </g>
    </g>
    <g id="text_16">
     <!-- P(X ≤ x) -->
     <g style="fill: #262626" transform="translate(16.318125 241.852187) rotate(-90) scale(0.12 -0.12)">
      <defs>
       <path id="DejaVuSerif-58" d="M 2119 1997 
L 978 331 
L 1581 331 
L 1581 0 
L 38 0 
L 38 331 
L 575 331 
L 1919 2291 
L 556 4331 
L 56 4331 
L 56 4666 
L 1906 4666 
L 1906 4331 
L 1356 4331 
L 2356 2828 
L 3384 4331 
L 2784 4331 
L 2784 4666 
L 4313 4666 
L 4313 4331 
L 3788 4331 
L 2553 2534 
L 4025 331 
L 4525 331 
L 4525 0 
L 2675 0 
L 2675 331 
L 3231 331 
L 2119 1997 
z
" transform="scale(0.015625)"/>
       <path id="DejaVuSerif-2264" d="M 4684 3206 
L 1388 2309 
L 4684 1416 
L 4684 897 
L 678 2047 
L 678 2578 
L 4684 3725 
L 4684 3206 
z
M 678 488 
L 4684 488 
L 4684 0 
L 678 0 
L 678 488 
z
" transform="scale(0.015625)"/>
       <path id="DejaVuSerif-78" d="M 1863 2028 
L 2559 2988 
L 2113 2988 
L 2113 3322 
L 3391 3322 
L 3391 2988 
L 2950 2988 
L 2059 1759 
L 3097 331 
L 3531 331 
L 3531 0 
L 1997 0 
L 1997 331 
L 2419 331 
L 1697 1325 
L 972 331 
L 1403 331 
L 1403 0 
L 141 0 
L 141 331 
L 581 331 
L 1497 1594 
L 488 2988 
L 78 2988 
L 78 3322 
L 1563 3322 
L 1563 2988 
L 1166 2988 
L 1863 2028 
z
" transform="scale(0.015625)"/>
      </defs>
      <use xlink:href="#DejaVuSerif-50"/>
      <use xlink:href="#DejaVuSerif-28" transform="translate(67.285156 0)"/>
      <use xlink:href="#DejaVuSerif-58" transform="translate(106.298828 0)"/>
      <use xlink:href="#DejaVuSerif-20" transform="translate(177.490234 0)"/>
      <use xlink:href="#DejaVuSerif-2264" transform="translate(209.277344 0)"/>
      <use xlink:href="#DejaVuSerif-20" transform="translate(293.066406 0)"/>
      <use xlink:href="#DejaVuSerif-78" transform="translate(324.853516 0)"/>
      <use xlink:href="#DejaVuSerif-29" transform="translate(381.25 0)"/>
     </g>
    </g>
   </g>
   <g id="line2d_14">
    <path d="M 69.895952 366.666733 
L 69.895963 362.327725 
L 70.047273 361.993955 
L 70.144004 357.988717 
L 70.165097 347.975622 
L 70.26803 347.308082 
L 70.37718 339.965145 
L 70.534692 334.624828 
L 70.615437 333.289748 
L 70.679824 331.287129 
L 70.827516 330.95336 
L 70.888153 328.616971 
L 70.931596 306.588161 
L 71.040713 305.920621 
L 71.136212 294.906216 
L 71.195869 288.898359 
L 71.285168 288.230819 
L 71.395425 284.559351 
L 71.513374 282.222962 
L 71.657249 279.552803 
L 71.731662 278.885264 
L 71.863132 278.217724 
L 72.128401 277.550184 
L 72.138358 263.865621 
L 72.284684 263.531851 
L 72.359099 259.860382 
L 72.400027 256.856454 
L 73.368651 256.522684 
L 73.428327 246.175819 
L 73.517572 245.508279 
L 73.624279 237.497803 
L 73.666453 231.823715 
L 73.768155 229.487327 
L 73.912024 226.817168 
L 74.6089 226.483398 
L 74.64862 215.468993 
L 74.796189 214.801453 
L 74.879286 209.127366 
L 75.036822 208.793596 
L 75.84915 208.459826 
L 75.849159 206.790977 
L 76.052562 206.457207 
L 76.094731 205.789668 
L 77.0894 205.455898 
L 77.149072 199.114271 
L 77.279169 198.780501 
L 77.36984 195.109032 
L 77.477734 194.775263 
L 79.569903 194.441493 
L 79.569906 194.107723 
L 79.822921 193.773953 
L 82.050397 193.440183 
L 82.050407 180.423159 
L 82.20172 180.089389 
L 82.323264 173.747762 
L 84.530897 173.413993 
L 84.545915 170.410064 
L 84.679811 170.076294 
L 84.7864 167.406135 
L 84.828682 166.404826 
L 84.864618 164.735977 
L 85.063101 164.402207 
L 85.086666 163.734667 
L 88.251646 163.400897 
L 88.251649 163.067127 
L 88.450097 162.733357 
L 88.549442 161.398278 
L 88.69828 161.064508 
L 88.708202 160.730738 
L 94.452893 160.396969 
L 94.452905 154.055342 
L 94.615378 153.721572 
L 94.718319 150.050103 
L 94.920504 149.716334 
L 106.855391 149.382564 
L 106.885293 146.378635 
L 107.004347 146.044865 
L 107.113499 140.370778 
L 107.272258 135.698 
L 107.40983 133.695381 
L 119.257887 133.361611 
L 119.257894 128.355063 
L 119.42037 128.021294 
L 119.52083 125.684905 
L 131.660381 125.351135 
L 131.660388 123.014746 
L 131.825347 122.680976 
L 131.896041 121.679667 
L 144.062879 121.345897 
L 144.062888 120.344587 
L 144.211747 120.010817 
L 144.260089 118.341968 
L 144.360668 117.674428 
L 144.446252 115.671809 
L 144.591361 114.6705 
L 193.672861 114.33673 
L 193.672873 99.317087 
L 193.825424 98.983317 
L 193.897359 91.64038 
L 218.537513 91.306611 
L 218.626812 89.637761 
L 218.775641 89.303992 
L 218.796736 87.968912 
L 218.949286 87.635142 
L 255.685343 87.301372 
L 255.715243 83.629904 
L 255.857874 82.962364 
L 255.983135 80.292206 
L 256.1853 79.958436 
L 256.19399 79.624666 
L 317.697823 79.290896 
L 317.717703 77.622047 
L 317.87395 77.288277 
L 318.046369 75.619428 
L 441.722783 75.285658 
L 441.737803 72.949269 
L 441.87174 72.615499 
L 441.91764 70.27911 
L 442.020569 69.611571 
L 442.076392 67.608952 
L 442.188014 66.941412 
L 442.191735 66.607642 
L 442.191735 66.607642 
" clip-path="url(#pea65b7b004)" style="fill: none; stroke: #1f77b4; stroke-width: 2.5; stroke-linecap: round"/>
   </g>
   <g id="line2d_15">
    <path d="M 69.895952 366.666733 
L 69.895963 362.327725 
L 70.090682 361.993955 
L 70.144004 357.321177 
L 70.166337 347.975622 
L 70.26803 347.308082 
L 70.367258 340.298915 
L 70.541032 335.292367 
L 70.679814 334.958598 
L 70.713428 333.623518 
L 70.888151 333.289748 
L 70.951556 309.592089 
L 71.048155 308.92455 
L 71.131252 303.918002 
L 71.159777 295.239986 
L 71.342094 294.572446 
L 71.379302 293.904907 
L 71.657254 293.571137 
L 71.657256 293.237367 
L 72.128402 292.236057 
L 72.138358 278.885264 
L 72.293365 278.551494 
L 72.401267 271.876097 
L 72.624582 271.542327 
L 72.624653 267.203319 
L 72.779684 266.869549 
L 72.996726 264.19939 
L 73.368651 263.531851 
L 73.383581 259.192843 
L 73.549738 258.859073 
L 73.740875 254.853835 
L 73.916993 253.852525 
L 73.964119 252.851216 
L 73.964122 252.517446 
L 74.188608 252.183676 
L 74.197289 251.849906 
L 74.6089 251.516136 
L 74.64862 240.501731 
L 74.770144 239.834192 
L 74.84952 236.162723 
L 74.878046 230.154866 
L 75.052946 229.821096 
L 75.127469 227.818477 
L 75.601246 227.484707 
L 75.601248 227.150938 
L 75.803413 226.817168 
L 75.849153 225.815858 
L 75.849159 224.814549 
L 76.032718 224.480779 
L 76.087289 223.813239 
L 76.345395 223.479469 
L 76.3454 221.14308 
L 76.542602 220.475541 
L 76.609575 219.808001 
L 77.0894 219.474231 
L 77.089543 217.137842 
L 77.238373 216.804072 
L 77.33374 214.133914 
L 77.505035 212.798834 
L 77.684861 212.465064 
L 77.684868 211.463755 
L 77.935402 210.796215 
L 79.321936 210.462445 
L 79.321991 209.461136 
L 79.514232 209.127366 
L 79.569906 208.126056 
L 80.066136 207.458517 
L 80.06614 206.457207 
L 80.275745 206.123437 
L 80.337758 205.789668 
L 82.050397 205.455898 
L 82.050407 192.438874 
L 82.20296 192.105104 
L 82.317063 185.763477 
L 84.530897 185.429707 
L 84.530907 183.760858 
L 84.741751 183.093318 
L 84.765316 182.759548 
L 86.019333 182.425778 
L 86.019341 180.089389 
L 86.205379 179.75562 
L 86.272352 178.75431 
L 88.251646 178.42054 
L 88.251788 176.084151 
L 88.420464 175.750381 
L 88.520925 174.749072 
L 90.484239 174.415302 
L 90.484245 174.081532 
L 90.752141 173.747762 
L 91.228386 173.413993 
L 91.228389 173.080223 
L 91.43924 172.746453 
L 92.716685 172.412683 
L 92.716689 172.078913 
L 92.975901 171.745143 
L 93.46083 171.411373 
L 93.460838 171.077604 
L 93.645636 170.743834 
L 94.452893 170.410064 
L 94.452905 164.068437 
L 94.602975 163.734667 
L 94.692273 160.063199 
L 94.890738 159.729429 
L 95.693277 159.395659 
L 95.693285 159.061889 
L 95.870644 158.728119 
L 99.413977 158.394349 
L 99.414032 156.7255 
L 99.597543 156.39173 
L 99.643483 155.724191 
L 100.902328 155.390421 
L 100.902336 155.056651 
L 101.130542 154.722881 
L 103.134779 154.389111 
L 103.134783 153.387802 
L 103.328265 153.054032 
L 103.391517 152.720262 
L 106.855391 152.386492 
L 106.855396 151.385183 
L 107.004363 151.051413 
L 107.042679 150.383873 
L 107.15309 149.716334 
L 107.153195 148.715024 
L 107.323013 148.047484 
L 107.367765 147.713714 
L 108.343824 147.379945 
L 108.343836 145.043556 
L 108.550956 144.376016 
L 108.586931 143.708476 
L 109.087984 143.374706 
L 109.087984 143.040937 
L 109.27775 142.707167 
L 109.832129 142.373397 
L 109.832132 142.039627 
L 110.02314 141.705857 
L 114.296975 141.372087 
L 114.297028 139.703238 
L 114.538881 139.369468 
L 114.566166 138.701929 
L 119.257887 138.368159 
L 119.257894 133.361611 
L 119.407968 133.027841 
L 119.52083 130.691452 
L 121.738521 130.357682 
L 121.738524 129.356373 
L 121.923327 129.022603 
L 121.980379 128.688833 
L 129.18002 128.355063 
L 129.18002 128.021294 
L 129.38963 127.687524 
L 131.660381 127.353754 
L 131.660388 125.017365 
L 131.816665 124.683595 
L 131.857593 123.682286 
L 136.621513 123.348516 
L 136.621519 122.347206 
L 136.821205 122.013436 
L 136.834848 121.679667 
L 144.062879 121.345897 
L 144.062888 120.344587 
L 144.211747 120.010817 
L 144.310939 119.009508 
L 144.447404 118.675738 
L 147.03962 118.341968 
L 147.039629 117.340659 
L 147.2914 116.673119 
L 158.946009 116.339349 
L 158.946016 116.005579 
L 159.165542 115.671809 
L 173.829004 115.338039 
L 173.829007 115.00427 
L 174.078304 114.6705 
L 193.672861 114.33673 
L 193.672873 99.317087 
L 193.825424 98.983317 
L 193.927125 91.64038 
L 219.073316 91.306611 
L 219.073323 90.972841 
L 219.328818 90.639071 
L 224.431187 90.305301 
L 224.431194 89.971531 
L 224.658163 89.637761 
L 233.360985 89.303992 
L 233.360985 88.970222 
L 233.607804 88.636452 
L 248.24398 88.302682 
L 248.243987 87.968912 
L 248.396541 87.635142 
L 255.685343 87.301372 
L 255.685343 86.967603 
L 255.834313 86.633833 
L 255.836665 85.298753 
L 255.983144 84.964984 
L 256.071213 83.963674 
L 256.187796 83.629904 
L 257.173776 83.296134 
L 257.173781 82.962364 
L 257.356104 82.628595 
L 258.662075 82.294825 
L 258.662082 81.293515 
L 258.845643 80.959745 
L 258.849372 80.625976 
L 285.451466 80.292206 
L 285.451466 79.958436 
L 285.673483 79.624666 
L 317.697823 79.290896 
L 317.717703 77.622047 
L 317.861547 77.288277 
L 317.896296 75.953198 
L 318.123265 75.619428 
L 441.722783 75.285658 
L 441.722793 74.284348 
L 441.885268 73.950579 
L 441.89767 73.616809 
L 443.211217 73.283039 
L 443.211231 71.61419 
L 443.367507 71.28042 
L 443.376181 70.61288 
L 456.605913 70.27911 
L 456.605919 69.94534 
L 456.794442 69.611571 
L 471.488907 69.277801 
L 471.488916 67.608952 
L 471.64271 67.275182 
L 471.671236 66.607642 
L 471.671236 66.607642 
" clip-path="url(#pea65b7b004)" style="fill: none; stroke: #d62728; stroke-width: 2.5; stroke-linecap: round"/>
   </g>
   <g id="patch_3">
    <path d="M 49.807187 381.669687 
L 49.807187 51.604687 
" style="fill: none; stroke: #000000; stroke-width: 1.5; stroke-linejoin: miter; stroke-linecap: square"/>
   </g>
   <g id="patch_4">
    <path d="M 491.76 381.669687 
L 491.76 51.604687 
" style="fill: none; stroke: #000000; stroke-width: 1.5; stroke-linejoin: miter; stroke-linecap: square"/>
   </g>
   <g id="patch_5">
    <path d="M 49.807187 381.669687 
L 491.76 381.669687 
" style="fill: none; stroke: #000000; stroke-width: 1.5; stroke-linejoin: miter; stroke-linecap: square"/>
   </g>
   <g id="patch_6">
    <path d="M 49.807187 51.604687 
L 491.76 51.604687 
" style="fill: none; stroke: #000000; stroke-width: 1.5; stroke-linejoin: miter; stroke-linecap: square"/>
   </g>
   <g id="text_17">
    <!-- CDF — Total Packet Delay -->
    <g style="fill: #262626" transform="translate(191.377344 45.604687) scale(0.11 -0.11)">
     <defs>
      <path id="DejaVuSerif-Bold-43" d="M 4769 1331 
Q 4584 609 4106 259 
Q 3628 -91 2822 -91 
Q 1641 -91 955 561 
Q 269 1213 269 2328 
Q 269 3447 955 4098 
Q 1641 4750 2822 4750 
Q 3238 4750 3688 4650 
Q 4138 4550 4641 4347 
L 4641 3200 
L 4244 3200 
Q 4122 3788 3800 4080 
Q 3478 4372 2950 4372 
Q 2269 4372 1937 3870 
Q 1606 3369 1606 2328 
Q 1606 1288 1937 788 
Q 2269 288 2956 288 
Q 3422 288 3717 547 
Q 4013 806 4147 1331 
L 4769 1331 
z
" transform="scale(0.015625)"/>
      <path id="DejaVuSerif-Bold-44" d="M 2100 378 
L 2534 378 
Q 3266 378 3605 847 
Q 3944 1316 3944 2338 
Q 3944 3353 3606 3820 
Q 3269 4288 2534 4288 
L 2100 4288 
L 2100 378 
z
M 300 0 
L 300 378 
L 897 378 
L 897 4288 
L 300 4288 
L 300 4666 
L 2694 4666 
Q 3950 4666 4615 4066 
Q 5281 3466 5281 2338 
Q 5281 1203 4614 601 
Q 3947 0 2694 0 
L 300 0 
z
" transform="scale(0.015625)"/>
      <path id="DejaVuSerif-Bold-46" d="M 300 0 
L 300 378 
L 897 378 
L 897 4288 
L 300 4288 
L 300 4666 
L 4459 4666 
L 4459 3566 
L 4031 3566 
L 4031 4238 
L 2106 4238 
L 2106 2741 
L 3291 2741 
L 3291 3334 
L 3719 3334 
L 3719 1722 
L 3291 1722 
L 3291 2316 
L 2106 2316 
L 2106 378 
L 2841 378 
L 2841 0 
L 300 0 
z
" transform="scale(0.015625)"/>
      <path id="DejaVuSerif-Bold-20" transform="scale(0.015625)"/>
      <path id="DejaVuSerif-Bold-2014" d="M 344 2075 
L 6056 2075 
L 6056 1325 
L 344 1325 
L 344 2075 
z
" transform="scale(0.015625)"/>
      <path id="DejaVuSerif-Bold-54" d="M 1159 0 
L 1159 378 
L 1778 378 
L 1778 4238 
L 500 4238 
L 500 3500 
L 72 3500 
L 72 4666 
L 4697 4666 
L 4697 3500 
L 4275 3500 
L 4275 4238 
L 2988 4238 
L 2988 378 
L 3609 378 
L 3609 0 
L 1159 0 
z
" transform="scale(0.015625)"/>
      <path id="DejaVuSerif-Bold-6f" d="M 2138 263 
Q 2488 263 2630 563 
Q 2772 863 2772 1663 
Q 2772 2463 2631 2761 
Q 2491 3059 2138 3059 
Q 1784 3059 1640 2757 
Q 1497 2456 1497 1663 
Q 1497 869 1640 566 
Q 1784 263 2138 263 
z
M 2138 -91 
Q 1259 -91 761 376 
Q 263 844 263 1663 
Q 263 2484 761 2948 
Q 1259 3413 2138 3413 
Q 3019 3413 3516 2948 
Q 4013 2484 4013 1663 
Q 4013 844 3514 376 
Q 3016 -91 2138 -91 
z
" transform="scale(0.015625)"/>
      <path id="DejaVuSerif-Bold-74" d="M 634 2944 
L 153 2944 
L 153 3322 
L 634 3322 
L 634 4353 
L 1741 4353 
L 1741 3322 
L 2663 3322 
L 2663 2944 
L 1741 2944 
L 1741 909 
Q 1741 475 1809 369 
Q 1878 263 2059 263 
Q 2259 263 2356 397 
Q 2453 531 2459 813 
L 2925 813 
Q 2897 313 2651 111 
Q 2406 -91 1806 -91 
Q 1122 -91 878 123 
Q 634 338 634 909 
L 634 2944 
z
" transform="scale(0.015625)"/>
      <path id="DejaVuSerif-Bold-61" d="M 3525 2041 
L 3525 378 
L 4000 378 
L 4000 0 
L 2419 0 
L 2419 422 
Q 2200 159 1931 34 
Q 1663 -91 1319 -91 
Q 809 -91 536 182 
Q 263 456 263 966 
Q 263 1525 655 1803 
Q 1047 2081 1838 2081 
L 2419 2081 
L 2419 2278 
Q 2419 2681 2228 2873 
Q 2038 3066 1638 3066 
Q 1306 3066 1126 2930 
Q 947 2794 872 2484 
L 519 2484 
L 519 3200 
Q 816 3306 1134 3359 
Q 1453 3413 1806 3413 
Q 2697 3413 3111 3081 
Q 3525 2750 3525 2041 
z
M 2419 1044 
L 2419 1709 
L 2003 1709 
Q 1694 1709 1528 1540 
Q 1363 1372 1363 1056 
Q 1363 741 1483 584 
Q 1603 428 1850 428 
Q 2106 428 2262 597 
Q 2419 766 2419 1044 
z
" transform="scale(0.015625)"/>
      <path id="DejaVuSerif-Bold-6c" d="M 1797 378 
L 2272 378 
L 2272 0 
L 219 0 
L 219 378 
L 691 378 
L 691 4488 
L 219 4488 
L 219 4863 
L 1797 4863 
L 1797 378 
z
" transform="scale(0.015625)"/>
      <path id="DejaVuSerif-Bold-50" d="M 300 0 
L 300 378 
L 897 378 
L 897 4288 
L 300 4288 
L 300 4666 
L 2956 4666 
Q 3734 4666 4193 4295 
Q 4653 3925 4653 3303 
Q 4653 2678 4192 2304 
Q 3731 1931 2956 1931 
L 2100 1931 
L 2100 378 
L 2853 378 
L 2853 0 
L 300 0 
z
M 2100 2309 
L 2450 2309 
Q 2856 2309 3098 2579 
Q 3341 2850 3341 3303 
Q 3341 3753 3100 4020 
Q 2859 4288 2450 4288 
L 2100 4288 
L 2100 2309 
z
" transform="scale(0.015625)"/>
      <path id="DejaVuSerif-Bold-63" d="M 3609 1038 
Q 3491 469 3123 189 
Q 2756 -91 2125 -91 
Q 1238 -91 750 368 
Q 263 828 263 1663 
Q 263 2488 744 2950 
Q 1225 3413 2081 3413 
Q 2428 3413 2781 3347 
Q 3134 3281 3500 3150 
L 3500 2228 
L 3150 2228 
Q 3100 2650 2903 2854 
Q 2706 3059 2350 3059 
Q 1888 3059 1692 2746 
Q 1497 2434 1497 1663 
Q 1497 909 1687 586 
Q 1878 263 2309 263 
Q 2644 263 2845 463 
Q 3047 663 3091 1038 
L 3609 1038 
z
" transform="scale(0.015625)"/>
      <path id="DejaVuSerif-Bold-6b" d="M 2216 0 
L 219 0 
L 219 378 
L 691 378 
L 691 4488 
L 219 4488 
L 219 4863 
L 1797 4863 
L 1797 1741 
L 3138 2944 
L 2741 2944 
L 2741 3322 
L 4256 3322 
L 4256 2944 
L 3641 2944 
L 2784 2175 
L 4184 378 
L 4544 378 
L 4544 0 
L 2638 0 
L 2638 378 
L 3028 378 
L 2106 1563 
L 1797 1288 
L 1797 378 
L 2216 378 
L 2216 0 
z
" transform="scale(0.015625)"/>
      <path id="DejaVuSerif-Bold-65" d="M 2566 1875 
Q 2566 2531 2444 2795 
Q 2322 3059 2028 3059 
Q 1744 3059 1620 2800 
Q 1497 2541 1497 1931 
L 1497 1875 
L 2566 1875 
z
M 3781 1503 
L 1497 1503 
L 1497 1478 
Q 1497 834 1690 548 
Q 1884 263 2316 263 
Q 2675 263 2897 453 
Q 3119 644 3181 1006 
L 3700 1006 
Q 3566 441 3166 175 
Q 2766 -91 2047 -91 
Q 1184 -91 723 364 
Q 263 819 263 1663 
Q 263 2488 734 2950 
Q 1206 3413 2047 3413 
Q 2872 3413 3312 2927 
Q 3753 2441 3781 1503 
z
" transform="scale(0.015625)"/>
      <path id="DejaVuSerif-Bold-79" d="M 1997 -750 
Q 1847 -1116 1634 -1269 
Q 1422 -1422 1063 -1422 
Q 909 -1422 721 -1387 
Q 534 -1353 313 -1288 
L 313 -594 
L 666 -597 
Q 675 -838 779 -953 
Q 884 -1069 1094 -1069 
Q 1297 -1069 1422 -958 
Q 1547 -847 1672 -538 
L 1722 -422 
L 275 2944 
L -84 2944 
L -84 3322 
L 1831 3322 
L 1831 2944 
L 1434 2944 
L 2278 978 
L 3066 2944 
L 2625 2944 
L 2625 3322 
L 3872 3322 
L 3872 2944 
L 3469 2944 
L 1997 -750 
z
" transform="scale(0.015625)"/>
     </defs>
     <use xlink:href="#DejaVuSerif-Bold-43"/>
     <use xlink:href="#DejaVuSerif-Bold-44" transform="translate(79.589844 0)"/>
     <use xlink:href="#DejaVuSerif-Bold-46" transform="translate(166.308594 0)"/>
     <use xlink:href="#DejaVuSerif-Bold-20" transform="translate(237.304688 0)"/>
     <use xlink:href="#DejaVuSerif-Bold-2014" transform="translate(272.119141 0)"/>
     <use xlink:href="#DejaVuSerif-Bold-20" transform="translate(372.119141 0)"/>
     <use xlink:href="#DejaVuSerif-Bold-54" transform="translate(406.933594 0)"/>
     <use xlink:href="#DejaVuSerif-Bold-6f" transform="translate(469.847656 0)"/>
     <use xlink:href="#DejaVuSerif-Bold-74" transform="translate(536.546875 0)"/>
     <use xlink:href="#DejaVuSerif-Bold-61" transform="translate(582.738281 0)"/>
     <use xlink:href="#DejaVuSerif-Bold-6c" transform="translate(647.533203 0)"/>
     <use xlink:href="#DejaVuSerif-Bold-20" transform="translate(685.521484 0)"/>
     <use xlink:href="#DejaVuSerif-Bold-50" transform="translate(720.335938 0)"/>
     <use xlink:href="#DejaVuSerif-Bold-61" transform="translate(792.90625 0)"/>
     <use xlink:href="#DejaVuSerif-Bold-63" transform="translate(857.701172 0)"/>
     <use xlink:href="#DejaVuSerif-Bold-6b" transform="translate(918.589844 0)"/>
     <use xlink:href="#DejaVuSerif-Bold-65" transform="translate(987.876953 0)"/>
     <use xlink:href="#DejaVuSerif-Bold-74" transform="translate(1051.5 0)"/>
     <use xlink:href="#DejaVuSerif-Bold-20" transform="translate(1097.691406 0)"/>
     <use xlink:href="#DejaVuSerif-Bold-44" transform="translate(1132.505859 0)"/>
     <use xlink:href="#DejaVuSerif-Bold-65" transform="translate(1219.224609 0)"/>
     <use xlink:href="#DejaVuSerif-Bold-6c" transform="translate(1282.847656 0)"/>
     <use xlink:href="#DejaVuSerif-Bold-61" transform="translate(1320.835938 0)"/>
     <use xlink:href="#DejaVuSerif-Bold-79" transform="translate(1385.630859 0)"/>
    </g>
   </g>
   <g id="legend_1">
    <g id="patch_7">
     <path d="M 57.507188 92.696562 
L 119.181094 92.696562 
Q 121.381094 92.696562 121.381094 90.496562 
L 121.381094 59.304687 
Q 121.381094 57.104687 119.181094 57.104687 
L 57.507188 57.104687 
Q 55.307187 57.104687 55.307187 59.304687 
L 55.307187 90.496562 
Q 55.307187 92.696562 57.507188 92.696562 
z
" style="fill: #ffffff; opacity: 0.8; stroke: #cccccc; stroke-linejoin: miter"/>
    </g>
    <g id="line2d_16">
     <path d="M 59.707187 66.012969 
L 70.707188 66.012969 
L 81.707188 66.012969 
" style="fill: none; stroke: #1f77b4; stroke-width: 2.5; stroke-linecap: round"/>
    </g>
    <g id="text_18">
     <!-- BLA -->
     <g style="fill: #262626" transform="translate(90.507188 69.862969) scale(0.11 -0.11)">
      <defs>
       <path id="DejaVuSerif-42" d="M 1581 331 
L 2516 331 
Q 3078 331 3337 575 
Q 3597 819 3597 1350 
Q 3597 1878 3339 2120 
Q 3081 2363 2516 2363 
L 1581 2363 
L 1581 331 
z
M 1581 2694 
L 2375 2694 
Q 2888 2694 3123 2891 
Q 3359 3088 3359 3513 
Q 3359 3941 3123 4136 
Q 2888 4331 2375 4331 
L 1581 4331 
L 1581 2694 
z
M 353 0 
L 353 331 
L 947 331 
L 947 4331 
L 353 4331 
L 353 4666 
L 2656 4666 
Q 3363 4666 3720 4377 
Q 4078 4088 4078 3513 
Q 4078 3097 3829 2850 
Q 3581 2603 3103 2547 
Q 3697 2472 4005 2167 
Q 4313 1863 4313 1350 
Q 4313 656 3875 328 
Q 3438 0 2509 0 
L 353 0 
z
" transform="scale(0.015625)"/>
       <path id="DejaVuSerif-4c" d="M 353 0 
L 353 331 
L 947 331 
L 947 4331 
L 353 4331 
L 353 4666 
L 2175 4666 
L 2175 4331 
L 1581 4331 
L 1581 384 
L 3713 384 
L 3713 1166 
L 4097 1166 
L 4097 0 
L 353 0 
z
" transform="scale(0.015625)"/>
       <path id="DejaVuSerif-41" d="M 1281 1691 
L 2994 1691 
L 2138 3909 
L 1281 1691 
z
M -38 0 
L -38 331 
L 372 331 
L 2034 4666 
L 2559 4666 
L 4225 331 
L 4684 331 
L 4684 0 
L 2988 0 
L 2988 331 
L 3506 331 
L 3116 1356 
L 1153 1356 
L 763 331 
L 1275 331 
L 1275 0 
L -38 0 
z
" transform="scale(0.015625)"/>
      </defs>
      <use xlink:href="#DejaVuSerif-42"/>
      <use xlink:href="#DejaVuSerif-4c" transform="translate(73.486328 0)"/>
      <use xlink:href="#DejaVuSerif-41" transform="translate(139.892578 0)"/>
     </g>
    </g>
    <g id="line2d_17">
     <path d="M 59.707187 82.158906 
L 70.707188 82.158906 
L 81.707188 82.158906 
" style="fill: none; stroke: #d62728; stroke-width: 2.5; stroke-linecap: round"/>
    </g>
    <g id="text_19">
     <!-- First -->
     <g style="fill: #262626" transform="translate(90.507188 86.008906) scale(0.11 -0.11)">
      <defs>
       <path id="DejaVuSerif-46" d="M 353 0 
L 353 331 
L 947 331 
L 947 4331 
L 353 4331 
L 353 4666 
L 4172 4666 
L 4172 3628 
L 3788 3628 
L 3788 4281 
L 1581 4281 
L 1581 2719 
L 3175 2719 
L 3175 3303 
L 3559 3303 
L 3559 1753 
L 3175 1753 
L 3175 2338 
L 1581 2338 
L 1581 331 
L 2328 331 
L 2328 0 
L 353 0 
z
" transform="scale(0.015625)"/>
       <path id="DejaVuSerif-69" d="M 622 4353 
Q 622 4497 726 4603 
Q 831 4709 978 4709 
Q 1122 4709 1226 4603 
Q 1331 4497 1331 4353 
Q 1331 4206 1228 4103 
Q 1125 4000 978 4000 
Q 831 4000 726 4103 
Q 622 4206 622 4353 
z
M 1356 331 
L 1900 331 
L 1900 0 
L 231 0 
L 231 331 
L 781 331 
L 781 2988 
L 231 2988 
L 231 3322 
L 1356 3322 
L 1356 331 
z
" transform="scale(0.015625)"/>
       <path id="DejaVuSerif-72" d="M 3059 3328 
L 3059 2497 
L 2728 2497 
Q 2713 2744 2591 2866 
Q 2469 2988 2234 2988 
Q 1809 2988 1582 2694 
Q 1356 2400 1356 1850 
L 1356 331 
L 2022 331 
L 2022 0 
L 263 0 
L 263 331 
L 781 331 
L 781 2994 
L 231 2994 
L 231 3322 
L 1356 3322 
L 1356 2731 
Q 1525 3078 1790 3245 
Q 2056 3413 2438 3413 
Q 2578 3413 2733 3391 
Q 2888 3369 3059 3328 
z
" transform="scale(0.015625)"/>
      </defs>
      <use xlink:href="#DejaVuSerif-46"/>
      <use xlink:href="#DejaVuSerif-69" transform="translate(69.384766 0)"/>
      <use xlink:href="#DejaVuSerif-72" transform="translate(101.367188 0)"/>
      <use xlink:href="#DejaVuSerif-73" transform="translate(149.169922 0)"/>
      <use xlink:href="#DejaVuSerif-74" transform="translate(200.488281 0)"/>
     </g>
    </g>
   </g>
  </g>
  <g id="axes_2">
   <g id="patch_8">
    <path d="M 547.327187 381.669687 
L 989.28 381.669687 
L 989.28 51.604687 
L 547.327187 51.604687 
z
" style="fill: #ffffff"/>
   </g>
   <g id="matplotlib.axis_3">
    <g id="xtick_8">
     <g id="line2d_18">
      <path d="M 566.151983 381.669687 
L 566.151983 51.604687 
" clip-path="url(#p16958d1b80)" style="fill: none; stroke-dasharray: 3.7,1.6; stroke-dashoffset: 0; stroke: #dddddd; stroke-opacity: 0.3"/>
     </g>
     <g id="text_20">
      <!-- 0.0 -->
      <g style="fill: #262626" transform="translate(557.405264 399.527969) scale(0.11 -0.11)">
       <use xlink:href="#DejaVuSerif-30"/>
       <use xlink:href="#DejaVuSerif-2e" transform="translate(63.623047 0)"/>
       <use xlink:href="#DejaVuSerif-30" transform="translate(95.410156 0)"/>
      </g>
     </g>
    </g>
    <g id="xtick_9">
     <g id="line2d_19">
      <path d="M 659.092235 381.669687 
L 659.092235 51.604687 
" clip-path="url(#p16958d1b80)" style="fill: none; stroke-dasharray: 3.7,1.6; stroke-dashoffset: 0; stroke: #dddddd; stroke-opacity: 0.3"/>
     </g>
     <g id="text_21">
      <!-- 0.5 -->
      <g style="fill: #262626" transform="translate(650.345516 399.527969) scale(0.11 -0.11)">
       <use xlink:href="#DejaVuSerif-30"/>
       <use xlink:href="#DejaVuSerif-2e" transform="translate(63.623047 0)"/>
       <use xlink:href="#DejaVuSerif-35" transform="translate(95.410156 0)"/>
      </g>
     </g>
    </g>
    <g id="xtick_10">
     <g id="line2d_20">
      <path d="M 752.032486 381.669687 
L 752.032486 51.604687 
" clip-path="url(#p16958d1b80)" style="fill: none; stroke-dasharray: 3.7,1.6; stroke-dashoffset: 0; stroke: #dddddd; stroke-opacity: 0.3"/>
     </g>
     <g id="text_22">
      <!-- 1.0 -->
      <g style="fill: #262626" transform="translate(743.285768 399.527969) scale(0.11 -0.11)">
       <use xlink:href="#DejaVuSerif-31"/>
       <use xlink:href="#DejaVuSerif-2e" transform="translate(63.623047 0)"/>
       <use xlink:href="#DejaVuSerif-30" transform="translate(95.410156 0)"/>
      </g>
     </g>
    </g>
    <g id="xtick_11">
     <g id="line2d_21">
      <path d="M 844.972738 381.669687 
L 844.972738 51.604687 
" clip-path="url(#p16958d1b80)" style="fill: none; stroke-dasharray: 3.7,1.6; stroke-dashoffset: 0; stroke: #dddddd; stroke-opacity: 0.3"/>
     </g>
     <g id="text_23">
      <!-- 1.5 -->
      <g style="fill: #262626" transform="translate(836.22602 399.527969) scale(0.11 -0.11)">
       <use xlink:href="#DejaVuSerif-31"/>
       <use xlink:href="#DejaVuSerif-2e" transform="translate(63.623047 0)"/>
       <use xlink:href="#DejaVuSerif-35" transform="translate(95.410156 0)"/>
      </g>
     </g>
    </g>
    <g id="xtick_12">
     <g id="line2d_22">
      <path d="M 937.91299 381.669687 
L 937.91299 51.604687 
" clip-path="url(#p16958d1b80)" style="fill: none; stroke-dasharray: 3.7,1.6; stroke-dashoffset: 0; stroke: #dddddd; stroke-opacity: 0.3"/>
     </g>
     <g id="text_24">
      <!-- 2.0 -->
      <g style="fill: #262626" transform="translate(929.166271 399.527969) scale(0.11 -0.11)">
       <use xlink:href="#DejaVuSerif-32"/>
       <use xlink:href="#DejaVuSerif-2e" transform="translate(63.623047 0)"/>
       <use xlink:href="#DejaVuSerif-30" transform="translate(95.410156 0)"/>
      </g>
     </g>
    </g>
    <g id="text_25">
     <!-- Queuing Delay (ms) -->
     <g style="fill: #262626" transform="translate(707.967969 414.93375) scale(0.12 -0.12)">
      <defs>
       <path id="DejaVuSerif-51" d="M 2700 -91 
Q 1628 -91 993 567 
Q 359 1225 359 2328 
Q 359 2894 529 3339 
Q 700 3784 1050 4134 
Q 1356 4441 1750 4595 
Q 2144 4750 2625 4750 
Q 3641 4750 4266 4084 
Q 4891 3419 4891 2328 
Q 4891 1403 4422 773 
Q 3953 144 3128 -38 
Q 3297 -247 3539 -347 
Q 3781 -447 4122 -447 
L 4219 -447 
L 4219 -1025 
Q 3691 -1000 3314 -767 
Q 2938 -534 2700 -91 
z
M 2625 244 
Q 3391 244 3781 770 
Q 4172 1297 4172 2328 
Q 4172 3363 3781 3889 
Q 3391 4416 2625 4416 
Q 1856 4416 1465 3889 
Q 1075 3363 1075 2328 
Q 1075 1297 1465 770 
Q 1856 244 2625 244 
z
" transform="scale(0.015625)"/>
       <path id="DejaVuSerif-75" d="M 2266 3322 
L 3341 3322 
L 3341 331 
L 3884 331 
L 3884 0 
L 2766 0 
L 2766 588 
Q 2606 256 2353 82 
Q 2100 -91 1766 -91 
Q 1213 -91 952 223 
Q 691 538 691 1209 
L 691 2988 
L 172 2988 
L 172 3322 
L 1269 3322 
L 1269 1388 
Q 1269 781 1417 556 
Q 1566 331 1947 331 
Q 2347 331 2556 625 
Q 2766 919 2766 1478 
L 2766 2988 
L 2266 2988 
L 2266 3322 
z
" transform="scale(0.015625)"/>
       <path id="DejaVuSerif-6e" d="M 263 0 
L 263 331 
L 781 331 
L 781 2988 
L 231 2988 
L 231 3322 
L 1356 3322 
L 1356 2731 
Q 1516 3069 1770 3241 
Q 2025 3413 2363 3413 
Q 2913 3413 3172 3097 
Q 3431 2781 3431 2113 
L 3431 331 
L 3944 331 
L 3944 0 
L 2356 0 
L 2356 331 
L 2853 331 
L 2853 1931 
Q 2853 2541 2703 2767 
Q 2553 2994 2175 2994 
Q 1775 2994 1565 2701 
Q 1356 2409 1356 1850 
L 1356 331 
L 1856 331 
L 1856 0 
L 263 0 
z
" transform="scale(0.015625)"/>
       <path id="DejaVuSerif-67" d="M 3359 2988 
L 3359 72 
Q 3359 -644 2965 -1033 
Q 2572 -1422 1844 -1422 
Q 1516 -1422 1216 -1362 
Q 916 -1303 641 -1184 
L 641 -488 
L 941 -488 
Q 997 -813 1206 -963 
Q 1416 -1113 1806 -1113 
Q 2313 -1113 2548 -827 
Q 2784 -541 2784 72 
L 2784 519 
Q 2616 206 2355 57 
Q 2094 -91 1709 -91 
Q 1097 -91 708 395 
Q 319 881 319 1663 
Q 319 2444 706 2928 
Q 1094 3413 1709 3413 
Q 2094 3413 2355 3264 
Q 2616 3116 2784 2803 
L 2784 3322 
L 3909 3322 
L 3909 2988 
L 3359 2988 
z
M 2784 1825 
Q 2784 2422 2554 2737 
Q 2325 3053 1888 3053 
Q 1444 3053 1217 2703 
Q 991 2353 991 1663 
Q 991 975 1217 622 
Q 1444 269 1888 269 
Q 2325 269 2554 583 
Q 2784 897 2784 1497 
L 2784 1825 
z
" transform="scale(0.015625)"/>
      </defs>
      <use xlink:href="#DejaVuSerif-51"/>
      <use xlink:href="#DejaVuSerif-75" transform="translate(81.982422 0)"/>
      <use xlink:href="#DejaVuSerif-65" transform="translate(146.386719 0)"/>
      <use xlink:href="#DejaVuSerif-75" transform="translate(205.566406 0)"/>
      <use xlink:href="#DejaVuSerif-69" transform="translate(269.970703 0)"/>
      <use xlink:href="#DejaVuSerif-6e" transform="translate(301.953125 0)"/>
      <use xlink:href="#DejaVuSerif-67" transform="translate(366.357422 0)"/>
      <use xlink:href="#DejaVuSerif-20" transform="translate(430.371094 0)"/>
      <use xlink:href="#DejaVuSerif-44" transform="translate(462.158203 0)"/>
      <use xlink:href="#DejaVuSerif-65" transform="translate(542.333984 0)"/>
      <use xlink:href="#DejaVuSerif-6c" transform="translate(601.513672 0)"/>
      <use xlink:href="#DejaVuSerif-61" transform="translate(633.496094 0)"/>
      <use xlink:href="#DejaVuSerif-79" transform="translate(693.115234 0)"/>
      <use xlink:href="#DejaVuSerif-20" transform="translate(749.609375 0)"/>
      <use xlink:href="#DejaVuSerif-28" transform="translate(781.396484 0)"/>
      <use xlink:href="#DejaVuSerif-6d" transform="translate(820.410156 0)"/>
      <use xlink:href="#DejaVuSerif-73" transform="translate(915.234375 0)"/>
      <use xlink:href="#DejaVuSerif-29" transform="translate(966.552734 0)"/>
     </g>
    </g>
    <g id="text_26">
     <!-- 1e6 -->
     <g style="fill: #262626" transform="translate(968.771875 413.173906) scale(0.11 -0.11)">
      <use xlink:href="#DejaVuSerif-31"/>
      <use xlink:href="#DejaVuSerif-65" transform="translate(63.623047 0)"/>
      <use xlink:href="#DejaVuSerif-36" transform="translate(122.802734 0)"/>
     </g>
    </g>
   </g>
   <g id="matplotlib.axis_4">
    <g id="ytick_7">
     <g id="line2d_23">
      <path d="M 547.327187 366.666733 
L 989.28 366.666733 
" clip-path="url(#p16958d1b80)" style="fill: none; stroke-dasharray: 3.7,1.6; stroke-dashoffset: 0; stroke: #dddddd; stroke-opacity: 0.3"/>
     </g>
     <g id="text_27">
      <!-- 0.0 -->
      <g style="fill: #262626" transform="translate(520.33375 370.845874) scale(0.11 -0.11)">
       <use xlink:href="#DejaVuSerif-30"/>
       <use xlink:href="#DejaVuSerif-2e" transform="translate(63.623047 0)"/>
       <use xlink:href="#DejaVuSerif-30" transform="translate(95.410156 0)"/>
      </g>
     </g>
    </g>
    <g id="ytick_8">
     <g id="line2d_24">
      <path d="M 547.327187 306.588161 
L 989.28 306.588161 
" clip-path="url(#p16958d1b80)" style="fill: none; stroke-dasharray: 3.7,1.6; stroke-dashoffset: 0; stroke: #dddddd; stroke-opacity: 0.3"/>
     </g>
     <g id="text_28">
      <!-- 0.2 -->
      <g style="fill: #262626" transform="translate(520.33375 310.767301) scale(0.11 -0.11)">
       <use xlink:href="#DejaVuSerif-30"/>
       <use xlink:href="#DejaVuSerif-2e" transform="translate(63.623047 0)"/>
       <use xlink:href="#DejaVuSerif-32" transform="translate(95.410156 0)"/>
      </g>
     </g>
    </g>
    <g id="ytick_9">
     <g id="line2d_25">
      <path d="M 547.327187 246.509589 
L 989.28 246.509589 
" clip-path="url(#p16958d1b80)" style="fill: none; stroke-dasharray: 3.7,1.6; stroke-dashoffset: 0; stroke: #dddddd; stroke-opacity: 0.3"/>
     </g>
     <g id="text_29">
      <!-- 0.4 -->
      <g style="fill: #262626" transform="translate(520.33375 250.688729) scale(0.11 -0.11)">
       <use xlink:href="#DejaVuSerif-30"/>
       <use xlink:href="#DejaVuSerif-2e" transform="translate(63.623047 0)"/>
       <use xlink:href="#DejaVuSerif-34" transform="translate(95.410156 0)"/>
      </g>
     </g>
    </g>
    <g id="ytick_10">
     <g id="line2d_26">
      <path d="M 547.327187 186.431017 
L 989.28 186.431017 
" clip-path="url(#p16958d1b80)" style="fill: none; stroke-dasharray: 3.7,1.6; stroke-dashoffset: 0; stroke: #dddddd; stroke-opacity: 0.3"/>
     </g>
     <g id="text_30">
      <!-- 0.6 -->
      <g style="fill: #262626" transform="translate(520.33375 190.610157) scale(0.11 -0.11)">
       <use xlink:href="#DejaVuSerif-30"/>
       <use xlink:href="#DejaVuSerif-2e" transform="translate(63.623047 0)"/>
       <use xlink:href="#DejaVuSerif-36" transform="translate(95.410156 0)"/>
      </g>
     </g>
    </g>
    <g id="ytick_11">
     <g id="line2d_27">
      <path d="M 547.327187 126.352444 
L 989.28 126.352444 
" clip-path="url(#p16958d1b80)" style="fill: none; stroke-dasharray: 3.7,1.6; stroke-dashoffset: 0; stroke: #dddddd; stroke-opacity: 0.3"/>
     </g>
     <g id="text_31">
      <!-- 0.8 -->
      <g style="fill: #262626" transform="translate(520.33375 130.531585) scale(0.11 -0.11)">
       <use xlink:href="#DejaVuSerif-30"/>
       <use xlink:href="#DejaVuSerif-2e" transform="translate(63.623047 0)"/>
       <use xlink:href="#DejaVuSerif-38" transform="translate(95.410156 0)"/>
      </g>
     </g>
    </g>
    <g id="ytick_12">
     <g id="line2d_28">
      <path d="M 547.327187 66.273872 
L 989.28 66.273872 
" clip-path="url(#p16958d1b80)" style="fill: none; stroke-dasharray: 3.7,1.6; stroke-dashoffset: 0; stroke: #dddddd; stroke-opacity: 0.3"/>
     </g>
     <g id="text_32">
      <!-- 1.0 -->
      <g style="fill: #262626" transform="translate(520.33375 70.453013) scale(0.11 -0.11)">
       <use xlink:href="#DejaVuSerif-31"/>
       <use xlink:href="#DejaVuSerif-2e" transform="translate(63.623047 0)"/>
       <use xlink:href="#DejaVuSerif-30" transform="translate(95.410156 0)"/>
      </g>
     </g>
    </g>
    <g id="text_33">
     <!-- P(X ≤ x) -->
     <g style="fill: #262626" transform="translate(513.838125 241.852187) rotate(-90) scale(0.12 -0.12)">
      <use xlink:href="#DejaVuSerif-50"/>
      <use xlink:href="#DejaVuSerif-28" transform="translate(67.285156 0)"/>
      <use xlink:href="#DejaVuSerif-58" transform="translate(106.298828 0)"/>
      <use xlink:href="#DejaVuSerif-20" transform="translate(177.490234 0)"/>
      <use xlink:href="#DejaVuSerif-2264" transform="translate(209.277344 0)"/>
      <use xlink:href="#DejaVuSerif-20" transform="translate(293.066406 0)"/>
      <use xlink:href="#DejaVuSerif-78" transform="translate(324.853516 0)"/>
      <use xlink:href="#DejaVuSerif-29" transform="translate(381.25 0)"/>
     </g>
    </g>
   </g>
   <g id="line2d_29">
    <path d="M 567.415952 366.666733 
L 567.41597 254.853835 
L 567.640886 254.520065 
L 567.795166 207.124747 
L 567.824907 198.780501 
L 568.174355 198.446731 
L 568.189234 196.777882 
L 568.382545 196.444112 
L 568.429022 194.441493 
L 568.700407 193.440183 
L 568.902952 190.770024 
L 568.962497 186.764786 
L 569.051721 186.097247 
L 569.150236 183.760858 
L 569.246896 182.425778 
L 569.49783 176.084151 
L 569.65214 175.750381 
L 569.732068 175.082842 
L 569.906772 174.749072 
L 571.133502 174.415302 
L 571.193064 163.400897 
L 571.282263 162.733357 
L 571.365869 156.7255 
L 571.430981 156.057961 
L 571.53141 148.381254 
L 571.642896 145.377326 
L 571.799059 142.707167 
L 574.851113 142.373397 
L 574.910669 135.36423 
L 575.07424 135.03046 
L 575.154178 133.361611 
L 575.232184 132.026532 
L 575.321471 130.691452 
L 582.286333 130.357682 
L 582.301281 127.353754 
L 582.435101 127.019984 
L 582.544723 125.684905 
L 582.583811 124.683595 
L 582.669263 122.013436 
L 582.712077 121.679667 
L 582.935075 121.345897 
L 582.970453 120.678357 
L 586.003942 120.344587 
L 586.003999 118.675738 
L 586.152694 118.341968 
L 586.247505 117.006889 
L 586.301415 116.005579 
L 586.30142 115.671809 
L 586.539359 115.338039 
L 586.561665 114.6705 
L 604.591995 114.33673 
L 604.621803 111.332801 
L 604.740764 110.999031 
L 604.815119 106.660023 
L 604.889425 105.992484 
L 604.984217 101.987246 
L 605.27421 98.649547 
L 641.768095 98.315777 
L 641.768108 97.314468 
L 641.91682 96.980698 
L 641.916876 95.979388 
L 642.06366 95.311849 
L 642.065582 93.30923 
L 642.268193 92.64169 
L 642.411321 91.64038 
L 716.179842 91.306611 
L 716.269066 89.637761 
L 716.41777 89.303992 
L 716.523737 88.636452 
L 716.678017 87.635142 
L 753.296395 87.301372 
L 753.326227 81.627285 
L 753.445141 81.293515 
L 753.547415 80.292206 
L 753.707297 76.286968 
L 753.896871 75.953198 
L 753.909907 75.619428 
L 939.176898 75.285658 
L 939.19188 72.949269 
L 939.325669 72.615499 
L 939.431573 70.94665 
L 939.474428 68.276491 
L 939.630529 67.942721 
L 939.730947 66.607642 
L 939.730947 66.607642 
" clip-path="url(#p16958d1b80)" style="fill: none; stroke: #1f77b4; stroke-width: 2.5; stroke-linecap: round"/>
   </g>
   <g id="line2d_30">
    <path d="M 567.415952 366.666733 
L 567.41597 254.853835 
L 567.640886 254.520065 
L 567.750555 221.14308 
L 567.824907 198.780501 
L 568.189234 198.446731 
L 568.189249 198.112961 
L 568.308327 197.779191 
L 568.308335 197.445421 
L 568.457025 197.111652 
L 568.566711 196.110342 
L 568.84925 195.776572 
L 568.903008 194.775263 
L 568.903014 193.106413 
L 569.163247 192.772644 
L 569.282225 191.437564 
L 569.282227 191.103794 
L 569.423614 190.770024 
L 569.423618 190.436255 
L 569.717311 189.768715 
L 570.390122 189.434945 
L 570.390199 185.095937 
L 570.62255 184.762167 
L 570.761948 182.759548 
L 570.771254 182.092009 
L 571.074239 181.758239 
L 571.133571 181.090699 
L 571.163333 176.417921 
L 571.282296 176.084151 
L 571.2823 175.750381 
L 571.404966 175.416612 
L 571.505477 171.077604 
L 571.650347 170.743834 
L 571.769432 168.407445 
L 572.064982 168.073675 
L 572.077994 167.739905 
L 572.620745 167.406135 
L 572.620762 163.734667 
L 572.940479 163.400897 
L 573.025977 161.732048 
L 573.364279 161.398278 
L 573.364281 161.064508 
L 574.107798 160.396969 
L 574.107807 158.06058 
L 574.332724 157.72681 
L 574.503734 156.7255 
L 574.851174 156.39173 
L 574.851322 153.387802 
L 575.000023 153.054032 
L 575.000035 151.385183 
L 575.20994 150.717643 
L 575.260261 149.716334 
L 575.394102 149.382564 
L 575.446143 147.379945 
L 575.717534 147.046175 
L 575.821627 146.712405 
L 577.081829 146.378635 
L 577.081886 145.377326 
L 577.370004 145.043556 
L 577.412706 144.709786 
L 577.825401 144.376016 
L 577.825407 143.374706 
L 578.13955 143.040937 
L 578.23249 142.707167 
L 582.286394 142.373397 
L 582.286408 140.704548 
L 582.518761 140.370778 
L 582.637725 139.703238 
L 583.773575 139.369468 
L 583.773588 137.033079 
L 584.052408 136.69931 
L 584.152784 135.698 
L 586.004002 135.36423 
L 586.00415 131.692762 
L 586.152731 131.358992 
L 586.256951 130.357682 
L 586.511493 128.688833 
L 588.234715 128.355063 
L 588.234723 128.021294 
L 588.978232 127.353754 
L 588.978237 127.019984 
L 589.294246 126.686214 
L 590.465279 126.352444 
L 590.465285 126.018675 
L 591.208794 125.351135 
L 591.208806 125.017365 
L 591.48577 124.683595 
L 593.439357 124.349825 
L 593.439369 124.016055 
L 593.705183 123.682286 
L 597.156919 123.348516 
L 597.156976 121.679667 
L 597.432036 121.345897 
L 597.500863 120.678357 
L 598.644015 120.344587 
L 598.644027 120.010817 
L 598.986048 119.677047 
L 600.874583 119.343278 
L 600.87459 118.341968 
L 601.164568 118.008198 
L 601.259367 117.674428 
L 604.592056 117.340659 
L 604.592063 116.339349 
L 604.740903 116.005579 
L 604.740905 115.671809 
L 604.889505 115.00427 
L 604.99729 113.66919 
L 605.131265 113.33542 
L 605.211194 112.667881 
L 606.079233 112.334111 
L 606.079247 109.997722 
L 606.3209 109.663952 
L 606.443581 108.662643 
L 606.822767 108.328873 
L 606.822767 107.995103 
L 607.107175 107.661333 
L 607.566282 107.327563 
L 607.566285 106.993793 
L 607.852556 106.660023 
L 612.027364 106.326254 
L 612.027418 104.657404 
L 612.389891 104.323635 
L 612.430785 103.656095 
L 619.46263 103.322325 
L 619.462635 102.321015 
L 619.739606 101.987246 
L 619.825111 101.653476 
L 626.897853 101.319706 
L 626.897854 100.985936 
L 627.212003 100.652166 
L 634.333067 100.318396 
L 634.333076 99.317087 
L 634.632352 98.983317 
L 634.652799 98.649547 
L 641.768156 98.315777 
L 641.76817 97.314468 
L 641.916899 96.980698 
L 642.022828 96.313158 
L 642.270086 95.645619 
L 644.742386 95.311849 
L 644.742399 94.310539 
L 645.010068 93.976769 
L 645.119738 93.643 
L 656.638731 93.30923 
L 656.638742 92.97546 
L 656.967754 92.64169 
L 671.509171 92.30792 
L 671.509176 91.97415 
L 671.882805 91.64038 
L 716.715316 91.306611 
L 716.715326 90.972841 
L 717.098245 90.639071 
L 722.068667 90.305301 
L 722.068677 89.971531 
L 722.408844 89.637761 
L 730.990932 89.303992 
L 730.990932 88.970222 
L 731.360849 88.636452 
L 745.861372 88.302682 
L 745.861382 87.968912 
L 746.09002 87.635142 
L 753.296456 87.301372 
L 753.311362 84.964984 
L 753.445178 84.631214 
L 753.554866 81.627285 
L 753.594009 80.959745 
L 753.785358 80.625976 
L 753.900726 79.624666 
L 754.783634 79.290896 
L 754.783642 78.957126 
L 755.056895 78.623356 
L 756.270678 78.289587 
L 756.270685 77.288277 
L 756.545798 76.954507 
L 756.551382 76.620737 
L 783.037469 76.286968 
L 783.03747 75.953198 
L 783.370214 75.619428 
L 939.17696 75.285658 
L 939.176974 74.284348 
L 939.420481 73.950579 
L 939.439069 73.616809 
L 940.664139 73.283039 
L 940.664155 71.61419 
L 940.898372 71.28042 
L 940.911376 70.61288 
L 954.047535 70.27911 
L 954.047544 69.94534 
L 954.33009 69.611571 
L 968.917974 69.277801 
L 968.917987 67.608952 
L 969.148483 67.275182 
L 969.191236 66.607642 
L 969.191236 66.607642 
" clip-path="url(#p16958d1b80)" style="fill: none; stroke: #d62728; stroke-width: 2.5; stroke-linecap: round"/>
   </g>
   <g id="patch_9">
    <path d="M 547.327187 381.669687 
L 547.327187 51.604687 
" style="fill: none; stroke: #000000; stroke-width: 1.5; stroke-linejoin: miter; stroke-linecap: square"/>
   </g>
   <g id="patch_10">
    <path d="M 989.28 381.669687 
L 989.28 51.604687 
" style="fill: none; stroke: #000000; stroke-width: 1.5; stroke-linejoin: miter; stroke-linecap: square"/>
   </g>
   <g id="patch_11">
    <path d="M 547.327187 381.669687 
L 989.28 381.669687 
" style="fill: none; stroke: #000000; stroke-width: 1.5; stroke-linejoin: miter; stroke-linecap: square"/>
   </g>
   <g id="patch_12">
    <path d="M 547.327187 51.604687 
L 989.28 51.604687 
" style="fill: none; stroke: #000000; stroke-width: 1.5; stroke-linejoin: miter; stroke-linecap: square"/>
   </g>
   <g id="text_34">
    <!-- CDF — Queuing Delay -->
    <g style="fill: #262626" transform="translate(700.668203 45.604687) scale(0.11 -0.11)">
     <defs>
      <path id="DejaVuSerif-Bold-51" d="M 2766 -91 
Q 1584 -72 926 565 
Q 269 1203 269 2328 
Q 269 3459 939 4104 
Q 1609 4750 2784 4750 
Q 3963 4750 4631 4106 
Q 5300 3463 5300 2328 
Q 5300 1334 4786 715 
Q 4272 97 3322 -50 
Q 3488 -228 3725 -306 
Q 3963 -384 4341 -384 
L 4500 -384 
L 4500 -1153 
L 4409 -1153 
Q 3816 -1153 3419 -897 
Q 3022 -641 2766 -91 
z
M 2784 288 
Q 3381 288 3672 791 
Q 3963 1294 3963 2328 
Q 3963 3366 3672 3869 
Q 3381 4372 2784 4372 
Q 2191 4372 1898 3864 
Q 1606 3356 1606 2328 
Q 1606 1303 1898 795 
Q 2191 288 2784 288 
z
" transform="scale(0.015625)"/>
      <path id="DejaVuSerif-Bold-75" d="M 3963 3322 
L 3963 378 
L 4434 378 
L 4434 0 
L 2853 0 
L 2853 469 
Q 2656 172 2400 40 
Q 2144 -91 1753 -91 
Q 1194 -91 908 239 
Q 622 569 622 1209 
L 622 2944 
L 147 2944 
L 147 3322 
L 1728 3322 
L 1728 1381 
Q 1728 763 1831 595 
Q 1934 428 2209 428 
Q 2544 428 2698 675 
Q 2853 922 2853 1459 
L 2853 2944 
L 2450 2944 
L 2450 3322 
L 3963 3322 
z
" transform="scale(0.015625)"/>
      <path id="DejaVuSerif-Bold-69" d="M 588 4263 
Q 588 4516 763 4689 
Q 938 4863 1191 4863 
Q 1438 4863 1611 4689 
Q 1784 4516 1784 4263 
Q 1784 4016 1611 3842 
Q 1438 3669 1191 3669 
Q 938 3669 763 3841 
Q 588 4013 588 4263 
z
M 1797 378 
L 2272 378 
L 2272 0 
L 219 0 
L 219 378 
L 691 378 
L 691 2944 
L 219 2944 
L 219 3322 
L 1797 3322 
L 1797 378 
z
" transform="scale(0.015625)"/>
      <path id="DejaVuSerif-Bold-6e" d="M 219 0 
L 219 378 
L 691 378 
L 691 2944 
L 219 2944 
L 219 3322 
L 1797 3322 
L 1797 2853 
Q 1997 3150 2253 3281 
Q 2509 3413 2900 3413 
Q 3459 3413 3745 3083 
Q 4031 2753 4031 2113 
L 4031 378 
L 4506 378 
L 4506 0 
L 2522 0 
L 2522 378 
L 2925 378 
L 2925 2144 
Q 2925 2566 2817 2730 
Q 2709 2894 2444 2894 
Q 2109 2894 1953 2648 
Q 1797 2403 1797 1869 
L 1797 378 
L 2203 378 
L 2203 0 
L 219 0 
z
" transform="scale(0.015625)"/>
      <path id="DejaVuSerif-Bold-67" d="M 3853 2944 
L 3853 44 
Q 3853 -656 3354 -1039 
Q 2856 -1422 1947 -1422 
Q 1616 -1422 1275 -1370 
Q 934 -1319 575 -1216 
L 575 -422 
L 928 -422 
Q 975 -750 1192 -909 
Q 1409 -1069 1813 -1069 
Q 2325 -1069 2536 -823 
Q 2747 -578 2747 44 
L 2747 422 
Q 2606 163 2367 36 
Q 2128 -91 1778 -91 
Q 1072 -91 667 378 
Q 263 847 263 1663 
Q 263 2481 667 2947 
Q 1072 3413 1778 3413 
Q 2128 3413 2367 3286 
Q 2606 3159 2747 2900 
L 2747 3322 
L 4325 3322 
L 4325 2944 
L 3853 2944 
z
M 2747 1825 
Q 2747 2406 2597 2665 
Q 2447 2925 2119 2925 
Q 1775 2925 1636 2651 
Q 1497 2378 1497 1663 
Q 1497 947 1637 672 
Q 1778 397 2119 397 
Q 2447 397 2597 656 
Q 2747 916 2747 1497 
L 2747 1825 
z
" transform="scale(0.015625)"/>
     </defs>
     <use xlink:href="#DejaVuSerif-Bold-43"/>
     <use xlink:href="#DejaVuSerif-Bold-44" transform="translate(79.589844 0)"/>
     <use xlink:href="#DejaVuSerif-Bold-46" transform="translate(166.308594 0)"/>
     <use xlink:href="#DejaVuSerif-Bold-20" transform="translate(237.304688 0)"/>
     <use xlink:href="#DejaVuSerif-Bold-2014" transform="translate(272.119141 0)"/>
     <use xlink:href="#DejaVuSerif-Bold-20" transform="translate(372.119141 0)"/>
     <use xlink:href="#DejaVuSerif-Bold-51" transform="translate(406.933594 0)"/>
     <use xlink:href="#DejaVuSerif-Bold-75" transform="translate(494.042969 0)"/>
     <use xlink:href="#DejaVuSerif-Bold-65" transform="translate(566.748047 0)"/>
     <use xlink:href="#DejaVuSerif-Bold-75" transform="translate(630.371094 0)"/>
     <use xlink:href="#DejaVuSerif-Bold-69" transform="translate(703.076172 0)"/>
     <use xlink:href="#DejaVuSerif-Bold-6e" transform="translate(741.064453 0)"/>
     <use xlink:href="#DejaVuSerif-Bold-67" transform="translate(813.769531 0)"/>
     <use xlink:href="#DejaVuSerif-Bold-20" transform="translate(883.691406 0)"/>
     <use xlink:href="#DejaVuSerif-Bold-44" transform="translate(918.505859 0)"/>
     <use xlink:href="#DejaVuSerif-Bold-65" transform="translate(1005.224609 0)"/>
     <use xlink:href="#DejaVuSerif-Bold-6c" transform="translate(1068.847656 0)"/>
     <use xlink:href="#DejaVuSerif-Bold-61" transform="translate(1106.835938 0)"/>
     <use xlink:href="#DejaVuSerif-Bold-79" transform="translate(1171.630859 0)"/>
    </g>
   </g>
   <g id="legend_2">
    <g id="patch_13">
     <path d="M 555.027187 92.696562 
L 616.701094 92.696562 
Q 618.901094 92.696562 618.901094 90.496562 
L 618.901094 59.304687 
Q 618.901094 57.104687 616.701094 57.104687 
L 555.027187 57.104687 
Q 552.827187 57.104687 552.827187 59.304687 
L 552.827187 90.496562 
Q 552.827187 92.696562 555.027187 92.696562 
z
" style="fill: #ffffff; opacity: 0.8; stroke: #cccccc; stroke-linejoin: miter"/>
    </g>
    <g id="line2d_31">
     <path d="M 557.227187 66.012969 
L 568.227187 66.012969 
L 579.227187 66.012969 
" style="fill: none; stroke: #1f77b4; stroke-width: 2.5; stroke-linecap: round"/>
    </g>
    <g id="text_35">
     <!-- BLA -->
     <g style="fill: #262626" transform="translate(588.027187 69.862969) scale(0.11 -0.11)">
      <use xlink:href="#DejaVuSerif-42"/>
      <use xlink:href="#DejaVuSerif-4c" transform="translate(73.486328 0)"/>
      <use xlink:href="#DejaVuSerif-41" transform="translate(139.892578 0)"/>
     </g>
    </g>
    <g id="line2d_32">
     <path d="M 557.227187 82.158906 
L 568.227187 82.158906 
L 579.227187 82.158906 
" style="fill: none; stroke: #d62728; stroke-width: 2.5; stroke-linecap: round"/>
    </g>
    <g id="text_36">
     <!-- First -->
     <g style="fill: #262626" transform="translate(588.027187 86.008906) scale(0.11 -0.11)">
      <use xlink:href="#DejaVuSerif-46"/>
      <use xlink:href="#DejaVuSerif-69" transform="translate(69.384766 0)"/>
      <use xlink:href="#DejaVuSerif-72" transform="translate(101.367188 0)"/>
      <use xlink:href="#DejaVuSerif-73" transform="translate(149.169922 0)"/>
      <use xlink:href="#DejaVuSerif-74" transform="translate(200.488281 0)"/>
     </g>
    </g>
   </g>
  </g>
  <g id="text_37">
   <!-- Fig 3: Delay CDF — dataset-small -->
   <g style="fill: #262626" transform="translate(377.066797 17.077969) scale(0.13 -0.13)">
    <defs>
     <path id="DejaVuSerif-Bold-33" d="M 550 4531 
Q 963 4641 1350 4695 
Q 1738 4750 2106 4750 
Q 2950 4750 3401 4448 
Q 3853 4147 3853 3584 
Q 3853 3163 3593 2900 
Q 3334 2638 2834 2547 
Q 3444 2450 3744 2131 
Q 4044 1813 4044 1259 
Q 4044 606 3526 257 
Q 3009 -91 2028 -91 
Q 1659 -91 1267 -28 
Q 875 34 447 159 
L 447 1184 
L 825 1184 
Q 859 741 1103 508 
Q 1347 275 1778 275 
Q 2253 275 2512 539 
Q 2772 803 2772 1288 
Q 2772 1794 2501 2069 
Q 2231 2344 1734 2344 
L 1528 2344 
L 1528 2719 
L 1691 2719 
Q 2150 2719 2381 2931 
Q 2613 3144 2613 3566 
Q 2613 3963 2395 4173 
Q 2178 4384 1772 4384 
Q 1403 4384 1187 4182 
Q 972 3981 928 3597 
L 550 3597 
L 550 4531 
z
" transform="scale(0.015625)"/>
     <path id="DejaVuSerif-Bold-3a" d="M 588 2541 
Q 588 2788 761 2963 
Q 934 3138 1178 3138 
Q 1422 3138 1597 2961 
Q 1772 2784 1772 2541 
Q 1772 2297 1598 2125 
Q 1425 1953 1178 1953 
Q 931 1953 759 2125 
Q 588 2297 588 2541 
z
M 588 506 
Q 588 750 761 925 
Q 934 1100 1178 1100 
Q 1422 1100 1597 925 
Q 1772 750 1772 506 
Q 1772 259 1597 84 
Q 1422 -91 1178 -91 
Q 934 -91 761 84 
Q 588 259 588 506 
z
" transform="scale(0.015625)"/>
     <path id="DejaVuSerif-Bold-64" d="M 2747 1497 
L 2747 1825 
Q 2747 2406 2597 2665 
Q 2447 2925 2119 2925 
Q 1775 2925 1636 2651 
Q 1497 2378 1497 1663 
Q 1497 947 1637 672 
Q 1778 397 2119 397 
Q 2447 397 2597 656 
Q 2747 916 2747 1497 
z
M 3853 378 
L 4325 378 
L 4325 0 
L 2747 0 
L 2747 422 
Q 2606 163 2367 36 
Q 2128 -91 1778 -91 
Q 1072 -91 667 378 
Q 263 847 263 1663 
Q 263 2481 667 2947 
Q 1072 3413 1778 3413 
Q 2128 3413 2367 3286 
Q 2606 3159 2747 2900 
L 2747 4488 
L 2272 4488 
L 2272 4863 
L 3853 4863 
L 3853 378 
z
" transform="scale(0.015625)"/>
     <path id="DejaVuSerif-Bold-73" d="M 300 97 
L 300 1025 
L 653 1025 
Q 697 653 931 458 
Q 1166 263 1569 263 
Q 1906 263 2086 380 
Q 2266 497 2266 716 
Q 2266 916 2152 1025 
Q 2038 1134 1709 1216 
L 1253 1331 
Q 738 1459 506 1698 
Q 275 1938 275 2344 
Q 275 2884 650 3148 
Q 1025 3413 1806 3413 
Q 2100 3413 2433 3364 
Q 2766 3316 3169 3213 
L 3169 2375 
L 2816 2375 
Q 2788 2716 2573 2887 
Q 2359 3059 1959 3059 
Q 1622 3059 1448 2951 
Q 1275 2844 1275 2638 
Q 1275 2469 1375 2372 
Q 1475 2275 1734 2209 
L 2188 2094 
Q 2841 1928 3091 1684 
Q 3341 1441 3341 1006 
Q 3341 444 2939 176 
Q 2538 -91 1691 -91 
Q 1381 -91 1034 -44 
Q 688 3 300 97 
z
" transform="scale(0.015625)"/>
     <path id="DejaVuSerif-Bold-2d" d="M 347 2138 
L 2309 2138 
L 2309 1294 
L 347 1294 
L 347 2138 
z
" transform="scale(0.015625)"/>
     <path id="DejaVuSerif-Bold-6d" d="M 3884 2778 
Q 4116 3109 4384 3261 
Q 4653 3413 5013 3413 
Q 5584 3413 5867 3089 
Q 6150 2766 6150 2113 
L 6150 378 
L 6625 378 
L 6625 0 
L 4647 0 
L 4647 378 
L 5044 378 
L 5044 1947 
Q 5044 2569 4948 2731 
Q 4853 2894 4594 2894 
Q 4300 2894 4137 2667 
Q 3975 2441 3975 2022 
L 3975 378 
L 4372 378 
L 4372 0 
L 2472 0 
L 2472 378 
L 2869 378 
L 2869 1947 
Q 2869 2569 2772 2731 
Q 2675 2894 2419 2894 
Q 2122 2894 1959 2667 
Q 1797 2441 1797 2022 
L 1797 378 
L 2194 378 
L 2194 0 
L 219 0 
L 219 378 
L 691 378 
L 691 2944 
L 219 2944 
L 219 3322 
L 1797 3322 
L 1797 2853 
Q 1991 3144 2241 3278 
Q 2491 3413 2834 3413 
Q 3241 3413 3494 3258 
Q 3747 3103 3884 2778 
z
" transform="scale(0.015625)"/>
    </defs>
    <use xlink:href="#DejaVuSerif-Bold-46"/>
    <use xlink:href="#DejaVuSerif-Bold-69" transform="translate(70.996094 0)"/>
    <use xlink:href="#DejaVuSerif-Bold-67" transform="translate(108.984375 0)"/>
    <use xlink:href="#DejaVuSerif-Bold-20" transform="translate(178.90625 0)"/>
    <use xlink:href="#DejaVuSerif-Bold-33" transform="translate(213.720703 0)"/>
    <use xlink:href="#DejaVuSerif-Bold-3a" transform="translate(283.300781 0)"/>
    <use xlink:href="#DejaVuSerif-Bold-20" transform="translate(320.214844 0)"/>
    <use xlink:href="#DejaVuSerif-Bold-44" transform="translate(355.029297 0)"/>
    <use xlink:href="#DejaVuSerif-Bold-65" transform="translate(441.748047 0)"/>
    <use xlink:href="#DejaVuSerif-Bold-6c" transform="translate(505.371094 0)"/>
    <use xlink:href="#DejaVuSerif-Bold-61" transform="translate(543.359375 0)"/>
    <use xlink:href="#DejaVuSerif-Bold-79" transform="translate(608.154297 0)"/>
    <use xlink:href="#DejaVuSerif-Bold-20" transform="translate(666.259766 0)"/>
    <use xlink:href="#DejaVuSerif-Bold-43" transform="translate(701.074219 0)"/>
    <use xlink:href="#DejaVuSerif-Bold-44" transform="translate(780.664062 0)"/>
    <use xlink:href="#DejaVuSerif-Bold-46" transform="translate(867.382812 0)"/>
    <use xlink:href="#DejaVuSerif-Bold-20" transform="translate(938.378906 0)"/>
    <use xlink:href="#DejaVuSerif-Bold-2014" transform="translate(973.193359 0)"/>
    <use xlink:href="#DejaVuSerif-Bold-20" transform="translate(1073.193359 0)"/>
    <use xlink:href="#DejaVuSerif-Bold-64" transform="translate(1108.007812 0)"/>
    <use xlink:href="#DejaVuSerif-Bold-61" transform="translate(1177.929688 0)"/>
    <use xlink:href="#DejaVuSerif-Bold-74" transform="translate(1242.724609 0)"/>
    <use xlink:href="#DejaVuSerif-Bold-61" transform="translate(1288.916016 0)"/>
    <use xlink:href="#DejaVuSerif-Bold-73" transform="translate(1353.710938 0)"/>
    <use xlink:href="#DejaVuSerif-Bold-65" transform="translate(1410.009766 0)"/>
    <use xlink:href="#DejaVuSerif-Bold-74" transform="translate(1473.632812 0)"/>
    <use xlink:href="#DejaVuSerif-Bold-2d" transform="translate(1519.824219 0)"/>
    <use xlink:href="#DejaVuSerif-Bold-73" transform="translate(1561.328125 0)"/>
    <use xlink:href="#DejaVuSerif-Bold-6d" transform="translate(1617.626953 0)"/>
    <use xlink:href="#DejaVuSerif-Bold-61" transform="translate(1723.4375 0)"/>
    <use xlink:href="#DejaVuSerif-Bold-6c" transform="translate(1788.232422 0)"/>
    <use xlink:href="#DejaVuSerif-Bold-6c" transform="translate(1826.220703 0)"/>
   </g>
  </g>
 </g>
 <defs>
  <clipPath id="pea65b7b004">
   <rect x="49.807187" y="51.604687" width="441.952812" height="330.065"/>
  </clipPath>
  <clipPath id="p16958d1b80">
   <rect x="547.327187" y="51.604687" width="441.952813" height="330.065"/>
  </clipPath>
 </defs>
</svg>
