<?xml version="1.0" encoding="utf-8" standalone="no"?>
<!DOCTYPE svg PUBLIC "-//W3C//DTD SVG 1.1//EN"
  "http://www.w3.org/Graphics/SVG/1.1/DTD/svg11.dtd">
<svg xmlns:xlink="http://www.w3.org/1999/xlink" width="996.48pt" height="492.48pt" viewBox="0 0 996.48 492.48" xmlns="http://www.w3.org/2000/svg" version="1.1">
 <metadata>
  <rdf:RDF xmlns:dc="http://purl.org/dc/elements/1.1/" xmlns:cc="http://creativecommons.org/ns#" xmlns:rdf="http://www.w3.org/1999/02/22-rdf-syntax-ns#">
   <cc:Work>
    <dc:type rdf:resource="http://purl.org/dc/dcmitype/StillImage"/>
    <dc:date>2026-05-08T00:15:28.382926</dc:date>
    <dc:format>image/svg+xml</dc:format>
    <dc:creator>
     <cc:Agent>
      <dc:title>Matplotlib v3.10.7, https://matplotlib.org/</dc:title>
     </cc:Agent>
    </dc:creator>
   </cc:Work>
  </rdf:RDF>
 </metadata>
 <defs>
  <style type="text/css">*{stroke-linejoin: round; stroke-linecap: butt}</style>
 </defs>
 <g id="figure_1">
  <g id="patch_1">
   <path d="M 0 492.48 
L 996.48 492.48 
L 996.48 0 
L 0 0 
z
" style="fill: #ffffff"/>
  </g>
  <g id="axes_1">
   <g id="patch_2">
    <path d="M 39.483125 418.867781 
L 989.28 418.867781 
L 989.28 23.077969 
L 39.483125 23.077969 
z
" style="fill: #ffffff"/>
   </g>
   <g id="matplotlib.axis_1">
    <g id="xtick_1">
     <g id="text_1">
      <!-- LFF -->
      <g style="fill: #262626" transform="translate(65.400258 446.891578) rotate(-30) scale(0.11 -0.11)">
       <defs>
        <path id="DejaVuSerif-4c" d="M 353 0 
L 353 331 
L 947 331 
L 947 4331 
L 353 4331 
L 353 4666 
L 2175 4666 
L 2175 4331 
L 1581 4331 
L 1581 384 
L 3713 384 
L 3713 1166 
L 4097 1166 
L 4097 0 
L 353 0 
z
" transform="scale(0.015625)"/>
        <path id="DejaVuSerif-46" d="M 353 0 
L 353 331 
L 947 331 
L 947 4331 
L 353 4331 
L 353 4666 
L 4172 4666 
L 4172 3628 
L 3788 3628 
L 3788 4281 
L 1581 4281 
L 1581 2719 
L 3175 2719 
L 3175 3303 
L 3559 3303 
L 3559 1753 
L 3175 1753 
L 3175 2338 
L 1581 2338 
L 1581 331 
L 2328 331 
L 2328 0 
L 353 0 
z
" transform="scale(0.015625)"/>
       </defs>
       <use xlink:href="#DejaVuSerif-4c"/>
       <use xlink:href="#DejaVuSerif-46" transform="translate(66.40625 0)"/>
       <use xlink:href="#DejaVuSerif-46" transform="translate(135.791016 0)"/>
      </g>
      <!-- PSO -->
      <g style="fill: #262626" transform="translate(70.360828 458.250724) rotate(-30) scale(0.11 -0.11)">
       <defs>
        <path id="DejaVuSerif-50" d="M 1581 2375 
L 2406 2375 
Q 2872 2375 3115 2626 
Q 3359 2878 3359 3353 
Q 3359 3831 3115 4081 
Q 2872 4331 2406 4331 
L 1581 4331 
L 1581 2375 
z
M 353 0 
L 353 331 
L 947 331 
L 947 4331 
L 353 4331 
L 353 4666 
L 2559 4666 
Q 3259 4666 3668 4311 
Q 4078 3956 4078 3353 
Q 4078 2753 3668 2397 
Q 3259 2041 2559 2041 
L 1581 2041 
L 1581 331 
L 2303 331 
L 2303 0 
L 353 0 
z
" transform="scale(0.015625)"/>
        <path id="DejaVuSerif-53" d="M 594 225 
L 594 1288 
L 953 1284 
Q 969 753 1261 498 
Q 1553 244 2150 244 
Q 2706 244 2998 464 
Q 3291 684 3291 1106 
Q 3291 1444 3114 1625 
Q 2938 1806 2369 1978 
L 1753 2163 
Q 1084 2366 811 2669 
Q 538 2972 538 3500 
Q 538 4094 959 4422 
Q 1381 4750 2144 4750 
Q 2469 4750 2856 4679 
Q 3244 4609 3681 4475 
L 3681 3481 
L 3328 3481 
Q 3275 3975 2998 4195 
Q 2722 4416 2156 4416 
Q 1663 4416 1405 4214 
Q 1147 4013 1147 3628 
Q 1147 3294 1340 3103 
Q 1534 2913 2163 2725 
L 2741 2553 
Q 3375 2363 3645 2067 
Q 3916 1772 3916 1275 
Q 3916 597 3481 253 
Q 3047 -91 2188 -91 
Q 1803 -91 1404 -12 
Q 1006 66 594 225 
z
" transform="scale(0.015625)"/>
        <path id="DejaVuSerif-4f" d="M 2625 244 
Q 3391 244 3781 770 
Q 4172 1297 4172 2328 
Q 4172 3363 3781 3889 
Q 3391 4416 2625 4416 
Q 1856 4416 1465 3889 
Q 1075 3363 1075 2328 
Q 1075 1297 1465 770 
Q 1856 244 2625 244 
z
M 2625 -91 
Q 2150 -91 1751 65 
Q 1353 222 1050 525 
Q 700 875 529 1319 
Q 359 1763 359 2328 
Q 359 2894 529 3339 
Q 700 3784 1050 4134 
Q 1356 4441 1750 4595 
Q 2144 4750 2625 4750 
Q 3641 4750 4266 4084 
Q 4891 3419 4891 2328 
Q 4891 1769 4719 1320 
Q 4547 872 4197 525 
Q 3891 219 3497 64 
Q 3103 -91 2625 -91 
z
" transform="scale(0.015625)"/>
       </defs>
       <use xlink:href="#DejaVuSerif-50"/>
       <use xlink:href="#DejaVuSerif-53" transform="translate(67.285156 0)"/>
       <use xlink:href="#DejaVuSerif-4f" transform="translate(135.791016 0)"/>
      </g>
     </g>
    </g>
    <g id="xtick_2">
     <g id="text_2">
      <!-- LFF -->
      <g style="fill: #262626" transform="translate(170.855041 446.891578) rotate(-30) scale(0.11 -0.11)">
       <use xlink:href="#DejaVuSerif-4c"/>
       <use xlink:href="#DejaVuSerif-46" transform="translate(66.40625 0)"/>
       <use xlink:href="#DejaVuSerif-46" transform="translate(135.791016 0)"/>
      </g>
      <!-- Priority -->
      <g style="fill: #262626" transform="translate(160.004964 467.379005) rotate(-30) scale(0.11 -0.11)">
       <defs>
        <path id="DejaVuSerif-72" d="M 3059 3328 
L 3059 2497 
L 2728 2497 
Q 2713 2744 2591 2866 
Q 2469 2988 2234 2988 
Q 1809 2988 1582 2694 
Q 1356 2400 1356 1850 
L 1356 331 
L 2022 331 
L 2022 0 
L 263 0 
L 263 331 
L 781 331 
L 781 2994 
L 231 2994 
L 231 3322 
L 1356 3322 
L 1356 2731 
Q 1525 3078 1790 3245 
Q 2056 3413 2438 3413 
Q 2578 3413 2733 3391 
Q 2888 3369 3059 3328 
z
" transform="scale(0.015625)"/>
        <path id="DejaVuSerif-69" d="M 622 4353 
Q 622 4497 726 4603 
Q 831 4709 978 4709 
Q 1122 4709 1226 4603 
Q 1331 4497 1331 4353 
Q 1331 4206 1228 4103 
Q 1125 4000 978 4000 
Q 831 4000 726 4103 
Q 622 4206 622 4353 
z
M 1356 331 
L 1900 331 
L 1900 0 
L 231 0 
L 231 331 
L 781 331 
L 781 2988 
L 231 2988 
L 231 3322 
L 1356 3322 
L 1356 331 
z
" transform="scale(0.015625)"/>
        <path id="DejaVuSerif-6f" d="M 1925 219 
Q 2388 219 2623 584 
Q 2859 950 2859 1663 
Q 2859 2375 2623 2739 
Q 2388 3103 1925 3103 
Q 1463 3103 1227 2739 
Q 991 2375 991 1663 
Q 991 950 1228 584 
Q 1466 219 1925 219 
z
M 1925 -91 
Q 1200 -91 759 389 
Q 319 869 319 1663 
Q 319 2456 758 2934 
Q 1197 3413 1925 3413 
Q 2653 3413 3092 2934 
Q 3531 2456 3531 1663 
Q 3531 869 3092 389 
Q 2653 -91 1925 -91 
z
" transform="scale(0.015625)"/>
        <path id="DejaVuSerif-74" d="M 691 2988 
L 184 2988 
L 184 3322 
L 691 3322 
L 691 4353 
L 1269 4353 
L 1269 3322 
L 2350 3322 
L 2350 2988 
L 1269 2988 
L 1269 878 
Q 1269 456 1350 337 
Q 1431 219 1650 219 
Q 1875 219 1978 351 
Q 2081 484 2088 781 
L 2522 781 
Q 2497 328 2275 118 
Q 2053 -91 1600 -91 
Q 1103 -91 897 129 
Q 691 350 691 878 
L 691 2988 
z
" transform="scale(0.015625)"/>
        <path id="DejaVuSerif-79" d="M 1381 -609 
L 1600 -56 
L 359 2988 
L -19 2988 
L -19 3322 
L 1509 3322 
L 1509 2988 
L 978 2988 
L 1913 703 
L 2847 2988 
L 2350 2988 
L 2350 3322 
L 3597 3322 
L 3597 2988 
L 3225 2988 
L 1703 -750 
Q 1547 -1138 1356 -1280 
Q 1166 -1422 819 -1422 
Q 672 -1422 517 -1397 
Q 363 -1372 206 -1325 
L 206 -691 
L 500 -691 
Q 519 -903 608 -995 
Q 697 -1088 884 -1088 
Q 1056 -1088 1161 -992 
Q 1266 -897 1381 -609 
z
" transform="scale(0.015625)"/>
       </defs>
       <use xlink:href="#DejaVuSerif-50"/>
       <use xlink:href="#DejaVuSerif-72" transform="translate(67.285156 0)"/>
       <use xlink:href="#DejaVuSerif-69" transform="translate(115.087891 0)"/>
       <use xlink:href="#DejaVuSerif-6f" transform="translate(147.070312 0)"/>
       <use xlink:href="#DejaVuSerif-72" transform="translate(207.275391 0)"/>
       <use xlink:href="#DejaVuSerif-69" transform="translate(255.078125 0)"/>
       <use xlink:href="#DejaVuSerif-74" transform="translate(287.060547 0)"/>
       <use xlink:href="#DejaVuSerif-79" transform="translate(327.246094 0)"/>
      </g>
     </g>
    </g>
    <g id="xtick_3">
     <g id="text_3">
      <!-- LFF -->
      <g style="fill: #262626" transform="translate(276.466231 446.891578) rotate(-30) scale(0.11 -0.11)">
       <use xlink:href="#DejaVuSerif-4c"/>
       <use xlink:href="#DejaVuSerif-46" transform="translate(66.40625 0)"/>
       <use xlink:href="#DejaVuSerif-46" transform="translate(135.791016 0)"/>
      </g>
      <!-- SJF -->
      <g style="fill: #262626" transform="translate(285.216473 456.062755) rotate(-30) scale(0.11 -0.11)">
       <defs>
        <path id="DejaVuSerif-4a" d="M -538 -1119 
L -538 -384 
L -181 -384 
Q -172 -694 -34 -845 
Q 103 -997 378 -997 
Q 750 -997 897 -762 
Q 1044 -528 1044 153 
L 1044 4331 
L 319 4331 
L 319 4666 
L 2272 4666 
L 2272 4331 
L 1678 4331 
L 1678 128 
Q 1678 -644 1368 -987 
Q 1059 -1331 372 -1331 
Q 150 -1331 -79 -1278 
Q -309 -1225 -538 -1119 
z
" transform="scale(0.015625)"/>
       </defs>
       <use xlink:href="#DejaVuSerif-53"/>
       <use xlink:href="#DejaVuSerif-4a" transform="translate(68.505859 0)"/>
       <use xlink:href="#DejaVuSerif-46" transform="translate(108.59375 0)"/>
      </g>
     </g>
    </g>
    <g id="xtick_4">
     <g id="text_4">
      <!-- LWFF -->
      <g style="fill: #262626" transform="translate(373.041537 452.063296) rotate(-30) scale(0.11 -0.11)">
       <defs>
        <path id="DejaVuSerif-57" d="M 4878 0 
L 4366 0 
L 3297 3794 
L 2228 0 
L 1716 0 
L 494 4331 
L 31 4331 
L 31 4666 
L 1734 4666 
L 1734 4331 
L 1153 4331 
L 2125 884 
L 3188 4666 
L 3694 4666 
L 4775 844 
L 5753 4331 
L 5216 4331 
L 5216 4666 
L 6559 4666 
L 6559 4331 
L 6100 4331 
L 4878 0 
z
" transform="scale(0.015625)"/>
       </defs>
       <use xlink:href="#DejaVuSerif-4c"/>
       <use xlink:href="#DejaVuSerif-57" transform="translate(57.65625 0)"/>
       <use xlink:href="#DejaVuSerif-46" transform="translate(160.439453 0)"/>
       <use xlink:href="#DejaVuSerif-46" transform="translate(229.824219 0)"/>
      </g>
      <!-- PSO -->
      <g style="fill: #262626" transform="translate(386.959786 458.250724) rotate(-30) scale(0.11 -0.11)">
       <use xlink:href="#DejaVuSerif-50"/>
       <use xlink:href="#DejaVuSerif-53" transform="translate(67.285156 0)"/>
       <use xlink:href="#DejaVuSerif-4f" transform="translate(135.791016 0)"/>
      </g>
     </g>
    </g>
    <g id="xtick_5">
     <g id="text_5">
      <!-- LWFF -->
      <g style="fill: #262626" transform="translate(478.49632 452.063296) rotate(-30) scale(0.11 -0.11)">
       <use xlink:href="#DejaVuSerif-4c"/>
       <use xlink:href="#DejaVuSerif-57" transform="translate(57.65625 0)"/>
       <use xlink:href="#DejaVuSerif-46" transform="translate(160.439453 0)"/>
       <use xlink:href="#DejaVuSerif-46" transform="translate(229.824219 0)"/>
      </g>
      <!-- Priority -->
      <g style="fill: #262626" transform="translate(476.603922 467.379005) rotate(-30) scale(0.11 -0.11)">
       <use xlink:href="#DejaVuSerif-50"/>
       <use xlink:href="#DejaVuSerif-72" transform="translate(67.285156 0)"/>
       <use xlink:href="#DejaVuSerif-69" transform="translate(115.087891 0)"/>
       <use xlink:href="#DejaVuSerif-6f" transform="translate(147.070312 0)"/>
       <use xlink:href="#DejaVuSerif-72" transform="translate(207.275391 0)"/>
       <use xlink:href="#DejaVuSerif-69" transform="translate(255.078125 0)"/>
       <use xlink:href="#DejaVuSerif-74" transform="translate(287.060547 0)"/>
       <use xlink:href="#DejaVuSerif-79" transform="translate(327.246094 0)"/>
      </g>
     </g>
    </g>
    <g id="xtick_6">
     <g id="text_6">
      <!-- LWFF -->
      <g style="fill: #262626" transform="translate(584.107509 452.063296) rotate(-30) scale(0.11 -0.11)">
       <use xlink:href="#DejaVuSerif-4c"/>
       <use xlink:href="#DejaVuSerif-57" transform="translate(57.65625 0)"/>
       <use xlink:href="#DejaVuSerif-46" transform="translate(160.439453 0)"/>
       <use xlink:href="#DejaVuSerif-46" transform="translate(229.824219 0)"/>
      </g>
      <!-- SJF -->
      <g style="fill: #262626" transform="translate(601.815432 456.062755) rotate(-30) scale(0.11 -0.11)">
       <use xlink:href="#DejaVuSerif-53"/>
       <use xlink:href="#DejaVuSerif-4a" transform="translate(68.505859 0)"/>
       <use xlink:href="#DejaVuSerif-46" transform="translate(108.59375 0)"/>
      </g>
     </g>
    </g>
    <g id="xtick_7">
     <g id="text_7">
      <!-- MFF -->
      <g style="fill: #262626" transform="translate(695.170203 448.870718) rotate(-30) scale(0.11 -0.11)">
       <defs>
        <path id="DejaVuSerif-4d" d="M 353 0 
L 353 331 
L 947 331 
L 947 4331 
L 319 4331 
L 319 4666 
L 1678 4666 
L 3316 1344 
L 4953 4666 
L 6228 4666 
L 6228 4331 
L 5606 4331 
L 5606 331 
L 6203 331 
L 6203 0 
L 4378 0 
L 4378 331 
L 4972 331 
L 4972 3938 
L 3372 684 
L 2931 684 
L 1331 3938 
L 1331 331 
L 1925 331 
L 1925 0 
L 353 0 
z
" transform="scale(0.015625)"/>
       </defs>
       <use xlink:href="#DejaVuSerif-4d"/>
       <use xlink:href="#DejaVuSerif-46" transform="translate(102.392578 0)"/>
       <use xlink:href="#DejaVuSerif-46" transform="translate(171.777344 0)"/>
      </g>
      <!-- PSO -->
      <g style="fill: #262626" transform="translate(703.558745 458.250724) rotate(-30) scale(0.11 -0.11)">
       <use xlink:href="#DejaVuSerif-50"/>
       <use xlink:href="#DejaVuSerif-53" transform="translate(67.285156 0)"/>
       <use xlink:href="#DejaVuSerif-4f" transform="translate(135.791016 0)"/>
      </g>
     </g>
    </g>
    <g id="xtick_8">
     <g id="text_8">
      <!-- MFF -->
      <g style="fill: #262626" transform="translate(800.624986 448.870718) rotate(-30) scale(0.11 -0.11)">
       <use xlink:href="#DejaVuSerif-4d"/>
       <use xlink:href="#DejaVuSerif-46" transform="translate(102.392578 0)"/>
       <use xlink:href="#DejaVuSerif-46" transform="translate(171.777344 0)"/>
      </g>
      <!-- Priority -->
      <g style="fill: #262626" transform="translate(793.202881 467.379005) rotate(-30) scale(0.11 -0.11)">
       <use xlink:href="#DejaVuSerif-50"/>
       <use xlink:href="#DejaVuSerif-72" transform="translate(67.285156 0)"/>
       <use xlink:href="#DejaVuSerif-69" transform="translate(115.087891 0)"/>
       <use xlink:href="#DejaVuSerif-6f" transform="translate(147.070312 0)"/>
       <use xlink:href="#DejaVuSerif-72" transform="translate(207.275391 0)"/>
       <use xlink:href="#DejaVuSerif-69" transform="translate(255.078125 0)"/>
       <use xlink:href="#DejaVuSerif-74" transform="translate(287.060547 0)"/>
       <use xlink:href="#DejaVuSerif-79" transform="translate(327.246094 0)"/>
      </g>
     </g>
    </g>
    <g id="xtick_9">
     <g id="text_9">
      <!-- MFF -->
      <g style="fill: #262626" transform="translate(906.236175 448.870718) rotate(-30) scale(0.11 -0.11)">
       <use xlink:href="#DejaVuSerif-4d"/>
       <use xlink:href="#DejaVuSerif-46" transform="translate(102.392578 0)"/>
       <use xlink:href="#DejaVuSerif-46" transform="translate(171.777344 0)"/>
      </g>
      <!-- SJF -->
      <g style="fill: #262626" transform="translate(918.41439 456.062755) rotate(-30) scale(0.11 -0.11)">
       <use xlink:href="#DejaVuSerif-53"/>
       <use xlink:href="#DejaVuSerif-4a" transform="translate(68.505859 0)"/>
       <use xlink:href="#DejaVuSerif-46" transform="translate(108.59375 0)"/>
      </g>
     </g>
    </g>
    <g id="text_10">
     <!-- Policy (VM / WF Scheduling) -->
     <g style="fill: #262626" transform="translate(427.1125 482.61375) scale(0.12 -0.12)">
      <defs>
       <path id="DejaVuSerif-6c" d="M 1313 331 
L 1856 331 
L 1856 0 
L 184 0 
L 184 331 
L 738 331 
L 738 4531 
L 184 4531 
L 184 4863 
L 1313 4863 
L 1313 331 
z
" transform="scale(0.015625)"/>
       <path id="DejaVuSerif-63" d="M 3291 997 
Q 3169 466 2822 187 
Q 2475 -91 1925 -91 
Q 1200 -91 759 389 
Q 319 869 319 1663 
Q 319 2459 759 2936 
Q 1200 3413 1925 3413 
Q 2241 3413 2553 3339 
Q 2866 3266 3181 3116 
L 3181 2266 
L 2847 2266 
Q 2781 2703 2561 2903 
Q 2341 3103 1931 3103 
Q 1466 3103 1228 2742 
Q 991 2381 991 1663 
Q 991 944 1227 581 
Q 1463 219 1931 219 
Q 2303 219 2525 412 
Q 2747 606 2828 997 
L 3291 997 
z
" transform="scale(0.015625)"/>
       <path id="DejaVuSerif-20" transform="scale(0.015625)"/>
       <path id="DejaVuSerif-28" d="M 2041 -997 
Q 1281 -656 893 83 
Q 506 822 506 1931 
Q 506 3044 893 3783 
Q 1281 4522 2041 4863 
L 2041 4556 
Q 1559 4225 1350 3623 
Q 1141 3022 1141 1931 
Q 1141 844 1350 242 
Q 1559 -359 2041 -691 
L 2041 -997 
z
" transform="scale(0.015625)"/>
       <path id="DejaVuSerif-56" d="M 1119 4331 
L 2497 750 
L 3872 4331 
L 3347 4331 
L 3347 4666 
L 4716 4666 
L 4716 4331 
L 4263 4331 
L 2597 0 
L 2059 0 
L 403 4331 
L -63 4331 
L -63 4666 
L 1638 4666 
L 1638 4331 
L 1119 4331 
z
" transform="scale(0.015625)"/>
       <path id="DejaVuSerif-2f" d="M 1656 4666 
L 2156 4666 
L 500 -594 
L 0 -594 
L 1656 4666 
z
" transform="scale(0.015625)"/>
       <path id="DejaVuSerif-68" d="M 263 0 
L 263 331 
L 781 331 
L 781 4531 
L 231 4531 
L 231 4863 
L 1356 4863 
L 1356 2731 
Q 1516 3069 1770 3241 
Q 2025 3413 2363 3413 
Q 2913 3413 3172 3097 
Q 3431 2781 3431 2113 
L 3431 331 
L 3944 331 
L 3944 0 
L 2356 0 
L 2356 331 
L 2853 331 
L 2853 1931 
Q 2853 2541 2704 2764 
Q 2556 2988 2175 2988 
Q 1775 2988 1565 2697 
Q 1356 2406 1356 1850 
L 1356 331 
L 1856 331 
L 1856 0 
L 263 0 
z
" transform="scale(0.015625)"/>
       <path id="DejaVuSerif-65" d="M 3469 1600 
L 991 1600 
L 991 1575 
Q 991 903 1244 561 
Q 1497 219 1991 219 
Q 2369 219 2611 417 
Q 2853 616 2950 1006 
L 3413 1006 
Q 3275 459 2904 184 
Q 2534 -91 1931 -91 
Q 1203 -91 761 389 
Q 319 869 319 1663 
Q 319 2450 753 2931 
Q 1188 3413 1894 3413 
Q 2647 3413 3050 2948 
Q 3453 2484 3469 1600 
z
M 2791 1931 
Q 2772 2513 2545 2808 
Q 2319 3103 1894 3103 
Q 1497 3103 1269 2806 
Q 1041 2509 991 1931 
L 2791 1931 
z
" transform="scale(0.015625)"/>
       <path id="DejaVuSerif-64" d="M 3359 331 
L 3909 331 
L 3909 0 
L 2784 0 
L 2784 519 
Q 2616 206 2355 57 
Q 2094 -91 1709 -91 
Q 1097 -91 708 395 
Q 319 881 319 1663 
Q 319 2444 706 2928 
Q 1094 3413 1709 3413 
Q 2094 3413 2355 3264 
Q 2616 3116 2784 2803 
L 2784 4531 
L 2241 4531 
L 2241 4863 
L 3359 4863 
L 3359 331 
z
M 2784 1497 
L 2784 1825 
Q 2784 2422 2554 2737 
Q 2325 3053 1888 3053 
Q 1444 3053 1217 2703 
Q 991 2353 991 1663 
Q 991 975 1217 622 
Q 1444 269 1888 269 
Q 2325 269 2554 583 
Q 2784 897 2784 1497 
z
" transform="scale(0.015625)"/>
       <path id="DejaVuSerif-75" d="M 2266 3322 
L 3341 3322 
L 3341 331 
L 3884 331 
L 3884 0 
L 2766 0 
L 2766 588 
Q 2606 256 2353 82 
Q 2100 -91 1766 -91 
Q 1213 -91 952 223 
Q 691 538 691 1209 
L 691 2988 
L 172 2988 
L 172 3322 
L 1269 3322 
L 1269 1388 
Q 1269 781 1417 556 
Q 1566 331 1947 331 
Q 2347 331 2556 625 
Q 2766 919 2766 1478 
L 2766 2988 
L 2266 2988 
L 2266 3322 
z
" transform="scale(0.015625)"/>
       <path id="DejaVuSerif-6e" d="M 263 0 
L 263 331 
L 781 331 
L 781 2988 
L 231 2988 
L 231 3322 
L 1356 3322 
L 1356 2731 
Q 1516 3069 1770 3241 
Q 2025 3413 2363 3413 
Q 2913 3413 3172 3097 
Q 3431 2781 3431 2113 
L 3431 331 
L 3944 331 
L 3944 0 
L 2356 0 
L 2356 331 
L 2853 331 
L 2853 1931 
Q 2853 2541 2703 2767 
Q 2553 2994 2175 2994 
Q 1775 2994 1565 2701 
Q 1356 2409 1356 1850 
L 1356 331 
L 1856 331 
L 1856 0 
L 263 0 
z
" transform="scale(0.015625)"/>
       <path id="DejaVuSerif-67" d="M 3359 2988 
L 3359 72 
Q 3359 -644 2965 -1033 
Q 2572 -1422 1844 -1422 
Q 1516 -1422 1216 -1362 
Q 916 -1303 641 -1184 
L 641 -488 
L 941 -488 
Q 997 -813 1206 -963 
Q 1416 -1113 1806 -1113 
Q 2313 -1113 2548 -827 
Q 2784 -541 2784 72 
L 2784 519 
Q 2616 206 2355 57 
Q 2094 -91 1709 -91 
Q 1097 -91 708 395 
Q 319 881 319 1663 
Q 319 2444 706 2928 
Q 1094 3413 1709 3413 
Q 2094 3413 2355 3264 
Q 2616 3116 2784 2803 
L 2784 3322 
L 3909 3322 
L 3909 2988 
L 3359 2988 
z
M 2784 1825 
Q 2784 2422 2554 2737 
Q 2325 3053 1888 3053 
Q 1444 3053 1217 2703 
Q 991 2353 991 1663 
Q 991 975 1217 622 
Q 1444 269 1888 269 
Q 2325 269 2554 583 
Q 2784 897 2784 1497 
L 2784 1825 
z
" transform="scale(0.015625)"/>
       <path id="DejaVuSerif-29" d="M 453 -997 
L 453 -691 
Q 934 -359 1145 242 
Q 1356 844 1356 1931 
Q 1356 3022 1145 3623 
Q 934 4225 453 4556 
L 453 4863 
Q 1216 4522 1603 3783 
Q 1991 3044 1991 1931 
Q 1991 822 1603 83 
Q 1216 -656 453 -997 
z
" transform="scale(0.015625)"/>
      </defs>
      <use xlink:href="#DejaVuSerif-50"/>
      <use xlink:href="#DejaVuSerif-6f" transform="translate(63.285156 0)"/>
      <use xlink:href="#DejaVuSerif-6c" transform="translate(123.490234 0)"/>
      <use xlink:href="#DejaVuSerif-69" transform="translate(155.472656 0)"/>
      <use xlink:href="#DejaVuSerif-63" transform="translate(187.455078 0)"/>
      <use xlink:href="#DejaVuSerif-79" transform="translate(243.460938 0)"/>
      <use xlink:href="#DejaVuSerif-20" transform="translate(299.955078 0)"/>
      <use xlink:href="#DejaVuSerif-28" transform="translate(331.742188 0)"/>
      <use xlink:href="#DejaVuSerif-56" transform="translate(370.755859 0)"/>
      <use xlink:href="#DejaVuSerif-4d" transform="translate(442.972656 0)"/>
      <use xlink:href="#DejaVuSerif-20" transform="translate(545.365234 0)"/>
      <use xlink:href="#DejaVuSerif-2f" transform="translate(577.152344 0)"/>
      <use xlink:href="#DejaVuSerif-20" transform="translate(610.84375 0)"/>
      <use xlink:href="#DejaVuSerif-57" transform="translate(642.630859 0)"/>
      <use xlink:href="#DejaVuSerif-46" transform="translate(745.414062 0)"/>
      <use xlink:href="#DejaVuSerif-20" transform="translate(814.798828 0)"/>
      <use xlink:href="#DejaVuSerif-53" transform="translate(846.585938 0)"/>
      <use xlink:href="#DejaVuSerif-63" transform="translate(915.091797 0)"/>
      <use xlink:href="#DejaVuSerif-68" transform="translate(971.097656 0)"/>
      <use xlink:href="#DejaVuSerif-65" transform="translate(1035.501953 0)"/>
      <use xlink:href="#DejaVuSerif-64" transform="translate(1094.681641 0)"/>
      <use xlink:href="#DejaVuSerif-75" transform="translate(1158.695312 0)"/>
      <use xlink:href="#DejaVuSerif-6c" transform="translate(1223.099609 0)"/>
      <use xlink:href="#DejaVuSerif-69" transform="translate(1255.082031 0)"/>
      <use xlink:href="#DejaVuSerif-6e" transform="translate(1287.064453 0)"/>
      <use xlink:href="#DejaVuSerif-67" transform="translate(1351.46875 0)"/>
      <use xlink:href="#DejaVuSerif-29" transform="translate(1415.482422 0)"/>
     </g>
    </g>
   </g>
   <g id="matplotlib.axis_2">
    <g id="ytick_1">
     <g id="line2d_1">
      <path d="M 39.483125 418.867781 
L 989.28 418.867781 
" clip-path="url(#p66155dc39b)" style="fill: none; stroke-dasharray: 3.7,1.6; stroke-dashoffset: 0; stroke: #dddddd; stroke-opacity: 0.7"/>
     </g>
     <g id="text_11">
      <!-- 0 -->
      <g style="fill: #262626" transform="translate(22.984375 423.046922) scale(0.11 -0.11)">
       <defs>
        <path id="DejaVuSerif-30" d="M 2034 219 
Q 2513 219 2750 744 
Q 2988 1269 2988 2328 
Q 2988 3391 2750 3916 
Q 2513 4441 2034 4441 
Q 1556 4441 1318 3916 
Q 1081 3391 1081 2328 
Q 1081 1269 1318 744 
Q 1556 219 2034 219 
z
M 2034 -91 
Q 1275 -91 848 546 
Q 422 1184 422 2328 
Q 422 3475 848 4112 
Q 1275 4750 2034 4750 
Q 2797 4750 3222 4112 
Q 3647 3475 3647 2328 
Q 3647 1184 3222 546 
Q 2797 -91 2034 -91 
z
" transform="scale(0.015625)"/>
       </defs>
       <use xlink:href="#DejaVuSerif-30"/>
      </g>
     </g>
    </g>
    <g id="ytick_2">
     <g id="line2d_2">
      <path d="M 39.483125 334.979706 
L 989.28 334.979706 
" clip-path="url(#p66155dc39b)" style="fill: none; stroke-dasharray: 3.7,1.6; stroke-dashoffset: 0; stroke: #dddddd; stroke-opacity: 0.7"/>
     </g>
     <g id="text_12">
      <!-- 1 -->
      <g style="fill: #262626" transform="translate(22.984375 339.158846) scale(0.11 -0.11)">
       <defs>
        <path id="DejaVuSerif-31" d="M 909 0 
L 909 331 
L 1722 331 
L 1722 4213 
L 781 3603 
L 781 4013 
L 1919 4750 
L 2350 4750 
L 2350 331 
L 3163 331 
L 3163 0 
L 909 0 
z
" transform="scale(0.015625)"/>
       </defs>
       <use xlink:href="#DejaVuSerif-31"/>
      </g>
     </g>
    </g>
    <g id="ytick_3">
     <g id="line2d_3">
      <path d="M 39.483125 251.09163 
L 989.28 251.09163 
" clip-path="url(#p66155dc39b)" style="fill: none; stroke-dasharray: 3.7,1.6; stroke-dashoffset: 0; stroke: #dddddd; stroke-opacity: 0.7"/>
     </g>
     <g id="text_13">
      <!-- 2 -->
      <g style="fill: #262626" transform="translate(22.984375 255.270771) scale(0.11 -0.11)">
       <defs>
        <path id="DejaVuSerif-32" d="M 819 3553 
L 469 3553 
L 469 4384 
Q 803 4563 1142 4656 
Q 1481 4750 1806 4750 
Q 2534 4750 2956 4397 
Q 3378 4044 3378 3438 
Q 3378 2753 2422 1800 
Q 2347 1728 2309 1691 
L 1131 513 
L 3078 513 
L 3078 1088 
L 3444 1088 
L 3444 0 
L 434 0 
L 434 341 
L 1850 1753 
Q 2319 2222 2519 2614 
Q 2719 3006 2719 3438 
Q 2719 3909 2473 4175 
Q 2228 4441 1797 4441 
Q 1350 4441 1106 4219 
Q 863 3997 819 3553 
z
" transform="scale(0.015625)"/>
       </defs>
       <use xlink:href="#DejaVuSerif-32"/>
      </g>
     </g>
    </g>
    <g id="ytick_4">
     <g id="line2d_4">
      <path d="M 39.483125 167.203555 
L 989.28 167.203555 
" clip-path="url(#p66155dc39b)" style="fill: none; stroke-dasharray: 3.7,1.6; stroke-dashoffset: 0; stroke: #dddddd; stroke-opacity: 0.7"/>
     </g>
     <g id="text_14">
      <!-- 3 -->
      <g style="fill: #262626" transform="translate(22.984375 171.382695) scale(0.11 -0.11)">
       <defs>
        <path id="DejaVuSerif-33" d="M 622 4469 
Q 988 4606 1323 4678 
Q 1659 4750 1953 4750 
Q 2638 4750 3022 4454 
Q 3406 4159 3406 3634 
Q 3406 3213 3140 2930 
Q 2875 2647 2388 2547 
Q 2963 2466 3280 2130 
Q 3597 1794 3597 1259 
Q 3597 606 3158 257 
Q 2719 -91 1894 -91 
Q 1528 -91 1179 -12 
Q 831 66 488 225 
L 488 1131 
L 838 1131 
Q 869 681 1141 450 
Q 1413 219 1906 219 
Q 2384 219 2661 495 
Q 2938 772 2938 1253 
Q 2938 1803 2653 2086 
Q 2369 2369 1819 2369 
L 1522 2369 
L 1522 2688 
L 1678 2688 
Q 2225 2688 2498 2914 
Q 2772 3141 2772 3597 
Q 2772 4006 2547 4223 
Q 2322 4441 1900 4441 
Q 1478 4441 1245 4241 
Q 1013 4041 972 3647 
L 622 3647 
L 622 4469 
z
" transform="scale(0.015625)"/>
       </defs>
       <use xlink:href="#DejaVuSerif-33"/>
      </g>
     </g>
    </g>
    <g id="ytick_5">
     <g id="line2d_5">
      <path d="M 39.483125 83.315479 
L 989.28 83.315479 
" clip-path="url(#p66155dc39b)" style="fill: none; stroke-dasharray: 3.7,1.6; stroke-dashoffset: 0; stroke: #dddddd; stroke-opacity: 0.7"/>
     </g>
     <g id="text_15">
      <!-- 4 -->
      <g style="fill: #262626" transform="translate(22.984375 87.49462) scale(0.11 -0.11)">
       <defs>
        <path id="DejaVuSerif-34" d="M 2234 1581 
L 2234 4063 
L 641 1581 
L 2234 1581 
z
M 3609 0 
L 1484 0 
L 1484 331 
L 2234 331 
L 2234 1247 
L 197 1247 
L 197 1588 
L 2241 4750 
L 2859 4750 
L 2859 1581 
L 3750 1581 
L 3750 1247 
L 2859 1247 
L 2859 331 
L 3609 331 
L 3609 0 
z
" transform="scale(0.015625)"/>
       </defs>
       <use xlink:href="#DejaVuSerif-34"/>
      </g>
     </g>
    </g>
    <g id="text_16">
     <!-- Energy (Wh) -->
     <g style="fill: #262626" transform="translate(16.318125 259.48725) rotate(-90) scale(0.12 -0.12)">
      <defs>
       <path id="DejaVuSerif-45" d="M 353 0 
L 353 331 
L 947 331 
L 947 4331 
L 353 4331 
L 353 4666 
L 4109 4666 
L 4109 3628 
L 3725 3628 
L 3725 4281 
L 1581 4281 
L 1581 2719 
L 3109 2719 
L 3109 3303 
L 3494 3303 
L 3494 1753 
L 3109 1753 
L 3109 2338 
L 1581 2338 
L 1581 384 
L 3775 384 
L 3775 1038 
L 4159 1038 
L 4159 0 
L 353 0 
z
" transform="scale(0.015625)"/>
      </defs>
      <use xlink:href="#DejaVuSerif-45"/>
      <use xlink:href="#DejaVuSerif-6e" transform="translate(72.998047 0)"/>
      <use xlink:href="#DejaVuSerif-65" transform="translate(137.402344 0)"/>
      <use xlink:href="#DejaVuSerif-72" transform="translate(196.582031 0)"/>
      <use xlink:href="#DejaVuSerif-67" transform="translate(244.384766 0)"/>
      <use xlink:href="#DejaVuSerif-79" transform="translate(308.398438 0)"/>
      <use xlink:href="#DejaVuSerif-20" transform="translate(364.892578 0)"/>
      <use xlink:href="#DejaVuSerif-28" transform="translate(396.679688 0)"/>
      <use xlink:href="#DejaVuSerif-57" transform="translate(435.693359 0)"/>
      <use xlink:href="#DejaVuSerif-68" transform="translate(538.476562 0)"/>
      <use xlink:href="#DejaVuSerif-29" transform="translate(602.880859 0)"/>
     </g>
    </g>
   </g>
   <g id="patch_3">
    <path d="M 50.036424 418.867781 
L 92.249618 418.867781 
L 92.249618 135.904914 
L 50.036424 135.904914 
z
" clip-path="url(#p66155dc39b)" style="fill: #3274a1; opacity: 0.88; stroke: #000000; stroke-linejoin: miter"/>
   </g>
   <g id="patch_4">
    <path d="M 155.56941 418.867781 
L 197.782604 418.867781 
L 197.782604 135.904914 
L 155.56941 135.904914 
z
" clip-path="url(#p66155dc39b)" style="fill: #3274a1; opacity: 0.88; stroke: #000000; stroke-linejoin: miter"/>
   </g>
   <g id="patch_5">
    <path d="M 261.102396 418.867781 
L 303.31559 418.867781 
L 303.31559 88.910814 
L 261.102396 88.910814 
z
" clip-path="url(#p66155dc39b)" style="fill: #3274a1; opacity: 0.88; stroke: #000000; stroke-linejoin: miter"/>
   </g>
   <g id="patch_6">
    <path d="M 366.635382 418.867781 
L 408.848576 418.867781 
L 408.848576 88.910814 
L 366.635382 88.910814 
z
" clip-path="url(#p66155dc39b)" style="fill: #3274a1; opacity: 0.88; stroke: #000000; stroke-linejoin: miter"/>
   </g>
   <g id="patch_7">
    <path d="M 472.168368 418.867781 
L 514.381562 418.867781 
L 514.381562 88.910814 
L 472.168368 88.910814 
z
" clip-path="url(#p66155dc39b)" style="fill: #3274a1; opacity: 0.88; stroke: #000000; stroke-linejoin: miter"/>
   </g>
   <g id="patch_8">
    <path d="M 577.701354 418.867781 
L 619.914549 418.867781 
L 619.914549 41.925103 
L 577.701354 41.925103 
z
" clip-path="url(#p66155dc39b)" style="fill: #3274a1; opacity: 0.88; stroke: #000000; stroke-linejoin: miter"/>
   </g>
   <g id="patch_9">
    <path d="M 683.23434 418.867781 
L 725.447535 418.867781 
L 725.447535 388.760351 
L 683.23434 388.760351 
z
" clip-path="url(#p66155dc39b)" style="fill: #3274a1; opacity: 0.88; stroke: #000000; stroke-linejoin: miter"/>
   </g>
   <g id="patch_10">
    <path d="M 788.767326 418.867781 
L 830.980521 418.867781 
L 830.980521 388.760351 
L 788.767326 388.760351 
z
" clip-path="url(#p66155dc39b)" style="fill: #3274a1; opacity: 0.88; stroke: #000000; stroke-linejoin: miter"/>
   </g>
   <g id="patch_11">
    <path d="M 894.300312 418.867781 
L 936.513507 418.867781 
L 936.513507 376.722412 
L 894.300312 376.722412 
z
" clip-path="url(#p66155dc39b)" style="fill: #3274a1; opacity: 0.88; stroke: #000000; stroke-linejoin: miter"/>
   </g>
   <g id="patch_12">
    <path d="M 92.249618 418.867781 
L 134.462812 418.867781 
L 134.462812 112.416253 
L 92.249618 112.416253 
z
" clip-path="url(#p66155dc39b)" style="fill: #c03d3e; opacity: 0.88; stroke: #000000; stroke-linejoin: miter"/>
   </g>
   <g id="patch_13">
    <path d="M 197.782604 418.867781 
L 239.995799 418.867781 
L 239.995799 112.416253 
L 197.782604 112.416253 
z
" clip-path="url(#p66155dc39b)" style="fill: #c03d3e; opacity: 0.88; stroke: #000000; stroke-linejoin: miter"/>
   </g>
   <g id="patch_14">
    <path d="M 303.31559 418.867781 
L 345.528785 418.867781 
L 345.528785 65.413764 
L 303.31559 65.413764 
z
" clip-path="url(#p66155dc39b)" style="fill: #c03d3e; opacity: 0.88; stroke: #000000; stroke-linejoin: miter"/>
   </g>
   <g id="patch_15">
    <path d="M 408.848576 418.867781 
L 451.061771 418.867781 
L 451.061771 88.910814 
L 408.848576 88.910814 
z
" clip-path="url(#p66155dc39b)" style="fill: #c03d3e; opacity: 0.88; stroke: #000000; stroke-linejoin: miter"/>
   </g>
   <g id="patch_16">
    <path d="M 514.381562 418.867781 
L 556.594757 418.867781 
L 556.594757 88.910814 
L 514.381562 88.910814 
z
" clip-path="url(#p66155dc39b)" style="fill: #c03d3e; opacity: 0.88; stroke: #000000; stroke-linejoin: miter"/>
   </g>
   <g id="patch_17">
    <path d="M 619.914549 418.867781 
L 662.127743 418.867781 
L 662.127743 41.925103 
L 619.914549 41.925103 
z
" clip-path="url(#p66155dc39b)" style="fill: #c03d3e; opacity: 0.88; stroke: #000000; stroke-linejoin: miter"/>
   </g>
   <g id="patch_18">
    <path d="M 725.447535 418.867781 
L 767.660729 418.867781 
L 767.660729 388.760351 
L 725.447535 388.760351 
z
" clip-path="url(#p66155dc39b)" style="fill: #c03d3e; opacity: 0.88; stroke: #000000; stroke-linejoin: miter"/>
   </g>
   <g id="patch_19">
    <path d="M 830.980521 418.867781 
L 873.193715 418.867781 
L 873.193715 388.760351 
L 830.980521 388.760351 
z
" clip-path="url(#p66155dc39b)" style="fill: #c03d3e; opacity: 0.88; stroke: #000000; stroke-linejoin: miter"/>
   </g>
   <g id="patch_20">
    <path d="M 936.513507 418.867781 
L 978.726701 418.867781 
L 978.726701 376.722412 
L 936.513507 376.722412 
z
" clip-path="url(#p66155dc39b)" style="fill: #c03d3e; opacity: 0.88; stroke: #000000; stroke-linejoin: miter"/>
   </g>
   <g id="patch_21">
    <path d="M 92.249618 418.867781 
L 92.249618 418.867781 
L 92.249618 418.867781 
L 92.249618 418.867781 
z
" clip-path="url(#p66155dc39b)" style="fill: #3274a1; opacity: 0.88; stroke: #000000; stroke-linejoin: miter"/>
   </g>
   <g id="patch_22">
    <path d="M 92.249618 418.867781 
L 92.249618 418.867781 
L 92.249618 418.867781 
L 92.249618 418.867781 
z
" clip-path="url(#p66155dc39b)" style="fill: #c03d3e; opacity: 0.88; stroke: #000000; stroke-linejoin: miter"/>
   </g>
   <g id="line2d_6">
    <path clip-path="url(#p66155dc39b)" style="fill: none; stroke: #424242; stroke-width: 2.25; stroke-linecap: round"/>
   </g>
   <g id="line2d_7">
    <path clip-path="url(#p66155dc39b)" style="fill: none; stroke: #424242; stroke-width: 2.25; stroke-linecap: round"/>
   </g>
   <g id="line2d_8">
    <path clip-path="url(#p66155dc39b)" style="fill: none; stroke: #424242; stroke-width: 2.25; stroke-linecap: round"/>
   </g>
   <g id="line2d_9">
    <path clip-path="url(#p66155dc39b)" style="fill: none; stroke: #424242; stroke-width: 2.25; stroke-linecap: round"/>
   </g>
   <g id="line2d_10">
    <path clip-path="url(#p66155dc39b)" style="fill: none; stroke: #424242; stroke-width: 2.25; stroke-linecap: round"/>
   </g>
   <g id="line2d_11">
    <path clip-path="url(#p66155dc39b)" style="fill: none; stroke: #424242; stroke-width: 2.25; stroke-linecap: round"/>
   </g>
   <g id="line2d_12">
    <path clip-path="url(#p66155dc39b)" style="fill: none; stroke: #424242; stroke-width: 2.25; stroke-linecap: round"/>
   </g>
   <g id="line2d_13">
    <path clip-path="url(#p66155dc39b)" style="fill: none; stroke: #424242; stroke-width: 2.25; stroke-linecap: round"/>
   </g>
   <g id="line2d_14">
    <path clip-path="url(#p66155dc39b)" style="fill: none; stroke: #424242; stroke-width: 2.25; stroke-linecap: round"/>
   </g>
   <g id="line2d_15">
    <path clip-path="url(#p66155dc39b)" style="fill: none; stroke: #424242; stroke-width: 2.25; stroke-linecap: round"/>
   </g>
   <g id="line2d_16">
    <path clip-path="url(#p66155dc39b)" style="fill: none; stroke: #424242; stroke-width: 2.25; stroke-linecap: round"/>
   </g>
   <g id="line2d_17">
    <path clip-path="url(#p66155dc39b)" style="fill: none; stroke: #424242; stroke-width: 2.25; stroke-linecap: round"/>
   </g>
   <g id="line2d_18">
    <path clip-path="url(#p66155dc39b)" style="fill: none; stroke: #424242; stroke-width: 2.25; stroke-linecap: round"/>
   </g>
   <g id="line2d_19">
    <path clip-path="url(#p66155dc39b)" style="fill: none; stroke: #424242; stroke-width: 2.25; stroke-linecap: round"/>
   </g>
   <g id="line2d_20">
    <path clip-path="url(#p66155dc39b)" style="fill: none; stroke: #424242; stroke-width: 2.25; stroke-linecap: round"/>
   </g>
   <g id="line2d_21">
    <path clip-path="url(#p66155dc39b)" style="fill: none; stroke: #424242; stroke-width: 2.25; stroke-linecap: round"/>
   </g>
   <g id="line2d_22">
    <path clip-path="url(#p66155dc39b)" style="fill: none; stroke: #424242; stroke-width: 2.25; stroke-linecap: round"/>
   </g>
   <g id="line2d_23">
    <path clip-path="url(#p66155dc39b)" style="fill: none; stroke: #424242; stroke-width: 2.25; stroke-linecap: round"/>
   </g>
   <g id="patch_23">
    <path d="M 39.483125 418.867781 
L 39.483125 23.077969 
" style="fill: none; stroke: #000000; stroke-width: 1.5; stroke-linejoin: miter; stroke-linecap: square"/>
   </g>
   <g id="patch_24">
    <path d="M 989.28 418.867781 
L 989.28 23.077969 
" style="fill: none; stroke: #000000; stroke-width: 1.5; stroke-linejoin: miter; stroke-linecap: square"/>
   </g>
   <g id="patch_25">
    <path d="M 39.483125 418.867781 
L 989.28 418.867781 
" style="fill: none; stroke: #000000; stroke-width: 1.5; stroke-linejoin: miter; stroke-linecap: square"/>
   </g>
   <g id="patch_26">
    <path d="M 39.483125 23.077969 
L 989.28 23.077969 
" style="fill: none; stroke: #000000; stroke-width: 1.5; stroke-linejoin: miter; stroke-linecap: square"/>
   </g>
   <g id="text_17">
    <!-- 3 -->
    <g style="fill: #262626" transform="translate(68.707786 134.449132) scale(0.07 -0.07)">
     <defs>
      <path id="DejaVuSerif-Bold-33" d="M 550 4531 
Q 963 4641 1350 4695 
Q 1738 4750 2106 4750 
Q 2950 4750 3401 4448 
Q 3853 4147 3853 3584 
Q 3853 3163 3593 2900 
Q 3334 2638 2834 2547 
Q 3444 2450 3744 2131 
Q 4044 1813 4044 1259 
Q 4044 606 3526 257 
Q 3009 -91 2028 -91 
Q 1659 -91 1267 -28 
Q 875 34 447 159 
L 447 1184 
L 825 1184 
Q 859 741 1103 508 
Q 1347 275 1778 275 
Q 2253 275 2512 539 
Q 2772 803 2772 1288 
Q 2772 1794 2501 2069 
Q 2231 2344 1734 2344 
L 1528 2344 
L 1528 2719 
L 1691 2719 
Q 2150 2719 2381 2931 
Q 2613 3144 2613 3566 
Q 2613 3963 2395 4173 
Q 2178 4384 1772 4384 
Q 1403 4384 1187 4182 
Q 972 3981 928 3597 
L 550 3597 
L 550 4531 
z
" transform="scale(0.015625)"/>
     </defs>
     <use xlink:href="#DejaVuSerif-Bold-33"/>
    </g>
   </g>
   <g id="text_18">
    <!-- 3 -->
    <g style="fill: #262626" transform="translate(174.240773 134.449132) scale(0.07 -0.07)">
     <use xlink:href="#DejaVuSerif-Bold-33"/>
    </g>
   </g>
   <g id="text_19">
    <!-- 4 -->
    <g style="fill: #262626" transform="translate(279.773759 87.455033) scale(0.07 -0.07)">
     <defs>
      <path id="DejaVuSerif-Bold-34" d="M 4084 0 
L 1516 0 
L 1516 378 
L 2209 378 
L 2209 1228 
L 263 1228 
L 263 1588 
L 2216 4750 
L 3391 4750 
L 3391 1631 
L 4191 1631 
L 4191 1228 
L 3391 1228 
L 3391 378 
L 4084 378 
L 4084 0 
z
M 2209 1631 
L 2209 3897 
L 819 1631 
L 2209 1631 
z
" transform="scale(0.015625)"/>
     </defs>
     <use xlink:href="#DejaVuSerif-Bold-34"/>
    </g>
   </g>
   <g id="text_20">
    <!-- 4 -->
    <g style="fill: #262626" transform="translate(385.306745 87.455033) scale(0.07 -0.07)">
     <use xlink:href="#DejaVuSerif-Bold-34"/>
    </g>
   </g>
   <g id="text_21">
    <!-- 4 -->
    <g style="fill: #262626" transform="translate(490.839731 87.455033) scale(0.07 -0.07)">
     <use xlink:href="#DejaVuSerif-Bold-34"/>
    </g>
   </g>
   <g id="text_22">
    <!-- 4 -->
    <g style="fill: #262626" transform="translate(596.372717 40.469321) scale(0.07 -0.07)">
     <use xlink:href="#DejaVuSerif-Bold-34"/>
    </g>
   </g>
   <g id="text_23">
    <!-- 0 -->
    <g style="fill: #262626" transform="translate(701.905703 387.30457) scale(0.07 -0.07)">
     <defs>
      <path id="DejaVuSerif-Bold-30" d="M 2228 275 
Q 2603 275 2742 615 
Q 2881 956 2881 2328 
Q 2881 3691 2742 4037 
Q 2603 4384 2228 4384 
Q 1853 4384 1714 4043 
Q 1575 3703 1575 2328 
Q 1575 956 1714 615 
Q 1853 275 2228 275 
z
M 2228 -91 
Q 1294 -91 797 532 
Q 300 1156 300 2328 
Q 300 3500 797 4125 
Q 1294 4750 2228 4750 
Q 3159 4750 3656 4125 
Q 4153 3500 4153 2328 
Q 4153 1156 3656 532 
Q 3159 -91 2228 -91 
z
" transform="scale(0.015625)"/>
     </defs>
     <use xlink:href="#DejaVuSerif-Bold-30"/>
    </g>
   </g>
   <g id="text_24">
    <!-- 0 -->
    <g style="fill: #262626" transform="translate(807.438689 387.30457) scale(0.07 -0.07)">
     <use xlink:href="#DejaVuSerif-Bold-30"/>
    </g>
   </g>
   <g id="text_25">
    <!-- 1 -->
    <g style="fill: #262626" transform="translate(912.971675 375.266631) scale(0.07 -0.07)">
     <defs>
      <path id="DejaVuSerif-Bold-31" d="M 878 0 
L 878 378 
L 1753 378 
L 1753 4153 
L 781 3578 
L 781 4044 
L 1953 4750 
L 2938 4750 
L 2938 378 
L 3816 378 
L 3816 0 
L 878 0 
z
" transform="scale(0.015625)"/>
     </defs>
     <use xlink:href="#DejaVuSerif-Bold-31"/>
    </g>
   </g>
   <g id="text_26">
    <!-- 4 -->
    <g style="fill: #262626" transform="translate(110.920981 110.960471) scale(0.07 -0.07)">
     <use xlink:href="#DejaVuSerif-Bold-34"/>
    </g>
   </g>
   <g id="text_27">
    <!-- 4 -->
    <g style="fill: #262626" transform="translate(216.453967 110.960471) scale(0.07 -0.07)">
     <use xlink:href="#DejaVuSerif-Bold-34"/>
    </g>
   </g>
   <g id="text_28">
    <!-- 4 -->
    <g style="fill: #262626" transform="translate(321.986953 63.957983) scale(0.07 -0.07)">
     <use xlink:href="#DejaVuSerif-Bold-34"/>
    </g>
   </g>
   <g id="text_29">
    <!-- 4 -->
    <g style="fill: #262626" transform="translate(427.519939 87.455033) scale(0.07 -0.07)">
     <use xlink:href="#DejaVuSerif-Bold-34"/>
    </g>
   </g>
   <g id="text_30">
    <!-- 4 -->
    <g style="fill: #262626" transform="translate(533.052925 87.455033) scale(0.07 -0.07)">
     <use xlink:href="#DejaVuSerif-Bold-34"/>
    </g>
   </g>
   <g id="text_31">
    <!-- 4 -->
    <g style="fill: #262626" transform="translate(638.585911 40.469321) scale(0.07 -0.07)">
     <use xlink:href="#DejaVuSerif-Bold-34"/>
    </g>
   </g>
   <g id="text_32">
    <!-- 0 -->
    <g style="fill: #262626" transform="translate(744.118898 387.30457) scale(0.07 -0.07)">
     <use xlink:href="#DejaVuSerif-Bold-30"/>
    </g>
   </g>
   <g id="text_33">
    <!-- 0 -->
    <g style="fill: #262626" transform="translate(849.651884 387.30457) scale(0.07 -0.07)">
     <use xlink:href="#DejaVuSerif-Bold-30"/>
    </g>
   </g>
   <g id="text_34">
    <!-- 1 -->
    <g style="fill: #262626" transform="translate(955.18487 375.266631) scale(0.07 -0.07)">
     <use xlink:href="#DejaVuSerif-Bold-31"/>
    </g>
   </g>
   <g id="text_35">
    <!-- Total Energy — All VM and Workload Scheduling Policies — dataset-mini -->
    <g style="fill: #262626" transform="translate(249.570547 17.077969) scale(0.13 -0.13)">
     <defs>
      <path id="DejaVuSerif-Bold-54" d="M 1159 0 
L 1159 378 
L 1778 378 
L 1778 4238 
L 500 4238 
L 500 3500 
L 72 3500 
L 72 4666 
L 4697 4666 
L 4697 3500 
L 4275 3500 
L 4275 4238 
L 2988 4238 
L 2988 378 
L 3609 378 
L 3609 0 
L 1159 0 
z
" transform="scale(0.015625)"/>
      <path id="DejaVuSerif-Bold-6f" d="M 2138 263 
Q 2488 263 2630 563 
Q 2772 863 2772 1663 
Q 2772 2463 2631 2761 
Q 2491 3059 2138 3059 
Q 1784 3059 1640 2757 
Q 1497 2456 1497 1663 
Q 1497 869 1640 566 
Q 1784 263 2138 263 
z
M 2138 -91 
Q 1259 -91 761 376 
Q 263 844 263 1663 
Q 263 2484 761 2948 
Q 1259 3413 2138 3413 
Q 3019 3413 3516 2948 
Q 4013 2484 4013 1663 
Q 4013 844 3514 376 
Q 3016 -91 2138 -91 
z
" transform="scale(0.015625)"/>
      <path id="DejaVuSerif-Bold-74" d="M 634 2944 
L 153 2944 
L 153 3322 
L 634 3322 
L 634 4353 
L 1741 4353 
L 1741 3322 
L 2663 3322 
L 2663 2944 
L 1741 2944 
L 1741 909 
Q 1741 475 1809 369 
Q 1878 263 2059 263 
Q 2259 263 2356 397 
Q 2453 531 2459 813 
L 2925 813 
Q 2897 313 2651 111 
Q 2406 -91 1806 -91 
Q 1122 -91 878 123 
Q 634 338 634 909 
L 634 2944 
z
" transform="scale(0.015625)"/>
      <path id="DejaVuSerif-Bold-61" d="M 3525 2041 
L 3525 378 
L 4000 378 
L 4000 0 
L 2419 0 
L 2419 422 
Q 2200 159 1931 34 
Q 1663 -91 1319 -91 
Q 809 -91 536 182 
Q 263 456 263 966 
Q 263 1525 655 1803 
Q 1047 2081 1838 2081 
L 2419 2081 
L 2419 2278 
Q 2419 2681 2228 2873 
Q 2038 3066 1638 3066 
Q 1306 3066 1126 2930 
Q 947 2794 872 2484 
L 519 2484 
L 519 3200 
Q 816 3306 1134 3359 
Q 1453 3413 1806 3413 
Q 2697 3413 3111 3081 
Q 3525 2750 3525 2041 
z
M 2419 1044 
L 2419 1709 
L 2003 1709 
Q 1694 1709 1528 1540 
Q 1363 1372 1363 1056 
Q 1363 741 1483 584 
Q 1603 428 1850 428 
Q 2106 428 2262 597 
Q 2419 766 2419 1044 
z
" transform="scale(0.015625)"/>
      <path id="DejaVuSerif-Bold-6c" d="M 1797 378 
L 2272 378 
L 2272 0 
L 219 0 
L 219 378 
L 691 378 
L 691 4488 
L 219 4488 
L 219 4863 
L 1797 4863 
L 1797 378 
z
" transform="scale(0.015625)"/>
      <path id="DejaVuSerif-Bold-20" transform="scale(0.015625)"/>
      <path id="DejaVuSerif-Bold-45" d="M 300 0 
L 300 378 
L 897 378 
L 897 4288 
L 300 4288 
L 300 4666 
L 4494 4666 
L 4494 3566 
L 4063 3566 
L 4063 4238 
L 2100 4238 
L 2100 2741 
L 3322 2741 
L 3322 3334 
L 3750 3334 
L 3750 1722 
L 3322 1722 
L 3322 2316 
L 2100 2316 
L 2100 428 
L 4122 428 
L 4122 1100 
L 4550 1100 
L 4550 0 
L 300 0 
z
" transform="scale(0.015625)"/>
      <path id="DejaVuSerif-Bold-6e" d="M 219 0 
L 219 378 
L 691 378 
L 691 2944 
L 219 2944 
L 219 3322 
L 1797 3322 
L 1797 2853 
Q 1997 3150 2253 3281 
Q 2509 3413 2900 3413 
Q 3459 3413 3745 3083 
Q 4031 2753 4031 2113 
L 4031 378 
L 4506 378 
L 4506 0 
L 2522 0 
L 2522 378 
L 2925 378 
L 2925 2144 
Q 2925 2566 2817 2730 
Q 2709 2894 2444 2894 
Q 2109 2894 1953 2648 
Q 1797 2403 1797 1869 
L 1797 378 
L 2203 378 
L 2203 0 
L 219 0 
z
" transform="scale(0.015625)"/>
      <path id="DejaVuSerif-Bold-65" d="M 2566 1875 
Q 2566 2531 2444 2795 
Q 2322 3059 2028 3059 
Q 1744 3059 1620 2800 
Q 1497 2541 1497 1931 
L 1497 1875 
L 2566 1875 
z
M 3781 1503 
L 1497 1503 
L 1497 1478 
Q 1497 834 1690 548 
Q 1884 263 2316 263 
Q 2675 263 2897 453 
Q 3119 644 3181 1006 
L 3700 1006 
Q 3566 441 3166 175 
Q 2766 -91 2047 -91 
Q 1184 -91 723 364 
Q 263 819 263 1663 
Q 263 2488 734 2950 
Q 1206 3413 2047 3413 
Q 2872 3413 3312 2927 
Q 3753 2441 3781 1503 
z
" transform="scale(0.015625)"/>
      <path id="DejaVuSerif-Bold-72" d="M 3438 3359 
L 3438 2369 
L 3084 2369 
Q 3066 2634 2941 2764 
Q 2816 2894 2578 2894 
Q 2216 2894 2006 2575 
Q 1797 2256 1797 1691 
L 1797 378 
L 2400 378 
L 2400 0 
L 219 0 
L 219 378 
L 691 378 
L 691 2944 
L 184 2944 
L 184 3322 
L 1797 3322 
L 1797 2731 
Q 1959 3078 2226 3245 
Q 2494 3413 2881 3413 
Q 2978 3413 3117 3398 
Q 3256 3384 3438 3359 
z
" transform="scale(0.015625)"/>
      <path id="DejaVuSerif-Bold-67" d="M 3853 2944 
L 3853 44 
Q 3853 -656 3354 -1039 
Q 2856 -1422 1947 -1422 
Q 1616 -1422 1275 -1370 
Q 934 -1319 575 -1216 
L 575 -422 
L 928 -422 
Q 975 -750 1192 -909 
Q 1409 -1069 1813 -1069 
Q 2325 -1069 2536 -823 
Q 2747 -578 2747 44 
L 2747 422 
Q 2606 163 2367 36 
Q 2128 -91 1778 -91 
Q 1072 -91 667 378 
Q 263 847 263 1663 
Q 263 2481 667 2947 
Q 1072 3413 1778 3413 
Q 2128 3413 2367 3286 
Q 2606 3159 2747 2900 
L 2747 3322 
L 4325 3322 
L 4325 2944 
L 3853 2944 
z
M 2747 1825 
Q 2747 2406 2597 2665 
Q 2447 2925 2119 2925 
Q 1775 2925 1636 2651 
Q 1497 2378 1497 1663 
Q 1497 947 1637 672 
Q 1778 397 2119 397 
Q 2447 397 2597 656 
Q 2747 916 2747 1497 
L 2747 1825 
z
" transform="scale(0.015625)"/>
      <path id="DejaVuSerif-Bold-79" d="M 1997 -750 
Q 1847 -1116 1634 -1269 
Q 1422 -1422 1063 -1422 
Q 909 -1422 721 -1387 
Q 534 -1353 313 -1288 
L 313 -594 
L 666 -597 
Q 675 -838 779 -953 
Q 884 -1069 1094 -1069 
Q 1297 -1069 1422 -958 
Q 1547 -847 1672 -538 
L 1722 -422 
L 275 2944 
L -84 2944 
L -84 3322 
L 1831 3322 
L 1831 2944 
L 1434 2944 
L 2278 978 
L 3066 2944 
L 2625 2944 
L 2625 3322 
L 3872 3322 
L 3872 2944 
L 3469 2944 
L 1997 -750 
z
" transform="scale(0.015625)"/>
      <path id="DejaVuSerif-Bold-2014" d="M 344 2075 
L 6056 2075 
L 6056 1325 
L 344 1325 
L 344 2075 
z
" transform="scale(0.015625)"/>
      <path id="DejaVuSerif-Bold-41" d="M -50 0 
L -50 378 
L 331 378 
L 2088 4666 
L 2834 4666 
L 4594 378 
L 5038 378 
L 5038 0 
L 2853 0 
L 2853 378 
L 3309 378 
L 2925 1331 
L 1172 1331 
L 781 378 
L 1338 378 
L 1338 0 
L -50 0 
z
M 1325 1709 
L 2772 1709 
L 2053 3494 
L 1325 1709 
z
" transform="scale(0.015625)"/>
      <path id="DejaVuSerif-Bold-56" d="M 5056 4666 
L 5056 4288 
L 4666 4288 
L 2906 0 
L 2163 0 
L 403 4288 
L -38 4288 
L -38 4666 
L 2150 4666 
L 2150 4288 
L 1697 4288 
L 2956 1197 
L 4225 4288 
L 3669 4288 
L 3669 4666 
L 5056 4666 
z
" transform="scale(0.015625)"/>
      <path id="DejaVuSerif-Bold-4d" d="M 269 0 
L 269 378 
L 863 378 
L 863 4288 
L 269 4288 
L 269 4666 
L 2194 4666 
L 3525 1672 
L 4863 4666 
L 6784 4666 
L 6784 4288 
L 6188 4288 
L 6188 378 
L 6784 378 
L 6784 0 
L 4384 0 
L 4384 378 
L 4978 378 
L 4978 3938 
L 3531 684 
L 2741 684 
L 1300 3938 
L 1300 378 
L 1894 378 
L 1894 0 
L 269 0 
z
" transform="scale(0.015625)"/>
      <path id="DejaVuSerif-Bold-64" d="M 2747 1497 
L 2747 1825 
Q 2747 2406 2597 2665 
Q 2447 2925 2119 2925 
Q 1775 2925 1636 2651 
Q 1497 2378 1497 1663 
Q 1497 947 1637 672 
Q 1778 397 2119 397 
Q 2447 397 2597 656 
Q 2747 916 2747 1497 
z
M 3853 378 
L 4325 378 
L 4325 0 
L 2747 0 
L 2747 422 
Q 2606 163 2367 36 
Q 2128 -91 1778 -91 
Q 1072 -91 667 378 
Q 263 847 263 1663 
Q 263 2481 667 2947 
Q 1072 3413 1778 3413 
Q 2128 3413 2367 3286 
Q 2606 3159 2747 2900 
L 2747 4488 
L 2272 4488 
L 2272 4863 
L 3853 4863 
L 3853 378 
z
" transform="scale(0.015625)"/>
      <path id="DejaVuSerif-Bold-57" d="M 5453 0 
L 4647 0 
L 3591 3397 
L 2534 0 
L 1728 0 
L 397 4288 
L -56 4288 
L -56 4666 
L 2156 4666 
L 2156 4288 
L 1656 4288 
L 2547 1422 
L 3553 4666 
L 4441 4666 
L 5466 1369 
L 6375 4288 
L 5819 4288 
L 5819 4666 
L 7263 4666 
L 7263 4288 
L 6784 4288 
L 5453 0 
z
" transform="scale(0.015625)"/>
      <path id="DejaVuSerif-Bold-6b" d="M 2216 0 
L 219 0 
L 219 378 
L 691 378 
L 691 4488 
L 219 4488 
L 219 4863 
L 1797 4863 
L 1797 1741 
L 3138 2944 
L 2741 2944 
L 2741 3322 
L 4256 3322 
L 4256 2944 
L 3641 2944 
L 2784 2175 
L 4184 378 
L 4544 378 
L 4544 0 
L 2638 0 
L 2638 378 
L 3028 378 
L 2106 1563 
L 1797 1288 
L 1797 378 
L 2216 378 
L 2216 0 
z
" transform="scale(0.015625)"/>
      <path id="DejaVuSerif-Bold-53" d="M 494 225 
L 494 1331 
L 891 1331 
Q 981 806 1318 547 
Q 1656 288 2253 288 
Q 2738 288 2991 472 
Q 3244 656 3244 1013 
Q 3244 1294 3072 1450 
Q 2900 1606 2363 1741 
L 1663 1913 
Q 978 2088 700 2398 
Q 422 2709 422 3284 
Q 422 3978 883 4364 
Q 1344 4750 2175 4750 
Q 2584 4750 3026 4681 
Q 3469 4613 3944 4475 
L 3944 3444 
L 3547 3444 
Q 3456 3925 3150 4148 
Q 2844 4372 2278 4372 
Q 1816 4372 1580 4211 
Q 1344 4050 1344 3731 
Q 1344 3441 1506 3289 
Q 1669 3138 2303 2975 
L 3003 2803 
Q 3653 2641 3945 2297 
Q 4238 1953 4238 1350 
Q 4238 644 3750 276 
Q 3263 -91 2316 -91 
Q 1859 -91 1409 -12 
Q 959 66 494 225 
z
" transform="scale(0.015625)"/>
      <path id="DejaVuSerif-Bold-63" d="M 3609 1038 
Q 3491 469 3123 189 
Q 2756 -91 2125 -91 
Q 1238 -91 750 368 
Q 263 828 263 1663 
Q 263 2488 744 2950 
Q 1225 3413 2081 3413 
Q 2428 3413 2781 3347 
Q 3134 3281 3500 3150 
L 3500 2228 
L 3150 2228 
Q 3100 2650 2903 2854 
Q 2706 3059 2350 3059 
Q 1888 3059 1692 2746 
Q 1497 2434 1497 1663 
Q 1497 909 1687 586 
Q 1878 263 2309 263 
Q 2644 263 2845 463 
Q 3047 663 3091 1038 
L 3609 1038 
z
" transform="scale(0.015625)"/>
      <path id="DejaVuSerif-Bold-68" d="M 219 0 
L 219 378 
L 691 378 
L 691 4488 
L 197 4488 
L 197 4863 
L 1797 4863 
L 1797 2853 
Q 1997 3150 2253 3281 
Q 2509 3413 2900 3413 
Q 3459 3413 3745 3083 
Q 4031 2753 4031 2113 
L 4031 378 
L 4506 378 
L 4506 0 
L 2522 0 
L 2522 378 
L 2925 378 
L 2925 2144 
Q 2925 2566 2817 2730 
Q 2709 2894 2444 2894 
Q 2109 2894 1953 2648 
Q 1797 2403 1797 1869 
L 1797 378 
L 2203 378 
L 2203 0 
L 219 0 
z
" transform="scale(0.015625)"/>
      <path id="DejaVuSerif-Bold-75" d="M 3963 3322 
L 3963 378 
L 4434 378 
L 4434 0 
L 2853 0 
L 2853 469 
Q 2656 172 2400 40 
Q 2144 -91 1753 -91 
Q 1194 -91 908 239 
Q 622 569 622 1209 
L 622 2944 
L 147 2944 
L 147 3322 
L 1728 3322 
L 1728 1381 
Q 1728 763 1831 595 
Q 1934 428 2209 428 
Q 2544 428 2698 675 
Q 2853 922 2853 1459 
L 2853 2944 
L 2450 2944 
L 2450 3322 
L 3963 3322 
z
" transform="scale(0.015625)"/>
      <path id="DejaVuSerif-Bold-69" d="M 588 4263 
Q 588 4516 763 4689 
Q 938 4863 1191 4863 
Q 1438 4863 1611 4689 
Q 1784 4516 1784 4263 
Q 1784 4016 1611 3842 
Q 1438 3669 1191 3669 
Q 938 3669 763 3841 
Q 588 4013 588 4263 
z
M 1797 378 
L 2272 378 
L 2272 0 
L 219 0 
L 219 378 
L 691 378 
L 691 2944 
L 219 2944 
L 219 3322 
L 1797 3322 
L 1797 378 
z
" transform="scale(0.015625)"/>
      <path id="DejaVuSerif-Bold-50" d="M 300 0 
L 300 378 
L 897 378 
L 897 4288 
L 300 4288 
L 300 4666 
L 2956 4666 
Q 3734 4666 4193 4295 
Q 4653 3925 4653 3303 
Q 4653 2678 4192 2304 
Q 3731 1931 2956 1931 
L 2100 1931 
L 2100 378 
L 2853 378 
L 2853 0 
L 300 0 
z
M 2100 2309 
L 2450 2309 
Q 2856 2309 3098 2579 
Q 3341 2850 3341 3303 
Q 3341 3753 3100 4020 
Q 2859 4288 2450 4288 
L 2100 4288 
L 2100 2309 
z
" transform="scale(0.015625)"/>
      <path id="DejaVuSerif-Bold-73" d="M 300 97 
L 300 1025 
L 653 1025 
Q 697 653 931 458 
Q 1166 263 1569 263 
Q 1906 263 2086 380 
Q 2266 497 2266 716 
Q 2266 916 2152 1025 
Q 2038 1134 1709 1216 
L 1253 1331 
Q 738 1459 506 1698 
Q 275 1938 275 2344 
Q 275 2884 650 3148 
Q 1025 3413 1806 3413 
Q 2100 3413 2433 3364 
Q 2766 3316 3169 3213 
L 3169 2375 
L 2816 2375 
Q 2788 2716 2573 2887 
Q 2359 3059 1959 3059 
Q 1622 3059 1448 2951 
Q 1275 2844 1275 2638 
Q 1275 2469 1375 2372 
Q 1475 2275 1734 2209 
L 2188 2094 
Q 2841 1928 3091 1684 
Q 3341 1441 3341 1006 
Q 3341 444 2939 176 
Q 2538 -91 1691 -91 
Q 1381 -91 1034 -44 
Q 688 3 300 97 
z
" transform="scale(0.015625)"/>
      <path id="DejaVuSerif-Bold-2d" d="M 347 2138 
L 2309 2138 
L 2309 1294 
L 347 1294 
L 347 2138 
z
" transform="scale(0.015625)"/>
      <path id="DejaVuSerif-Bold-6d" d="M 3884 2778 
Q 4116 3109 4384 3261 
Q 4653 3413 5013 3413 
Q 5584 3413 5867 3089 
Q 6150 2766 6150 2113 
L 6150 378 
L 6625 378 
L 6625 0 
L 4647 0 
L 4647 378 
L 5044 378 
L 5044 1947 
Q 5044 2569 4948 2731 
Q 4853 2894 4594 2894 
Q 4300 2894 4137 2667 
Q 3975 2441 3975 2022 
L 3975 378 
L 4372 378 
L 4372 0 
L 2472 0 
L 2472 378 
L 2869 378 
L 2869 1947 
Q 2869 2569 2772 2731 
Q 2675 2894 2419 2894 
Q 2122 2894 1959 2667 
Q 1797 2441 1797 2022 
L 1797 378 
L 2194 378 
L 2194 0 
L 219 0 
L 219 378 
L 691 378 
L 691 2944 
L 219 2944 
L 219 3322 
L 1797 3322 
L 1797 2853 
Q 1991 3144 2241 3278 
Q 2491 3413 2834 3413 
Q 3241 3413 3494 3258 
Q 3747 3103 3884 2778 
z
" transform="scale(0.015625)"/>
     </defs>
     <use xlink:href="#DejaVuSerif-Bold-54"/>
     <use xlink:href="#DejaVuSerif-Bold-6f" transform="translate(62.914062 0)"/>
     <use xlink:href="#DejaVuSerif-Bold-74" transform="translate(129.613281 0)"/>
     <use xlink:href="#DejaVuSerif-Bold-61" transform="translate(175.804688 0)"/>
     <use xlink:href="#DejaVuSerif-Bold-6c" transform="translate(240.599609 0)"/>
     <use xlink:href="#DejaVuSerif-Bold-20" transform="translate(278.587891 0)"/>
     <use xlink:href="#DejaVuSerif-Bold-45" transform="translate(313.402344 0)"/>
     <use xlink:href="#DejaVuSerif-Bold-6e" transform="translate(389.623047 0)"/>
     <use xlink:href="#DejaVuSerif-Bold-65" transform="translate(462.328125 0)"/>
     <use xlink:href="#DejaVuSerif-Bold-72" transform="translate(525.951172 0)"/>
     <use xlink:href="#DejaVuSerif-Bold-67" transform="translate(578.636719 0)"/>
     <use xlink:href="#DejaVuSerif-Bold-79" transform="translate(648.558594 0)"/>
     <use xlink:href="#DejaVuSerif-Bold-20" transform="translate(706.664062 0)"/>
     <use xlink:href="#DejaVuSerif-Bold-2014" transform="translate(741.478516 0)"/>
     <use xlink:href="#DejaVuSerif-Bold-20" transform="translate(841.478516 0)"/>
     <use xlink:href="#DejaVuSerif-Bold-41" transform="translate(876.292969 0)"/>
     <use xlink:href="#DejaVuSerif-Bold-6c" transform="translate(953.880859 0)"/>
     <use xlink:href="#DejaVuSerif-Bold-6c" transform="translate(991.869141 0)"/>
     <use xlink:href="#DejaVuSerif-Bold-20" transform="translate(1029.857422 0)"/>
     <use xlink:href="#DejaVuSerif-Bold-56" transform="translate(1064.671875 0)"/>
     <use xlink:href="#DejaVuSerif-Bold-4d" transform="translate(1142.259766 0)"/>
     <use xlink:href="#DejaVuSerif-Bold-20" transform="translate(1252.953125 0)"/>
     <use xlink:href="#DejaVuSerif-Bold-61" transform="translate(1287.767578 0)"/>
     <use xlink:href="#DejaVuSerif-Bold-6e" transform="translate(1352.5625 0)"/>
     <use xlink:href="#DejaVuSerif-Bold-64" transform="translate(1425.267578 0)"/>
     <use xlink:href="#DejaVuSerif-Bold-20" transform="translate(1495.189453 0)"/>
     <use xlink:href="#DejaVuSerif-Bold-57" transform="translate(1530.003906 0)"/>
     <use xlink:href="#DejaVuSerif-Bold-6f" transform="translate(1634.183594 0)"/>
     <use xlink:href="#DejaVuSerif-Bold-72" transform="translate(1700.882812 0)"/>
     <use xlink:href="#DejaVuSerif-Bold-6b" transform="translate(1753.568359 0)"/>
     <use xlink:href="#DejaVuSerif-Bold-6c" transform="translate(1822.855469 0)"/>
     <use xlink:href="#DejaVuSerif-Bold-6f" transform="translate(1860.84375 0)"/>
     <use xlink:href="#DejaVuSerif-Bold-61" transform="translate(1927.542969 0)"/>
     <use xlink:href="#DejaVuSerif-Bold-64" transform="translate(1992.337891 0)"/>
     <use xlink:href="#DejaVuSerif-Bold-20" transform="translate(2062.259766 0)"/>
     <use xlink:href="#DejaVuSerif-Bold-53" transform="translate(2097.074219 0)"/>
     <use xlink:href="#DejaVuSerif-Bold-63" transform="translate(2169.291016 0)"/>
     <use xlink:href="#DejaVuSerif-Bold-68" transform="translate(2230.179688 0)"/>
     <use xlink:href="#DejaVuSerif-Bold-65" transform="translate(2302.884766 0)"/>
     <use xlink:href="#DejaVuSerif-Bold-64" transform="translate(2366.507812 0)"/>
     <use xlink:href="#DejaVuSerif-Bold-75" transform="translate(2436.429688 0)"/>
     <use xlink:href="#DejaVuSerif-Bold-6c" transform="translate(2509.134766 0)"/>
     <use xlink:href="#DejaVuSerif-Bold-69" transform="translate(2547.123047 0)"/>
     <use xlink:href="#DejaVuSerif-Bold-6e" transform="translate(2585.111328 0)"/>
     <use xlink:href="#DejaVuSerif-Bold-67" transform="translate(2657.816406 0)"/>
     <use xlink:href="#DejaVuSerif-Bold-20" transform="translate(2727.738281 0)"/>
     <use xlink:href="#DejaVuSerif-Bold-50" transform="translate(2762.552734 0)"/>
     <use xlink:href="#DejaVuSerif-Bold-6f" transform="translate(2835.123047 0)"/>
     <use xlink:href="#DejaVuSerif-Bold-6c" transform="translate(2901.822266 0)"/>
     <use xlink:href="#DejaVuSerif-Bold-69" transform="translate(2939.810547 0)"/>
     <use xlink:href="#DejaVuSerif-Bold-63" transform="translate(2977.798828 0)"/>
     <use xlink:href="#DejaVuSerif-Bold-69" transform="translate(3038.6875 0)"/>
     <use xlink:href="#DejaVuSerif-Bold-65" transform="translate(3076.675781 0)"/>
     <use xlink:href="#DejaVuSerif-Bold-73" transform="translate(3140.298828 0)"/>
     <use xlink:href="#DejaVuSerif-Bold-20" transform="translate(3196.597656 0)"/>
     <use xlink:href="#DejaVuSerif-Bold-2014" transform="translate(3231.412109 0)"/>
     <use xlink:href="#DejaVuSerif-Bold-20" transform="translate(3331.412109 0)"/>
     <use xlink:href="#DejaVuSerif-Bold-64" transform="translate(3366.226562 0)"/>
     <use xlink:href="#DejaVuSerif-Bold-61" transform="translate(3436.148438 0)"/>
     <use xlink:href="#DejaVuSerif-Bold-74" transform="translate(3500.943359 0)"/>
     <use xlink:href="#DejaVuSerif-Bold-61" transform="translate(3547.134766 0)"/>
     <use xlink:href="#DejaVuSerif-Bold-73" transform="translate(3611.929688 0)"/>
     <use xlink:href="#DejaVuSerif-Bold-65" transform="translate(3668.228516 0)"/>
     <use xlink:href="#DejaVuSerif-Bold-74" transform="translate(3731.851562 0)"/>
     <use xlink:href="#DejaVuSerif-Bold-2d" transform="translate(3778.042969 0)"/>
     <use xlink:href="#DejaVuSerif-Bold-6d" transform="translate(3819.546875 0)"/>
     <use xlink:href="#DejaVuSerif-Bold-69" transform="translate(3925.357422 0)"/>
     <use xlink:href="#DejaVuSerif-Bold-6e" transform="translate(3963.345703 0)"/>
     <use xlink:href="#DejaVuSerif-Bold-69" transform="translate(4036.050781 0)"/>
    </g>
   </g>
   <g id="legend_1">
    <g id="patch_27">
     <path d="M 912.42125 81.617344 
L 981.58 81.617344 
Q 983.78 81.617344 983.78 79.417344 
L 983.78 30.777969 
Q 983.78 28.577969 981.58 28.577969 
L 912.42125 28.577969 
Q 910.22125 28.577969 910.22125 30.777969 
L 910.22125 79.417344 
Q 910.22125 81.617344 912.42125 81.617344 
z
" style="fill: #ffffff; opacity: 0.8; stroke: #cccccc; stroke-linejoin: miter"/>
    </g>
    <g id="text_36">
     <!-- link_policy -->
     <g style="fill: #262626" transform="translate(914.62125 42.096094) scale(0.12 -0.12)">
      <defs>
       <path id="DejaVuSerif-6b" d="M 1831 0 
L 219 0 
L 219 331 
L 738 331 
L 738 4531 
L 184 4531 
L 184 4863 
L 1313 4863 
L 1313 1697 
L 2713 2988 
L 2234 2988 
L 2234 3322 
L 3738 3322 
L 3738 2988 
L 3169 2988 
L 2181 2075 
L 3444 331 
L 3922 331 
L 3922 0 
L 2284 0 
L 2284 331 
L 2759 331 
L 1766 1697 
L 1313 1275 
L 1313 331 
L 1831 331 
L 1831 0 
z
" transform="scale(0.015625)"/>
       <path id="DejaVuSerif-5f" d="M 3200 -1259 
L 3200 -1509 
L 0 -1509 
L 0 -1259 
L 3200 -1259 
z
" transform="scale(0.015625)"/>
       <path id="DejaVuSerif-70" d="M 1313 1825 
L 1313 1497 
Q 1313 897 1542 583 
Q 1772 269 2209 269 
Q 2650 269 2876 622 
Q 3103 975 3103 1663 
Q 3103 2353 2876 2703 
Q 2650 3053 2209 3053 
Q 1772 3053 1542 2737 
Q 1313 2422 1313 1825 
z
M 738 2988 
L 184 2988 
L 184 3322 
L 1313 3322 
L 1313 2803 
Q 1481 3116 1742 3264 
Q 2003 3413 2388 3413 
Q 3000 3413 3387 2928 
Q 3775 2444 3775 1663 
Q 3775 881 3387 395 
Q 3000 -91 2388 -91 
Q 2003 -91 1742 57 
Q 1481 206 1313 519 
L 1313 -997 
L 1856 -997 
L 1856 -1331 
L 184 -1331 
L 184 -997 
L 738 -997 
L 738 2988 
z
" transform="scale(0.015625)"/>
      </defs>
      <use xlink:href="#DejaVuSerif-6c"/>
      <use xlink:href="#DejaVuSerif-69" transform="translate(31.982422 0)"/>
      <use xlink:href="#DejaVuSerif-6e" transform="translate(63.964844 0)"/>
      <use xlink:href="#DejaVuSerif-6b" transform="translate(128.369141 0)"/>
      <use xlink:href="#DejaVuSerif-5f" transform="translate(188.964844 0)"/>
      <use xlink:href="#DejaVuSerif-70" transform="translate(238.964844 0)"/>
      <use xlink:href="#DejaVuSerif-6f" transform="translate(302.978516 0)"/>
      <use xlink:href="#DejaVuSerif-6c" transform="translate(363.183594 0)"/>
      <use xlink:href="#DejaVuSerif-69" transform="translate(395.166016 0)"/>
      <use xlink:href="#DejaVuSerif-63" transform="translate(427.148438 0)"/>
      <use xlink:href="#DejaVuSerif-79" transform="translate(483.154297 0)"/>
     </g>
    </g>
    <g id="patch_28">
     <path d="M 918.363672 58.78375 
L 940.363672 58.78375 
L 940.363672 51.08375 
L 918.363672 51.08375 
z
" style="fill: #3274a1; opacity: 0.88; stroke: #000000; stroke-linejoin: miter"/>
    </g>
    <g id="text_37">
     <!-- BLA -->
     <g style="fill: #262626" transform="translate(949.163672 58.78375) scale(0.11 -0.11)">
      <defs>
       <path id="DejaVuSerif-42" d="M 1581 331 
L 2516 331 
Q 3078 331 3337 575 
Q 3597 819 3597 1350 
Q 3597 1878 3339 2120 
Q 3081 2363 2516 2363 
L 1581 2363 
L 1581 331 
z
M 1581 2694 
L 2375 2694 
Q 2888 2694 3123 2891 
Q 3359 3088 3359 3513 
Q 3359 3941 3123 4136 
Q 2888 4331 2375 4331 
L 1581 4331 
L 1581 2694 
z
M 353 0 
L 353 331 
L 947 331 
L 947 4331 
L 353 4331 
L 353 4666 
L 2656 4666 
Q 3363 4666 3720 4377 
Q 4078 4088 4078 3513 
Q 4078 3097 3829 2850 
Q 3581 2603 3103 2547 
Q 3697 2472 4005 2167 
Q 4313 1863 4313 1350 
Q 4313 656 3875 328 
Q 3438 0 2509 0 
L 353 0 
z
" transform="scale(0.015625)"/>
       <path id="DejaVuSerif-41" d="M 1281 1691 
L 2994 1691 
L 2138 3909 
L 1281 1691 
z
M -38 0 
L -38 331 
L 372 331 
L 2034 4666 
L 2559 4666 
L 4225 331 
L 4684 331 
L 4684 0 
L 2988 0 
L 2988 331 
L 3506 331 
L 3116 1356 
L 1153 1356 
L 763 331 
L 1275 331 
L 1275 0 
L -38 0 
z
" transform="scale(0.015625)"/>
      </defs>
      <use xlink:href="#DejaVuSerif-42"/>
      <use xlink:href="#DejaVuSerif-4c" transform="translate(73.486328 0)"/>
      <use xlink:href="#DejaVuSerif-41" transform="translate(139.892578 0)"/>
     </g>
    </g>
    <g id="patch_29">
     <path d="M 918.363672 74.929687 
L 940.363672 74.929687 
L 940.363672 67.229687 
L 918.363672 67.229687 
z
" style="fill: #c03d3e; opacity: 0.88; stroke: #000000; stroke-linejoin: miter"/>
    </g>
    <g id="text_38">
     <!-- First -->
     <g style="fill: #262626" transform="translate(949.163672 74.929687) scale(0.11 -0.11)">
      <defs>
       <path id="DejaVuSerif-73" d="M 359 184 
L 359 959 
L 691 959 
Q 703 588 923 403 
Q 1144 219 1575 219 
Q 1963 219 2166 364 
Q 2369 509 2369 788 
Q 2369 1006 2220 1140 
Q 2072 1275 1594 1428 
L 1178 1569 
Q 750 1706 558 1912 
Q 366 2119 366 2438 
Q 366 2894 700 3153 
Q 1034 3413 1625 3413 
Q 1888 3413 2178 3344 
Q 2469 3275 2778 3144 
L 2778 2419 
L 2447 2419 
Q 2434 2741 2221 2922 
Q 2009 3103 1644 3103 
Q 1281 3103 1095 2975 
Q 909 2847 909 2591 
Q 909 2381 1050 2254 
Q 1191 2128 1613 1997 
L 2069 1856 
Q 2541 1709 2748 1489 
Q 2956 1269 2956 922 
Q 2956 450 2595 179 
Q 2234 -91 1600 -91 
Q 1278 -91 972 -22 
Q 666 47 359 184 
z
" transform="scale(0.015625)"/>
      </defs>
      <use xlink:href="#DejaVuSerif-46"/>
      <use xlink:href="#DejaVuSerif-69" transform="translate(69.384766 0)"/>
      <use xlink:href="#DejaVuSerif-72" transform="translate(101.367188 0)"/>
      <use xlink:href="#DejaVuSerif-73" transform="translate(149.169922 0)"/>
      <use xlink:href="#DejaVuSerif-74" transform="translate(200.488281 0)"/>
     </g>
    </g>
   </g>
  </g>
 </g>
 <defs>
  <clipPath id="p66155dc39b">
   <rect x="39.483125" y="23.077969" width="949.796875" height="395.789812"/>
  </clipPath>
 </defs>
</svg>
