<?xml version="1.0" encoding="utf-8" standalone="no"?>
<!DOCTYPE svg PUBLIC "-//W3C//DTD SVG 1.1//EN"
  "http://www.w3.org/Graphics/SVG/1.1/DTD/svg11.dtd">
<svg xmlns:xlink="http://www.w3.org/1999/xlink" width="996.452795pt" height="424.8pt" viewBox="0 0 996.452795 424.8" xmlns="http://www.w3.org/2000/svg" version="1.1">
 <metadata>
  <rdf:RDF xmlns:dc="http://purl.org/dc/elements/1.1/" xmlns:cc="http://creativecommons.org/ns#" xmlns:rdf="http://www.w3.org/1999/02/22-rdf-syntax-ns#">
   <cc:Work>
    <dc:type rdf:resource="http://purl.org/dc/dcmitype/StillImage"/>
    <dc:date>2026-05-02T16:12:49.120295</dc:date>
    <dc:format>image/svg+xml</dc:format>
    <dc:creator>
     <cc:Agent>
      <dc:title>Matplotlib v3.10.7, https://matplotlib.org/</dc:title>
     </cc:Agent>
    </dc:creator>
   </cc:Work>
  </rdf:RDF>
 </metadata>
 <defs>
  <style type="text/css">*{stroke-linejoin: round; stroke-linecap: butt}</style>
 </defs>
 <g id="figure_1">
  <g id="patch_1">
   <path d="M 0 424.8 
L 996.452795 424.8 
L 996.452795 0 
L 0 0 
z
" style="fill: #ffffff"/>
  </g>
  <g id="axes_1">
   <g id="patch_2">
    <path d="M 49.807187 381.669687 
L 487.199771 381.669687 
L 487.199771 51.604687 
L 49.807187 51.604687 
z
" style="fill: #ffffff"/>
   </g>
   <g id="matplotlib.axis_1">
    <g id="xtick_1">
     <g id="line2d_1">
      <path d="M 103.660623 381.669687 
L 103.660623 51.604687 
" clip-path="url(#pae6eb76b50)" style="fill: none; stroke-dasharray: 3.7,1.6; stroke-dashoffset: 0; stroke: #dddddd; stroke-opacity: 0.3"/>
     </g>
     <g id="text_1">
      <!-- 20000 -->
      <g style="fill: #262626" transform="translate(86.163748 399.527969) scale(0.11 -0.11)">
       <defs>
        <path id="DejaVuSerif-32" d="M 819 3553 
L 469 3553 
L 469 4384 
Q 803 4563 1142 4656 
Q 1481 4750 1806 4750 
Q 2534 4750 2956 4397 
Q 3378 4044 3378 3438 
Q 3378 2753 2422 1800 
Q 2347 1728 2309 1691 
L 1131 513 
L 3078 513 
L 3078 1088 
L 3444 1088 
L 3444 0 
L 434 0 
L 434 341 
L 1850 1753 
Q 2319 2222 2519 2614 
Q 2719 3006 2719 3438 
Q 2719 3909 2473 4175 
Q 2228 4441 1797 4441 
Q 1350 4441 1106 4219 
Q 863 3997 819 3553 
z
" transform="scale(0.015625)"/>
        <path id="DejaVuSerif-30" d="M 2034 219 
Q 2513 219 2750 744 
Q 2988 1269 2988 2328 
Q 2988 3391 2750 3916 
Q 2513 4441 2034 4441 
Q 1556 4441 1318 3916 
Q 1081 3391 1081 2328 
Q 1081 1269 1318 744 
Q 1556 219 2034 219 
z
M 2034 -91 
Q 1275 -91 848 546 
Q 422 1184 422 2328 
Q 422 3475 848 4112 
Q 1275 4750 2034 4750 
Q 2797 4750 3222 4112 
Q 3647 3475 3647 2328 
Q 3647 1184 3222 546 
Q 2797 -91 2034 -91 
z
" transform="scale(0.015625)"/>
       </defs>
       <use xlink:href="#DejaVuSerif-32"/>
       <use xlink:href="#DejaVuSerif-30" transform="translate(63.623047 0)"/>
       <use xlink:href="#DejaVuSerif-30" transform="translate(127.246094 0)"/>
       <use xlink:href="#DejaVuSerif-30" transform="translate(190.869141 0)"/>
       <use xlink:href="#DejaVuSerif-30" transform="translate(254.492188 0)"/>
      </g>
     </g>
    </g>
    <g id="xtick_2">
     <g id="line2d_2">
      <path d="M 163.130128 381.669687 
L 163.130128 51.604687 
" clip-path="url(#pae6eb76b50)" style="fill: none; stroke-dasharray: 3.7,1.6; stroke-dashoffset: 0; stroke: #dddddd; stroke-opacity: 0.3"/>
     </g>
     <g id="text_2">
      <!-- 40000 -->
      <g style="fill: #262626" transform="translate(145.633253 399.527969) scale(0.11 -0.11)">
       <defs>
        <path id="DejaVuSerif-34" d="M 2234 1581 
L 2234 4063 
L 641 1581 
L 2234 1581 
z
M 3609 0 
L 1484 0 
L 1484 331 
L 2234 331 
L 2234 1247 
L 197 1247 
L 197 1588 
L 2241 4750 
L 2859 4750 
L 2859 1581 
L 3750 1581 
L 3750 1247 
L 2859 1247 
L 2859 331 
L 3609 331 
L 3609 0 
z
" transform="scale(0.015625)"/>
       </defs>
       <use xlink:href="#DejaVuSerif-34"/>
       <use xlink:href="#DejaVuSerif-30" transform="translate(63.623047 0)"/>
       <use xlink:href="#DejaVuSerif-30" transform="translate(127.246094 0)"/>
       <use xlink:href="#DejaVuSerif-30" transform="translate(190.869141 0)"/>
       <use xlink:href="#DejaVuSerif-30" transform="translate(254.492188 0)"/>
      </g>
     </g>
    </g>
    <g id="xtick_3">
     <g id="line2d_3">
      <path d="M 222.599632 381.669687 
L 222.599632 51.604687 
" clip-path="url(#pae6eb76b50)" style="fill: none; stroke-dasharray: 3.7,1.6; stroke-dashoffset: 0; stroke: #dddddd; stroke-opacity: 0.3"/>
     </g>
     <g id="text_3">
      <!-- 60000 -->
      <g style="fill: #262626" transform="translate(205.102757 399.527969) scale(0.11 -0.11)">
       <defs>
        <path id="DejaVuSerif-36" d="M 2094 219 
Q 2534 219 2771 542 
Q 3009 866 3009 1472 
Q 3009 2078 2771 2401 
Q 2534 2725 2094 2725 
Q 1647 2725 1412 2412 
Q 1178 2100 1178 1509 
Q 1178 888 1415 553 
Q 1653 219 2094 219 
z
M 1075 2569 
Q 1288 2803 1556 2918 
Q 1825 3034 2163 3034 
Q 2859 3034 3264 2615 
Q 3669 2197 3669 1472 
Q 3669 763 3233 336 
Q 2797 -91 2069 -91 
Q 1278 -91 853 498 
Q 428 1088 428 2181 
Q 428 3406 931 4078 
Q 1434 4750 2350 4750 
Q 2597 4750 2869 4703 
Q 3141 4656 3425 4563 
L 3425 3794 
L 3072 3794 
Q 3034 4109 2831 4275 
Q 2628 4441 2284 4441 
Q 1678 4441 1381 3981 
Q 1084 3522 1075 2569 
z
" transform="scale(0.015625)"/>
       </defs>
       <use xlink:href="#DejaVuSerif-36"/>
       <use xlink:href="#DejaVuSerif-30" transform="translate(63.623047 0)"/>
       <use xlink:href="#DejaVuSerif-30" transform="translate(127.246094 0)"/>
       <use xlink:href="#DejaVuSerif-30" transform="translate(190.869141 0)"/>
       <use xlink:href="#DejaVuSerif-30" transform="translate(254.492188 0)"/>
      </g>
     </g>
    </g>
    <g id="xtick_4">
     <g id="line2d_4">
      <path d="M 282.069137 381.669687 
L 282.069137 51.604687 
" clip-path="url(#pae6eb76b50)" style="fill: none; stroke-dasharray: 3.7,1.6; stroke-dashoffset: 0; stroke: #dddddd; stroke-opacity: 0.3"/>
     </g>
     <g id="text_4">
      <!-- 80000 -->
      <g style="fill: #262626" transform="translate(264.572262 399.527969) scale(0.11 -0.11)">
       <defs>
        <path id="DejaVuSerif-38" d="M 2981 1275 
Q 2981 1775 2732 2051 
Q 2484 2328 2034 2328 
Q 1584 2328 1336 2051 
Q 1088 1775 1088 1275 
Q 1088 772 1336 495 
Q 1584 219 2034 219 
Q 2484 219 2732 495 
Q 2981 772 2981 1275 
z
M 2853 3541 
Q 2853 3966 2637 4203 
Q 2422 4441 2034 4441 
Q 1650 4441 1433 4203 
Q 1216 3966 1216 3541 
Q 1216 3113 1433 2875 
Q 1650 2638 2034 2638 
Q 2422 2638 2637 2875 
Q 2853 3113 2853 3541 
z
M 2516 2484 
Q 3047 2413 3344 2092 
Q 3641 1772 3641 1275 
Q 3641 619 3225 264 
Q 2809 -91 2034 -91 
Q 1263 -91 845 264 
Q 428 619 428 1275 
Q 428 1772 725 2092 
Q 1022 2413 1556 2484 
Q 1084 2569 832 2842 
Q 581 3116 581 3541 
Q 581 4103 968 4426 
Q 1356 4750 2034 4750 
Q 2713 4750 3100 4426 
Q 3488 4103 3488 3541 
Q 3488 3116 3236 2842 
Q 2984 2569 2516 2484 
z
" transform="scale(0.015625)"/>
       </defs>
       <use xlink:href="#DejaVuSerif-38"/>
       <use xlink:href="#DejaVuSerif-30" transform="translate(63.623047 0)"/>
       <use xlink:href="#DejaVuSerif-30" transform="translate(127.246094 0)"/>
       <use xlink:href="#DejaVuSerif-30" transform="translate(190.869141 0)"/>
       <use xlink:href="#DejaVuSerif-30" transform="translate(254.492188 0)"/>
      </g>
     </g>
    </g>
    <g id="xtick_5">
     <g id="line2d_5">
      <path d="M 341.538641 381.669687 
L 341.538641 51.604687 
" clip-path="url(#pae6eb76b50)" style="fill: none; stroke-dasharray: 3.7,1.6; stroke-dashoffset: 0; stroke: #dddddd; stroke-opacity: 0.3"/>
     </g>
     <g id="text_5">
      <!-- 100000 -->
      <g style="fill: #262626" transform="translate(320.542391 399.527969) scale(0.11 -0.11)">
       <defs>
        <path id="DejaVuSerif-31" d="M 909 0 
L 909 331 
L 1722 331 
L 1722 4213 
L 781 3603 
L 781 4013 
L 1919 4750 
L 2350 4750 
L 2350 331 
L 3163 331 
L 3163 0 
L 909 0 
z
" transform="scale(0.015625)"/>
       </defs>
       <use xlink:href="#DejaVuSerif-31"/>
       <use xlink:href="#DejaVuSerif-30" transform="translate(63.623047 0)"/>
       <use xlink:href="#DejaVuSerif-30" transform="translate(127.246094 0)"/>
       <use xlink:href="#DejaVuSerif-30" transform="translate(190.869141 0)"/>
       <use xlink:href="#DejaVuSerif-30" transform="translate(254.492188 0)"/>
       <use xlink:href="#DejaVuSerif-30" transform="translate(318.115234 0)"/>
      </g>
     </g>
    </g>
    <g id="xtick_6">
     <g id="line2d_6">
      <path d="M 401.008146 381.669687 
L 401.008146 51.604687 
" clip-path="url(#pae6eb76b50)" style="fill: none; stroke-dasharray: 3.7,1.6; stroke-dashoffset: 0; stroke: #dddddd; stroke-opacity: 0.3"/>
     </g>
     <g id="text_6">
      <!-- 120000 -->
      <g style="fill: #262626" transform="translate(380.011896 399.527969) scale(0.11 -0.11)">
       <use xlink:href="#DejaVuSerif-31"/>
       <use xlink:href="#DejaVuSerif-32" transform="translate(63.623047 0)"/>
       <use xlink:href="#DejaVuSerif-30" transform="translate(127.246094 0)"/>
       <use xlink:href="#DejaVuSerif-30" transform="translate(190.869141 0)"/>
       <use xlink:href="#DejaVuSerif-30" transform="translate(254.492188 0)"/>
       <use xlink:href="#DejaVuSerif-30" transform="translate(318.115234 0)"/>
      </g>
     </g>
    </g>
    <g id="xtick_7">
     <g id="line2d_7">
      <path d="M 460.47765 381.669687 
L 460.47765 51.604687 
" clip-path="url(#pae6eb76b50)" style="fill: none; stroke-dasharray: 3.7,1.6; stroke-dashoffset: 0; stroke: #dddddd; stroke-opacity: 0.3"/>
     </g>
     <g id="text_7">
      <!-- 140000 -->
      <g style="fill: #262626" transform="translate(439.4814 399.527969) scale(0.11 -0.11)">
       <use xlink:href="#DejaVuSerif-31"/>
       <use xlink:href="#DejaVuSerif-34" transform="translate(63.623047 0)"/>
       <use xlink:href="#DejaVuSerif-30" transform="translate(127.246094 0)"/>
       <use xlink:href="#DejaVuSerif-30" transform="translate(190.869141 0)"/>
       <use xlink:href="#DejaVuSerif-30" transform="translate(254.492188 0)"/>
       <use xlink:href="#DejaVuSerif-30" transform="translate(318.115234 0)"/>
      </g>
     </g>
    </g>
    <g id="text_8">
     <!-- Total Packet Delay (ms) -->
     <g style="fill: #262626" transform="translate(196.724729 414.93375) scale(0.12 -0.12)">
      <defs>
       <path id="DejaVuSerif-54" d="M 1222 0 
L 1222 331 
L 1819 331 
L 1819 4294 
L 447 4294 
L 447 3566 
L 63 3566 
L 63 4666 
L 4206 4666 
L 4206 3566 
L 3822 3566 
L 3822 4294 
L 2450 4294 
L 2450 331 
L 3047 331 
L 3047 0 
L 1222 0 
z
" transform="scale(0.015625)"/>
       <path id="DejaVuSerif-6f" d="M 1925 219 
Q 2388 219 2623 584 
Q 2859 950 2859 1663 
Q 2859 2375 2623 2739 
Q 2388 3103 1925 3103 
Q 1463 3103 1227 2739 
Q 991 2375 991 1663 
Q 991 950 1228 584 
Q 1466 219 1925 219 
z
M 1925 -91 
Q 1200 -91 759 389 
Q 319 869 319 1663 
Q 319 2456 758 2934 
Q 1197 3413 1925 3413 
Q 2653 3413 3092 2934 
Q 3531 2456 3531 1663 
Q 3531 869 3092 389 
Q 2653 -91 1925 -91 
z
" transform="scale(0.015625)"/>
       <path id="DejaVuSerif-74" d="M 691 2988 
L 184 2988 
L 184 3322 
L 691 3322 
L 691 4353 
L 1269 4353 
L 1269 3322 
L 2350 3322 
L 2350 2988 
L 1269 2988 
L 1269 878 
Q 1269 456 1350 337 
Q 1431 219 1650 219 
Q 1875 219 1978 351 
Q 2081 484 2088 781 
L 2522 781 
Q 2497 328 2275 118 
Q 2053 -91 1600 -91 
Q 1103 -91 897 129 
Q 691 350 691 878 
L 691 2988 
z
" transform="scale(0.015625)"/>
       <path id="DejaVuSerif-61" d="M 2547 1044 
L 2547 1747 
L 1806 1747 
Q 1378 1747 1168 1562 
Q 959 1378 959 997 
Q 959 650 1171 447 
Q 1384 244 1747 244 
Q 2106 244 2326 466 
Q 2547 688 2547 1044 
z
M 3122 2075 
L 3122 331 
L 3634 331 
L 3634 0 
L 2547 0 
L 2547 359 
Q 2356 128 2106 18 
Q 1856 -91 1522 -91 
Q 969 -91 644 203 
Q 319 497 319 997 
Q 319 1513 691 1797 
Q 1063 2081 1741 2081 
L 2547 2081 
L 2547 2309 
Q 2547 2688 2317 2895 
Q 2088 3103 1672 3103 
Q 1328 3103 1125 2947 
Q 922 2791 872 2484 
L 575 2484 
L 575 3156 
Q 875 3284 1158 3348 
Q 1441 3413 1709 3413 
Q 2400 3413 2761 3070 
Q 3122 2728 3122 2075 
z
" transform="scale(0.015625)"/>
       <path id="DejaVuSerif-6c" d="M 1313 331 
L 1856 331 
L 1856 0 
L 184 0 
L 184 331 
L 738 331 
L 738 4531 
L 184 4531 
L 184 4863 
L 1313 4863 
L 1313 331 
z
" transform="scale(0.015625)"/>
       <path id="DejaVuSerif-20" transform="scale(0.015625)"/>
       <path id="DejaVuSerif-50" d="M 1581 2375 
L 2406 2375 
Q 2872 2375 3115 2626 
Q 3359 2878 3359 3353 
Q 3359 3831 3115 4081 
Q 2872 4331 2406 4331 
L 1581 4331 
L 1581 2375 
z
M 353 0 
L 353 331 
L 947 331 
L 947 4331 
L 353 4331 
L 353 4666 
L 2559 4666 
Q 3259 4666 3668 4311 
Q 4078 3956 4078 3353 
Q 4078 2753 3668 2397 
Q 3259 2041 2559 2041 
L 1581 2041 
L 1581 331 
L 2303 331 
L 2303 0 
L 353 0 
z
" transform="scale(0.015625)"/>
       <path id="DejaVuSerif-63" d="M 3291 997 
Q 3169 466 2822 187 
Q 2475 -91 1925 -91 
Q 1200 -91 759 389 
Q 319 869 319 1663 
Q 319 2459 759 2936 
Q 1200 3413 1925 3413 
Q 2241 3413 2553 3339 
Q 2866 3266 3181 3116 
L 3181 2266 
L 2847 2266 
Q 2781 2703 2561 2903 
Q 2341 3103 1931 3103 
Q 1466 3103 1228 2742 
Q 991 2381 991 1663 
Q 991 944 1227 581 
Q 1463 219 1931 219 
Q 2303 219 2525 412 
Q 2747 606 2828 997 
L 3291 997 
z
" transform="scale(0.015625)"/>
       <path id="DejaVuSerif-6b" d="M 1831 0 
L 219 0 
L 219 331 
L 738 331 
L 738 4531 
L 184 4531 
L 184 4863 
L 1313 4863 
L 1313 1697 
L 2713 2988 
L 2234 2988 
L 2234 3322 
L 3738 3322 
L 3738 2988 
L 3169 2988 
L 2181 2075 
L 3444 331 
L 3922 331 
L 3922 0 
L 2284 0 
L 2284 331 
L 2759 331 
L 1766 1697 
L 1313 1275 
L 1313 331 
L 1831 331 
L 1831 0 
z
" transform="scale(0.015625)"/>
       <path id="DejaVuSerif-65" d="M 3469 1600 
L 991 1600 
L 991 1575 
Q 991 903 1244 561 
Q 1497 219 1991 219 
Q 2369 219 2611 417 
Q 2853 616 2950 1006 
L 3413 1006 
Q 3275 459 2904 184 
Q 2534 -91 1931 -91 
Q 1203 -91 761 389 
Q 319 869 319 1663 
Q 319 2450 753 2931 
Q 1188 3413 1894 3413 
Q 2647 3413 3050 2948 
Q 3453 2484 3469 1600 
z
M 2791 1931 
Q 2772 2513 2545 2808 
Q 2319 3103 1894 3103 
Q 1497 3103 1269 2806 
Q 1041 2509 991 1931 
L 2791 1931 
z
" transform="scale(0.015625)"/>
       <path id="DejaVuSerif-44" d="M 1581 331 
L 2163 331 
Q 3072 331 3558 850 
Q 4044 1369 4044 2338 
Q 4044 3306 3559 3818 
Q 3075 4331 2163 4331 
L 1581 4331 
L 1581 331 
z
M 353 0 
L 353 331 
L 947 331 
L 947 4331 
L 353 4331 
L 353 4666 
L 2209 4666 
Q 3416 4666 4089 4050 
Q 4763 3434 4763 2338 
Q 4763 1238 4088 619 
Q 3413 0 2209 0 
L 353 0 
z
" transform="scale(0.015625)"/>
       <path id="DejaVuSerif-79" d="M 1381 -609 
L 1600 -56 
L 359 2988 
L -19 2988 
L -19 3322 
L 1509 3322 
L 1509 2988 
L 978 2988 
L 1913 703 
L 2847 2988 
L 2350 2988 
L 2350 3322 
L 3597 3322 
L 3597 2988 
L 3225 2988 
L 1703 -750 
Q 1547 -1138 1356 -1280 
Q 1166 -1422 819 -1422 
Q 672 -1422 517 -1397 
Q 363 -1372 206 -1325 
L 206 -691 
L 500 -691 
Q 519 -903 608 -995 
Q 697 -1088 884 -1088 
Q 1056 -1088 1161 -992 
Q 1266 -897 1381 -609 
z
" transform="scale(0.015625)"/>
       <path id="DejaVuSerif-28" d="M 2041 -997 
Q 1281 -656 893 83 
Q 506 822 506 1931 
Q 506 3044 893 3783 
Q 1281 4522 2041 4863 
L 2041 4556 
Q 1559 4225 1350 3623 
Q 1141 3022 1141 1931 
Q 1141 844 1350 242 
Q 1559 -359 2041 -691 
L 2041 -997 
z
" transform="scale(0.015625)"/>
       <path id="DejaVuSerif-6d" d="M 3316 2675 
Q 3481 3041 3739 3227 
Q 3997 3413 4341 3413 
Q 4863 3413 5119 3089 
Q 5375 2766 5375 2113 
L 5375 331 
L 5894 331 
L 5894 0 
L 4300 0 
L 4300 331 
L 4800 331 
L 4800 2047 
Q 4800 2556 4650 2772 
Q 4500 2988 4153 2988 
Q 3769 2988 3567 2697 
Q 3366 2406 3366 1850 
L 3366 331 
L 3866 331 
L 3866 0 
L 2291 0 
L 2291 331 
L 2791 331 
L 2791 2069 
Q 2791 2566 2641 2777 
Q 2491 2988 2144 2988 
Q 1759 2988 1557 2697 
Q 1356 2406 1356 1850 
L 1356 331 
L 1856 331 
L 1856 0 
L 263 0 
L 263 331 
L 781 331 
L 781 2994 
L 231 2994 
L 231 3322 
L 1356 3322 
L 1356 2731 
Q 1516 3063 1762 3238 
Q 2009 3413 2322 3413 
Q 2709 3413 2968 3220 
Q 3228 3028 3316 2675 
z
" transform="scale(0.015625)"/>
       <path id="DejaVuSerif-73" d="M 359 184 
L 359 959 
L 691 959 
Q 703 588 923 403 
Q 1144 219 1575 219 
Q 1963 219 2166 364 
Q 2369 509 2369 788 
Q 2369 1006 2220 1140 
Q 2072 1275 1594 1428 
L 1178 1569 
Q 750 1706 558 1912 
Q 366 2119 366 2438 
Q 366 2894 700 3153 
Q 1034 3413 1625 3413 
Q 1888 3413 2178 3344 
Q 2469 3275 2778 3144 
L 2778 2419 
L 2447 2419 
Q 2434 2741 2221 2922 
Q 2009 3103 1644 3103 
Q 1281 3103 1095 2975 
Q 909 2847 909 2591 
Q 909 2381 1050 2254 
Q 1191 2128 1613 1997 
L 2069 1856 
Q 2541 1709 2748 1489 
Q 2956 1269 2956 922 
Q 2956 450 2595 179 
Q 2234 -91 1600 -91 
Q 1278 -91 972 -22 
Q 666 47 359 184 
z
" transform="scale(0.015625)"/>
       <path id="DejaVuSerif-29" d="M 453 -997 
L 453 -691 
Q 934 -359 1145 242 
Q 1356 844 1356 1931 
Q 1356 3022 1145 3623 
Q 934 4225 453 4556 
L 453 4863 
Q 1216 4522 1603 3783 
Q 1991 3044 1991 1931 
Q 1991 822 1603 83 
Q 1216 -656 453 -997 
z
" transform="scale(0.015625)"/>
      </defs>
      <use xlink:href="#DejaVuSerif-54"/>
      <use xlink:href="#DejaVuSerif-6f" transform="translate(58.949219 0)"/>
      <use xlink:href="#DejaVuSerif-74" transform="translate(119.154297 0)"/>
      <use xlink:href="#DejaVuSerif-61" transform="translate(159.339844 0)"/>
      <use xlink:href="#DejaVuSerif-6c" transform="translate(218.958984 0)"/>
      <use xlink:href="#DejaVuSerif-20" transform="translate(250.941406 0)"/>
      <use xlink:href="#DejaVuSerif-50" transform="translate(282.728516 0)"/>
      <use xlink:href="#DejaVuSerif-61" transform="translate(345.513672 0)"/>
      <use xlink:href="#DejaVuSerif-63" transform="translate(405.132812 0)"/>
      <use xlink:href="#DejaVuSerif-6b" transform="translate(461.138672 0)"/>
      <use xlink:href="#DejaVuSerif-65" transform="translate(521.734375 0)"/>
      <use xlink:href="#DejaVuSerif-74" transform="translate(580.914062 0)"/>
      <use xlink:href="#DejaVuSerif-20" transform="translate(621.099609 0)"/>
      <use xlink:href="#DejaVuSerif-44" transform="translate(652.886719 0)"/>
      <use xlink:href="#DejaVuSerif-65" transform="translate(733.0625 0)"/>
      <use xlink:href="#DejaVuSerif-6c" transform="translate(792.242188 0)"/>
      <use xlink:href="#DejaVuSerif-61" transform="translate(824.224609 0)"/>
      <use xlink:href="#DejaVuSerif-79" transform="translate(883.84375 0)"/>
      <use xlink:href="#DejaVuSerif-20" transform="translate(940.337891 0)"/>
      <use xlink:href="#DejaVuSerif-28" transform="translate(972.125 0)"/>
      <use xlink:href="#DejaVuSerif-6d" transform="translate(1011.138672 0)"/>
      <use xlink:href="#DejaVuSerif-73" transform="translate(1105.962891 0)"/>
      <use xlink:href="#DejaVuSerif-29" transform="translate(1157.28125 0)"/>
     </g>
    </g>
   </g>
   <g id="matplotlib.axis_2">
    <g id="ytick_1">
     <g id="line2d_8">
      <path d="M 49.807187 366.666733 
L 487.199771 366.666733 
" clip-path="url(#pae6eb76b50)" style="fill: none; stroke-dasharray: 3.7,1.6; stroke-dashoffset: 0; stroke: #dddddd; stroke-opacity: 0.3"/>
     </g>
     <g id="text_9">
      <!-- 0.0 -->
      <g style="fill: #262626" transform="translate(22.81375 370.845874) scale(0.11 -0.11)">
       <defs>
        <path id="DejaVuSerif-2e" d="M 603 325 
Q 603 500 722 622 
Q 841 744 1019 744 
Q 1191 744 1312 622 
Q 1434 500 1434 325 
Q 1434 153 1312 31 
Q 1191 -91 1019 -91 
Q 841 -91 722 29 
Q 603 150 603 325 
z
" transform="scale(0.015625)"/>
       </defs>
       <use xlink:href="#DejaVuSerif-30"/>
       <use xlink:href="#DejaVuSerif-2e" transform="translate(63.623047 0)"/>
       <use xlink:href="#DejaVuSerif-30" transform="translate(95.410156 0)"/>
      </g>
     </g>
    </g>
    <g id="ytick_2">
     <g id="line2d_9">
      <path d="M 49.807187 306.521258 
L 487.199771 306.521258 
" clip-path="url(#pae6eb76b50)" style="fill: none; stroke-dasharray: 3.7,1.6; stroke-dashoffset: 0; stroke: #dddddd; stroke-opacity: 0.3"/>
     </g>
     <g id="text_10">
      <!-- 0.2 -->
      <g style="fill: #262626" transform="translate(22.81375 310.700399) scale(0.11 -0.11)">
       <use xlink:href="#DejaVuSerif-30"/>
       <use xlink:href="#DejaVuSerif-2e" transform="translate(63.623047 0)"/>
       <use xlink:href="#DejaVuSerif-32" transform="translate(95.410156 0)"/>
      </g>
     </g>
    </g>
    <g id="ytick_3">
     <g id="line2d_10">
      <path d="M 49.807187 246.375783 
L 487.199771 246.375783 
" clip-path="url(#pae6eb76b50)" style="fill: none; stroke-dasharray: 3.7,1.6; stroke-dashoffset: 0; stroke: #dddddd; stroke-opacity: 0.3"/>
     </g>
     <g id="text_11">
      <!-- 0.4 -->
      <g style="fill: #262626" transform="translate(22.81375 250.554924) scale(0.11 -0.11)">
       <use xlink:href="#DejaVuSerif-30"/>
       <use xlink:href="#DejaVuSerif-2e" transform="translate(63.623047 0)"/>
       <use xlink:href="#DejaVuSerif-34" transform="translate(95.410156 0)"/>
      </g>
     </g>
    </g>
    <g id="ytick_4">
     <g id="line2d_11">
      <path d="M 49.807187 186.230309 
L 487.199771 186.230309 
" clip-path="url(#pae6eb76b50)" style="fill: none; stroke-dasharray: 3.7,1.6; stroke-dashoffset: 0; stroke: #dddddd; stroke-opacity: 0.3"/>
     </g>
     <g id="text_12">
      <!-- 0.6 -->
      <g style="fill: #262626" transform="translate(22.81375 190.409449) scale(0.11 -0.11)">
       <use xlink:href="#DejaVuSerif-30"/>
       <use xlink:href="#DejaVuSerif-2e" transform="translate(63.623047 0)"/>
       <use xlink:href="#DejaVuSerif-36" transform="translate(95.410156 0)"/>
      </g>
     </g>
    </g>
    <g id="ytick_5">
     <g id="line2d_12">
      <path d="M 49.807187 126.084834 
L 487.199771 126.084834 
" clip-path="url(#pae6eb76b50)" style="fill: none; stroke-dasharray: 3.7,1.6; stroke-dashoffset: 0; stroke: #dddddd; stroke-opacity: 0.3"/>
     </g>
     <g id="text_13">
      <!-- 0.8 -->
      <g style="fill: #262626" transform="translate(22.81375 130.263974) scale(0.11 -0.11)">
       <use xlink:href="#DejaVuSerif-30"/>
       <use xlink:href="#DejaVuSerif-2e" transform="translate(63.623047 0)"/>
       <use xlink:href="#DejaVuSerif-38" transform="translate(95.410156 0)"/>
      </g>
     </g>
    </g>
    <g id="ytick_6">
     <g id="line2d_13">
      <path d="M 49.807187 65.939359 
L 487.199771 65.939359 
" clip-path="url(#pae6eb76b50)" style="fill: none; stroke-dasharray: 3.7,1.6; stroke-dashoffset: 0; stroke: #dddddd; stroke-opacity: 0.3"/>
     </g>
     <g id="text_14">
      <!-- 1.0 -->
      <g style="fill: #262626" transform="translate(22.81375 70.1185) scale(0.11 -0.11)">
       <use xlink:href="#DejaVuSerif-31"/>
       <use xlink:href="#DejaVuSerif-2e" transform="translate(63.623047 0)"/>
       <use xlink:href="#DejaVuSerif-30" transform="translate(95.410156 0)"/>
      </g>
     </g>
    </g>
    <g id="text_15">
     <!-- P(X ≤ x) -->
     <g style="fill: #262626" transform="translate(16.318125 241.852187) rotate(-90) scale(0.12 -0.12)">
      <defs>
       <path id="DejaVuSerif-58" d="M 2119 1997 
L 978 331 
L 1581 331 
L 1581 0 
L 38 0 
L 38 331 
L 575 331 
L 1919 2291 
L 556 4331 
L 56 4331 
L 56 4666 
L 1906 4666 
L 1906 4331 
L 1356 4331 
L 2356 2828 
L 3384 4331 
L 2784 4331 
L 2784 4666 
L 4313 4666 
L 4313 4331 
L 3788 4331 
L 2553 2534 
L 4025 331 
L 4525 331 
L 4525 0 
L 2675 0 
L 2675 331 
L 3231 331 
L 2119 1997 
z
" transform="scale(0.015625)"/>
       <path id="DejaVuSerif-2264" d="M 4684 3206 
L 1388 2309 
L 4684 1416 
L 4684 897 
L 678 2047 
L 678 2578 
L 4684 3725 
L 4684 3206 
z
M 678 488 
L 4684 488 
L 4684 0 
L 678 0 
L 678 488 
z
" transform="scale(0.015625)"/>
       <path id="DejaVuSerif-78" d="M 1863 2028 
L 2559 2988 
L 2113 2988 
L 2113 3322 
L 3391 3322 
L 3391 2988 
L 2950 2988 
L 2059 1759 
L 3097 331 
L 3531 331 
L 3531 0 
L 1997 0 
L 1997 331 
L 2419 331 
L 1697 1325 
L 972 331 
L 1403 331 
L 1403 0 
L 141 0 
L 141 331 
L 581 331 
L 1497 1594 
L 488 2988 
L 78 2988 
L 78 3322 
L 1563 3322 
L 1563 2988 
L 1166 2988 
L 1863 2028 
z
" transform="scale(0.015625)"/>
      </defs>
      <use xlink:href="#DejaVuSerif-50"/>
      <use xlink:href="#DejaVuSerif-28" transform="translate(67.285156 0)"/>
      <use xlink:href="#DejaVuSerif-58" transform="translate(106.298828 0)"/>
      <use xlink:href="#DejaVuSerif-20" transform="translate(177.490234 0)"/>
      <use xlink:href="#DejaVuSerif-2264" transform="translate(209.277344 0)"/>
      <use xlink:href="#DejaVuSerif-20" transform="translate(293.066406 0)"/>
      <use xlink:href="#DejaVuSerif-78" transform="translate(324.853516 0)"/>
      <use xlink:href="#DejaVuSerif-29" transform="translate(381.25 0)"/>
     </g>
    </g>
   </g>
   <g id="line2d_14">
    <path d="M 69.688669 366.666733 
L 70.209027 365.330167 
L 70.209027 364.661884 
L 70.684783 362.657035 
L 70.744252 361.320469 
L 70.967263 360.652185 
L 71.309213 347.954807 
L 71.398298 346.618241 
L 71.487621 342.608543 
L 71.546966 341.271977 
L 71.547091 339.267128 
L 71.69569 338.598845 
L 71.784969 337.262279 
L 71.963377 336.593996 
L 71.99307 333.25258 
L 72.290373 331.916014 
L 72.290382 331.247731 
L 72.736445 329.242882 
L 73.182413 328.574599 
L 73.450115 327.238033 
L 73.747462 326.56975 
L 73.777087 325.901467 
L 73.925862 325.233184 
L 74.029933 321.891768 
L 74.2232 321.223485 
L 74.223206 319.886919 
L 74.371844 319.218636 
L 74.371871 315.877221 
L 74.520503 315.208938 
L 74.520536 313.204089 
L 74.669201 312.535806 
L 74.669204 311.867523 
L 74.966507 311.19924 
L 74.966537 309.19439 
L 75.263863 307.189541 
L 75.263866 306.521258 
L 75.561208 305.184692 
L 75.652466 303.179843 
L 75.860571 297.833578 
L 76.155894 297.165295 
L 76.30584 295.828729 
L 76.305846 295.160446 
L 76.663448 294.492163 
L 76.899254 292.487314 
L 76.930873 290.482465 
L 77.6444 289.814182 
L 77.644653 288.477616 
L 77.852838 287.809333 
L 77.942042 287.14105 
L 78.773831 285.804484 
L 78.834058 284.467917 
L 78.834064 283.131351 
L 78.982753 282.463068 
L 78.982759 281.794785 
L 79.279307 281.126502 
L 79.279313 279.789936 
L 79.755862 279.121653 
L 79.873984 278.45337 
L 79.874783 277.785087 
L 80.052425 277.116804 
L 80.528151 276.448521 
L 80.61812 275.111955 
L 80.61812 274.443672 
L 81.86703 273.775389 
L 81.956222 272.438822 
L 82.252705 271.770539 
L 82.699603 271.102256 
L 82.967216 269.76569 
L 82.996885 268.429124 
L 83.442963 267.760841 
L 83.501656 267.092558 
L 83.918728 266.424275 
L 85.316231 265.755992 
L 85.970351 264.419426 
L 85.970351 263.751143 
L 86.415659 263.08286 
L 86.416355 262.414577 
L 88.289736 261.746294 
L 90.698251 260.409727 
L 91.917287 259.741444 
L 91.917376 258.404878 
L 92.183009 257.736595 
L 92.272213 257.068312 
L 92.896643 256.400029 
L 92.956112 255.731746 
L 93.253338 255.063463 
L 93.253415 253.058614 
L 93.850135 252.390331 
L 94.147479 251.722048 
L 94.890768 251.053765 
L 94.890768 250.385482 
L 96.226822 249.717199 
L 96.22684 247.712349 
L 97.120868 247.044066 
L 100.568209 246.375783 
L 100.687127 245.7075 
L 100.687148 244.370934 
L 103.660519 243.702651 
L 103.660522 243.034368 
L 106.575824 242.366085 
L 106.663833 241.697802 
L 107.258528 241.029519 
L 107.290243 239.692953 
L 107.795734 239.02467 
L 107.974092 236.351538 
L 108.120702 235.683255 
L 108.182285 234.346688 
L 108.420033 233.678405 
L 108.420033 233.010122 
L 108.77698 232.341839 
L 108.866122 231.005273 
L 109.371676 230.33699 
L 109.43036 229.668707 
L 109.728493 229.000424 
L 109.758174 227.663858 
L 110.203428 226.995575 
L 110.798129 226.327292 
L 110.947594 225.659009 
L 110.947594 224.990726 
L 111.094186 224.322443 
L 111.094204 223.65416 
L 111.393576 222.985877 
L 111.393576 222.317593 
L 111.839624 221.64931 
L 111.839624 220.981027 
L 112.731649 220.312744 
L 112.731649 219.644461 
L 113.176862 218.976178 
L 114.186725 218.307895 
L 115.554396 217.639612 
L 118.527865 216.971329 
L 119.123857 215.634763 
L 119.480707 214.96648 
L 120.907951 214.298197 
L 121.888026 213.629914 
L 122.066435 212.961631 
L 122.097347 211.625065 
L 122.988132 210.956782 
L 122.988164 209.620215 
L 123.57002 208.951932 
L 123.881385 208.283649 
L 123.897102 207.615366 
L 124.19445 206.947083 
L 124.283654 206.2788 
L 124.610593 205.610517 
L 124.610593 204.942234 
L 124.789043 204.273951 
L 124.789043 203.605668 
L 125.814994 202.937385 
L 125.961565 202.269102 
L 125.961571 200.932536 
L 126.261003 200.264253 
L 127.569344 199.59597 
L 127.584205 198.259404 
L 127.762611 197.59112 
L 127.762611 196.922837 
L 128.372182 196.254554 
L 128.491035 195.586271 
L 128.491035 194.917988 
L 129.024367 194.249705 
L 129.23446 193.581422 
L 129.769716 192.913139 
L 129.829149 192.244856 
L 130.42176 191.576573 
L 131.464525 190.90829 
L 131.464525 190.240007 
L 131.939568 189.571724 
L 132.801855 188.903441 
L 132.802583 188.235158 
L 133.395233 187.566875 
L 135.775247 186.898592 
L 141.470341 186.230309 
L 142.451489 184.893742 
L 142.451489 184.225459 
L 142.823272 183.557176 
L 143.00168 182.22061 
L 143.209791 180.884044 
L 143.299028 179.547478 
L 143.596375 178.879195 
L 143.655726 175.53778 
L 143.715314 173.532931 
L 143.953192 172.864648 
L 144.101741 171.528081 
L 144.101741 170.859798 
L 144.545907 168.854949 
L 144.577622 166.181817 
L 144.993864 165.513534 
L 144.993864 164.845251 
L 145.42506 162.840402 
L 145.469665 160.16727 
L 145.885928 159.498986 
L 146.123829 158.830703 
L 146.331895 156.825854 
L 146.629273 156.157571 
L 146.629278 152.816156 
L 147.075282 152.147873 
L 147.075282 151.47959 
L 147.521324 150.811307 
L 147.521324 150.143024 
L 147.967289 149.474741 
L 147.967289 148.806458 
L 148.262624 148.138175 
L 148.413325 147.469891 
L 148.413325 146.801608 
L 149.305379 145.465042 
L 149.305379 144.796759 
L 150.19749 144.128476 
L 150.227225 143.460193 
L 150.792075 142.79191 
L 150.851655 141.455344 
L 151.533574 140.787061 
L 151.565289 140.118778 
L 152.130193 139.450495 
L 152.130193 138.782212 
L 152.722881 138.113929 
L 153.497263 137.445646 
L 153.765574 136.777363 
L 153.765574 136.10908 
L 154.210882 135.440797 
L 155.103626 134.772513 
L 155.103626 134.10423 
L 155.696309 133.435947 
L 157.184271 132.767664 
L 162.567147 132.099381 
L 163.726782 131.431098 
L 166.430685 130.762815 
L 166.700174 130.094532 
L 167.590269 129.426249 
L 170.563679 128.757966 
L 181.446735 128.089683 
L 182.457624 127.4214 
L 184.570864 126.753117 
L 185.431052 125.416551 
L 186.027733 124.748268 
L 186.027733 124.079985 
L 189.001217 123.411702 
L 189.001217 122.743419 
L 189.952854 122.075135 
L 190.279936 121.406852 
L 191.38 120.738569 
L 191.38 120.070286 
L 194.353485 119.402003 
L 194.353485 118.73372 
L 195.453783 118.065437 
L 195.84032 117.397154 
L 195.897825 116.728871 
L 200.298422 114.724022 
L 208.328931 114.055739 
L 208.685748 113.387456 
L 209.220858 112.719173 
L 209.220858 112.05089 
L 209.398597 111.382607 
L 212.194339 110.046041 
L 212.194339 109.377757 
L 213.680283 108.709474 
L 221.143825 108.041191 
L 222.60078 107.372908 
L 223.284727 106.704625 
L 225.574187 105.368059 
L 227.35826 104.699776 
L 238.657594 104.031493 
L 239.252205 103.36321 
L 242.225633 102.694927 
L 251.563261 102.026644 
L 251.592996 101.358361 
L 252.901325 100.690078 
L 252.93092 99.353512 
L 253.674428 98.685229 
L 253.823034 98.016946 
L 253.823034 97.348662 
L 255.904392 96.680379 
L 255.904392 96.012096 
L 256.79647 95.343813 
L 256.79647 94.67553 
L 274.934776 94.007247 
L 274.964511 93.338964 
L 276.124038 92.670681 
L 276.124038 92.002398 
L 279.097508 91.334115 
L 279.097508 90.665832 
L 280.316579 89.997549 
L 280.584132 89.329266 
L 283.557548 88.660983 
L 287.838874 87.9927 
L 288.017211 87.324417 
L 290.990621 86.656134 
L 297.354779 85.987851 
L 297.414249 84.651284 
L 298.424996 83.983001 
L 298.42515 82.646435 
L 301.101331 81.309869 
L 301.398402 80.641586 
L 301.398584 79.30502 
L 304.074706 78.636737 
L 322.123641 77.968454 
L 323.402152 77.300171 
L 326.375579 76.631888 
L 331.965246 75.963605 
L 333.214011 75.295322 
L 336.187435 74.627039 
L 395.509009 73.958756 
L 396.549654 73.290473 
L 399.523064 72.62219 
L 418.55363 71.953906 
L 418.791508 71.285623 
L 419.742928 70.61734 
L 419.742928 69.949057 
L 422.716355 69.280774 
L 422.716355 68.612491 
L 462.947427 67.944208 
L 464.344866 67.275925 
L 467.31829 66.607642 
L 467.31829 66.607642 
" clip-path="url(#pae6eb76b50)" style="fill: none; stroke: #1f77b4; stroke-width: 2.5; stroke-linecap: round"/>
   </g>
   <g id="line2d_15">
    <path d="M 70.223894 366.666733 
L 70.595579 361.988752 
L 70.863191 360.652185 
L 71.398366 346.618241 
L 71.398378 345.949958 
L 71.54696 345.281675 
L 71.547091 342.608543 
L 71.69569 341.271977 
L 71.725499 339.267128 
L 71.903908 338.598845 
L 72.201255 333.25258 
L 72.409398 331.247731 
L 72.587742 329.242882 
L 72.736445 328.574599 
L 73.509584 327.238033 
L 73.717728 326.56975 
L 74.371847 318.550353 
L 74.371871 315.877221 
L 74.520503 315.208938 
L 74.551496 312.535806 
L 74.669201 311.867523 
L 74.669204 311.19924 
L 74.966507 310.530956 
L 74.966537 308.526107 
L 75.263863 307.189541 
L 75.263866 306.521258 
L 75.651682 304.516409 
L 75.709879 303.179843 
L 76.155894 302.51156 
L 76.30584 301.174994 
L 76.305846 300.506711 
L 76.899254 298.501862 
L 76.900524 297.165295 
L 77.6444 296.497012 
L 78.122057 295.828729 
L 78.387222 295.160446 
L 78.449139 294.492163 
L 78.835691 293.82388 
L 78.865425 293.155597 
L 79.190117 292.487314 
L 79.27931 291.150748 
L 79.279313 290.482465 
L 79.430282 289.814182 
L 79.430347 287.809333 
L 79.873984 287.14105 
L 79.903751 286.472767 
L 80.528151 285.1362 
L 80.70898 283.799634 
L 81.214429 283.131351 
L 81.214429 282.463068 
L 82.252705 281.794785 
L 82.403834 281.126502 
L 82.40384 279.121653 
L 83.501656 278.45337 
L 84.187895 277.785087 
L 84.187895 277.116804 
L 84.723172 276.448521 
L 85.050254 275.780238 
L 85.107333 275.111955 
L 86.120699 274.443672 
L 86.120705 273.775389 
L 86.415659 273.107105 
L 86.536991 272.438822 
L 86.983013 271.770539 
L 87.012739 270.433973 
L 89.094165 269.76569 
L 89.094168 269.097407 
L 89.361793 268.429124 
L 89.389048 267.760841 
L 89.986131 267.092558 
L 90.015957 265.755992 
L 90.134831 265.087709 
L 90.134831 264.419426 
L 91.826192 263.751143 
L 92.153274 262.414577 
L 93.108297 261.078011 
L 93.108297 260.409727 
L 93.253338 259.741444 
L 93.253415 257.736595 
L 96.226822 257.068312 
L 96.22684 255.063463 
L 99.174261 254.39518 
L 99.590518 253.726897 
L 99.765371 252.390331 
L 100.687127 251.722048 
L 100.687133 251.053765 
L 102.564023 250.385482 
L 103.660519 249.717199 
L 103.660522 249.048916 
L 105.507763 248.380633 
L 105.745641 247.712349 
L 106.191574 247.044066 
L 106.191574 246.375783 
L 107.291849 245.039217 
L 107.823488 243.702651 
L 107.824672 243.034368 
L 108.120702 242.366085 
L 108.120768 241.697802 
L 108.421766 241.029519 
L 109.165055 240.361236 
L 109.165055 239.692953 
L 109.876382 239.02467 
L 110.203428 238.356387 
L 110.798129 237.688104 
L 111.094186 237.019821 
L 111.094204 236.351538 
L 111.395155 235.683255 
L 114.721951 234.346688 
L 115.554396 233.678405 
L 118.527865 233.010122 
L 118.915746 232.341839 
L 119.123857 231.673556 
L 121.709618 229.668707 
L 122.097347 227.663858 
L 122.988132 226.995575 
L 122.988164 225.659009 
L 123.881385 224.990726 
L 125.961565 224.322443 
L 125.961571 222.985877 
L 128.964897 222.317593 
L 131.850364 220.981027 
L 132.801855 220.312744 
L 133.395233 219.644461 
L 135.775247 218.976178 
L 142.646469 218.307895 
L 142.646469 217.639612 
L 143.389838 216.971329 
L 143.6574 216.303046 
L 143.657451 214.96648 
L 144.103341 213.629914 
L 144.192676 212.293348 
L 144.311615 211.625065 
L 144.549431 210.956782 
L 144.549431 210.288498 
L 145.054984 209.620215 
L 145.084719 208.951932 
L 145.441482 207.615366 
L 145.441482 206.947083 
L 146.630902 206.2788 
L 146.630902 205.610517 
L 147.076885 204.942234 
L 147.076885 204.273951 
L 147.522933 203.605668 
L 147.522933 202.937385 
L 148.262624 202.269102 
L 148.414957 201.600819 
L 148.414957 200.932536 
L 150.734322 200.264253 
L 151.860656 198.927687 
L 152.13181 198.259404 
L 152.13181 197.59112 
L 152.722881 196.922837 
L 154.181163 196.254554 
L 154.210882 195.586271 
L 155.105235 194.917988 
L 155.105235 194.249705 
L 155.696309 193.581422 
L 157.184271 192.913139 
L 165.92878 192.244856 
L 165.98825 191.576573 
L 166.40448 190.90829 
L 166.404536 189.571724 
L 166.698298 188.903441 
L 167.296558 188.235158 
L 167.590269 187.566875 
L 169.377913 186.898592 
L 169.377913 186.230309 
L 170.26995 185.562026 
L 170.563679 184.893742 
L 177.213119 184.225459 
L 177.242853 183.557176 
L 177.807814 182.888893 
L 178.075426 182.22061 
L 178.313203 179.547478 
L 179.398623 178.879195 
L 179.785163 178.210912 
L 181.108365 177.542629 
L 181.108365 176.874346 
L 181.286771 176.206063 
L 181.387265 174.201214 
L 181.866607 173.532931 
L 182.015195 172.864648 
L 182.015195 172.196364 
L 182.457624 171.528081 
L 182.75862 170.859798 
L 183.293875 170.191515 
L 183.353309 169.523232 
L 184.988685 168.854949 
L 184.988685 168.186666 
L 185.431052 167.518383 
L 186.326743 166.8501 
L 188.616396 166.181817 
L 188.794805 165.513534 
L 189.597509 164.845251 
L 189.597509 164.176968 
L 192.570993 163.508685 
L 192.570993 162.840402 
L 195.957294 162.172119 
L 197.324998 161.503836 
L 200.298422 160.835553 
L 209.487802 160.16727 
L 210.706867 159.498986 
L 213.251638 158.830703 
L 213.63819 158.16242 
L 213.861201 154.821005 
L 214.099079 154.152722 
L 215.02071 148.806458 
L 215.080326 144.796759 
L 215.466752 143.460193 
L 215.466752 142.79191 
L 215.912824 142.123627 
L 215.912824 141.455344 
L 216.269716 140.787061 
L 216.790071 140.118778 
L 216.804941 137.445646 
L 216.953615 136.777363 
L 216.98335 136.10908 
L 217.518575 134.772513 
L 217.548292 134.10423 
L 217.696906 133.435947 
L 217.696906 132.767664 
L 217.994284 132.099381 
L 217.99429 128.757966 
L 218.440293 128.089683 
L 218.440293 127.4214 
L 218.886335 126.753117 
L 218.886335 126.084834 
L 219.778336 125.416551 
L 219.778336 124.748268 
L 220.670391 123.411702 
L 220.670391 122.743419 
L 221.651706 122.075135 
L 221.708785 121.406852 
L 222.008523 120.738569 
L 222.157087 120.070286 
L 222.157087 119.402003 
L 222.957645 118.065437 
L 224.384886 117.397154 
L 225.130586 116.728871 
L 225.130586 116.060588 
L 225.574187 115.392305 
L 227.35826 114.724022 
L 230.661336 114.055739 
L 231.523629 113.387456 
L 234.497018 112.719173 
L 238.211572 112.05089 
L 239.252205 111.382607 
L 242.225633 110.714324 
L 243.714892 110.046041 
L 244.90416 108.709474 
L 244.90416 108.041191 
L 247.877644 107.372908 
L 247.877644 106.704625 
L 255.222241 106.036342 
L 255.757467 105.368059 
L 256.500696 104.699776 
L 256.500696 104.031493 
L 259.474168 103.36321 
L 259.474168 102.694927 
L 279.218186 102.026644 
L 279.335332 101.358361 
L 280.110229 100.690078 
L 280.584132 100.021795 
L 280.585869 98.685229 
L 283.557548 98.016946 
L 283.55935 96.680379 
L 286.887362 96.012096 
L 288.017211 95.343813 
L 290.990621 94.67553 
L 297.146449 94.007247 
L 298.424996 93.338964 
L 301.398402 92.670681 
L 307.168853 92.002398 
L 308.239278 91.334115 
L 311.212652 90.665832 
L 322.391253 89.997549 
L 323.402152 89.329266 
L 325.188045 87.324417 
L 325.188045 86.656134 
L 326.375579 85.987851 
L 328.161481 85.319568 
L 328.161481 84.651284 
L 331.965246 83.983001 
L 333.214011 83.314718 
L 336.187435 82.646435 
L 346.151114 81.978152 
L 347.281034 81.309869 
L 347.48905 80.641586 
L 347.48905 79.973303 
L 350.462519 79.30502 
L 350.462519 78.636737 
L 368.362973 77.968454 
L 369.492894 77.300171 
L 369.790161 76.631888 
L 369.790161 75.963605 
L 372.763595 75.295322 
L 372.763595 74.627039 
L 395.092723 73.958756 
L 396.549654 73.290473 
L 399.523064 72.62219 
L 432.917121 71.953906 
L 433.244203 71.285623 
L 434.017214 70.61734 
L 434.017214 69.949057 
L 436.990642 69.280774 
L 436.990642 68.612491 
L 463.304244 67.944208 
L 464.344866 67.275925 
L 467.31829 66.607642 
L 467.31829 66.607642 
" clip-path="url(#pae6eb76b50)" style="fill: none; stroke: #d62728; stroke-width: 2.5; stroke-linecap: round"/>
   </g>
   <g id="patch_3">
    <path d="M 49.807187 381.669687 
L 49.807187 51.604687 
" style="fill: none; stroke: #000000; stroke-width: 1.5; stroke-linejoin: miter; stroke-linecap: square"/>
   </g>
   <g id="patch_4">
    <path d="M 487.199771 381.669687 
L 487.199771 51.604687 
" style="fill: none; stroke: #000000; stroke-width: 1.5; stroke-linejoin: miter; stroke-linecap: square"/>
   </g>
   <g id="patch_5">
    <path d="M 49.807187 381.669687 
L 487.199771 381.669687 
" style="fill: none; stroke: #000000; stroke-width: 1.5; stroke-linejoin: miter; stroke-linecap: square"/>
   </g>
   <g id="patch_6">
    <path d="M 49.807187 51.604687 
L 487.199771 51.604687 
" style="fill: none; stroke: #000000; stroke-width: 1.5; stroke-linejoin: miter; stroke-linecap: square"/>
   </g>
   <g id="text_16">
    <!-- CDF — Total Packet Delay -->
    <g style="fill: #262626" transform="translate(189.097229 45.604687) scale(0.11 -0.11)">
     <defs>
      <path id="DejaVuSerif-Bold-43" d="M 4769 1331 
Q 4584 609 4106 259 
Q 3628 -91 2822 -91 
Q 1641 -91 955 561 
Q 269 1213 269 2328 
Q 269 3447 955 4098 
Q 1641 4750 2822 4750 
Q 3238 4750 3688 4650 
Q 4138 4550 4641 4347 
L 4641 3200 
L 4244 3200 
Q 4122 3788 3800 4080 
Q 3478 4372 2950 4372 
Q 2269 4372 1937 3870 
Q 1606 3369 1606 2328 
Q 1606 1288 1937 788 
Q 2269 288 2956 288 
Q 3422 288 3717 547 
Q 4013 806 4147 1331 
L 4769 1331 
z
" transform="scale(0.015625)"/>
      <path id="DejaVuSerif-Bold-44" d="M 2100 378 
L 2534 378 
Q 3266 378 3605 847 
Q 3944 1316 3944 2338 
Q 3944 3353 3606 3820 
Q 3269 4288 2534 4288 
L 2100 4288 
L 2100 378 
z
M 300 0 
L 300 378 
L 897 378 
L 897 4288 
L 300 4288 
L 300 4666 
L 2694 4666 
Q 3950 4666 4615 4066 
Q 5281 3466 5281 2338 
Q 5281 1203 4614 601 
Q 3947 0 2694 0 
L 300 0 
z
" transform="scale(0.015625)"/>
      <path id="DejaVuSerif-Bold-46" d="M 300 0 
L 300 378 
L 897 378 
L 897 4288 
L 300 4288 
L 300 4666 
L 4459 4666 
L 4459 3566 
L 4031 3566 
L 4031 4238 
L 2106 4238 
L 2106 2741 
L 3291 2741 
L 3291 3334 
L 3719 3334 
L 3719 1722 
L 3291 1722 
L 3291 2316 
L 2106 2316 
L 2106 378 
L 2841 378 
L 2841 0 
L 300 0 
z
" transform="scale(0.015625)"/>
      <path id="DejaVuSerif-Bold-20" transform="scale(0.015625)"/>
      <path id="DejaVuSerif-Bold-2014" d="M 344 2075 
L 6056 2075 
L 6056 1325 
L 344 1325 
L 344 2075 
z
" transform="scale(0.015625)"/>
      <path id="DejaVuSerif-Bold-54" d="M 1159 0 
L 1159 378 
L 1778 378 
L 1778 4238 
L 500 4238 
L 500 3500 
L 72 3500 
L 72 4666 
L 4697 4666 
L 4697 3500 
L 4275 3500 
L 4275 4238 
L 2988 4238 
L 2988 378 
L 3609 378 
L 3609 0 
L 1159 0 
z
" transform="scale(0.015625)"/>
      <path id="DejaVuSerif-Bold-6f" d="M 2138 263 
Q 2488 263 2630 563 
Q 2772 863 2772 1663 
Q 2772 2463 2631 2761 
Q 2491 3059 2138 3059 
Q 1784 3059 1640 2757 
Q 1497 2456 1497 1663 
Q 1497 869 1640 566 
Q 1784 263 2138 263 
z
M 2138 -91 
Q 1259 -91 761 376 
Q 263 844 263 1663 
Q 263 2484 761 2948 
Q 1259 3413 2138 3413 
Q 3019 3413 3516 2948 
Q 4013 2484 4013 1663 
Q 4013 844 3514 376 
Q 3016 -91 2138 -91 
z
" transform="scale(0.015625)"/>
      <path id="DejaVuSerif-Bold-74" d="M 634 2944 
L 153 2944 
L 153 3322 
L 634 3322 
L 634 4353 
L 1741 4353 
L 1741 3322 
L 2663 3322 
L 2663 2944 
L 1741 2944 
L 1741 909 
Q 1741 475 1809 369 
Q 1878 263 2059 263 
Q 2259 263 2356 397 
Q 2453 531 2459 813 
L 2925 813 
Q 2897 313 2651 111 
Q 2406 -91 1806 -91 
Q 1122 -91 878 123 
Q 634 338 634 909 
L 634 2944 
z
" transform="scale(0.015625)"/>
      <path id="DejaVuSerif-Bold-61" d="M 3525 2041 
L 3525 378 
L 4000 378 
L 4000 0 
L 2419 0 
L 2419 422 
Q 2200 159 1931 34 
Q 1663 -91 1319 -91 
Q 809 -91 536 182 
Q 263 456 263 966 
Q 263 1525 655 1803 
Q 1047 2081 1838 2081 
L 2419 2081 
L 2419 2278 
Q 2419 2681 2228 2873 
Q 2038 3066 1638 3066 
Q 1306 3066 1126 2930 
Q 947 2794 872 2484 
L 519 2484 
L 519 3200 
Q 816 3306 1134 3359 
Q 1453 3413 1806 3413 
Q 2697 3413 3111 3081 
Q 3525 2750 3525 2041 
z
M 2419 1044 
L 2419 1709 
L 2003 1709 
Q 1694 1709 1528 1540 
Q 1363 1372 1363 1056 
Q 1363 741 1483 584 
Q 1603 428 1850 428 
Q 2106 428 2262 597 
Q 2419 766 2419 1044 
z
" transform="scale(0.015625)"/>
      <path id="DejaVuSerif-Bold-6c" d="M 1797 378 
L 2272 378 
L 2272 0 
L 219 0 
L 219 378 
L 691 378 
L 691 4488 
L 219 4488 
L 219 4863 
L 1797 4863 
L 1797 378 
z
" transform="scale(0.015625)"/>
      <path id="DejaVuSerif-Bold-50" d="M 300 0 
L 300 378 
L 897 378 
L 897 4288 
L 300 4288 
L 300 4666 
L 2956 4666 
Q 3734 4666 4193 4295 
Q 4653 3925 4653 3303 
Q 4653 2678 4192 2304 
Q 3731 1931 2956 1931 
L 2100 1931 
L 2100 378 
L 2853 378 
L 2853 0 
L 300 0 
z
M 2100 2309 
L 2450 2309 
Q 2856 2309 3098 2579 
Q 3341 2850 3341 3303 
Q 3341 3753 3100 4020 
Q 2859 4288 2450 4288 
L 2100 4288 
L 2100 2309 
z
" transform="scale(0.015625)"/>
      <path id="DejaVuSerif-Bold-63" d="M 3609 1038 
Q 3491 469 3123 189 
Q 2756 -91 2125 -91 
Q 1238 -91 750 368 
Q 263 828 263 1663 
Q 263 2488 744 2950 
Q 1225 3413 2081 3413 
Q 2428 3413 2781 3347 
Q 3134 3281 3500 3150 
L 3500 2228 
L 3150 2228 
Q 3100 2650 2903 2854 
Q 2706 3059 2350 3059 
Q 1888 3059 1692 2746 
Q 1497 2434 1497 1663 
Q 1497 909 1687 586 
Q 1878 263 2309 263 
Q 2644 263 2845 463 
Q 3047 663 3091 1038 
L 3609 1038 
z
" transform="scale(0.015625)"/>
      <path id="DejaVuSerif-Bold-6b" d="M 2216 0 
L 219 0 
L 219 378 
L 691 378 
L 691 4488 
L 219 4488 
L 219 4863 
L 1797 4863 
L 1797 1741 
L 3138 2944 
L 2741 2944 
L 2741 3322 
L 4256 3322 
L 4256 2944 
L 3641 2944 
L 2784 2175 
L 4184 378 
L 4544 378 
L 4544 0 
L 2638 0 
L 2638 378 
L 3028 378 
L 2106 1563 
L 1797 1288 
L 1797 378 
L 2216 378 
L 2216 0 
z
" transform="scale(0.015625)"/>
      <path id="DejaVuSerif-Bold-65" d="M 2566 1875 
Q 2566 2531 2444 2795 
Q 2322 3059 2028 3059 
Q 1744 3059 1620 2800 
Q 1497 2541 1497 1931 
L 1497 1875 
L 2566 1875 
z
M 3781 1503 
L 1497 1503 
L 1497 1478 
Q 1497 834 1690 548 
Q 1884 263 2316 263 
Q 2675 263 2897 453 
Q 3119 644 3181 1006 
L 3700 1006 
Q 3566 441 3166 175 
Q 2766 -91 2047 -91 
Q 1184 -91 723 364 
Q 263 819 263 1663 
Q 263 2488 734 2950 
Q 1206 3413 2047 3413 
Q 2872 3413 3312 2927 
Q 3753 2441 3781 1503 
z
" transform="scale(0.015625)"/>
      <path id="DejaVuSerif-Bold-79" d="M 1997 -750 
Q 1847 -1116 1634 -1269 
Q 1422 -1422 1063 -1422 
Q 909 -1422 721 -1387 
Q 534 -1353 313 -1288 
L 313 -594 
L 666 -597 
Q 675 -838 779 -953 
Q 884 -1069 1094 -1069 
Q 1297 -1069 1422 -958 
Q 1547 -847 1672 -538 
L 1722 -422 
L 275 2944 
L -84 2944 
L -84 3322 
L 1831 3322 
L 1831 2944 
L 1434 2944 
L 2278 978 
L 3066 2944 
L 2625 2944 
L 2625 3322 
L 3872 3322 
L 3872 2944 
L 3469 2944 
L 1997 -750 
z
" transform="scale(0.015625)"/>
     </defs>
     <use xlink:href="#DejaVuSerif-Bold-43"/>
     <use xlink:href="#DejaVuSerif-Bold-44" transform="translate(79.589844 0)"/>
     <use xlink:href="#DejaVuSerif-Bold-46" transform="translate(166.308594 0)"/>
     <use xlink:href="#DejaVuSerif-Bold-20" transform="translate(237.304688 0)"/>
     <use xlink:href="#DejaVuSerif-Bold-2014" transform="translate(272.119141 0)"/>
     <use xlink:href="#DejaVuSerif-Bold-20" transform="translate(372.119141 0)"/>
     <use xlink:href="#DejaVuSerif-Bold-54" transform="translate(406.933594 0)"/>
     <use xlink:href="#DejaVuSerif-Bold-6f" transform="translate(469.847656 0)"/>
     <use xlink:href="#DejaVuSerif-Bold-74" transform="translate(536.546875 0)"/>
     <use xlink:href="#DejaVuSerif-Bold-61" transform="translate(582.738281 0)"/>
     <use xlink:href="#DejaVuSerif-Bold-6c" transform="translate(647.533203 0)"/>
     <use xlink:href="#DejaVuSerif-Bold-20" transform="translate(685.521484 0)"/>
     <use xlink:href="#DejaVuSerif-Bold-50" transform="translate(720.335938 0)"/>
     <use xlink:href="#DejaVuSerif-Bold-61" transform="translate(792.90625 0)"/>
     <use xlink:href="#DejaVuSerif-Bold-63" transform="translate(857.701172 0)"/>
     <use xlink:href="#DejaVuSerif-Bold-6b" transform="translate(918.589844 0)"/>
     <use xlink:href="#DejaVuSerif-Bold-65" transform="translate(987.876953 0)"/>
     <use xlink:href="#DejaVuSerif-Bold-74" transform="translate(1051.5 0)"/>
     <use xlink:href="#DejaVuSerif-Bold-20" transform="translate(1097.691406 0)"/>
     <use xlink:href="#DejaVuSerif-Bold-44" transform="translate(1132.505859 0)"/>
     <use xlink:href="#DejaVuSerif-Bold-65" transform="translate(1219.224609 0)"/>
     <use xlink:href="#DejaVuSerif-Bold-6c" transform="translate(1282.847656 0)"/>
     <use xlink:href="#DejaVuSerif-Bold-61" transform="translate(1320.835938 0)"/>
     <use xlink:href="#DejaVuSerif-Bold-79" transform="translate(1385.630859 0)"/>
    </g>
   </g>
   <g id="legend_1">
    <g id="patch_7">
     <path d="M 57.507188 92.696562 
L 119.181094 92.696562 
Q 121.381094 92.696562 121.381094 90.496562 
L 121.381094 59.304687 
Q 121.381094 57.104687 119.181094 57.104687 
L 57.507188 57.104687 
Q 55.307187 57.104687 55.307187 59.304687 
L 55.307187 90.496562 
Q 55.307187 92.696562 57.507188 92.696562 
z
" style="fill: #ffffff; opacity: 0.8; stroke: #cccccc; stroke-linejoin: miter"/>
    </g>
    <g id="line2d_16">
     <path d="M 59.707187 66.012969 
L 70.707188 66.012969 
L 81.707188 66.012969 
" style="fill: none; stroke: #1f77b4; stroke-width: 2.5; stroke-linecap: round"/>
    </g>
    <g id="text_17">
     <!-- BLA -->
     <g style="fill: #262626" transform="translate(90.507188 69.862969) scale(0.11 -0.11)">
      <defs>
       <path id="DejaVuSerif-42" d="M 1581 331 
L 2516 331 
Q 3078 331 3337 575 
Q 3597 819 3597 1350 
Q 3597 1878 3339 2120 
Q 3081 2363 2516 2363 
L 1581 2363 
L 1581 331 
z
M 1581 2694 
L 2375 2694 
Q 2888 2694 3123 2891 
Q 3359 3088 3359 3513 
Q 3359 3941 3123 4136 
Q 2888 4331 2375 4331 
L 1581 4331 
L 1581 2694 
z
M 353 0 
L 353 331 
L 947 331 
L 947 4331 
L 353 4331 
L 353 4666 
L 2656 4666 
Q 3363 4666 3720 4377 
Q 4078 4088 4078 3513 
Q 4078 3097 3829 2850 
Q 3581 2603 3103 2547 
Q 3697 2472 4005 2167 
Q 4313 1863 4313 1350 
Q 4313 656 3875 328 
Q 3438 0 2509 0 
L 353 0 
z
" transform="scale(0.015625)"/>
       <path id="DejaVuSerif-4c" d="M 353 0 
L 353 331 
L 947 331 
L 947 4331 
L 353 4331 
L 353 4666 
L 2175 4666 
L 2175 4331 
L 1581 4331 
L 1581 384 
L 3713 384 
L 3713 1166 
L 4097 1166 
L 4097 0 
L 353 0 
z
" transform="scale(0.015625)"/>
       <path id="DejaVuSerif-41" d="M 1281 1691 
L 2994 1691 
L 2138 3909 
L 1281 1691 
z
M -38 0 
L -38 331 
L 372 331 
L 2034 4666 
L 2559 4666 
L 4225 331 
L 4684 331 
L 4684 0 
L 2988 0 
L 2988 331 
L 3506 331 
L 3116 1356 
L 1153 1356 
L 763 331 
L 1275 331 
L 1275 0 
L -38 0 
z
" transform="scale(0.015625)"/>
      </defs>
      <use xlink:href="#DejaVuSerif-42"/>
      <use xlink:href="#DejaVuSerif-4c" transform="translate(73.486328 0)"/>
      <use xlink:href="#DejaVuSerif-41" transform="translate(139.892578 0)"/>
     </g>
    </g>
    <g id="line2d_17">
     <path d="M 59.707187 82.158906 
L 70.707188 82.158906 
L 81.707188 82.158906 
" style="fill: none; stroke: #d62728; stroke-width: 2.5; stroke-linecap: round"/>
    </g>
    <g id="text_18">
     <!-- First -->
     <g style="fill: #262626" transform="translate(90.507188 86.008906) scale(0.11 -0.11)">
      <defs>
       <path id="DejaVuSerif-46" d="M 353 0 
L 353 331 
L 947 331 
L 947 4331 
L 353 4331 
L 353 4666 
L 4172 4666 
L 4172 3628 
L 3788 3628 
L 3788 4281 
L 1581 4281 
L 1581 2719 
L 3175 2719 
L 3175 3303 
L 3559 3303 
L 3559 1753 
L 3175 1753 
L 3175 2338 
L 1581 2338 
L 1581 331 
L 2328 331 
L 2328 0 
L 353 0 
z
" transform="scale(0.015625)"/>
       <path id="DejaVuSerif-69" d="M 622 4353 
Q 622 4497 726 4603 
Q 831 4709 978 4709 
Q 1122 4709 1226 4603 
Q 1331 4497 1331 4353 
Q 1331 4206 1228 4103 
Q 1125 4000 978 4000 
Q 831 4000 726 4103 
Q 622 4206 622 4353 
z
M 1356 331 
L 1900 331 
L 1900 0 
L 231 0 
L 231 331 
L 781 331 
L 781 2988 
L 231 2988 
L 231 3322 
L 1356 3322 
L 1356 331 
z
" transform="scale(0.015625)"/>
       <path id="DejaVuSerif-72" d="M 3059 3328 
L 3059 2497 
L 2728 2497 
Q 2713 2744 2591 2866 
Q 2469 2988 2234 2988 
Q 1809 2988 1582 2694 
Q 1356 2400 1356 1850 
L 1356 331 
L 2022 331 
L 2022 0 
L 263 0 
L 263 331 
L 781 331 
L 781 2994 
L 231 2994 
L 231 3322 
L 1356 3322 
L 1356 2731 
Q 1525 3078 1790 3245 
Q 2056 3413 2438 3413 
Q 2578 3413 2733 3391 
Q 2888 3369 3059 3328 
z
" transform="scale(0.015625)"/>
      </defs>
      <use xlink:href="#DejaVuSerif-46"/>
      <use xlink:href="#DejaVuSerif-69" transform="translate(69.384766 0)"/>
      <use xlink:href="#DejaVuSerif-72" transform="translate(101.367188 0)"/>
      <use xlink:href="#DejaVuSerif-73" transform="translate(149.169922 0)"/>
      <use xlink:href="#DejaVuSerif-74" transform="translate(200.488281 0)"/>
     </g>
    </g>
   </g>
  </g>
  <g id="axes_2">
   <g id="patch_8">
    <path d="M 542.766959 381.669687 
L 980.159543 381.669687 
L 980.159543 51.604687 
L 542.766959 51.604687 
z
" style="fill: #ffffff"/>
   </g>
   <g id="matplotlib.axis_3">
    <g id="xtick_8">
     <g id="line2d_18">
      <path d="M 613.587746 381.669687 
L 613.587746 51.604687 
" clip-path="url(#peca6f92df5)" style="fill: none; stroke-dasharray: 3.7,1.6; stroke-dashoffset: 0; stroke: #dddddd; stroke-opacity: 0.3"/>
     </g>
     <g id="text_19">
      <!-- 20000 -->
      <g style="fill: #262626" transform="translate(596.090871 399.527969) scale(0.11 -0.11)">
       <use xlink:href="#DejaVuSerif-32"/>
       <use xlink:href="#DejaVuSerif-30" transform="translate(63.623047 0)"/>
       <use xlink:href="#DejaVuSerif-30" transform="translate(127.246094 0)"/>
       <use xlink:href="#DejaVuSerif-30" transform="translate(190.869141 0)"/>
       <use xlink:href="#DejaVuSerif-30" transform="translate(254.492188 0)"/>
      </g>
     </g>
    </g>
    <g id="xtick_9">
     <g id="line2d_19">
      <path d="M 702.254946 381.669687 
L 702.254946 51.604687 
" clip-path="url(#peca6f92df5)" style="fill: none; stroke-dasharray: 3.7,1.6; stroke-dashoffset: 0; stroke: #dddddd; stroke-opacity: 0.3"/>
     </g>
     <g id="text_20">
      <!-- 40000 -->
      <g style="fill: #262626" transform="translate(684.758071 399.527969) scale(0.11 -0.11)">
       <use xlink:href="#DejaVuSerif-34"/>
       <use xlink:href="#DejaVuSerif-30" transform="translate(63.623047 0)"/>
       <use xlink:href="#DejaVuSerif-30" transform="translate(127.246094 0)"/>
       <use xlink:href="#DejaVuSerif-30" transform="translate(190.869141 0)"/>
       <use xlink:href="#DejaVuSerif-30" transform="translate(254.492188 0)"/>
      </g>
     </g>
    </g>
    <g id="xtick_10">
     <g id="line2d_20">
      <path d="M 790.922145 381.669687 
L 790.922145 51.604687 
" clip-path="url(#peca6f92df5)" style="fill: none; stroke-dasharray: 3.7,1.6; stroke-dashoffset: 0; stroke: #dddddd; stroke-opacity: 0.3"/>
     </g>
     <g id="text_21">
      <!-- 60000 -->
      <g style="fill: #262626" transform="translate(773.42527 399.527969) scale(0.11 -0.11)">
       <use xlink:href="#DejaVuSerif-36"/>
       <use xlink:href="#DejaVuSerif-30" transform="translate(63.623047 0)"/>
       <use xlink:href="#DejaVuSerif-30" transform="translate(127.246094 0)"/>
       <use xlink:href="#DejaVuSerif-30" transform="translate(190.869141 0)"/>
       <use xlink:href="#DejaVuSerif-30" transform="translate(254.492188 0)"/>
      </g>
     </g>
    </g>
    <g id="xtick_11">
     <g id="line2d_21">
      <path d="M 879.589345 381.669687 
L 879.589345 51.604687 
" clip-path="url(#peca6f92df5)" style="fill: none; stroke-dasharray: 3.7,1.6; stroke-dashoffset: 0; stroke: #dddddd; stroke-opacity: 0.3"/>
     </g>
     <g id="text_22">
      <!-- 80000 -->
      <g style="fill: #262626" transform="translate(862.09247 399.527969) scale(0.11 -0.11)">
       <use xlink:href="#DejaVuSerif-38"/>
       <use xlink:href="#DejaVuSerif-30" transform="translate(63.623047 0)"/>
       <use xlink:href="#DejaVuSerif-30" transform="translate(127.246094 0)"/>
       <use xlink:href="#DejaVuSerif-30" transform="translate(190.869141 0)"/>
       <use xlink:href="#DejaVuSerif-30" transform="translate(254.492188 0)"/>
      </g>
     </g>
    </g>
    <g id="xtick_12">
     <g id="line2d_22">
      <path d="M 968.256545 381.669687 
L 968.256545 51.604687 
" clip-path="url(#peca6f92df5)" style="fill: none; stroke-dasharray: 3.7,1.6; stroke-dashoffset: 0; stroke: #dddddd; stroke-opacity: 0.3"/>
     </g>
     <g id="text_23">
      <!-- 100000 -->
      <g style="fill: #262626" transform="translate(947.260295 399.527969) scale(0.11 -0.11)">
       <use xlink:href="#DejaVuSerif-31"/>
       <use xlink:href="#DejaVuSerif-30" transform="translate(63.623047 0)"/>
       <use xlink:href="#DejaVuSerif-30" transform="translate(127.246094 0)"/>
       <use xlink:href="#DejaVuSerif-30" transform="translate(190.869141 0)"/>
       <use xlink:href="#DejaVuSerif-30" transform="translate(254.492188 0)"/>
       <use xlink:href="#DejaVuSerif-30" transform="translate(318.115234 0)"/>
      </g>
     </g>
    </g>
    <g id="text_24">
     <!-- Queuing Delay (ms) -->
     <g style="fill: #262626" transform="translate(701.127626 414.93375) scale(0.12 -0.12)">
      <defs>
       <path id="DejaVuSerif-51" d="M 2700 -91 
Q 1628 -91 993 567 
Q 359 1225 359 2328 
Q 359 2894 529 3339 
Q 700 3784 1050 4134 
Q 1356 4441 1750 4595 
Q 2144 4750 2625 4750 
Q 3641 4750 4266 4084 
Q 4891 3419 4891 2328 
Q 4891 1403 4422 773 
Q 3953 144 3128 -38 
Q 3297 -247 3539 -347 
Q 3781 -447 4122 -447 
L 4219 -447 
L 4219 -1025 
Q 3691 -1000 3314 -767 
Q 2938 -534 2700 -91 
z
M 2625 244 
Q 3391 244 3781 770 
Q 4172 1297 4172 2328 
Q 4172 3363 3781 3889 
Q 3391 4416 2625 4416 
Q 1856 4416 1465 3889 
Q 1075 3363 1075 2328 
Q 1075 1297 1465 770 
Q 1856 244 2625 244 
z
" transform="scale(0.015625)"/>
       <path id="DejaVuSerif-75" d="M 2266 3322 
L 3341 3322 
L 3341 331 
L 3884 331 
L 3884 0 
L 2766 0 
L 2766 588 
Q 2606 256 2353 82 
Q 2100 -91 1766 -91 
Q 1213 -91 952 223 
Q 691 538 691 1209 
L 691 2988 
L 172 2988 
L 172 3322 
L 1269 3322 
L 1269 1388 
Q 1269 781 1417 556 
Q 1566 331 1947 331 
Q 2347 331 2556 625 
Q 2766 919 2766 1478 
L 2766 2988 
L 2266 2988 
L 2266 3322 
z
" transform="scale(0.015625)"/>
       <path id="DejaVuSerif-6e" d="M 263 0 
L 263 331 
L 781 331 
L 781 2988 
L 231 2988 
L 231 3322 
L 1356 3322 
L 1356 2731 
Q 1516 3069 1770 3241 
Q 2025 3413 2363 3413 
Q 2913 3413 3172 3097 
Q 3431 2781 3431 2113 
L 3431 331 
L 3944 331 
L 3944 0 
L 2356 0 
L 2356 331 
L 2853 331 
L 2853 1931 
Q 2853 2541 2703 2767 
Q 2553 2994 2175 2994 
Q 1775 2994 1565 2701 
Q 1356 2409 1356 1850 
L 1356 331 
L 1856 331 
L 1856 0 
L 263 0 
z
" transform="scale(0.015625)"/>
       <path id="DejaVuSerif-67" d="M 3359 2988 
L 3359 72 
Q 3359 -644 2965 -1033 
Q 2572 -1422 1844 -1422 
Q 1516 -1422 1216 -1362 
Q 916 -1303 641 -1184 
L 641 -488 
L 941 -488 
Q 997 -813 1206 -963 
Q 1416 -1113 1806 -1113 
Q 2313 -1113 2548 -827 
Q 2784 -541 2784 72 
L 2784 519 
Q 2616 206 2355 57 
Q 2094 -91 1709 -91 
Q 1097 -91 708 395 
Q 319 881 319 1663 
Q 319 2444 706 2928 
Q 1094 3413 1709 3413 
Q 2094 3413 2355 3264 
Q 2616 3116 2784 2803 
L 2784 3322 
L 3909 3322 
L 3909 2988 
L 3359 2988 
z
M 2784 1825 
Q 2784 2422 2554 2737 
Q 2325 3053 1888 3053 
Q 1444 3053 1217 2703 
Q 991 2353 991 1663 
Q 991 975 1217 622 
Q 1444 269 1888 269 
Q 2325 269 2554 583 
Q 2784 897 2784 1497 
L 2784 1825 
z
" transform="scale(0.015625)"/>
      </defs>
      <use xlink:href="#DejaVuSerif-51"/>
      <use xlink:href="#DejaVuSerif-75" transform="translate(81.982422 0)"/>
      <use xlink:href="#DejaVuSerif-65" transform="translate(146.386719 0)"/>
      <use xlink:href="#DejaVuSerif-75" transform="translate(205.566406 0)"/>
      <use xlink:href="#DejaVuSerif-69" transform="translate(269.970703 0)"/>
      <use xlink:href="#DejaVuSerif-6e" transform="translate(301.953125 0)"/>
      <use xlink:href="#DejaVuSerif-67" transform="translate(366.357422 0)"/>
      <use xlink:href="#DejaVuSerif-20" transform="translate(430.371094 0)"/>
      <use xlink:href="#DejaVuSerif-44" transform="translate(462.158203 0)"/>
      <use xlink:href="#DejaVuSerif-65" transform="translate(542.333984 0)"/>
      <use xlink:href="#DejaVuSerif-6c" transform="translate(601.513672 0)"/>
      <use xlink:href="#DejaVuSerif-61" transform="translate(633.496094 0)"/>
      <use xlink:href="#DejaVuSerif-79" transform="translate(693.115234 0)"/>
      <use xlink:href="#DejaVuSerif-20" transform="translate(749.609375 0)"/>
      <use xlink:href="#DejaVuSerif-28" transform="translate(781.396484 0)"/>
      <use xlink:href="#DejaVuSerif-6d" transform="translate(820.410156 0)"/>
      <use xlink:href="#DejaVuSerif-73" transform="translate(915.234375 0)"/>
      <use xlink:href="#DejaVuSerif-29" transform="translate(966.552734 0)"/>
     </g>
    </g>
   </g>
   <g id="matplotlib.axis_4">
    <g id="ytick_7">
     <g id="line2d_23">
      <path d="M 542.766959 366.666733 
L 980.159543 366.666733 
" clip-path="url(#peca6f92df5)" style="fill: none; stroke-dasharray: 3.7,1.6; stroke-dashoffset: 0; stroke: #dddddd; stroke-opacity: 0.3"/>
     </g>
     <g id="text_25">
      <!-- 0.0 -->
      <g style="fill: #262626" transform="translate(515.773521 370.845874) scale(0.11 -0.11)">
       <use xlink:href="#DejaVuSerif-30"/>
       <use xlink:href="#DejaVuSerif-2e" transform="translate(63.623047 0)"/>
       <use xlink:href="#DejaVuSerif-30" transform="translate(95.410156 0)"/>
      </g>
     </g>
    </g>
    <g id="ytick_8">
     <g id="line2d_24">
      <path d="M 542.766959 306.521258 
L 980.159543 306.521258 
" clip-path="url(#peca6f92df5)" style="fill: none; stroke-dasharray: 3.7,1.6; stroke-dashoffset: 0; stroke: #dddddd; stroke-opacity: 0.3"/>
     </g>
     <g id="text_26">
      <!-- 0.2 -->
      <g style="fill: #262626" transform="translate(515.773521 310.700399) scale(0.11 -0.11)">
       <use xlink:href="#DejaVuSerif-30"/>
       <use xlink:href="#DejaVuSerif-2e" transform="translate(63.623047 0)"/>
       <use xlink:href="#DejaVuSerif-32" transform="translate(95.410156 0)"/>
      </g>
     </g>
    </g>
    <g id="ytick_9">
     <g id="line2d_25">
      <path d="M 542.766959 246.375783 
L 980.159543 246.375783 
" clip-path="url(#peca6f92df5)" style="fill: none; stroke-dasharray: 3.7,1.6; stroke-dashoffset: 0; stroke: #dddddd; stroke-opacity: 0.3"/>
     </g>
     <g id="text_27">
      <!-- 0.4 -->
      <g style="fill: #262626" transform="translate(515.773521 250.554924) scale(0.11 -0.11)">
       <use xlink:href="#DejaVuSerif-30"/>
       <use xlink:href="#DejaVuSerif-2e" transform="translate(63.623047 0)"/>
       <use xlink:href="#DejaVuSerif-34" transform="translate(95.410156 0)"/>
      </g>
     </g>
    </g>
    <g id="ytick_10">
     <g id="line2d_26">
      <path d="M 542.766959 186.230309 
L 980.159543 186.230309 
" clip-path="url(#peca6f92df5)" style="fill: none; stroke-dasharray: 3.7,1.6; stroke-dashoffset: 0; stroke: #dddddd; stroke-opacity: 0.3"/>
     </g>
     <g id="text_28">
      <!-- 0.6 -->
      <g style="fill: #262626" transform="translate(515.773521 190.409449) scale(0.11 -0.11)">
       <use xlink:href="#DejaVuSerif-30"/>
       <use xlink:href="#DejaVuSerif-2e" transform="translate(63.623047 0)"/>
       <use xlink:href="#DejaVuSerif-36" transform="translate(95.410156 0)"/>
      </g>
     </g>
    </g>
    <g id="ytick_11">
     <g id="line2d_27">
      <path d="M 542.766959 126.084834 
L 980.159543 126.084834 
" clip-path="url(#peca6f92df5)" style="fill: none; stroke-dasharray: 3.7,1.6; stroke-dashoffset: 0; stroke: #dddddd; stroke-opacity: 0.3"/>
     </g>
     <g id="text_29">
      <!-- 0.8 -->
      <g style="fill: #262626" transform="translate(515.773521 130.263974) scale(0.11 -0.11)">
       <use xlink:href="#DejaVuSerif-30"/>
       <use xlink:href="#DejaVuSerif-2e" transform="translate(63.623047 0)"/>
       <use xlink:href="#DejaVuSerif-38" transform="translate(95.410156 0)"/>
      </g>
     </g>
    </g>
    <g id="ytick_12">
     <g id="line2d_28">
      <path d="M 542.766959 65.939359 
L 980.159543 65.939359 
" clip-path="url(#peca6f92df5)" style="fill: none; stroke-dasharray: 3.7,1.6; stroke-dashoffset: 0; stroke: #dddddd; stroke-opacity: 0.3"/>
     </g>
     <g id="text_30">
      <!-- 1.0 -->
      <g style="fill: #262626" transform="translate(515.773521 70.1185) scale(0.11 -0.11)">
       <use xlink:href="#DejaVuSerif-31"/>
       <use xlink:href="#DejaVuSerif-2e" transform="translate(63.623047 0)"/>
       <use xlink:href="#DejaVuSerif-30" transform="translate(95.410156 0)"/>
      </g>
     </g>
    </g>
    <g id="text_31">
     <!-- P(X ≤ x) -->
     <g style="fill: #262626" transform="translate(509.277896 241.852187) rotate(-90) scale(0.12 -0.12)">
      <use xlink:href="#DejaVuSerif-50"/>
      <use xlink:href="#DejaVuSerif-28" transform="translate(67.285156 0)"/>
      <use xlink:href="#DejaVuSerif-58" transform="translate(106.298828 0)"/>
      <use xlink:href="#DejaVuSerif-20" transform="translate(177.490234 0)"/>
      <use xlink:href="#DejaVuSerif-2264" transform="translate(209.277344 0)"/>
      <use xlink:href="#DejaVuSerif-20" transform="translate(293.066406 0)"/>
      <use xlink:href="#DejaVuSerif-78" transform="translate(324.853516 0)"/>
      <use xlink:href="#DejaVuSerif-29" transform="translate(381.25 0)"/>
     </g>
    </g>
   </g>
   <g id="line2d_29">
    <path d="M 562.64844 366.666733 
L 564.820578 332.584297 
L 564.820786 300.506711 
L 567.657255 299.838428 
L 568.144765 298.501862 
L 568.144924 297.833578 
L 568.277925 297.165295 
L 568.809919 296.497012 
L 568.809928 295.828729 
L 569.253238 295.160446 
L 569.387164 259.741444 
L 569.431498 259.073161 
L 569.697345 258.404878 
L 569.697442 256.400029 
L 570.272937 255.063463 
L 570.273925 254.39518 
L 570.40674 253.726897 
L 571.026595 253.058614 
L 571.47087 249.048916 
L 572.800843 247.044066 
L 572.800852 246.375783 
L 573.243266 245.7075 
L 573.24327 245.039217 
L 573.686575 243.702651 
L 573.687497 243.034368 
L 574.13082 242.366085 
L 574.130829 240.361236 
L 575.106288 239.692953 
L 575.149633 239.02467 
L 575.459831 238.356387 
L 575.904022 237.688104 
L 575.904217 236.351538 
L 576.346636 235.014971 
L 576.390974 234.346688 
L 576.746542 233.678405 
L 576.790867 232.341839 
L 577.234189 231.005273 
L 577.234198 229.668707 
L 579.096179 228.332141 
L 580.779867 227.663858 
L 581.224125 226.995575 
L 581.224213 226.327292 
L 581.667434 225.659009 
L 583.529583 224.990726 
L 583.840007 224.322443 
L 585.657463 223.65416 
L 585.657596 222.317593 
L 587.43094 221.64931 
L 587.874271 220.981027 
L 590.090831 220.312744 
L 590.09092 219.644461 
L 590.444725 218.976178 
L 592.306718 218.307895 
L 592.307503 217.639612 
L 592.927406 216.971329 
L 594.080027 216.303046 
L 596.740052 215.634763 
L 598.513325 214.96648 
L 599.932115 214.298197 
L 600.198117 213.629914 
L 600.598019 212.961631 
L 600.598019 212.293348 
L 600.730071 211.625065 
L 601.085688 210.956782 
L 601.130022 210.288498 
L 601.617616 209.620215 
L 601.706359 208.283649 
L 602.060093 207.615366 
L 602.060832 206.2788 
L 602.371363 205.610517 
L 602.50427 204.942234 
L 602.50427 204.273951 
L 602.814699 203.605668 
L 603.346791 202.937385 
L 603.391044 201.600819 
L 605.163453 200.932536 
L 606.051016 200.264253 
L 606.051016 199.59597 
L 606.49339 198.927687 
L 606.494294 197.59112 
L 606.93767 196.922837 
L 606.93767 196.254554 
L 607.824316 195.586271 
L 607.824404 194.917988 
L 609.641174 194.249705 
L 610.926817 193.581422 
L 615.360053 192.913139 
L 616.513781 192.244856 
L 617.533454 190.90829 
L 617.666455 190.240007 
L 618.153911 189.571724 
L 618.153911 188.903441 
L 618.331308 188.235158 
L 618.331397 187.566875 
L 620.635919 185.562026 
L 621.832838 184.893742 
L 622.011019 184.225459 
L 622.011019 183.557176 
L 622.587475 182.888893 
L 622.587475 182.22061 
L 622.764805 181.552327 
L 622.764894 180.884044 
L 623.251513 180.215761 
L 623.341102 179.547478 
L 624.227783 178.879195 
L 625.822938 178.210912 
L 626.444401 177.542629 
L 626.444401 176.874346 
L 626.886922 176.206063 
L 627.7744 175.53778 
L 634.424555 174.201214 
L 635.843231 172.864648 
L 636.109232 170.191515 
L 636.552568 168.854949 
L 636.81857 166.181817 
L 636.81857 165.513534 
L 637.084354 164.176968 
L 637.084403 160.835553 
L 637.306239 160.16727 
L 637.306239 158.830703 
L 637.527721 158.16242 
L 637.527721 157.494137 
L 637.793909 156.825854 
L 637.971133 154.821005 
L 638.414513 154.152722 
L 638.459002 152.147873 
L 638.857711 151.47959 
L 638.857711 150.811307 
L 639.301216 150.143024 
L 639.434252 149.474741 
L 639.744472 148.806458 
L 639.744561 148.138175 
L 640.32092 147.469891 
L 640.32092 146.801608 
L 641.074569 146.133325 
L 641.51786 145.465042 
L 641.517869 142.123627 
L 641.961179 141.455344 
L 641.961179 140.787061 
L 642.404546 140.118778 
L 642.404546 139.450495 
L 642.847798 138.782212 
L 642.847798 138.113929 
L 643.291156 137.445646 
L 643.335609 135.440797 
L 643.601611 134.772513 
L 643.734514 134.10423 
L 644.177783 133.435947 
L 644.177934 131.431098 
L 644.665617 130.762815 
L 645.507871 130.094532 
L 645.507871 129.426249 
L 648.611179 128.757966 
L 648.611179 128.089683 
L 649.941169 127.4214 
L 649.941169 126.753117 
L 655.305681 126.084834 
L 657.03466 125.416551 
L 661.467896 124.748268 
L 667.053185 124.079985 
L 669.003775 123.411702 
L 673.437046 122.743419 
L 675.698237 122.075135 
L 677.029145 121.406852 
L 677.560249 120.738569 
L 677.605482 120.070286 
L 677.870513 119.402003 
L 679.200552 118.73372 
L 679.201292 117.397154 
L 682.303771 116.728871 
L 682.39351 116.060588 
L 682.88118 115.392305 
L 683.633761 114.724022 
L 683.634665 113.387456 
L 684.521341 112.719173 
L 684.521341 112.05089 
L 688.378546 111.382607 
L 688.954715 110.714324 
L 688.954861 109.377757 
L 689.39732 108.709474 
L 690.283868 108.041191 
L 693.388092 107.372908 
L 694.717157 106.704625 
L 700.924955 106.036342 
L 701.456958 105.368059 
L 702.25479 104.699776 
L 702.25479 104.031493 
L 706.688159 103.36321 
L 706.688159 102.694927 
L 726.370567 102.026644 
L 726.637437 101.358361 
L 731.0707 100.690078 
L 743.662545 100.021795 
L 743.706879 99.353512 
L 745.214221 98.685229 
L 745.701683 98.016946 
L 745.701683 97.348662 
L 746.366895 96.680379 
L 746.588461 96.012096 
L 746.588461 95.343813 
L 750.135038 94.67553 
L 750.135038 94.007247 
L 751.021763 93.338964 
L 751.021763 92.670681 
L 758.469068 92.002398 
L 760.330938 91.334115 
L 764.764222 90.665832 
L 766.982019 89.997549 
L 767.026352 89.329266 
L 768.755172 88.660983 
L 768.755172 87.9927 
L 772.789623 87.324417 
L 773.188523 86.656134 
L 773.188537 85.319568 
L 777.621808 84.651284 
L 789.326153 83.983001 
L 789.41482 82.646435 
L 790.921995 81.978152 
L 790.922043 80.641586 
L 791.6315 79.973303 
L 795.355253 78.636737 
L 795.355341 77.300171 
L 798.015348 76.631888 
L 813.841561 75.963605 
L 815.748757 75.295322 
L 820.182047 74.627039 
L 886.904309 73.958756 
L 888.455879 73.290473 
L 892.889141 72.62219 
L 909.73621 71.953906 
L 910.090879 71.285623 
L 911.509417 70.61734 
L 911.509417 69.949057 
L 915.942706 69.280774 
L 915.942706 68.612491 
L 953.759378 67.944208 
L 955.842915 67.275925 
L 960.2762 66.607642 
L 960.2762 66.607642 
" clip-path="url(#peca6f92df5)" style="fill: none; stroke: #1f77b4; stroke-width: 2.5; stroke-linecap: round"/>
   </g>
   <g id="line2d_30">
    <path d="M 562.64844 366.666733 
L 564.820578 332.584297 
L 564.820786 300.506711 
L 566.861023 299.838428 
L 567.43736 299.170145 
L 568.723034 297.165295 
L 568.811702 295.828729 
L 569.253929 295.160446 
L 569.255011 261.746294 
L 569.743598 261.078011 
L 570.895381 260.409727 
L 571.028368 259.741444 
L 571.028381 259.073161 
L 571.784726 257.068312 
L 571.959343 256.400029 
L 572.361062 255.731746 
L 572.405396 255.063463 
L 572.579973 254.39518 
L 573.245039 253.726897 
L 573.247677 250.385482 
L 573.602403 249.717199 
L 573.688349 249.048916 
L 574.267407 248.380633 
L 574.397735 247.712349 
L 575.021016 247.044066 
L 575.021016 246.375783 
L 576.348409 244.370934 
L 576.392747 243.702651 
L 577.681054 243.034368 
L 577.681063 241.029519 
L 577.814095 240.361236 
L 578.301765 239.692953 
L 579.454363 239.02467 
L 579.454363 238.356387 
L 579.897765 237.688104 
L 579.897774 237.019821 
L 580.075109 236.351538 
L 580.740113 235.683255 
L 580.784433 233.678405 
L 582.735125 233.010122 
L 583.710464 232.341839 
L 583.887701 231.673556 
L 583.887701 231.005273 
L 584.331112 230.33699 
L 584.331117 229.668707 
L 585.217669 229.000424 
L 585.217758 228.332141 
L 588.321047 227.663858 
L 588.321047 226.995575 
L 591.865173 226.327292 
L 594.0818 222.985877 
L 596.741825 222.317593 
L 598.515098 220.981027 
L 599.18289 219.644461 
L 599.847761 218.976178 
L 599.847761 218.307895 
L 600.379897 217.639612 
L 600.421558 216.971329 
L 600.68756 216.303046 
L 600.731845 215.634763 
L 602.061866 214.96648 
L 602.06457 214.298197 
L 604.28113 213.629914 
L 604.28113 212.961631 
L 605.165227 212.293348 
L 606.495164 211.625065 
L 606.497801 210.956782 
L 609.509946 210.288498 
L 610.92859 209.620215 
L 615.361826 208.951932 
L 626.844384 208.283649 
L 626.888695 207.615366 
L 635.359108 206.2788 
L 635.580776 205.610517 
L 636.689116 204.942234 
L 637.088043 203.605668 
L 637.088043 202.937385 
L 637.442787 202.269102 
L 637.620121 200.264253 
L 637.974697 199.59597 
L 637.974697 198.927687 
L 638.285125 198.259404 
L 638.329459 197.59112 
L 638.861382 196.922837 
L 638.861382 196.254554 
L 641.521443 195.586271 
L 641.521443 194.917988 
L 641.964721 194.249705 
L 641.964721 193.581422 
L 642.408097 192.913139 
L 642.408097 192.244856 
L 643.294742 191.576573 
L 643.294742 190.90829 
L 643.427823 190.240007 
L 644.270161 189.571724 
L 645.511436 188.903441 
L 645.511436 188.235158 
L 649.94472 187.566875 
L 649.94472 186.898592 
L 658.54558 186.230309 
L 659.69817 184.893742 
L 659.698254 183.557176 
L 660.584895 182.888893 
L 664.131468 182.22061 
L 664.131468 181.552327 
L 665.018131 180.884044 
L 669.005548 179.547478 
L 669.894982 178.879195 
L 670.027983 178.210912 
L 670.870321 177.542629 
L 671.180656 176.874346 
L 671.357778 176.206063 
L 671.357778 175.53778 
L 671.535174 174.869497 
L 671.535174 174.201214 
L 672.421997 173.532931 
L 674.151008 171.528081 
L 674.993346 170.859798 
L 675.214885 170.191515 
L 675.214885 169.523232 
L 675.791342 168.854949 
L 675.791342 168.186666 
L 675.968672 167.518383 
L 675.968672 166.8501 
L 676.456355 166.181817 
L 676.544969 164.845251 
L 677.074352 164.176968 
L 677.872286 162.840402 
L 679.202325 162.172119 
L 679.648268 161.503836 
L 679.648268 160.835553 
L 680.978267 160.16727 
L 681.554719 158.830703 
L 682.305544 158.16242 
L 682.751526 157.494137 
L 682.751526 156.825854 
L 683.635534 156.157571 
L 687.1849 155.489288 
L 687.1849 154.821005 
L 690.285641 153.484439 
L 694.71893 152.816156 
L 705.982532 152.147873 
L 706.026866 151.47959 
L 706.558869 150.143024 
L 706.824871 147.469891 
L 707.401207 146.133325 
L 707.667209 143.460193 
L 707.933211 142.123627 
L 708.021661 140.787061 
L 708.021709 138.113929 
L 708.465028 137.445646 
L 708.465028 136.777363 
L 708.908439 136.10908 
L 708.997217 134.772513 
L 709.573554 134.10423 
L 709.795018 133.435947 
L 709.839555 131.431098 
L 710.238522 130.762815 
L 710.681779 128.757966 
L 711.258226 128.089683 
L 711.258226 127.4214 
L 712.011875 126.753117 
L 712.455167 126.084834 
L 712.455176 122.743419 
L 712.898485 122.075135 
L 712.898485 121.406852 
L 713.341852 120.738569 
L 713.341852 120.070286 
L 714.228462 119.402003 
L 714.228462 118.73372 
L 714.361583 118.065437 
L 714.893586 116.728871 
L 715.11509 116.060588 
L 715.115152 114.055739 
L 719.548485 113.387456 
L 719.548485 112.719173 
L 723.139635 112.05089 
L 724.425288 111.382607 
L 724.95464 110.714324 
L 726.63921 110.046041 
L 731.072473 108.709474 
L 735.952046 108.041191 
L 737.725208 106.704625 
L 737.725208 106.036342 
L 742.158581 105.368059 
L 742.158581 104.699776 
L 747.345781 104.031493 
L 748.143786 103.36321 
L 749.251917 102.694927 
L 749.251917 102.026644 
L 753.685273 101.358361 
L 753.685273 100.690078 
L 758.470842 100.021795 
L 760.332711 99.353512 
L 764.765995 98.685229 
L 771.152924 98.016946 
L 771.328477 97.348662 
L 772.482932 96.680379 
L 773.190399 96.012096 
L 773.192097 94.67553 
L 777.62367 94.007247 
L 777.625465 92.670681 
L 789.017583 92.002398 
L 790.923857 91.334115 
L 799.083092 89.997549 
L 800.679062 89.329266 
L 805.112271 88.660983 
L 814.243401 87.9927 
L 815.750619 87.324417 
L 815.752525 86.656134 
L 816.506197 85.987851 
L 817.525767 85.319568 
L 817.525767 84.651284 
L 820.183909 83.983001 
L 821.95907 83.314718 
L 821.95907 82.646435 
L 837.697657 81.978152 
L 839.382334 81.309869 
L 839.692479 80.641586 
L 839.692479 79.973303 
L 844.12583 79.30502 
L 844.12583 78.636737 
L 859.731456 77.968454 
L 861.416133 77.300171 
L 861.859349 76.631888 
L 861.859349 75.963605 
L 866.292647 75.295322 
L 866.292647 74.627039 
L 886.285501 73.958756 
L 888.457741 73.290473 
L 892.891003 72.62219 
L 924.05951 71.953906 
L 924.547179 71.285623 
L 925.699715 70.61734 
L 925.699715 69.949057 
L 930.133005 69.280774 
L 930.133005 68.612491 
L 954.293243 67.944208 
L 955.844777 67.275925 
L 960.278062 66.607642 
L 960.278062 66.607642 
" clip-path="url(#peca6f92df5)" style="fill: none; stroke: #d62728; stroke-width: 2.5; stroke-linecap: round"/>
   </g>
   <g id="patch_9">
    <path d="M 542.766959 381.669687 
L 542.766959 51.604687 
" style="fill: none; stroke: #000000; stroke-width: 1.5; stroke-linejoin: miter; stroke-linecap: square"/>
   </g>
   <g id="patch_10">
    <path d="M 980.159543 381.669687 
L 980.159543 51.604687 
" style="fill: none; stroke: #000000; stroke-width: 1.5; stroke-linejoin: miter; stroke-linecap: square"/>
   </g>
   <g id="patch_11">
    <path d="M 542.766959 381.669687 
L 980.159543 381.669687 
" style="fill: none; stroke: #000000; stroke-width: 1.5; stroke-linejoin: miter; stroke-linecap: square"/>
   </g>
   <g id="patch_12">
    <path d="M 542.766959 51.604687 
L 980.159543 51.604687 
" style="fill: none; stroke: #000000; stroke-width: 1.5; stroke-linejoin: miter; stroke-linecap: square"/>
   </g>
   <g id="text_32">
    <!-- CDF — Queuing Delay -->
    <g style="fill: #262626" transform="translate(693.82786 45.604687) scale(0.11 -0.11)">
     <defs>
      <path id="DejaVuSerif-Bold-51" d="M 2766 -91 
Q 1584 -72 926 565 
Q 269 1203 269 2328 
Q 269 3459 939 4104 
Q 1609 4750 2784 4750 
Q 3963 4750 4631 4106 
Q 5300 3463 5300 2328 
Q 5300 1334 4786 715 
Q 4272 97 3322 -50 
Q 3488 -228 3725 -306 
Q 3963 -384 4341 -384 
L 4500 -384 
L 4500 -1153 
L 4409 -1153 
Q 3816 -1153 3419 -897 
Q 3022 -641 2766 -91 
z
M 2784 288 
Q 3381 288 3672 791 
Q 3963 1294 3963 2328 
Q 3963 3366 3672 3869 
Q 3381 4372 2784 4372 
Q 2191 4372 1898 3864 
Q 1606 3356 1606 2328 
Q 1606 1303 1898 795 
Q 2191 288 2784 288 
z
" transform="scale(0.015625)"/>
      <path id="DejaVuSerif-Bold-75" d="M 3963 3322 
L 3963 378 
L 4434 378 
L 4434 0 
L 2853 0 
L 2853 469 
Q 2656 172 2400 40 
Q 2144 -91 1753 -91 
Q 1194 -91 908 239 
Q 622 569 622 1209 
L 622 2944 
L 147 2944 
L 147 3322 
L 1728 3322 
L 1728 1381 
Q 1728 763 1831 595 
Q 1934 428 2209 428 
Q 2544 428 2698 675 
Q 2853 922 2853 1459 
L 2853 2944 
L 2450 2944 
L 2450 3322 
L 3963 3322 
z
" transform="scale(0.015625)"/>
      <path id="DejaVuSerif-Bold-69" d="M 588 4263 
Q 588 4516 763 4689 
Q 938 4863 1191 4863 
Q 1438 4863 1611 4689 
Q 1784 4516 1784 4263 
Q 1784 4016 1611 3842 
Q 1438 3669 1191 3669 
Q 938 3669 763 3841 
Q 588 4013 588 4263 
z
M 1797 378 
L 2272 378 
L 2272 0 
L 219 0 
L 219 378 
L 691 378 
L 691 2944 
L 219 2944 
L 219 3322 
L 1797 3322 
L 1797 378 
z
" transform="scale(0.015625)"/>
      <path id="DejaVuSerif-Bold-6e" d="M 219 0 
L 219 378 
L 691 378 
L 691 2944 
L 219 2944 
L 219 3322 
L 1797 3322 
L 1797 2853 
Q 1997 3150 2253 3281 
Q 2509 3413 2900 3413 
Q 3459 3413 3745 3083 
Q 4031 2753 4031 2113 
L 4031 378 
L 4506 378 
L 4506 0 
L 2522 0 
L 2522 378 
L 2925 378 
L 2925 2144 
Q 2925 2566 2817 2730 
Q 2709 2894 2444 2894 
Q 2109 2894 1953 2648 
Q 1797 2403 1797 1869 
L 1797 378 
L 2203 378 
L 2203 0 
L 219 0 
z
" transform="scale(0.015625)"/>
      <path id="DejaVuSerif-Bold-67" d="M 3853 2944 
L 3853 44 
Q 3853 -656 3354 -1039 
Q 2856 -1422 1947 -1422 
Q 1616 -1422 1275 -1370 
Q 934 -1319 575 -1216 
L 575 -422 
L 928 -422 
Q 975 -750 1192 -909 
Q 1409 -1069 1813 -1069 
Q 2325 -1069 2536 -823 
Q 2747 -578 2747 44 
L 2747 422 
Q 2606 163 2367 36 
Q 2128 -91 1778 -91 
Q 1072 -91 667 378 
Q 263 847 263 1663 
Q 263 2481 667 2947 
Q 1072 3413 1778 3413 
Q 2128 3413 2367 3286 
Q 2606 3159 2747 2900 
L 2747 3322 
L 4325 3322 
L 4325 2944 
L 3853 2944 
z
M 2747 1825 
Q 2747 2406 2597 2665 
Q 2447 2925 2119 2925 
Q 1775 2925 1636 2651 
Q 1497 2378 1497 1663 
Q 1497 947 1637 672 
Q 1778 397 2119 397 
Q 2447 397 2597 656 
Q 2747 916 2747 1497 
L 2747 1825 
z
" transform="scale(0.015625)"/>
     </defs>
     <use xlink:href="#DejaVuSerif-Bold-43"/>
     <use xlink:href="#DejaVuSerif-Bold-44" transform="translate(79.589844 0)"/>
     <use xlink:href="#DejaVuSerif-Bold-46" transform="translate(166.308594 0)"/>
     <use xlink:href="#DejaVuSerif-Bold-20" transform="translate(237.304688 0)"/>
     <use xlink:href="#DejaVuSerif-Bold-2014" transform="translate(272.119141 0)"/>
     <use xlink:href="#DejaVuSerif-Bold-20" transform="translate(372.119141 0)"/>
     <use xlink:href="#DejaVuSerif-Bold-51" transform="translate(406.933594 0)"/>
     <use xlink:href="#DejaVuSerif-Bold-75" transform="translate(494.042969 0)"/>
     <use xlink:href="#DejaVuSerif-Bold-65" transform="translate(566.748047 0)"/>
     <use xlink:href="#DejaVuSerif-Bold-75" transform="translate(630.371094 0)"/>
     <use xlink:href="#DejaVuSerif-Bold-69" transform="translate(703.076172 0)"/>
     <use xlink:href="#DejaVuSerif-Bold-6e" transform="translate(741.064453 0)"/>
     <use xlink:href="#DejaVuSerif-Bold-67" transform="translate(813.769531 0)"/>
     <use xlink:href="#DejaVuSerif-Bold-20" transform="translate(883.691406 0)"/>
     <use xlink:href="#DejaVuSerif-Bold-44" transform="translate(918.505859 0)"/>
     <use xlink:href="#DejaVuSerif-Bold-65" transform="translate(1005.224609 0)"/>
     <use xlink:href="#DejaVuSerif-Bold-6c" transform="translate(1068.847656 0)"/>
     <use xlink:href="#DejaVuSerif-Bold-61" transform="translate(1106.835938 0)"/>
     <use xlink:href="#DejaVuSerif-Bold-79" transform="translate(1171.630859 0)"/>
    </g>
   </g>
   <g id="legend_2">
    <g id="patch_13">
     <path d="M 550.466959 92.696562 
L 612.140865 92.696562 
Q 614.340865 92.696562 614.340865 90.496562 
L 614.340865 59.304687 
Q 614.340865 57.104687 612.140865 57.104687 
L 550.466959 57.104687 
Q 548.266959 57.104687 548.266959 59.304687 
L 548.266959 90.496562 
Q 548.266959 92.696562 550.466959 92.696562 
z
" style="fill: #ffffff; opacity: 0.8; stroke: #cccccc; stroke-linejoin: miter"/>
    </g>
    <g id="line2d_31">
     <path d="M 552.666959 66.012969 
L 563.666959 66.012969 
L 574.666959 66.012969 
" style="fill: none; stroke: #1f77b4; stroke-width: 2.5; stroke-linecap: round"/>
    </g>
    <g id="text_33">
     <!-- BLA -->
     <g style="fill: #262626" transform="translate(583.466959 69.862969) scale(0.11 -0.11)">
      <use xlink:href="#DejaVuSerif-42"/>
      <use xlink:href="#DejaVuSerif-4c" transform="translate(73.486328 0)"/>
      <use xlink:href="#DejaVuSerif-41" transform="translate(139.892578 0)"/>
     </g>
    </g>
    <g id="line2d_32">
     <path d="M 552.666959 82.158906 
L 563.666959 82.158906 
L 574.666959 82.158906 
" style="fill: none; stroke: #d62728; stroke-width: 2.5; stroke-linecap: round"/>
    </g>
    <g id="text_34">
     <!-- First -->
     <g style="fill: #262626" transform="translate(583.466959 86.008906) scale(0.11 -0.11)">
      <use xlink:href="#DejaVuSerif-46"/>
      <use xlink:href="#DejaVuSerif-69" transform="translate(69.384766 0)"/>
      <use xlink:href="#DejaVuSerif-72" transform="translate(101.367188 0)"/>
      <use xlink:href="#DejaVuSerif-73" transform="translate(149.169922 0)"/>
      <use xlink:href="#DejaVuSerif-74" transform="translate(200.488281 0)"/>
     </g>
    </g>
   </g>
  </g>
  <g id="text_35">
   <!-- Fig 3: Delay CDF — dataset-mini -->
   <g style="fill: #262626" transform="translate(380.212188 17.077969) scale(0.13 -0.13)">
    <defs>
     <path id="DejaVuSerif-Bold-33" d="M 550 4531 
Q 963 4641 1350 4695 
Q 1738 4750 2106 4750 
Q 2950 4750 3401 4448 
Q 3853 4147 3853 3584 
Q 3853 3163 3593 2900 
Q 3334 2638 2834 2547 
Q 3444 2450 3744 2131 
Q 4044 1813 4044 1259 
Q 4044 606 3526 257 
Q 3009 -91 2028 -91 
Q 1659 -91 1267 -28 
Q 875 34 447 159 
L 447 1184 
L 825 1184 
Q 859 741 1103 508 
Q 1347 275 1778 275 
Q 2253 275 2512 539 
Q 2772 803 2772 1288 
Q 2772 1794 2501 2069 
Q 2231 2344 1734 2344 
L 1528 2344 
L 1528 2719 
L 1691 2719 
Q 2150 2719 2381 2931 
Q 2613 3144 2613 3566 
Q 2613 3963 2395 4173 
Q 2178 4384 1772 4384 
Q 1403 4384 1187 4182 
Q 972 3981 928 3597 
L 550 3597 
L 550 4531 
z
" transform="scale(0.015625)"/>
     <path id="DejaVuSerif-Bold-3a" d="M 588 2541 
Q 588 2788 761 2963 
Q 934 3138 1178 3138 
Q 1422 3138 1597 2961 
Q 1772 2784 1772 2541 
Q 1772 2297 1598 2125 
Q 1425 1953 1178 1953 
Q 931 1953 759 2125 
Q 588 2297 588 2541 
z
M 588 506 
Q 588 750 761 925 
Q 934 1100 1178 1100 
Q 1422 1100 1597 925 
Q 1772 750 1772 506 
Q 1772 259 1597 84 
Q 1422 -91 1178 -91 
Q 934 -91 761 84 
Q 588 259 588 506 
z
" transform="scale(0.015625)"/>
     <path id="DejaVuSerif-Bold-64" d="M 2747 1497 
L 2747 1825 
Q 2747 2406 2597 2665 
Q 2447 2925 2119 2925 
Q 1775 2925 1636 2651 
Q 1497 2378 1497 1663 
Q 1497 947 1637 672 
Q 1778 397 2119 397 
Q 2447 397 2597 656 
Q 2747 916 2747 1497 
z
M 3853 378 
L 4325 378 
L 4325 0 
L 2747 0 
L 2747 422 
Q 2606 163 2367 36 
Q 2128 -91 1778 -91 
Q 1072 -91 667 378 
Q 263 847 263 1663 
Q 263 2481 667 2947 
Q 1072 3413 1778 3413 
Q 2128 3413 2367 3286 
Q 2606 3159 2747 2900 
L 2747 4488 
L 2272 4488 
L 2272 4863 
L 3853 4863 
L 3853 378 
z
" transform="scale(0.015625)"/>
     <path id="DejaVuSerif-Bold-73" d="M 300 97 
L 300 1025 
L 653 1025 
Q 697 653 931 458 
Q 1166 263 1569 263 
Q 1906 263 2086 380 
Q 2266 497 2266 716 
Q 2266 916 2152 1025 
Q 2038 1134 1709 1216 
L 1253 1331 
Q 738 1459 506 1698 
Q 275 1938 275 2344 
Q 275 2884 650 3148 
Q 1025 3413 1806 3413 
Q 2100 3413 2433 3364 
Q 2766 3316 3169 3213 
L 3169 2375 
L 2816 2375 
Q 2788 2716 2573 2887 
Q 2359 3059 1959 3059 
Q 1622 3059 1448 2951 
Q 1275 2844 1275 2638 
Q 1275 2469 1375 2372 
Q 1475 2275 1734 2209 
L 2188 2094 
Q 2841 1928 3091 1684 
Q 3341 1441 3341 1006 
Q 3341 444 2939 176 
Q 2538 -91 1691 -91 
Q 1381 -91 1034 -44 
Q 688 3 300 97 
z
" transform="scale(0.015625)"/>
     <path id="DejaVuSerif-Bold-2d" d="M 347 2138 
L 2309 2138 
L 2309 1294 
L 347 1294 
L 347 2138 
z
" transform="scale(0.015625)"/>
     <path id="DejaVuSerif-Bold-6d" d="M 3884 2778 
Q 4116 3109 4384 3261 
Q 4653 3413 5013 3413 
Q 5584 3413 5867 3089 
Q 6150 2766 6150 2113 
L 6150 378 
L 6625 378 
L 6625 0 
L 4647 0 
L 4647 378 
L 5044 378 
L 5044 1947 
Q 5044 2569 4948 2731 
Q 4853 2894 4594 2894 
Q 4300 2894 4137 2667 
Q 3975 2441 3975 2022 
L 3975 378 
L 4372 378 
L 4372 0 
L 2472 0 
L 2472 378 
L 2869 378 
L 2869 1947 
Q 2869 2569 2772 2731 
Q 2675 2894 2419 2894 
Q 2122 2894 1959 2667 
Q 1797 2441 1797 2022 
L 1797 378 
L 2194 378 
L 2194 0 
L 219 0 
L 219 378 
L 691 378 
L 691 2944 
L 219 2944 
L 219 3322 
L 1797 3322 
L 1797 2853 
Q 1991 3144 2241 3278 
Q 2491 3413 2834 3413 
Q 3241 3413 3494 3258 
Q 3747 3103 3884 2778 
z
" transform="scale(0.015625)"/>
    </defs>
    <use xlink:href="#DejaVuSerif-Bold-46"/>
    <use xlink:href="#DejaVuSerif-Bold-69" transform="translate(70.996094 0)"/>
    <use xlink:href="#DejaVuSerif-Bold-67" transform="translate(108.984375 0)"/>
    <use xlink:href="#DejaVuSerif-Bold-20" transform="translate(178.90625 0)"/>
    <use xlink:href="#DejaVuSerif-Bold-33" transform="translate(213.720703 0)"/>
    <use xlink:href="#DejaVuSerif-Bold-3a" transform="translate(283.300781 0)"/>
    <use xlink:href="#DejaVuSerif-Bold-20" transform="translate(320.214844 0)"/>
    <use xlink:href="#DejaVuSerif-Bold-44" transform="translate(355.029297 0)"/>
    <use xlink:href="#DejaVuSerif-Bold-65" transform="translate(441.748047 0)"/>
    <use xlink:href="#DejaVuSerif-Bold-6c" transform="translate(505.371094 0)"/>
    <use xlink:href="#DejaVuSerif-Bold-61" transform="translate(543.359375 0)"/>
    <use xlink:href="#DejaVuSerif-Bold-79" transform="translate(608.154297 0)"/>
    <use xlink:href="#DejaVuSerif-Bold-20" transform="translate(666.259766 0)"/>
    <use xlink:href="#DejaVuSerif-Bold-43" transform="translate(701.074219 0)"/>
    <use xlink:href="#DejaVuSerif-Bold-44" transform="translate(780.664062 0)"/>
    <use xlink:href="#DejaVuSerif-Bold-46" transform="translate(867.382812 0)"/>
    <use xlink:href="#DejaVuSerif-Bold-20" transform="translate(938.378906 0)"/>
    <use xlink:href="#DejaVuSerif-Bold-2014" transform="translate(973.193359 0)"/>
    <use xlink:href="#DejaVuSerif-Bold-20" transform="translate(1073.193359 0)"/>
    <use xlink:href="#DejaVuSerif-Bold-64" transform="translate(1108.007812 0)"/>
    <use xlink:href="#DejaVuSerif-Bold-61" transform="translate(1177.929688 0)"/>
    <use xlink:href="#DejaVuSerif-Bold-74" transform="translate(1242.724609 0)"/>
    <use xlink:href="#DejaVuSerif-Bold-61" transform="translate(1288.916016 0)"/>
    <use xlink:href="#DejaVuSerif-Bold-73" transform="translate(1353.710938 0)"/>
    <use xlink:href="#DejaVuSerif-Bold-65" transform="translate(1410.009766 0)"/>
    <use xlink:href="#DejaVuSerif-Bold-74" transform="translate(1473.632812 0)"/>
    <use xlink:href="#DejaVuSerif-Bold-2d" transform="translate(1519.824219 0)"/>
    <use xlink:href="#DejaVuSerif-Bold-6d" transform="translate(1561.328125 0)"/>
    <use xlink:href="#DejaVuSerif-Bold-69" transform="translate(1667.138672 0)"/>
    <use xlink:href="#DejaVuSerif-Bold-6e" transform="translate(1705.126953 0)"/>
    <use xlink:href="#DejaVuSerif-Bold-69" transform="translate(1777.832031 0)"/>
   </g>
  </g>
 </g>
 <defs>
  <clipPath id="pae6eb76b50">
   <rect x="49.807187" y="51.604687" width="437.392584" height="330.065"/>
  </clipPath>
  <clipPath id="peca6f92df5">
   <rect x="542.766959" y="51.604687" width="437.392584" height="330.065"/>
  </clipPath>
 </defs>
</svg>
