<?xml version="1.0" encoding="utf-8" standalone="no"?>
<!DOCTYPE svg PUBLIC "-//W3C//DTD SVG 1.1//EN"
  "http://www.w3.org/Graphics/SVG/1.1/DTD/svg11.dtd">
<svg xmlns:xlink="http://www.w3.org/1999/xlink" width="1284.48pt" height="424.8pt" viewBox="0 0 1284.48 424.8" xmlns="http://www.w3.org/2000/svg" version="1.1">
 <metadata>
  <rdf:RDF xmlns:dc="http://purl.org/dc/elements/1.1/" xmlns:cc="http://creativecommons.org/ns#" xmlns:rdf="http://www.w3.org/1999/02/22-rdf-syntax-ns#">
   <cc:Work>
    <dc:type rdf:resource="http://purl.org/dc/dcmitype/StillImage"/>
    <dc:date>2026-05-02T16:12:58.414452</dc:date>
    <dc:format>image/svg+xml</dc:format>
    <dc:creator>
     <cc:Agent>
      <dc:title>Matplotlib v3.10.7, https://matplotlib.org/</dc:title>
     </cc:Agent>
    </dc:creator>
   </cc:Work>
  </rdf:RDF>
 </metadata>
 <defs>
  <style type="text/css">*{stroke-linejoin: round; stroke-linecap: butt}</style>
 </defs>
 <g id="figure_1">
  <g id="patch_1">
   <path d="M 0 424.8 
L 1284.48 424.8 
L 1284.48 0 
L 0 0 
z
" style="fill: #ffffff"/>
  </g>
  <g id="axes_1">
   <g id="patch_2">
    <path d="M 51.69375 381.669687 
L 421.92 381.669687 
L 421.92 65.060719 
L 51.69375 65.060719 
z
" style="fill: #ffffff"/>
   </g>
   <g id="matplotlib.axis_1">
    <g id="xtick_1">
     <g id="line2d_1">
      <path d="M 143.315398 381.669687 
L 143.315398 65.060719 
" clip-path="url(#p7fb7c86195)" style="fill: none; stroke-dasharray: 3.7,1.6; stroke-dashoffset: 0; stroke: #dddddd; stroke-opacity: 0.7"/>
     </g>
     <g id="text_1">
      <!-- First -->
      <g style="fill: #262626" transform="translate(130.078445 399.527969) scale(0.11 -0.11)">
       <defs>
        <path id="DejaVuSerif-46" d="M 353 0 
L 353 331 
L 947 331 
L 947 4331 
L 353 4331 
L 353 4666 
L 4172 4666 
L 4172 3628 
L 3788 3628 
L 3788 4281 
L 1581 4281 
L 1581 2719 
L 3175 2719 
L 3175 3303 
L 3559 3303 
L 3559 1753 
L 3175 1753 
L 3175 2338 
L 1581 2338 
L 1581 331 
L 2328 331 
L 2328 0 
L 353 0 
z
" transform="scale(0.015625)"/>
        <path id="DejaVuSerif-69" d="M 622 4353 
Q 622 4497 726 4603 
Q 831 4709 978 4709 
Q 1122 4709 1226 4603 
Q 1331 4497 1331 4353 
Q 1331 4206 1228 4103 
Q 1125 4000 978 4000 
Q 831 4000 726 4103 
Q 622 4206 622 4353 
z
M 1356 331 
L 1900 331 
L 1900 0 
L 231 0 
L 231 331 
L 781 331 
L 781 2988 
L 231 2988 
L 231 3322 
L 1356 3322 
L 1356 331 
z
" transform="scale(0.015625)"/>
        <path id="DejaVuSerif-72" d="M 3059 3328 
L 3059 2497 
L 2728 2497 
Q 2713 2744 2591 2866 
Q 2469 2988 2234 2988 
Q 1809 2988 1582 2694 
Q 1356 2400 1356 1850 
L 1356 331 
L 2022 331 
L 2022 0 
L 263 0 
L 263 331 
L 781 331 
L 781 2994 
L 231 2994 
L 231 3322 
L 1356 3322 
L 1356 2731 
Q 1525 3078 1790 3245 
Q 2056 3413 2438 3413 
Q 2578 3413 2733 3391 
Q 2888 3369 3059 3328 
z
" transform="scale(0.015625)"/>
        <path id="DejaVuSerif-73" d="M 359 184 
L 359 959 
L 691 959 
Q 703 588 923 403 
Q 1144 219 1575 219 
Q 1963 219 2166 364 
Q 2369 509 2369 788 
Q 2369 1006 2220 1140 
Q 2072 1275 1594 1428 
L 1178 1569 
Q 750 1706 558 1912 
Q 366 2119 366 2438 
Q 366 2894 700 3153 
Q 1034 3413 1625 3413 
Q 1888 3413 2178 3344 
Q 2469 3275 2778 3144 
L 2778 2419 
L 2447 2419 
Q 2434 2741 2221 2922 
Q 2009 3103 1644 3103 
Q 1281 3103 1095 2975 
Q 909 2847 909 2591 
Q 909 2381 1050 2254 
Q 1191 2128 1613 1997 
L 2069 1856 
Q 2541 1709 2748 1489 
Q 2956 1269 2956 922 
Q 2956 450 2595 179 
Q 2234 -91 1600 -91 
Q 1278 -91 972 -22 
Q 666 47 359 184 
z
" transform="scale(0.015625)"/>
        <path id="DejaVuSerif-74" d="M 691 2988 
L 184 2988 
L 184 3322 
L 691 3322 
L 691 4353 
L 1269 4353 
L 1269 3322 
L 2350 3322 
L 2350 2988 
L 1269 2988 
L 1269 878 
Q 1269 456 1350 337 
Q 1431 219 1650 219 
Q 1875 219 1978 351 
Q 2081 484 2088 781 
L 2522 781 
Q 2497 328 2275 118 
Q 2053 -91 1600 -91 
Q 1103 -91 897 129 
Q 691 350 691 878 
L 691 2988 
z
" transform="scale(0.015625)"/>
       </defs>
       <use xlink:href="#DejaVuSerif-46"/>
       <use xlink:href="#DejaVuSerif-69" transform="translate(69.384766 0)"/>
       <use xlink:href="#DejaVuSerif-72" transform="translate(101.367188 0)"/>
       <use xlink:href="#DejaVuSerif-73" transform="translate(149.169922 0)"/>
       <use xlink:href="#DejaVuSerif-74" transform="translate(200.488281 0)"/>
      </g>
     </g>
    </g>
    <g id="xtick_2">
     <g id="line2d_2">
      <path d="M 330.298352 381.669687 
L 330.298352 65.060719 
" clip-path="url(#p7fb7c86195)" style="fill: none; stroke-dasharray: 3.7,1.6; stroke-dashoffset: 0; stroke: #dddddd; stroke-opacity: 0.7"/>
     </g>
     <g id="text_2">
      <!-- BLA -->
      <g style="fill: #262626" transform="translate(318.632337 399.527969) scale(0.11 -0.11)">
       <defs>
        <path id="DejaVuSerif-42" d="M 1581 331 
L 2516 331 
Q 3078 331 3337 575 
Q 3597 819 3597 1350 
Q 3597 1878 3339 2120 
Q 3081 2363 2516 2363 
L 1581 2363 
L 1581 331 
z
M 1581 2694 
L 2375 2694 
Q 2888 2694 3123 2891 
Q 3359 3088 3359 3513 
Q 3359 3941 3123 4136 
Q 2888 4331 2375 4331 
L 1581 4331 
L 1581 2694 
z
M 353 0 
L 353 331 
L 947 331 
L 947 4331 
L 353 4331 
L 353 4666 
L 2656 4666 
Q 3363 4666 3720 4377 
Q 4078 4088 4078 3513 
Q 4078 3097 3829 2850 
Q 3581 2603 3103 2547 
Q 3697 2472 4005 2167 
Q 4313 1863 4313 1350 
Q 4313 656 3875 328 
Q 3438 0 2509 0 
L 353 0 
z
" transform="scale(0.015625)"/>
        <path id="DejaVuSerif-4c" d="M 353 0 
L 353 331 
L 947 331 
L 947 4331 
L 353 4331 
L 353 4666 
L 2175 4666 
L 2175 4331 
L 1581 4331 
L 1581 384 
L 3713 384 
L 3713 1166 
L 4097 1166 
L 4097 0 
L 353 0 
z
" transform="scale(0.015625)"/>
        <path id="DejaVuSerif-41" d="M 1281 1691 
L 2994 1691 
L 2138 3909 
L 1281 1691 
z
M -38 0 
L -38 331 
L 372 331 
L 2034 4666 
L 2559 4666 
L 4225 331 
L 4684 331 
L 4684 0 
L 2988 0 
L 2988 331 
L 3506 331 
L 3116 1356 
L 1153 1356 
L 763 331 
L 1275 331 
L 1275 0 
L -38 0 
z
" transform="scale(0.015625)"/>
       </defs>
       <use xlink:href="#DejaVuSerif-42"/>
       <use xlink:href="#DejaVuSerif-4c" transform="translate(73.486328 0)"/>
       <use xlink:href="#DejaVuSerif-41" transform="translate(139.892578 0)"/>
      </g>
     </g>
    </g>
    <g id="text_3">
     <!-- Routing Policy -->
     <g style="fill: #262626" transform="translate(192.872813 414.93375) scale(0.12 -0.12)">
      <defs>
       <path id="DejaVuSerif-52" d="M 3066 2316 
Q 3284 2256 3442 2114 
Q 3600 1972 3725 1716 
L 4403 331 
L 4972 331 
L 4972 0 
L 3872 0 
L 3144 1484 
Q 2934 1916 2759 2042 
Q 2584 2169 2278 2169 
L 1581 2169 
L 1581 331 
L 2241 331 
L 2241 0 
L 353 0 
L 353 331 
L 947 331 
L 947 4331 
L 353 4331 
L 353 4666 
L 2719 4666 
Q 3400 4666 3770 4341 
Q 4141 4016 4141 3419 
Q 4141 2938 3870 2661 
Q 3600 2384 3066 2316 
z
M 1581 2503 
L 2503 2503 
Q 2975 2503 3200 2726 
Q 3425 2950 3425 3419 
Q 3425 3888 3200 4109 
Q 2975 4331 2503 4331 
L 1581 4331 
L 1581 2503 
z
" transform="scale(0.015625)"/>
       <path id="DejaVuSerif-6f" d="M 1925 219 
Q 2388 219 2623 584 
Q 2859 950 2859 1663 
Q 2859 2375 2623 2739 
Q 2388 3103 1925 3103 
Q 1463 3103 1227 2739 
Q 991 2375 991 1663 
Q 991 950 1228 584 
Q 1466 219 1925 219 
z
M 1925 -91 
Q 1200 -91 759 389 
Q 319 869 319 1663 
Q 319 2456 758 2934 
Q 1197 3413 1925 3413 
Q 2653 3413 3092 2934 
Q 3531 2456 3531 1663 
Q 3531 869 3092 389 
Q 2653 -91 1925 -91 
z
" transform="scale(0.015625)"/>
       <path id="DejaVuSerif-75" d="M 2266 3322 
L 3341 3322 
L 3341 331 
L 3884 331 
L 3884 0 
L 2766 0 
L 2766 588 
Q 2606 256 2353 82 
Q 2100 -91 1766 -91 
Q 1213 -91 952 223 
Q 691 538 691 1209 
L 691 2988 
L 172 2988 
L 172 3322 
L 1269 3322 
L 1269 1388 
Q 1269 781 1417 556 
Q 1566 331 1947 331 
Q 2347 331 2556 625 
Q 2766 919 2766 1478 
L 2766 2988 
L 2266 2988 
L 2266 3322 
z
" transform="scale(0.015625)"/>
       <path id="DejaVuSerif-6e" d="M 263 0 
L 263 331 
L 781 331 
L 781 2988 
L 231 2988 
L 231 3322 
L 1356 3322 
L 1356 2731 
Q 1516 3069 1770 3241 
Q 2025 3413 2363 3413 
Q 2913 3413 3172 3097 
Q 3431 2781 3431 2113 
L 3431 331 
L 3944 331 
L 3944 0 
L 2356 0 
L 2356 331 
L 2853 331 
L 2853 1931 
Q 2853 2541 2703 2767 
Q 2553 2994 2175 2994 
Q 1775 2994 1565 2701 
Q 1356 2409 1356 1850 
L 1356 331 
L 1856 331 
L 1856 0 
L 263 0 
z
" transform="scale(0.015625)"/>
       <path id="DejaVuSerif-67" d="M 3359 2988 
L 3359 72 
Q 3359 -644 2965 -1033 
Q 2572 -1422 1844 -1422 
Q 1516 -1422 1216 -1362 
Q 916 -1303 641 -1184 
L 641 -488 
L 941 -488 
Q 997 -813 1206 -963 
Q 1416 -1113 1806 -1113 
Q 2313 -1113 2548 -827 
Q 2784 -541 2784 72 
L 2784 519 
Q 2616 206 2355 57 
Q 2094 -91 1709 -91 
Q 1097 -91 708 395 
Q 319 881 319 1663 
Q 319 2444 706 2928 
Q 1094 3413 1709 3413 
Q 2094 3413 2355 3264 
Q 2616 3116 2784 2803 
L 2784 3322 
L 3909 3322 
L 3909 2988 
L 3359 2988 
z
M 2784 1825 
Q 2784 2422 2554 2737 
Q 2325 3053 1888 3053 
Q 1444 3053 1217 2703 
Q 991 2353 991 1663 
Q 991 975 1217 622 
Q 1444 269 1888 269 
Q 2325 269 2554 583 
Q 2784 897 2784 1497 
L 2784 1825 
z
" transform="scale(0.015625)"/>
       <path id="DejaVuSerif-20" transform="scale(0.015625)"/>
       <path id="DejaVuSerif-50" d="M 1581 2375 
L 2406 2375 
Q 2872 2375 3115 2626 
Q 3359 2878 3359 3353 
Q 3359 3831 3115 4081 
Q 2872 4331 2406 4331 
L 1581 4331 
L 1581 2375 
z
M 353 0 
L 353 331 
L 947 331 
L 947 4331 
L 353 4331 
L 353 4666 
L 2559 4666 
Q 3259 4666 3668 4311 
Q 4078 3956 4078 3353 
Q 4078 2753 3668 2397 
Q 3259 2041 2559 2041 
L 1581 2041 
L 1581 331 
L 2303 331 
L 2303 0 
L 353 0 
z
" transform="scale(0.015625)"/>
       <path id="DejaVuSerif-6c" d="M 1313 331 
L 1856 331 
L 1856 0 
L 184 0 
L 184 331 
L 738 331 
L 738 4531 
L 184 4531 
L 184 4863 
L 1313 4863 
L 1313 331 
z
" transform="scale(0.015625)"/>
       <path id="DejaVuSerif-63" d="M 3291 997 
Q 3169 466 2822 187 
Q 2475 -91 1925 -91 
Q 1200 -91 759 389 
Q 319 869 319 1663 
Q 319 2459 759 2936 
Q 1200 3413 1925 3413 
Q 2241 3413 2553 3339 
Q 2866 3266 3181 3116 
L 3181 2266 
L 2847 2266 
Q 2781 2703 2561 2903 
Q 2341 3103 1931 3103 
Q 1466 3103 1228 2742 
Q 991 2381 991 1663 
Q 991 944 1227 581 
Q 1463 219 1931 219 
Q 2303 219 2525 412 
Q 2747 606 2828 997 
L 3291 997 
z
" transform="scale(0.015625)"/>
       <path id="DejaVuSerif-79" d="M 1381 -609 
L 1600 -56 
L 359 2988 
L -19 2988 
L -19 3322 
L 1509 3322 
L 1509 2988 
L 978 2988 
L 1913 703 
L 2847 2988 
L 2350 2988 
L 2350 3322 
L 3597 3322 
L 3597 2988 
L 3225 2988 
L 1703 -750 
Q 1547 -1138 1356 -1280 
Q 1166 -1422 819 -1422 
Q 672 -1422 517 -1397 
Q 363 -1372 206 -1325 
L 206 -691 
L 500 -691 
Q 519 -903 608 -995 
Q 697 -1088 884 -1088 
Q 1056 -1088 1161 -992 
Q 1266 -897 1381 -609 
z
" transform="scale(0.015625)"/>
      </defs>
      <use xlink:href="#DejaVuSerif-52"/>
      <use xlink:href="#DejaVuSerif-6f" transform="translate(75.292969 0)"/>
      <use xlink:href="#DejaVuSerif-75" transform="translate(135.498047 0)"/>
      <use xlink:href="#DejaVuSerif-74" transform="translate(199.902344 0)"/>
      <use xlink:href="#DejaVuSerif-69" transform="translate(240.087891 0)"/>
      <use xlink:href="#DejaVuSerif-6e" transform="translate(272.070312 0)"/>
      <use xlink:href="#DejaVuSerif-67" transform="translate(336.474609 0)"/>
      <use xlink:href="#DejaVuSerif-20" transform="translate(400.488281 0)"/>
      <use xlink:href="#DejaVuSerif-50" transform="translate(432.275391 0)"/>
      <use xlink:href="#DejaVuSerif-6f" transform="translate(495.560547 0)"/>
      <use xlink:href="#DejaVuSerif-6c" transform="translate(555.765625 0)"/>
      <use xlink:href="#DejaVuSerif-69" transform="translate(587.748047 0)"/>
      <use xlink:href="#DejaVuSerif-63" transform="translate(619.730469 0)"/>
      <use xlink:href="#DejaVuSerif-79" transform="translate(675.736328 0)"/>
     </g>
    </g>
   </g>
   <g id="matplotlib.axis_2">
    <g id="ytick_1">
     <g id="line2d_3">
      <path d="M 51.69375 381.669687 
L 421.92 381.669687 
" clip-path="url(#p7fb7c86195)" style="fill: none; stroke-dasharray: 3.7,1.6; stroke-dashoffset: 0; stroke: #dddddd; stroke-opacity: 0.7"/>
     </g>
     <g id="text_4">
      <!-- 0 -->
      <g style="fill: #262626" transform="translate(35.195 385.848828) scale(0.11 -0.11)">
       <defs>
        <path id="DejaVuSerif-30" d="M 2034 219 
Q 2513 219 2750 744 
Q 2988 1269 2988 2328 
Q 2988 3391 2750 3916 
Q 2513 4441 2034 4441 
Q 1556 4441 1318 3916 
Q 1081 3391 1081 2328 
Q 1081 1269 1318 744 
Q 1556 219 2034 219 
z
M 2034 -91 
Q 1275 -91 848 546 
Q 422 1184 422 2328 
Q 422 3475 848 4112 
Q 1275 4750 2034 4750 
Q 2797 4750 3222 4112 
Q 3647 3475 3647 2328 
Q 3647 1184 3222 546 
Q 2797 -91 2034 -91 
z
" transform="scale(0.015625)"/>
       </defs>
       <use xlink:href="#DejaVuSerif-30"/>
      </g>
     </g>
    </g>
    <g id="ytick_2">
     <g id="line2d_4">
      <path d="M 51.69375 342.752674 
L 421.92 342.752674 
" clip-path="url(#p7fb7c86195)" style="fill: none; stroke-dasharray: 3.7,1.6; stroke-dashoffset: 0; stroke: #dddddd; stroke-opacity: 0.7"/>
     </g>
     <g id="text_5">
      <!-- 5000 -->
      <g style="fill: #262626" transform="translate(14.19875 346.931815) scale(0.11 -0.11)">
       <defs>
        <path id="DejaVuSerif-35" d="M 3219 4666 
L 3219 4153 
L 1081 4153 
L 1081 2816 
Q 1244 2928 1461 2984 
Q 1678 3041 1947 3041 
Q 2703 3041 3140 2622 
Q 3578 2203 3578 1478 
Q 3578 738 3136 323 
Q 2694 -91 1894 -91 
Q 1572 -91 1234 -12 
Q 897 66 544 225 
L 544 1131 
L 897 1131 
Q 925 688 1179 453 
Q 1434 219 1894 219 
Q 2388 219 2653 544 
Q 2919 869 2919 1478 
Q 2919 2084 2655 2407 
Q 2391 2731 1894 2731 
Q 1613 2731 1398 2631 
Q 1184 2531 1019 2322 
L 750 2322 
L 750 4666 
L 3219 4666 
z
" transform="scale(0.015625)"/>
       </defs>
       <use xlink:href="#DejaVuSerif-35"/>
       <use xlink:href="#DejaVuSerif-30" transform="translate(63.623047 0)"/>
       <use xlink:href="#DejaVuSerif-30" transform="translate(127.246094 0)"/>
       <use xlink:href="#DejaVuSerif-30" transform="translate(190.869141 0)"/>
      </g>
     </g>
    </g>
    <g id="ytick_3">
     <g id="line2d_5">
      <path d="M 51.69375 303.835661 
L 421.92 303.835661 
" clip-path="url(#p7fb7c86195)" style="fill: none; stroke-dasharray: 3.7,1.6; stroke-dashoffset: 0; stroke: #dddddd; stroke-opacity: 0.7"/>
     </g>
     <g id="text_6">
      <!-- 10000 -->
      <g style="fill: #262626" transform="translate(7.2 308.014802) scale(0.11 -0.11)">
       <defs>
        <path id="DejaVuSerif-31" d="M 909 0 
L 909 331 
L 1722 331 
L 1722 4213 
L 781 3603 
L 781 4013 
L 1919 4750 
L 2350 4750 
L 2350 331 
L 3163 331 
L 3163 0 
L 909 0 
z
" transform="scale(0.015625)"/>
       </defs>
       <use xlink:href="#DejaVuSerif-31"/>
       <use xlink:href="#DejaVuSerif-30" transform="translate(63.623047 0)"/>
       <use xlink:href="#DejaVuSerif-30" transform="translate(127.246094 0)"/>
       <use xlink:href="#DejaVuSerif-30" transform="translate(190.869141 0)"/>
       <use xlink:href="#DejaVuSerif-30" transform="translate(254.492188 0)"/>
      </g>
     </g>
    </g>
    <g id="ytick_4">
     <g id="line2d_6">
      <path d="M 51.69375 264.918648 
L 421.92 264.918648 
" clip-path="url(#p7fb7c86195)" style="fill: none; stroke-dasharray: 3.7,1.6; stroke-dashoffset: 0; stroke: #dddddd; stroke-opacity: 0.7"/>
     </g>
     <g id="text_7">
      <!-- 15000 -->
      <g style="fill: #262626" transform="translate(7.2 269.097789) scale(0.11 -0.11)">
       <use xlink:href="#DejaVuSerif-31"/>
       <use xlink:href="#DejaVuSerif-35" transform="translate(63.623047 0)"/>
       <use xlink:href="#DejaVuSerif-30" transform="translate(127.246094 0)"/>
       <use xlink:href="#DejaVuSerif-30" transform="translate(190.869141 0)"/>
       <use xlink:href="#DejaVuSerif-30" transform="translate(254.492188 0)"/>
      </g>
     </g>
    </g>
    <g id="ytick_5">
     <g id="line2d_7">
      <path d="M 51.69375 226.001635 
L 421.92 226.001635 
" clip-path="url(#p7fb7c86195)" style="fill: none; stroke-dasharray: 3.7,1.6; stroke-dashoffset: 0; stroke: #dddddd; stroke-opacity: 0.7"/>
     </g>
     <g id="text_8">
      <!-- 20000 -->
      <g style="fill: #262626" transform="translate(7.2 230.180776) scale(0.11 -0.11)">
       <defs>
        <path id="DejaVuSerif-32" d="M 819 3553 
L 469 3553 
L 469 4384 
Q 803 4563 1142 4656 
Q 1481 4750 1806 4750 
Q 2534 4750 2956 4397 
Q 3378 4044 3378 3438 
Q 3378 2753 2422 1800 
Q 2347 1728 2309 1691 
L 1131 513 
L 3078 513 
L 3078 1088 
L 3444 1088 
L 3444 0 
L 434 0 
L 434 341 
L 1850 1753 
Q 2319 2222 2519 2614 
Q 2719 3006 2719 3438 
Q 2719 3909 2473 4175 
Q 2228 4441 1797 4441 
Q 1350 4441 1106 4219 
Q 863 3997 819 3553 
z
" transform="scale(0.015625)"/>
       </defs>
       <use xlink:href="#DejaVuSerif-32"/>
       <use xlink:href="#DejaVuSerif-30" transform="translate(63.623047 0)"/>
       <use xlink:href="#DejaVuSerif-30" transform="translate(127.246094 0)"/>
       <use xlink:href="#DejaVuSerif-30" transform="translate(190.869141 0)"/>
       <use xlink:href="#DejaVuSerif-30" transform="translate(254.492188 0)"/>
      </g>
     </g>
    </g>
    <g id="ytick_6">
     <g id="line2d_8">
      <path d="M 51.69375 187.084622 
L 421.92 187.084622 
" clip-path="url(#p7fb7c86195)" style="fill: none; stroke-dasharray: 3.7,1.6; stroke-dashoffset: 0; stroke: #dddddd; stroke-opacity: 0.7"/>
     </g>
     <g id="text_9">
      <!-- 25000 -->
      <g style="fill: #262626" transform="translate(7.2 191.263763) scale(0.11 -0.11)">
       <use xlink:href="#DejaVuSerif-32"/>
       <use xlink:href="#DejaVuSerif-35" transform="translate(63.623047 0)"/>
       <use xlink:href="#DejaVuSerif-30" transform="translate(127.246094 0)"/>
       <use xlink:href="#DejaVuSerif-30" transform="translate(190.869141 0)"/>
       <use xlink:href="#DejaVuSerif-30" transform="translate(254.492188 0)"/>
      </g>
     </g>
    </g>
    <g id="ytick_7">
     <g id="line2d_9">
      <path d="M 51.69375 148.167609 
L 421.92 148.167609 
" clip-path="url(#p7fb7c86195)" style="fill: none; stroke-dasharray: 3.7,1.6; stroke-dashoffset: 0; stroke: #dddddd; stroke-opacity: 0.7"/>
     </g>
     <g id="text_10">
      <!-- 30000 -->
      <g style="fill: #262626" transform="translate(7.2 152.34675) scale(0.11 -0.11)">
       <defs>
        <path id="DejaVuSerif-33" d="M 622 4469 
Q 988 4606 1323 4678 
Q 1659 4750 1953 4750 
Q 2638 4750 3022 4454 
Q 3406 4159 3406 3634 
Q 3406 3213 3140 2930 
Q 2875 2647 2388 2547 
Q 2963 2466 3280 2130 
Q 3597 1794 3597 1259 
Q 3597 606 3158 257 
Q 2719 -91 1894 -91 
Q 1528 -91 1179 -12 
Q 831 66 488 225 
L 488 1131 
L 838 1131 
Q 869 681 1141 450 
Q 1413 219 1906 219 
Q 2384 219 2661 495 
Q 2938 772 2938 1253 
Q 2938 1803 2653 2086 
Q 2369 2369 1819 2369 
L 1522 2369 
L 1522 2688 
L 1678 2688 
Q 2225 2688 2498 2914 
Q 2772 3141 2772 3597 
Q 2772 4006 2547 4223 
Q 2322 4441 1900 4441 
Q 1478 4441 1245 4241 
Q 1013 4041 972 3647 
L 622 3647 
L 622 4469 
z
" transform="scale(0.015625)"/>
       </defs>
       <use xlink:href="#DejaVuSerif-33"/>
       <use xlink:href="#DejaVuSerif-30" transform="translate(63.623047 0)"/>
       <use xlink:href="#DejaVuSerif-30" transform="translate(127.246094 0)"/>
       <use xlink:href="#DejaVuSerif-30" transform="translate(190.869141 0)"/>
       <use xlink:href="#DejaVuSerif-30" transform="translate(254.492188 0)"/>
      </g>
     </g>
    </g>
    <g id="ytick_8">
     <g id="line2d_10">
      <path d="M 51.69375 109.250596 
L 421.92 109.250596 
" clip-path="url(#p7fb7c86195)" style="fill: none; stroke-dasharray: 3.7,1.6; stroke-dashoffset: 0; stroke: #dddddd; stroke-opacity: 0.7"/>
     </g>
     <g id="text_11">
      <!-- 35000 -->
      <g style="fill: #262626" transform="translate(7.2 113.429737) scale(0.11 -0.11)">
       <use xlink:href="#DejaVuSerif-33"/>
       <use xlink:href="#DejaVuSerif-35" transform="translate(63.623047 0)"/>
       <use xlink:href="#DejaVuSerif-30" transform="translate(127.246094 0)"/>
       <use xlink:href="#DejaVuSerif-30" transform="translate(190.869141 0)"/>
       <use xlink:href="#DejaVuSerif-30" transform="translate(254.492188 0)"/>
      </g>
     </g>
    </g>
    <g id="ytick_9">
     <g id="line2d_11">
      <path d="M 51.69375 70.333583 
L 421.92 70.333583 
" clip-path="url(#p7fb7c86195)" style="fill: none; stroke-dasharray: 3.7,1.6; stroke-dashoffset: 0; stroke: #dddddd; stroke-opacity: 0.7"/>
     </g>
     <g id="text_12">
      <!-- 40000 -->
      <g style="fill: #262626" transform="translate(7.2 74.512723) scale(0.11 -0.11)">
       <defs>
        <path id="DejaVuSerif-34" d="M 2234 1581 
L 2234 4063 
L 641 1581 
L 2234 1581 
z
M 3609 0 
L 1484 0 
L 1484 331 
L 2234 331 
L 2234 1247 
L 197 1247 
L 197 1588 
L 2241 4750 
L 2859 4750 
L 2859 1581 
L 3750 1581 
L 3750 1247 
L 2859 1247 
L 2859 331 
L 3609 331 
L 3609 0 
z
" transform="scale(0.015625)"/>
       </defs>
       <use xlink:href="#DejaVuSerif-34"/>
       <use xlink:href="#DejaVuSerif-30" transform="translate(63.623047 0)"/>
       <use xlink:href="#DejaVuSerif-30" transform="translate(127.246094 0)"/>
       <use xlink:href="#DejaVuSerif-30" transform="translate(190.869141 0)"/>
       <use xlink:href="#DejaVuSerif-30" transform="translate(254.492188 0)"/>
      </g>
     </g>
    </g>
   </g>
   <g id="patch_3">
    <path d="M 68.522216 381.669687 
L 218.10858 381.669687 
L 218.10858 80.137336 
L 68.522216 80.137336 
z
" clip-path="url(#p7fb7c86195)" style="fill: #d62728; opacity: 0.88; stroke: #000000; stroke-linejoin: miter"/>
   </g>
   <g id="patch_4">
    <path d="M 255.50517 381.669687 
L 405.091534 381.669687 
L 405.091534 133.689248 
L 255.50517 133.689248 
z
" clip-path="url(#p7fb7c86195)" style="fill: #1f77b4; opacity: 0.88; stroke: #000000; stroke-linejoin: miter"/>
   </g>
   <g id="patch_5">
    <path d="M 51.69375 381.669687 
L 51.69375 65.060719 
" style="fill: none; stroke: #000000; stroke-width: 1.5; stroke-linejoin: miter; stroke-linecap: square"/>
   </g>
   <g id="patch_6">
    <path d="M 421.92 381.669687 
L 421.92 65.060719 
" style="fill: none; stroke: #000000; stroke-width: 1.5; stroke-linejoin: miter; stroke-linecap: square"/>
   </g>
   <g id="patch_7">
    <path d="M 51.69375 381.669687 
L 421.92 381.669687 
" style="fill: none; stroke: #000000; stroke-width: 1.5; stroke-linejoin: miter; stroke-linecap: square"/>
   </g>
   <g id="patch_8">
    <path d="M 51.69375 65.060719 
L 421.92 65.060719 
" style="fill: none; stroke: #000000; stroke-width: 1.5; stroke-linejoin: miter; stroke-linecap: square"/>
   </g>
   <g id="text_13">
    <!-- 38,740 -->
    <g style="fill: #262626" transform="translate(126.093757 78.265618) scale(0.09 -0.09)">
     <defs>
      <path id="DejaVuSerif-Bold-33" d="M 550 4531 
Q 963 4641 1350 4695 
Q 1738 4750 2106 4750 
Q 2950 4750 3401 4448 
Q 3853 4147 3853 3584 
Q 3853 3163 3593 2900 
Q 3334 2638 2834 2547 
Q 3444 2450 3744 2131 
Q 4044 1813 4044 1259 
Q 4044 606 3526 257 
Q 3009 -91 2028 -91 
Q 1659 -91 1267 -28 
Q 875 34 447 159 
L 447 1184 
L 825 1184 
Q 859 741 1103 508 
Q 1347 275 1778 275 
Q 2253 275 2512 539 
Q 2772 803 2772 1288 
Q 2772 1794 2501 2069 
Q 2231 2344 1734 2344 
L 1528 2344 
L 1528 2719 
L 1691 2719 
Q 2150 2719 2381 2931 
Q 2613 3144 2613 3566 
Q 2613 3963 2395 4173 
Q 2178 4384 1772 4384 
Q 1403 4384 1187 4182 
Q 972 3981 928 3597 
L 550 3597 
L 550 4531 
z
" transform="scale(0.015625)"/>
      <path id="DejaVuSerif-Bold-38" d="M 2975 2484 
Q 3531 2394 3820 2075 
Q 4109 1756 4109 1241 
Q 4109 597 3623 253 
Q 3138 -91 2222 -91 
Q 1306 -91 818 253 
Q 331 597 331 1241 
Q 331 1756 622 2075 
Q 913 2394 1466 2484 
Q 975 2597 731 2861 
Q 488 3125 488 3531 
Q 488 4125 931 4437 
Q 1375 4750 2222 4750 
Q 3066 4750 3511 4437 
Q 3956 4125 3956 3531 
Q 3956 3125 3711 2861 
Q 3466 2597 2975 2484 
z
M 2747 3519 
Q 2747 4013 2628 4198 
Q 2509 4384 2222 4384 
Q 1931 4384 1814 4198 
Q 1697 4013 1697 3519 
Q 1697 3028 1814 2845 
Q 1931 2663 2222 2663 
Q 2513 2663 2630 2845 
Q 2747 3028 2747 3519 
z
M 2869 1294 
Q 2869 1866 2723 2081 
Q 2578 2297 2222 2297 
Q 1863 2297 1719 2081 
Q 1575 1866 1575 1294 
Q 1575 716 1720 495 
Q 1866 275 2222 275 
Q 2575 275 2722 495 
Q 2869 716 2869 1294 
z
" transform="scale(0.015625)"/>
      <path id="DejaVuSerif-Bold-2c" d="M 84 -616 
Q 409 -353 562 -28 
Q 716 297 716 728 
L 716 997 
L 1606 997 
L 1606 972 
Q 1606 281 1317 -217 
Q 1028 -716 428 -1056 
L 84 -616 
z
" transform="scale(0.015625)"/>
      <path id="DejaVuSerif-Bold-37" d="M 3922 3872 
L 1997 0 
L 1363 0 
L 3238 3781 
L 934 3781 
L 934 3150 
L 506 3150 
L 506 4666 
L 3922 4666 
L 3922 3872 
z
" transform="scale(0.015625)"/>
      <path id="DejaVuSerif-Bold-34" d="M 4084 0 
L 1516 0 
L 1516 378 
L 2209 378 
L 2209 1228 
L 263 1228 
L 263 1588 
L 2216 4750 
L 3391 4750 
L 3391 1631 
L 4191 1631 
L 4191 1228 
L 3391 1228 
L 3391 378 
L 4084 378 
L 4084 0 
z
M 2209 1631 
L 2209 3897 
L 819 1631 
L 2209 1631 
z
" transform="scale(0.015625)"/>
      <path id="DejaVuSerif-Bold-30" d="M 2228 275 
Q 2603 275 2742 615 
Q 2881 956 2881 2328 
Q 2881 3691 2742 4037 
Q 2603 4384 2228 4384 
Q 1853 4384 1714 4043 
Q 1575 3703 1575 2328 
Q 1575 956 1714 615 
Q 1853 275 2228 275 
z
M 2228 -91 
Q 1294 -91 797 532 
Q 300 1156 300 2328 
Q 300 3500 797 4125 
Q 1294 4750 2228 4750 
Q 3159 4750 3656 4125 
Q 4153 3500 4153 2328 
Q 4153 1156 3656 532 
Q 3159 -91 2228 -91 
z
" transform="scale(0.015625)"/>
     </defs>
     <use xlink:href="#DejaVuSerif-Bold-33"/>
     <use xlink:href="#DejaVuSerif-Bold-38" transform="translate(69.580078 0)"/>
     <use xlink:href="#DejaVuSerif-Bold-2c" transform="translate(139.160156 0)"/>
     <use xlink:href="#DejaVuSerif-Bold-37" transform="translate(173.974609 0)"/>
     <use xlink:href="#DejaVuSerif-Bold-34" transform="translate(243.554688 0)"/>
     <use xlink:href="#DejaVuSerif-Bold-30" transform="translate(313.134766 0)"/>
    </g>
   </g>
   <g id="text_14">
    <!-- 31,860 -->
    <g style="fill: #262626" transform="translate(313.076712 131.817529) scale(0.09 -0.09)">
     <defs>
      <path id="DejaVuSerif-Bold-31" d="M 878 0 
L 878 378 
L 1753 378 
L 1753 4153 
L 781 3578 
L 781 4044 
L 1953 4750 
L 2938 4750 
L 2938 378 
L 3816 378 
L 3816 0 
L 878 0 
z
" transform="scale(0.015625)"/>
      <path id="DejaVuSerif-Bold-36" d="M 1575 2766 
Q 1778 2928 2029 3009 
Q 2281 3091 2578 3091 
Q 3294 3091 3701 2672 
Q 4109 2253 4109 1522 
Q 4109 750 3650 329 
Q 3191 -91 2344 -91 
Q 1388 -91 895 486 
Q 403 1063 403 2181 
Q 403 3453 950 4101 
Q 1497 4750 2572 4750 
Q 2853 4750 3175 4703 
Q 3497 4656 3866 4563 
L 3866 3738 
L 3488 3738 
Q 3409 4056 3192 4220 
Q 2975 4384 2631 4384 
Q 2075 4384 1826 4003 
Q 1578 3622 1575 2766 
z
M 2272 275 
Q 2594 275 2731 548 
Q 2869 822 2869 1497 
Q 2869 2172 2731 2445 
Q 2594 2719 2272 2719 
Q 1950 2719 1814 2445 
Q 1678 2172 1678 1497 
Q 1678 822 1814 548 
Q 1950 275 2272 275 
z
" transform="scale(0.015625)"/>
     </defs>
     <use xlink:href="#DejaVuSerif-Bold-33"/>
     <use xlink:href="#DejaVuSerif-Bold-31" transform="translate(69.580078 0)"/>
     <use xlink:href="#DejaVuSerif-Bold-2c" transform="translate(139.160156 0)"/>
     <use xlink:href="#DejaVuSerif-Bold-38" transform="translate(173.974609 0)"/>
     <use xlink:href="#DejaVuSerif-Bold-36" transform="translate(243.554688 0)"/>
     <use xlink:href="#DejaVuSerif-Bold-30" transform="translate(313.134766 0)"/>
    </g>
   </g>
   <g id="text_15">
    <!-- Avg Delay (ms) -->
    <g style="fill: #262626" transform="translate(190.649844 46.586719) scale(0.11 -0.11)">
     <defs>
      <path id="DejaVuSerif-Bold-41" d="M -50 0 
L -50 378 
L 331 378 
L 2088 4666 
L 2834 4666 
L 4594 378 
L 5038 378 
L 5038 0 
L 2853 0 
L 2853 378 
L 3309 378 
L 2925 1331 
L 1172 1331 
L 781 378 
L 1338 378 
L 1338 0 
L -50 0 
z
M 1325 1709 
L 2772 1709 
L 2053 3494 
L 1325 1709 
z
" transform="scale(0.015625)"/>
      <path id="DejaVuSerif-Bold-76" d="M 1428 0 
L 250 2944 
L -116 2944 
L -116 3322 
L 1791 3322 
L 1791 2944 
L 1388 2944 
L 2228 844 
L 3066 2944 
L 2631 2944 
L 2631 3322 
L 3878 3322 
L 3878 2944 
L 3494 2944 
L 2316 0 
L 1428 0 
z
" transform="scale(0.015625)"/>
      <path id="DejaVuSerif-Bold-67" d="M 3853 2944 
L 3853 44 
Q 3853 -656 3354 -1039 
Q 2856 -1422 1947 -1422 
Q 1616 -1422 1275 -1370 
Q 934 -1319 575 -1216 
L 575 -422 
L 928 -422 
Q 975 -750 1192 -909 
Q 1409 -1069 1813 -1069 
Q 2325 -1069 2536 -823 
Q 2747 -578 2747 44 
L 2747 422 
Q 2606 163 2367 36 
Q 2128 -91 1778 -91 
Q 1072 -91 667 378 
Q 263 847 263 1663 
Q 263 2481 667 2947 
Q 1072 3413 1778 3413 
Q 2128 3413 2367 3286 
Q 2606 3159 2747 2900 
L 2747 3322 
L 4325 3322 
L 4325 2944 
L 3853 2944 
z
M 2747 1825 
Q 2747 2406 2597 2665 
Q 2447 2925 2119 2925 
Q 1775 2925 1636 2651 
Q 1497 2378 1497 1663 
Q 1497 947 1637 672 
Q 1778 397 2119 397 
Q 2447 397 2597 656 
Q 2747 916 2747 1497 
L 2747 1825 
z
" transform="scale(0.015625)"/>
      <path id="DejaVuSerif-Bold-20" transform="scale(0.015625)"/>
      <path id="DejaVuSerif-Bold-44" d="M 2100 378 
L 2534 378 
Q 3266 378 3605 847 
Q 3944 1316 3944 2338 
Q 3944 3353 3606 3820 
Q 3269 4288 2534 4288 
L 2100 4288 
L 2100 378 
z
M 300 0 
L 300 378 
L 897 378 
L 897 4288 
L 300 4288 
L 300 4666 
L 2694 4666 
Q 3950 4666 4615 4066 
Q 5281 3466 5281 2338 
Q 5281 1203 4614 601 
Q 3947 0 2694 0 
L 300 0 
z
" transform="scale(0.015625)"/>
      <path id="DejaVuSerif-Bold-65" d="M 2566 1875 
Q 2566 2531 2444 2795 
Q 2322 3059 2028 3059 
Q 1744 3059 1620 2800 
Q 1497 2541 1497 1931 
L 1497 1875 
L 2566 1875 
z
M 3781 1503 
L 1497 1503 
L 1497 1478 
Q 1497 834 1690 548 
Q 1884 263 2316 263 
Q 2675 263 2897 453 
Q 3119 644 3181 1006 
L 3700 1006 
Q 3566 441 3166 175 
Q 2766 -91 2047 -91 
Q 1184 -91 723 364 
Q 263 819 263 1663 
Q 263 2488 734 2950 
Q 1206 3413 2047 3413 
Q 2872 3413 3312 2927 
Q 3753 2441 3781 1503 
z
" transform="scale(0.015625)"/>
      <path id="DejaVuSerif-Bold-6c" d="M 1797 378 
L 2272 378 
L 2272 0 
L 219 0 
L 219 378 
L 691 378 
L 691 4488 
L 219 4488 
L 219 4863 
L 1797 4863 
L 1797 378 
z
" transform="scale(0.015625)"/>
      <path id="DejaVuSerif-Bold-61" d="M 3525 2041 
L 3525 378 
L 4000 378 
L 4000 0 
L 2419 0 
L 2419 422 
Q 2200 159 1931 34 
Q 1663 -91 1319 -91 
Q 809 -91 536 182 
Q 263 456 263 966 
Q 263 1525 655 1803 
Q 1047 2081 1838 2081 
L 2419 2081 
L 2419 2278 
Q 2419 2681 2228 2873 
Q 2038 3066 1638 3066 
Q 1306 3066 1126 2930 
Q 947 2794 872 2484 
L 519 2484 
L 519 3200 
Q 816 3306 1134 3359 
Q 1453 3413 1806 3413 
Q 2697 3413 3111 3081 
Q 3525 2750 3525 2041 
z
M 2419 1044 
L 2419 1709 
L 2003 1709 
Q 1694 1709 1528 1540 
Q 1363 1372 1363 1056 
Q 1363 741 1483 584 
Q 1603 428 1850 428 
Q 2106 428 2262 597 
Q 2419 766 2419 1044 
z
" transform="scale(0.015625)"/>
      <path id="DejaVuSerif-Bold-79" d="M 1997 -750 
Q 1847 -1116 1634 -1269 
Q 1422 -1422 1063 -1422 
Q 909 -1422 721 -1387 
Q 534 -1353 313 -1288 
L 313 -594 
L 666 -597 
Q 675 -838 779 -953 
Q 884 -1069 1094 -1069 
Q 1297 -1069 1422 -958 
Q 1547 -847 1672 -538 
L 1722 -422 
L 275 2944 
L -84 2944 
L -84 3322 
L 1831 3322 
L 1831 2944 
L 1434 2944 
L 2278 978 
L 3066 2944 
L 2625 2944 
L 2625 3322 
L 3872 3322 
L 3872 2944 
L 3469 2944 
L 1997 -750 
z
" transform="scale(0.015625)"/>
      <path id="DejaVuSerif-Bold-28" d="M 2694 -997 
Q 1641 -606 1122 122 
Q 603 850 603 1931 
Q 603 3013 1115 3731 
Q 1628 4450 2694 4863 
L 2694 4488 
Q 2200 4188 1983 3598 
Q 1766 3009 1766 1931 
Q 1766 856 1983 267 
Q 2200 -322 2694 -622 
L 2694 -997 
z
" transform="scale(0.015625)"/>
      <path id="DejaVuSerif-Bold-6d" d="M 3884 2778 
Q 4116 3109 4384 3261 
Q 4653 3413 5013 3413 
Q 5584 3413 5867 3089 
Q 6150 2766 6150 2113 
L 6150 378 
L 6625 378 
L 6625 0 
L 4647 0 
L 4647 378 
L 5044 378 
L 5044 1947 
Q 5044 2569 4948 2731 
Q 4853 2894 4594 2894 
Q 4300 2894 4137 2667 
Q 3975 2441 3975 2022 
L 3975 378 
L 4372 378 
L 4372 0 
L 2472 0 
L 2472 378 
L 2869 378 
L 2869 1947 
Q 2869 2569 2772 2731 
Q 2675 2894 2419 2894 
Q 2122 2894 1959 2667 
Q 1797 2441 1797 2022 
L 1797 378 
L 2194 378 
L 2194 0 
L 219 0 
L 219 378 
L 691 378 
L 691 2944 
L 219 2944 
L 219 3322 
L 1797 3322 
L 1797 2853 
Q 1991 3144 2241 3278 
Q 2491 3413 2834 3413 
Q 3241 3413 3494 3258 
Q 3747 3103 3884 2778 
z
" transform="scale(0.015625)"/>
      <path id="DejaVuSerif-Bold-73" d="M 300 97 
L 300 1025 
L 653 1025 
Q 697 653 931 458 
Q 1166 263 1569 263 
Q 1906 263 2086 380 
Q 2266 497 2266 716 
Q 2266 916 2152 1025 
Q 2038 1134 1709 1216 
L 1253 1331 
Q 738 1459 506 1698 
Q 275 1938 275 2344 
Q 275 2884 650 3148 
Q 1025 3413 1806 3413 
Q 2100 3413 2433 3364 
Q 2766 3316 3169 3213 
L 3169 2375 
L 2816 2375 
Q 2788 2716 2573 2887 
Q 2359 3059 1959 3059 
Q 1622 3059 1448 2951 
Q 1275 2844 1275 2638 
Q 1275 2469 1375 2372 
Q 1475 2275 1734 2209 
L 2188 2094 
Q 2841 1928 3091 1684 
Q 3341 1441 3341 1006 
Q 3341 444 2939 176 
Q 2538 -91 1691 -91 
Q 1381 -91 1034 -44 
Q 688 3 300 97 
z
" transform="scale(0.015625)"/>
      <path id="DejaVuSerif-Bold-29" d="M 325 -997 
L 325 -622 
Q 819 -322 1036 267 
Q 1253 856 1253 1931 
Q 1253 3009 1036 3598 
Q 819 4188 325 4488 
L 325 4863 
Q 1391 4450 1905 3731 
Q 2419 3013 2419 1931 
Q 2419 850 1898 122 
Q 1378 -606 325 -997 
z
" transform="scale(0.015625)"/>
     </defs>
     <use xlink:href="#DejaVuSerif-Bold-41"/>
     <use xlink:href="#DejaVuSerif-Bold-76" transform="translate(73.587891 0)"/>
     <use xlink:href="#DejaVuSerif-Bold-67" transform="translate(131.693359 0)"/>
     <use xlink:href="#DejaVuSerif-Bold-20" transform="translate(201.615234 0)"/>
     <use xlink:href="#DejaVuSerif-Bold-44" transform="translate(236.429688 0)"/>
     <use xlink:href="#DejaVuSerif-Bold-65" transform="translate(323.148438 0)"/>
     <use xlink:href="#DejaVuSerif-Bold-6c" transform="translate(386.771484 0)"/>
     <use xlink:href="#DejaVuSerif-Bold-61" transform="translate(424.759766 0)"/>
     <use xlink:href="#DejaVuSerif-Bold-79" transform="translate(489.554688 0)"/>
     <use xlink:href="#DejaVuSerif-Bold-20" transform="translate(547.660156 0)"/>
     <use xlink:href="#DejaVuSerif-Bold-28" transform="translate(582.474609 0)"/>
     <use xlink:href="#DejaVuSerif-Bold-6d" transform="translate(629.789062 0)"/>
     <use xlink:href="#DejaVuSerif-Bold-73" transform="translate(735.599609 0)"/>
     <use xlink:href="#DejaVuSerif-Bold-29" transform="translate(791.898438 0)"/>
    </g>
    <!-- BLA gain: −17.8% -->
    <g style="fill: #262626" transform="translate(181.436484 59.060719) scale(0.11 -0.11)">
     <defs>
      <path id="DejaVuSerif-Bold-42" d="M 300 0 
L 300 378 
L 897 378 
L 897 4288 
L 300 4288 
L 300 4666 
L 3066 4666 
Q 3919 4666 4347 4378 
Q 4775 4091 4775 3513 
Q 4775 3097 4479 2853 
Q 4184 2609 3603 2547 
Q 4306 2481 4681 2172 
Q 5056 1863 5056 1350 
Q 5056 656 4532 328 
Q 4009 0 2894 0 
L 300 0 
z
M 2100 2719 
L 2509 2719 
Q 3047 2719 3306 2914 
Q 3566 3109 3566 3513 
Q 3566 3919 3314 4103 
Q 3063 4288 2509 4288 
L 2100 4288 
L 2100 2719 
z
M 2100 378 
L 2547 378 
Q 3144 378 3431 615 
Q 3719 853 3719 1350 
Q 3719 1850 3428 2097 
Q 3138 2344 2547 2344 
L 2100 2344 
L 2100 378 
z
" transform="scale(0.015625)"/>
      <path id="DejaVuSerif-Bold-4c" d="M 300 0 
L 300 378 
L 897 378 
L 897 4288 
L 300 4288 
L 300 4666 
L 2700 4666 
L 2700 4288 
L 2100 4288 
L 2100 428 
L 3938 428 
L 3938 1166 
L 4359 1166 
L 4359 0 
L 300 0 
z
" transform="scale(0.015625)"/>
      <path id="DejaVuSerif-Bold-69" d="M 588 4263 
Q 588 4516 763 4689 
Q 938 4863 1191 4863 
Q 1438 4863 1611 4689 
Q 1784 4516 1784 4263 
Q 1784 4016 1611 3842 
Q 1438 3669 1191 3669 
Q 938 3669 763 3841 
Q 588 4013 588 4263 
z
M 1797 378 
L 2272 378 
L 2272 0 
L 219 0 
L 219 378 
L 691 378 
L 691 2944 
L 219 2944 
L 219 3322 
L 1797 3322 
L 1797 378 
z
" transform="scale(0.015625)"/>
      <path id="DejaVuSerif-Bold-6e" d="M 219 0 
L 219 378 
L 691 378 
L 691 2944 
L 219 2944 
L 219 3322 
L 1797 3322 
L 1797 2853 
Q 1997 3150 2253 3281 
Q 2509 3413 2900 3413 
Q 3459 3413 3745 3083 
Q 4031 2753 4031 2113 
L 4031 378 
L 4506 378 
L 4506 0 
L 2522 0 
L 2522 378 
L 2925 378 
L 2925 2144 
Q 2925 2566 2817 2730 
Q 2709 2894 2444 2894 
Q 2109 2894 1953 2648 
Q 1797 2403 1797 1869 
L 1797 378 
L 2203 378 
L 2203 0 
L 219 0 
z
" transform="scale(0.015625)"/>
      <path id="DejaVuSerif-Bold-3a" d="M 588 2541 
Q 588 2788 761 2963 
Q 934 3138 1178 3138 
Q 1422 3138 1597 2961 
Q 1772 2784 1772 2541 
Q 1772 2297 1598 2125 
Q 1425 1953 1178 1953 
Q 931 1953 759 2125 
Q 588 2297 588 2541 
z
M 588 506 
Q 588 750 761 925 
Q 934 1100 1178 1100 
Q 1422 1100 1597 925 
Q 1772 750 1772 506 
Q 1772 259 1597 84 
Q 1422 -91 1178 -91 
Q 934 -91 761 84 
Q 588 259 588 506 
z
" transform="scale(0.015625)"/>
      <path id="DejaVuSerif-Bold-2212" d="M 678 2363 
L 4684 2363 
L 4684 1644 
L 678 1644 
L 678 2363 
z
" transform="scale(0.015625)"/>
      <path id="DejaVuSerif-Bold-2e" d="M 519 506 
Q 519 750 694 925 
Q 869 1100 1113 1100 
Q 1359 1100 1534 925 
Q 1709 750 1709 506 
Q 1709 259 1534 84 
Q 1359 -91 1113 -91 
Q 869 -91 694 84 
Q 519 259 519 506 
z
" transform="scale(0.015625)"/>
      <path id="DejaVuSerif-Bold-25" d="M 1381 4434 
Q 1181 4434 1093 4217 
Q 1006 4000 1006 3481 
Q 1006 2959 1093 2740 
Q 1181 2522 1381 2522 
Q 1584 2522 1671 2740 
Q 1759 2959 1759 3481 
Q 1759 4000 1671 4217 
Q 1584 4434 1381 4434 
z
M 1381 4750 
Q 1978 4750 2295 4423 
Q 2613 4097 2613 3481 
Q 2613 2866 2295 2537 
Q 1978 2209 1381 2209 
Q 788 2209 470 2537 
Q 153 2866 153 3481 
Q 153 4097 470 4423 
Q 788 4750 1381 4750 
z
M 4231 4750 
L 4769 4750 
L 1850 -91 
L 1313 -91 
L 4231 4750 
z
M 4697 2450 
Q 5294 2450 5609 2123 
Q 5925 1797 5925 1184 
Q 5925 569 5609 239 
Q 5294 -91 4697 -91 
Q 4103 -91 3786 239 
Q 3469 569 3469 1184 
Q 3469 1797 3786 2123 
Q 4103 2450 4697 2450 
z
M 4697 2138 
Q 4494 2138 4406 1920 
Q 4319 1703 4319 1184 
Q 4319 663 4408 444 
Q 4497 225 4697 225 
Q 4900 225 4987 444 
Q 5075 663 5075 1184 
Q 5075 1703 4987 1920 
Q 4900 2138 4697 2138 
z
" transform="scale(0.015625)"/>
     </defs>
     <use xlink:href="#DejaVuSerif-Bold-42"/>
     <use xlink:href="#DejaVuSerif-Bold-4c" transform="translate(84.521484 0)"/>
     <use xlink:href="#DejaVuSerif-Bold-41" transform="translate(154.833984 0)"/>
     <use xlink:href="#DejaVuSerif-Bold-20" transform="translate(232.421875 0)"/>
     <use xlink:href="#DejaVuSerif-Bold-67" transform="translate(267.236328 0)"/>
     <use xlink:href="#DejaVuSerif-Bold-61" transform="translate(337.158203 0)"/>
     <use xlink:href="#DejaVuSerif-Bold-69" transform="translate(401.953125 0)"/>
     <use xlink:href="#DejaVuSerif-Bold-6e" transform="translate(439.941406 0)"/>
     <use xlink:href="#DejaVuSerif-Bold-3a" transform="translate(512.646484 0)"/>
     <use xlink:href="#DejaVuSerif-Bold-20" transform="translate(549.560547 0)"/>
     <use xlink:href="#DejaVuSerif-Bold-2212" transform="translate(584.375 0)"/>
     <use xlink:href="#DejaVuSerif-Bold-31" transform="translate(668.164062 0)"/>
     <use xlink:href="#DejaVuSerif-Bold-37" transform="translate(737.744141 0)"/>
     <use xlink:href="#DejaVuSerif-Bold-2e" transform="translate(807.324219 0)"/>
     <use xlink:href="#DejaVuSerif-Bold-38" transform="translate(842.138672 0)"/>
     <use xlink:href="#DejaVuSerif-Bold-25" transform="translate(911.71875 0)"/>
    </g>
   </g>
  </g>
  <g id="axes_2">
   <g id="patch_9">
    <path d="M 479.37375 381.669687 
L 849.6 381.669687 
L 849.6 65.060719 
L 479.37375 65.060719 
z
" style="fill: #ffffff"/>
   </g>
   <g id="matplotlib.axis_3">
    <g id="xtick_3">
     <g id="line2d_12">
      <path d="M 570.995398 381.669687 
L 570.995398 65.060719 
" clip-path="url(#p622450325d)" style="fill: none; stroke-dasharray: 3.7,1.6; stroke-dashoffset: 0; stroke: #dddddd; stroke-opacity: 0.7"/>
     </g>
     <g id="text_16">
      <!-- First -->
      <g style="fill: #262626" transform="translate(557.758445 399.527969) scale(0.11 -0.11)">
       <use xlink:href="#DejaVuSerif-46"/>
       <use xlink:href="#DejaVuSerif-69" transform="translate(69.384766 0)"/>
       <use xlink:href="#DejaVuSerif-72" transform="translate(101.367188 0)"/>
       <use xlink:href="#DejaVuSerif-73" transform="translate(149.169922 0)"/>
       <use xlink:href="#DejaVuSerif-74" transform="translate(200.488281 0)"/>
      </g>
     </g>
    </g>
    <g id="xtick_4">
     <g id="line2d_13">
      <path d="M 757.978352 381.669687 
L 757.978352 65.060719 
" clip-path="url(#p622450325d)" style="fill: none; stroke-dasharray: 3.7,1.6; stroke-dashoffset: 0; stroke: #dddddd; stroke-opacity: 0.7"/>
     </g>
     <g id="text_17">
      <!-- BLA -->
      <g style="fill: #262626" transform="translate(746.312337 399.527969) scale(0.11 -0.11)">
       <use xlink:href="#DejaVuSerif-42"/>
       <use xlink:href="#DejaVuSerif-4c" transform="translate(73.486328 0)"/>
       <use xlink:href="#DejaVuSerif-41" transform="translate(139.892578 0)"/>
      </g>
     </g>
    </g>
    <g id="text_18">
     <!-- Routing Policy -->
     <g style="fill: #262626" transform="translate(620.552812 414.93375) scale(0.12 -0.12)">
      <use xlink:href="#DejaVuSerif-52"/>
      <use xlink:href="#DejaVuSerif-6f" transform="translate(75.292969 0)"/>
      <use xlink:href="#DejaVuSerif-75" transform="translate(135.498047 0)"/>
      <use xlink:href="#DejaVuSerif-74" transform="translate(199.902344 0)"/>
      <use xlink:href="#DejaVuSerif-69" transform="translate(240.087891 0)"/>
      <use xlink:href="#DejaVuSerif-6e" transform="translate(272.070312 0)"/>
      <use xlink:href="#DejaVuSerif-67" transform="translate(336.474609 0)"/>
      <use xlink:href="#DejaVuSerif-20" transform="translate(400.488281 0)"/>
      <use xlink:href="#DejaVuSerif-50" transform="translate(432.275391 0)"/>
      <use xlink:href="#DejaVuSerif-6f" transform="translate(495.560547 0)"/>
      <use xlink:href="#DejaVuSerif-6c" transform="translate(555.765625 0)"/>
      <use xlink:href="#DejaVuSerif-69" transform="translate(587.748047 0)"/>
      <use xlink:href="#DejaVuSerif-63" transform="translate(619.730469 0)"/>
      <use xlink:href="#DejaVuSerif-79" transform="translate(675.736328 0)"/>
     </g>
    </g>
   </g>
   <g id="matplotlib.axis_4">
    <g id="ytick_10">
     <g id="line2d_14">
      <path d="M 479.37375 381.669687 
L 849.6 381.669687 
" clip-path="url(#p622450325d)" style="fill: none; stroke-dasharray: 3.7,1.6; stroke-dashoffset: 0; stroke: #dddddd; stroke-opacity: 0.7"/>
     </g>
     <g id="text_19">
      <!-- 0 -->
      <g style="fill: #262626" transform="translate(462.875 385.848828) scale(0.11 -0.11)">
       <use xlink:href="#DejaVuSerif-30"/>
      </g>
     </g>
    </g>
    <g id="ytick_11">
     <g id="line2d_15">
      <path d="M 479.37375 325.544249 
L 849.6 325.544249 
" clip-path="url(#p622450325d)" style="fill: none; stroke-dasharray: 3.7,1.6; stroke-dashoffset: 0; stroke: #dddddd; stroke-opacity: 0.7"/>
     </g>
     <g id="text_20">
      <!-- 5000 -->
      <g style="fill: #262626" transform="translate(441.87875 329.72339) scale(0.11 -0.11)">
       <use xlink:href="#DejaVuSerif-35"/>
       <use xlink:href="#DejaVuSerif-30" transform="translate(63.623047 0)"/>
       <use xlink:href="#DejaVuSerif-30" transform="translate(127.246094 0)"/>
       <use xlink:href="#DejaVuSerif-30" transform="translate(190.869141 0)"/>
      </g>
     </g>
    </g>
    <g id="ytick_12">
     <g id="line2d_16">
      <path d="M 479.37375 269.418811 
L 849.6 269.418811 
" clip-path="url(#p622450325d)" style="fill: none; stroke-dasharray: 3.7,1.6; stroke-dashoffset: 0; stroke: #dddddd; stroke-opacity: 0.7"/>
     </g>
     <g id="text_21">
      <!-- 10000 -->
      <g style="fill: #262626" transform="translate(434.88 273.597952) scale(0.11 -0.11)">
       <use xlink:href="#DejaVuSerif-31"/>
       <use xlink:href="#DejaVuSerif-30" transform="translate(63.623047 0)"/>
       <use xlink:href="#DejaVuSerif-30" transform="translate(127.246094 0)"/>
       <use xlink:href="#DejaVuSerif-30" transform="translate(190.869141 0)"/>
       <use xlink:href="#DejaVuSerif-30" transform="translate(254.492188 0)"/>
      </g>
     </g>
    </g>
    <g id="ytick_13">
     <g id="line2d_17">
      <path d="M 479.37375 213.293373 
L 849.6 213.293373 
" clip-path="url(#p622450325d)" style="fill: none; stroke-dasharray: 3.7,1.6; stroke-dashoffset: 0; stroke: #dddddd; stroke-opacity: 0.7"/>
     </g>
     <g id="text_22">
      <!-- 15000 -->
      <g style="fill: #262626" transform="translate(434.88 217.472513) scale(0.11 -0.11)">
       <use xlink:href="#DejaVuSerif-31"/>
       <use xlink:href="#DejaVuSerif-35" transform="translate(63.623047 0)"/>
       <use xlink:href="#DejaVuSerif-30" transform="translate(127.246094 0)"/>
       <use xlink:href="#DejaVuSerif-30" transform="translate(190.869141 0)"/>
       <use xlink:href="#DejaVuSerif-30" transform="translate(254.492188 0)"/>
      </g>
     </g>
    </g>
    <g id="ytick_14">
     <g id="line2d_18">
      <path d="M 479.37375 157.167934 
L 849.6 157.167934 
" clip-path="url(#p622450325d)" style="fill: none; stroke-dasharray: 3.7,1.6; stroke-dashoffset: 0; stroke: #dddddd; stroke-opacity: 0.7"/>
     </g>
     <g id="text_23">
      <!-- 20000 -->
      <g style="fill: #262626" transform="translate(434.88 161.347075) scale(0.11 -0.11)">
       <use xlink:href="#DejaVuSerif-32"/>
       <use xlink:href="#DejaVuSerif-30" transform="translate(63.623047 0)"/>
       <use xlink:href="#DejaVuSerif-30" transform="translate(127.246094 0)"/>
       <use xlink:href="#DejaVuSerif-30" transform="translate(190.869141 0)"/>
       <use xlink:href="#DejaVuSerif-30" transform="translate(254.492188 0)"/>
      </g>
     </g>
    </g>
    <g id="ytick_15">
     <g id="line2d_19">
      <path d="M 479.37375 101.042496 
L 849.6 101.042496 
" clip-path="url(#p622450325d)" style="fill: none; stroke-dasharray: 3.7,1.6; stroke-dashoffset: 0; stroke: #dddddd; stroke-opacity: 0.7"/>
     </g>
     <g id="text_24">
      <!-- 25000 -->
      <g style="fill: #262626" transform="translate(434.88 105.221637) scale(0.11 -0.11)">
       <use xlink:href="#DejaVuSerif-32"/>
       <use xlink:href="#DejaVuSerif-35" transform="translate(63.623047 0)"/>
       <use xlink:href="#DejaVuSerif-30" transform="translate(127.246094 0)"/>
       <use xlink:href="#DejaVuSerif-30" transform="translate(190.869141 0)"/>
       <use xlink:href="#DejaVuSerif-30" transform="translate(254.492188 0)"/>
      </g>
     </g>
    </g>
   </g>
   <g id="patch_10">
    <path d="M 496.202216 381.669687 
L 645.78858 381.669687 
L 645.78858 80.137336 
L 496.202216 80.137336 
z
" clip-path="url(#p622450325d)" style="fill: #d62728; opacity: 0.88; stroke: #000000; stroke-linejoin: miter"/>
   </g>
   <g id="patch_11">
    <path d="M 683.18517 381.669687 
L 832.771534 381.669687 
L 832.771534 131.628342 
L 683.18517 131.628342 
z
" clip-path="url(#p622450325d)" style="fill: #1f77b4; opacity: 0.88; stroke: #000000; stroke-linejoin: miter"/>
   </g>
   <g id="patch_12">
    <path d="M 479.37375 381.669687 
L 479.37375 65.060719 
" style="fill: none; stroke: #000000; stroke-width: 1.5; stroke-linejoin: miter; stroke-linecap: square"/>
   </g>
   <g id="patch_13">
    <path d="M 849.6 381.669687 
L 849.6 65.060719 
" style="fill: none; stroke: #000000; stroke-width: 1.5; stroke-linejoin: miter; stroke-linecap: square"/>
   </g>
   <g id="patch_14">
    <path d="M 479.37375 381.669687 
L 849.6 381.669687 
" style="fill: none; stroke: #000000; stroke-width: 1.5; stroke-linejoin: miter; stroke-linecap: square"/>
   </g>
   <g id="patch_15">
    <path d="M 479.37375 65.060719 
L 849.6 65.060719 
" style="fill: none; stroke: #000000; stroke-width: 1.5; stroke-linejoin: miter; stroke-linecap: square"/>
   </g>
   <g id="text_25">
    <!-- 26,862 -->
    <g style="fill: #262626" transform="translate(553.773757 78.265618) scale(0.09 -0.09)">
     <defs>
      <path id="DejaVuSerif-Bold-32" d="M 844 3513 
L 469 3513 
L 469 4519 
Q 850 4634 1223 4692 
Q 1597 4750 1978 4750 
Q 2869 4750 3367 4386 
Q 3866 4022 3866 3372 
Q 3866 2909 3591 2542 
Q 3316 2175 2541 1672 
L 1241 819 
L 3450 819 
L 3450 1369 
L 3878 1369 
L 3878 0 
L 428 0 
L 428 763 
L 1119 1241 
Q 2003 1850 2297 2278 
Q 2591 2706 2591 3278 
Q 2591 3819 2367 4101 
Q 2144 4384 1716 4384 
Q 1347 4384 1125 4161 
Q 903 3938 844 3513 
z
" transform="scale(0.015625)"/>
     </defs>
     <use xlink:href="#DejaVuSerif-Bold-32"/>
     <use xlink:href="#DejaVuSerif-Bold-36" transform="translate(69.580078 0)"/>
     <use xlink:href="#DejaVuSerif-Bold-2c" transform="translate(139.160156 0)"/>
     <use xlink:href="#DejaVuSerif-Bold-38" transform="translate(173.974609 0)"/>
     <use xlink:href="#DejaVuSerif-Bold-36" transform="translate(243.554688 0)"/>
     <use xlink:href="#DejaVuSerif-Bold-32" transform="translate(313.134766 0)"/>
    </g>
   </g>
   <g id="text_26">
    <!-- 22,275 -->
    <g style="fill: #262626" transform="translate(740.756712 129.756623) scale(0.09 -0.09)">
     <defs>
      <path id="DejaVuSerif-Bold-35" d="M 3609 4666 
L 3609 3847 
L 1113 3847 
L 1113 2822 
Q 1319 2981 1572 3062 
Q 1825 3144 2106 3144 
Q 2969 3144 3469 2708 
Q 3969 2272 3969 1522 
Q 3969 759 3469 334 
Q 2969 -91 2069 -91 
Q 1688 -91 1311 -28 
Q 934 34 525 166 
L 525 1184 
L 900 1184 
Q 919 725 1139 500 
Q 1359 275 1791 275 
Q 2250 275 2472 583 
Q 2694 891 2694 1522 
Q 2694 2144 2476 2451 
Q 2259 2759 1819 2759 
Q 1581 2759 1395 2661 
Q 1209 2563 1050 2356 
L 738 2356 
L 738 4666 
L 3609 4666 
z
" transform="scale(0.015625)"/>
     </defs>
     <use xlink:href="#DejaVuSerif-Bold-32"/>
     <use xlink:href="#DejaVuSerif-Bold-32" transform="translate(69.580078 0)"/>
     <use xlink:href="#DejaVuSerif-Bold-2c" transform="translate(139.160156 0)"/>
     <use xlink:href="#DejaVuSerif-Bold-32" transform="translate(173.974609 0)"/>
     <use xlink:href="#DejaVuSerif-Bold-37" transform="translate(243.554688 0)"/>
     <use xlink:href="#DejaVuSerif-Bold-35" transform="translate(313.134766 0)"/>
    </g>
   </g>
   <g id="text_27">
    <!-- Avg Queue (ms) -->
    <g style="fill: #262626" transform="translate(615.660625 46.586719) scale(0.11 -0.11)">
     <defs>
      <path id="DejaVuSerif-Bold-51" d="M 2766 -91 
Q 1584 -72 926 565 
Q 269 1203 269 2328 
Q 269 3459 939 4104 
Q 1609 4750 2784 4750 
Q 3963 4750 4631 4106 
Q 5300 3463 5300 2328 
Q 5300 1334 4786 715 
Q 4272 97 3322 -50 
Q 3488 -228 3725 -306 
Q 3963 -384 4341 -384 
L 4500 -384 
L 4500 -1153 
L 4409 -1153 
Q 3816 -1153 3419 -897 
Q 3022 -641 2766 -91 
z
M 2784 288 
Q 3381 288 3672 791 
Q 3963 1294 3963 2328 
Q 3963 3366 3672 3869 
Q 3381 4372 2784 4372 
Q 2191 4372 1898 3864 
Q 1606 3356 1606 2328 
Q 1606 1303 1898 795 
Q 2191 288 2784 288 
z
" transform="scale(0.015625)"/>
      <path id="DejaVuSerif-Bold-75" d="M 3963 3322 
L 3963 378 
L 4434 378 
L 4434 0 
L 2853 0 
L 2853 469 
Q 2656 172 2400 40 
Q 2144 -91 1753 -91 
Q 1194 -91 908 239 
Q 622 569 622 1209 
L 622 2944 
L 147 2944 
L 147 3322 
L 1728 3322 
L 1728 1381 
Q 1728 763 1831 595 
Q 1934 428 2209 428 
Q 2544 428 2698 675 
Q 2853 922 2853 1459 
L 2853 2944 
L 2450 2944 
L 2450 3322 
L 3963 3322 
z
" transform="scale(0.015625)"/>
     </defs>
     <use xlink:href="#DejaVuSerif-Bold-41"/>
     <use xlink:href="#DejaVuSerif-Bold-76" transform="translate(73.587891 0)"/>
     <use xlink:href="#DejaVuSerif-Bold-67" transform="translate(131.693359 0)"/>
     <use xlink:href="#DejaVuSerif-Bold-20" transform="translate(201.615234 0)"/>
     <use xlink:href="#DejaVuSerif-Bold-51" transform="translate(236.429688 0)"/>
     <use xlink:href="#DejaVuSerif-Bold-75" transform="translate(323.539062 0)"/>
     <use xlink:href="#DejaVuSerif-Bold-65" transform="translate(396.244141 0)"/>
     <use xlink:href="#DejaVuSerif-Bold-75" transform="translate(459.867188 0)"/>
     <use xlink:href="#DejaVuSerif-Bold-65" transform="translate(532.572266 0)"/>
     <use xlink:href="#DejaVuSerif-Bold-20" transform="translate(596.195312 0)"/>
     <use xlink:href="#DejaVuSerif-Bold-28" transform="translate(631.009766 0)"/>
     <use xlink:href="#DejaVuSerif-Bold-6d" transform="translate(678.324219 0)"/>
     <use xlink:href="#DejaVuSerif-Bold-73" transform="translate(784.134766 0)"/>
     <use xlink:href="#DejaVuSerif-Bold-29" transform="translate(840.433594 0)"/>
    </g>
    <!-- BLA gain: −17.1% -->
    <g style="fill: #262626" transform="translate(609.116484 59.060719) scale(0.11 -0.11)">
     <use xlink:href="#DejaVuSerif-Bold-42"/>
     <use xlink:href="#DejaVuSerif-Bold-4c" transform="translate(84.521484 0)"/>
     <use xlink:href="#DejaVuSerif-Bold-41" transform="translate(154.833984 0)"/>
     <use xlink:href="#DejaVuSerif-Bold-20" transform="translate(232.421875 0)"/>
     <use xlink:href="#DejaVuSerif-Bold-67" transform="translate(267.236328 0)"/>
     <use xlink:href="#DejaVuSerif-Bold-61" transform="translate(337.158203 0)"/>
     <use xlink:href="#DejaVuSerif-Bold-69" transform="translate(401.953125 0)"/>
     <use xlink:href="#DejaVuSerif-Bold-6e" transform="translate(439.941406 0)"/>
     <use xlink:href="#DejaVuSerif-Bold-3a" transform="translate(512.646484 0)"/>
     <use xlink:href="#DejaVuSerif-Bold-20" transform="translate(549.560547 0)"/>
     <use xlink:href="#DejaVuSerif-Bold-2212" transform="translate(584.375 0)"/>
     <use xlink:href="#DejaVuSerif-Bold-31" transform="translate(668.164062 0)"/>
     <use xlink:href="#DejaVuSerif-Bold-37" transform="translate(737.744141 0)"/>
     <use xlink:href="#DejaVuSerif-Bold-2e" transform="translate(807.324219 0)"/>
     <use xlink:href="#DejaVuSerif-Bold-31" transform="translate(842.138672 0)"/>
     <use xlink:href="#DejaVuSerif-Bold-25" transform="translate(911.71875 0)"/>
    </g>
   </g>
  </g>
  <g id="axes_3">
   <g id="patch_16">
    <path d="M 907.05375 381.669687 
L 1277.28 381.669687 
L 1277.28 65.060719 
L 907.05375 65.060719 
z
" style="fill: #ffffff"/>
   </g>
   <g id="matplotlib.axis_5">
    <g id="xtick_5">
     <g id="line2d_20">
      <path d="M 998.675398 381.669687 
L 998.675398 65.060719 
" clip-path="url(#pe523d32e0b)" style="fill: none; stroke-dasharray: 3.7,1.6; stroke-dashoffset: 0; stroke: #dddddd; stroke-opacity: 0.7"/>
     </g>
     <g id="text_28">
      <!-- First -->
      <g style="fill: #262626" transform="translate(985.438445 399.527969) scale(0.11 -0.11)">
       <use xlink:href="#DejaVuSerif-46"/>
       <use xlink:href="#DejaVuSerif-69" transform="translate(69.384766 0)"/>
       <use xlink:href="#DejaVuSerif-72" transform="translate(101.367188 0)"/>
       <use xlink:href="#DejaVuSerif-73" transform="translate(149.169922 0)"/>
       <use xlink:href="#DejaVuSerif-74" transform="translate(200.488281 0)"/>
      </g>
     </g>
    </g>
    <g id="xtick_6">
     <g id="line2d_21">
      <path d="M 1185.658352 381.669687 
L 1185.658352 65.060719 
" clip-path="url(#pe523d32e0b)" style="fill: none; stroke-dasharray: 3.7,1.6; stroke-dashoffset: 0; stroke: #dddddd; stroke-opacity: 0.7"/>
     </g>
     <g id="text_29">
      <!-- BLA -->
      <g style="fill: #262626" transform="translate(1173.992337 399.527969) scale(0.11 -0.11)">
       <use xlink:href="#DejaVuSerif-42"/>
       <use xlink:href="#DejaVuSerif-4c" transform="translate(73.486328 0)"/>
       <use xlink:href="#DejaVuSerif-41" transform="translate(139.892578 0)"/>
      </g>
     </g>
    </g>
    <g id="text_30">
     <!-- Routing Policy -->
     <g style="fill: #262626" transform="translate(1048.232812 414.93375) scale(0.12 -0.12)">
      <use xlink:href="#DejaVuSerif-52"/>
      <use xlink:href="#DejaVuSerif-6f" transform="translate(75.292969 0)"/>
      <use xlink:href="#DejaVuSerif-75" transform="translate(135.498047 0)"/>
      <use xlink:href="#DejaVuSerif-74" transform="translate(199.902344 0)"/>
      <use xlink:href="#DejaVuSerif-69" transform="translate(240.087891 0)"/>
      <use xlink:href="#DejaVuSerif-6e" transform="translate(272.070312 0)"/>
      <use xlink:href="#DejaVuSerif-67" transform="translate(336.474609 0)"/>
      <use xlink:href="#DejaVuSerif-20" transform="translate(400.488281 0)"/>
      <use xlink:href="#DejaVuSerif-50" transform="translate(432.275391 0)"/>
      <use xlink:href="#DejaVuSerif-6f" transform="translate(495.560547 0)"/>
      <use xlink:href="#DejaVuSerif-6c" transform="translate(555.765625 0)"/>
      <use xlink:href="#DejaVuSerif-69" transform="translate(587.748047 0)"/>
      <use xlink:href="#DejaVuSerif-63" transform="translate(619.730469 0)"/>
      <use xlink:href="#DejaVuSerif-79" transform="translate(675.736328 0)"/>
     </g>
    </g>
   </g>
   <g id="matplotlib.axis_6">
    <g id="ytick_16">
     <g id="line2d_22">
      <path d="M 907.05375 381.669687 
L 1277.28 381.669687 
" clip-path="url(#pe523d32e0b)" style="fill: none; stroke-dasharray: 3.7,1.6; stroke-dashoffset: 0; stroke: #dddddd; stroke-opacity: 0.7"/>
     </g>
     <g id="text_31">
      <!-- 0 -->
      <g style="fill: #262626" transform="translate(890.555 385.848828) scale(0.11 -0.11)">
       <use xlink:href="#DejaVuSerif-30"/>
      </g>
     </g>
    </g>
    <g id="ytick_17">
     <g id="line2d_23">
      <path d="M 907.05375 321.603003 
L 1277.28 321.603003 
" clip-path="url(#pe523d32e0b)" style="fill: none; stroke-dasharray: 3.7,1.6; stroke-dashoffset: 0; stroke: #dddddd; stroke-opacity: 0.7"/>
     </g>
     <g id="text_32">
      <!-- 5 -->
      <g style="fill: #262626" transform="translate(890.555 325.782144) scale(0.11 -0.11)">
       <use xlink:href="#DejaVuSerif-35"/>
      </g>
     </g>
    </g>
    <g id="ytick_18">
     <g id="line2d_24">
      <path d="M 907.05375 261.536319 
L 1277.28 261.536319 
" clip-path="url(#pe523d32e0b)" style="fill: none; stroke-dasharray: 3.7,1.6; stroke-dashoffset: 0; stroke: #dddddd; stroke-opacity: 0.7"/>
     </g>
     <g id="text_33">
      <!-- 10 -->
      <g style="fill: #262626" transform="translate(883.55625 265.71546) scale(0.11 -0.11)">
       <use xlink:href="#DejaVuSerif-31"/>
       <use xlink:href="#DejaVuSerif-30" transform="translate(63.623047 0)"/>
      </g>
     </g>
    </g>
    <g id="ytick_19">
     <g id="line2d_25">
      <path d="M 907.05375 201.469635 
L 1277.28 201.469635 
" clip-path="url(#pe523d32e0b)" style="fill: none; stroke-dasharray: 3.7,1.6; stroke-dashoffset: 0; stroke: #dddddd; stroke-opacity: 0.7"/>
     </g>
     <g id="text_34">
      <!-- 15 -->
      <g style="fill: #262626" transform="translate(883.55625 205.648776) scale(0.11 -0.11)">
       <use xlink:href="#DejaVuSerif-31"/>
       <use xlink:href="#DejaVuSerif-35" transform="translate(63.623047 0)"/>
      </g>
     </g>
    </g>
    <g id="ytick_20">
     <g id="line2d_26">
      <path d="M 907.05375 141.402951 
L 1277.28 141.402951 
" clip-path="url(#pe523d32e0b)" style="fill: none; stroke-dasharray: 3.7,1.6; stroke-dashoffset: 0; stroke: #dddddd; stroke-opacity: 0.7"/>
     </g>
     <g id="text_35">
      <!-- 20 -->
      <g style="fill: #262626" transform="translate(883.55625 145.582092) scale(0.11 -0.11)">
       <use xlink:href="#DejaVuSerif-32"/>
       <use xlink:href="#DejaVuSerif-30" transform="translate(63.623047 0)"/>
      </g>
     </g>
    </g>
    <g id="ytick_21">
     <g id="line2d_27">
      <path d="M 907.05375 81.336267 
L 1277.28 81.336267 
" clip-path="url(#pe523d32e0b)" style="fill: none; stroke-dasharray: 3.7,1.6; stroke-dashoffset: 0; stroke: #dddddd; stroke-opacity: 0.7"/>
     </g>
     <g id="text_36">
      <!-- 25 -->
      <g style="fill: #262626" transform="translate(883.55625 85.515408) scale(0.11 -0.11)">
       <use xlink:href="#DejaVuSerif-32"/>
       <use xlink:href="#DejaVuSerif-35" transform="translate(63.623047 0)"/>
      </g>
     </g>
    </g>
   </g>
   <g id="patch_17">
    <path d="M 923.882216 381.669687 
L 1073.46858 381.669687 
L 1073.46858 80.137336 
L 923.882216 80.137336 
z
" clip-path="url(#pe523d32e0b)" style="fill: #d62728; opacity: 0.88; stroke: #000000; stroke-linejoin: miter"/>
   </g>
   <g id="patch_18">
    <path d="M 1110.86517 381.669687 
L 1260.451534 381.669687 
L 1260.451534 90.229741 
L 1110.86517 90.229741 
z
" clip-path="url(#pe523d32e0b)" style="fill: #1f77b4; opacity: 0.88; stroke: #000000; stroke-linejoin: miter"/>
   </g>
   <g id="patch_19">
    <path d="M 907.05375 381.669687 
L 907.05375 65.060719 
" style="fill: none; stroke: #000000; stroke-width: 1.5; stroke-linejoin: miter; stroke-linecap: square"/>
   </g>
   <g id="patch_20">
    <path d="M 1277.28 381.669687 
L 1277.28 65.060719 
" style="fill: none; stroke: #000000; stroke-width: 1.5; stroke-linejoin: miter; stroke-linecap: square"/>
   </g>
   <g id="patch_21">
    <path d="M 907.05375 381.669687 
L 1277.28 381.669687 
" style="fill: none; stroke: #000000; stroke-width: 1.5; stroke-linejoin: miter; stroke-linecap: square"/>
   </g>
   <g id="patch_22">
    <path d="M 907.05375 65.060719 
L 1277.28 65.060719 
" style="fill: none; stroke: #000000; stroke-width: 1.5; stroke-linejoin: miter; stroke-linecap: square"/>
   </g>
   <g id="text_37">
    <!-- 25 -->
    <g style="fill: #262626" transform="translate(992.413366 78.265618) scale(0.09 -0.09)">
     <use xlink:href="#DejaVuSerif-Bold-32"/>
     <use xlink:href="#DejaVuSerif-Bold-35" transform="translate(69.580078 0)"/>
    </g>
   </g>
   <g id="text_38">
    <!-- 24 -->
    <g style="fill: #262626" transform="translate(1179.396321 88.358022) scale(0.09 -0.09)">
     <use xlink:href="#DejaVuSerif-Bold-32"/>
     <use xlink:href="#DejaVuSerif-Bold-34" transform="translate(69.580078 0)"/>
    </g>
   </g>
   <g id="text_39">
    <!-- Total Energy (Wh) -->
    <g style="fill: #262626" transform="translate(1036.005 46.586719) scale(0.11 -0.11)">
     <defs>
      <path id="DejaVuSerif-Bold-54" d="M 1159 0 
L 1159 378 
L 1778 378 
L 1778 4238 
L 500 4238 
L 500 3500 
L 72 3500 
L 72 4666 
L 4697 4666 
L 4697 3500 
L 4275 3500 
L 4275 4238 
L 2988 4238 
L 2988 378 
L 3609 378 
L 3609 0 
L 1159 0 
z
" transform="scale(0.015625)"/>
      <path id="DejaVuSerif-Bold-6f" d="M 2138 263 
Q 2488 263 2630 563 
Q 2772 863 2772 1663 
Q 2772 2463 2631 2761 
Q 2491 3059 2138 3059 
Q 1784 3059 1640 2757 
Q 1497 2456 1497 1663 
Q 1497 869 1640 566 
Q 1784 263 2138 263 
z
M 2138 -91 
Q 1259 -91 761 376 
Q 263 844 263 1663 
Q 263 2484 761 2948 
Q 1259 3413 2138 3413 
Q 3019 3413 3516 2948 
Q 4013 2484 4013 1663 
Q 4013 844 3514 376 
Q 3016 -91 2138 -91 
z
" transform="scale(0.015625)"/>
      <path id="DejaVuSerif-Bold-74" d="M 634 2944 
L 153 2944 
L 153 3322 
L 634 3322 
L 634 4353 
L 1741 4353 
L 1741 3322 
L 2663 3322 
L 2663 2944 
L 1741 2944 
L 1741 909 
Q 1741 475 1809 369 
Q 1878 263 2059 263 
Q 2259 263 2356 397 
Q 2453 531 2459 813 
L 2925 813 
Q 2897 313 2651 111 
Q 2406 -91 1806 -91 
Q 1122 -91 878 123 
Q 634 338 634 909 
L 634 2944 
z
" transform="scale(0.015625)"/>
      <path id="DejaVuSerif-Bold-45" d="M 300 0 
L 300 378 
L 897 378 
L 897 4288 
L 300 4288 
L 300 4666 
L 4494 4666 
L 4494 3566 
L 4063 3566 
L 4063 4238 
L 2100 4238 
L 2100 2741 
L 3322 2741 
L 3322 3334 
L 3750 3334 
L 3750 1722 
L 3322 1722 
L 3322 2316 
L 2100 2316 
L 2100 428 
L 4122 428 
L 4122 1100 
L 4550 1100 
L 4550 0 
L 300 0 
z
" transform="scale(0.015625)"/>
      <path id="DejaVuSerif-Bold-72" d="M 3438 3359 
L 3438 2369 
L 3084 2369 
Q 3066 2634 2941 2764 
Q 2816 2894 2578 2894 
Q 2216 2894 2006 2575 
Q 1797 2256 1797 1691 
L 1797 378 
L 2400 378 
L 2400 0 
L 219 0 
L 219 378 
L 691 378 
L 691 2944 
L 184 2944 
L 184 3322 
L 1797 3322 
L 1797 2731 
Q 1959 3078 2226 3245 
Q 2494 3413 2881 3413 
Q 2978 3413 3117 3398 
Q 3256 3384 3438 3359 
z
" transform="scale(0.015625)"/>
      <path id="DejaVuSerif-Bold-57" d="M 5453 0 
L 4647 0 
L 3591 3397 
L 2534 0 
L 1728 0 
L 397 4288 
L -56 4288 
L -56 4666 
L 2156 4666 
L 2156 4288 
L 1656 4288 
L 2547 1422 
L 3553 4666 
L 4441 4666 
L 5466 1369 
L 6375 4288 
L 5819 4288 
L 5819 4666 
L 7263 4666 
L 7263 4288 
L 6784 4288 
L 5453 0 
z
" transform="scale(0.015625)"/>
      <path id="DejaVuSerif-Bold-68" d="M 219 0 
L 219 378 
L 691 378 
L 691 4488 
L 197 4488 
L 197 4863 
L 1797 4863 
L 1797 2853 
Q 1997 3150 2253 3281 
Q 2509 3413 2900 3413 
Q 3459 3413 3745 3083 
Q 4031 2753 4031 2113 
L 4031 378 
L 4506 378 
L 4506 0 
L 2522 0 
L 2522 378 
L 2925 378 
L 2925 2144 
Q 2925 2566 2817 2730 
Q 2709 2894 2444 2894 
Q 2109 2894 1953 2648 
Q 1797 2403 1797 1869 
L 1797 378 
L 2203 378 
L 2203 0 
L 219 0 
z
" transform="scale(0.015625)"/>
     </defs>
     <use xlink:href="#DejaVuSerif-Bold-54"/>
     <use xlink:href="#DejaVuSerif-Bold-6f" transform="translate(62.914062 0)"/>
     <use xlink:href="#DejaVuSerif-Bold-74" transform="translate(129.613281 0)"/>
     <use xlink:href="#DejaVuSerif-Bold-61" transform="translate(175.804688 0)"/>
     <use xlink:href="#DejaVuSerif-Bold-6c" transform="translate(240.599609 0)"/>
     <use xlink:href="#DejaVuSerif-Bold-20" transform="translate(278.587891 0)"/>
     <use xlink:href="#DejaVuSerif-Bold-45" transform="translate(313.402344 0)"/>
     <use xlink:href="#DejaVuSerif-Bold-6e" transform="translate(389.623047 0)"/>
     <use xlink:href="#DejaVuSerif-Bold-65" transform="translate(462.328125 0)"/>
     <use xlink:href="#DejaVuSerif-Bold-72" transform="translate(525.951172 0)"/>
     <use xlink:href="#DejaVuSerif-Bold-67" transform="translate(578.636719 0)"/>
     <use xlink:href="#DejaVuSerif-Bold-79" transform="translate(648.558594 0)"/>
     <use xlink:href="#DejaVuSerif-Bold-20" transform="translate(706.664062 0)"/>
     <use xlink:href="#DejaVuSerif-Bold-28" transform="translate(741.478516 0)"/>
     <use xlink:href="#DejaVuSerif-Bold-57" transform="translate(788.792969 0)"/>
     <use xlink:href="#DejaVuSerif-Bold-68" transform="translate(901.097656 0)"/>
     <use xlink:href="#DejaVuSerif-Bold-29" transform="translate(973.802734 0)"/>
    </g>
    <!-- BLA gain: −3.3% -->
    <g style="fill: #262626" transform="translate(1040.623281 59.060719) scale(0.11 -0.11)">
     <use xlink:href="#DejaVuSerif-Bold-42"/>
     <use xlink:href="#DejaVuSerif-Bold-4c" transform="translate(84.521484 0)"/>
     <use xlink:href="#DejaVuSerif-Bold-41" transform="translate(154.833984 0)"/>
     <use xlink:href="#DejaVuSerif-Bold-20" transform="translate(232.421875 0)"/>
     <use xlink:href="#DejaVuSerif-Bold-67" transform="translate(267.236328 0)"/>
     <use xlink:href="#DejaVuSerif-Bold-61" transform="translate(337.158203 0)"/>
     <use xlink:href="#DejaVuSerif-Bold-69" transform="translate(401.953125 0)"/>
     <use xlink:href="#DejaVuSerif-Bold-6e" transform="translate(439.941406 0)"/>
     <use xlink:href="#DejaVuSerif-Bold-3a" transform="translate(512.646484 0)"/>
     <use xlink:href="#DejaVuSerif-Bold-20" transform="translate(549.560547 0)"/>
     <use xlink:href="#DejaVuSerif-Bold-2212" transform="translate(584.375 0)"/>
     <use xlink:href="#DejaVuSerif-Bold-33" transform="translate(668.164062 0)"/>
     <use xlink:href="#DejaVuSerif-Bold-2e" transform="translate(737.744141 0)"/>
     <use xlink:href="#DejaVuSerif-Bold-33" transform="translate(772.558594 0)"/>
     <use xlink:href="#DejaVuSerif-Bold-25" transform="translate(842.138672 0)"/>
    </g>
   </g>
  </g>
  <g id="text_40">
   <!-- Scalability Summary — dataset-mini -->
   <g style="fill: #262626" transform="translate(499.913594 17.837812) scale(0.14 -0.14)">
    <defs>
     <path id="DejaVuSerif-Bold-53" d="M 494 225 
L 494 1331 
L 891 1331 
Q 981 806 1318 547 
Q 1656 288 2253 288 
Q 2738 288 2991 472 
Q 3244 656 3244 1013 
Q 3244 1294 3072 1450 
Q 2900 1606 2363 1741 
L 1663 1913 
Q 978 2088 700 2398 
Q 422 2709 422 3284 
Q 422 3978 883 4364 
Q 1344 4750 2175 4750 
Q 2584 4750 3026 4681 
Q 3469 4613 3944 4475 
L 3944 3444 
L 3547 3444 
Q 3456 3925 3150 4148 
Q 2844 4372 2278 4372 
Q 1816 4372 1580 4211 
Q 1344 4050 1344 3731 
Q 1344 3441 1506 3289 
Q 1669 3138 2303 2975 
L 3003 2803 
Q 3653 2641 3945 2297 
Q 4238 1953 4238 1350 
Q 4238 644 3750 276 
Q 3263 -91 2316 -91 
Q 1859 -91 1409 -12 
Q 959 66 494 225 
z
" transform="scale(0.015625)"/>
     <path id="DejaVuSerif-Bold-63" d="M 3609 1038 
Q 3491 469 3123 189 
Q 2756 -91 2125 -91 
Q 1238 -91 750 368 
Q 263 828 263 1663 
Q 263 2488 744 2950 
Q 1225 3413 2081 3413 
Q 2428 3413 2781 3347 
Q 3134 3281 3500 3150 
L 3500 2228 
L 3150 2228 
Q 3100 2650 2903 2854 
Q 2706 3059 2350 3059 
Q 1888 3059 1692 2746 
Q 1497 2434 1497 1663 
Q 1497 909 1687 586 
Q 1878 263 2309 263 
Q 2644 263 2845 463 
Q 3047 663 3091 1038 
L 3609 1038 
z
" transform="scale(0.015625)"/>
     <path id="DejaVuSerif-Bold-62" d="M 622 378 
L 622 4488 
L 147 4488 
L 147 4863 
L 1728 4863 
L 1728 2900 
Q 1869 3159 2106 3286 
Q 2344 3413 2694 3413 
Q 3403 3413 3811 2945 
Q 4219 2478 4219 1663 
Q 4219 847 3811 378 
Q 3403 -91 2694 -91 
Q 2344 -91 2106 36 
Q 1869 163 1728 422 
L 1728 0 
L 147 0 
L 147 378 
L 622 378 
z
M 1728 1497 
Q 1728 916 1876 656 
Q 2025 397 2356 397 
Q 2697 397 2836 672 
Q 2975 947 2975 1663 
Q 2975 2378 2836 2651 
Q 2697 2925 2356 2925 
Q 2025 2925 1876 2665 
Q 1728 2406 1728 1825 
L 1728 1497 
z
" transform="scale(0.015625)"/>
     <path id="DejaVuSerif-Bold-2014" d="M 344 2075 
L 6056 2075 
L 6056 1325 
L 344 1325 
L 344 2075 
z
" transform="scale(0.015625)"/>
     <path id="DejaVuSerif-Bold-64" d="M 2747 1497 
L 2747 1825 
Q 2747 2406 2597 2665 
Q 2447 2925 2119 2925 
Q 1775 2925 1636 2651 
Q 1497 2378 1497 1663 
Q 1497 947 1637 672 
Q 1778 397 2119 397 
Q 2447 397 2597 656 
Q 2747 916 2747 1497 
z
M 3853 378 
L 4325 378 
L 4325 0 
L 2747 0 
L 2747 422 
Q 2606 163 2367 36 
Q 2128 -91 1778 -91 
Q 1072 -91 667 378 
Q 263 847 263 1663 
Q 263 2481 667 2947 
Q 1072 3413 1778 3413 
Q 2128 3413 2367 3286 
Q 2606 3159 2747 2900 
L 2747 4488 
L 2272 4488 
L 2272 4863 
L 3853 4863 
L 3853 378 
z
" transform="scale(0.015625)"/>
     <path id="DejaVuSerif-Bold-2d" d="M 347 2138 
L 2309 2138 
L 2309 1294 
L 347 1294 
L 347 2138 
z
" transform="scale(0.015625)"/>
    </defs>
    <use xlink:href="#DejaVuSerif-Bold-53"/>
    <use xlink:href="#DejaVuSerif-Bold-63" transform="translate(72.216797 0)"/>
    <use xlink:href="#DejaVuSerif-Bold-61" transform="translate(133.105469 0)"/>
    <use xlink:href="#DejaVuSerif-Bold-6c" transform="translate(197.900391 0)"/>
    <use xlink:href="#DejaVuSerif-Bold-61" transform="translate(235.888672 0)"/>
    <use xlink:href="#DejaVuSerif-Bold-62" transform="translate(300.683594 0)"/>
    <use xlink:href="#DejaVuSerif-Bold-69" transform="translate(370.605469 0)"/>
    <use xlink:href="#DejaVuSerif-Bold-6c" transform="translate(408.59375 0)"/>
    <use xlink:href="#DejaVuSerif-Bold-69" transform="translate(446.582031 0)"/>
    <use xlink:href="#DejaVuSerif-Bold-74" transform="translate(484.570312 0)"/>
    <use xlink:href="#DejaVuSerif-Bold-79" transform="translate(530.761719 0)"/>
    <use xlink:href="#DejaVuSerif-Bold-20" transform="translate(588.867188 0)"/>
    <use xlink:href="#DejaVuSerif-Bold-53" transform="translate(623.681641 0)"/>
    <use xlink:href="#DejaVuSerif-Bold-75" transform="translate(695.898438 0)"/>
    <use xlink:href="#DejaVuSerif-Bold-6d" transform="translate(768.603516 0)"/>
    <use xlink:href="#DejaVuSerif-Bold-6d" transform="translate(874.414062 0)"/>
    <use xlink:href="#DejaVuSerif-Bold-61" transform="translate(980.224609 0)"/>
    <use xlink:href="#DejaVuSerif-Bold-72" transform="translate(1045.019531 0)"/>
    <use xlink:href="#DejaVuSerif-Bold-79" transform="translate(1097.705078 0)"/>
    <use xlink:href="#DejaVuSerif-Bold-20" transform="translate(1155.810547 0)"/>
    <use xlink:href="#DejaVuSerif-Bold-2014" transform="translate(1190.625 0)"/>
    <use xlink:href="#DejaVuSerif-Bold-20" transform="translate(1290.625 0)"/>
    <use xlink:href="#DejaVuSerif-Bold-64" transform="translate(1325.439453 0)"/>
    <use xlink:href="#DejaVuSerif-Bold-61" transform="translate(1395.361328 0)"/>
    <use xlink:href="#DejaVuSerif-Bold-74" transform="translate(1460.15625 0)"/>
    <use xlink:href="#DejaVuSerif-Bold-61" transform="translate(1506.347656 0)"/>
    <use xlink:href="#DejaVuSerif-Bold-73" transform="translate(1571.142578 0)"/>
    <use xlink:href="#DejaVuSerif-Bold-65" transform="translate(1627.441406 0)"/>
    <use xlink:href="#DejaVuSerif-Bold-74" transform="translate(1691.064453 0)"/>
    <use xlink:href="#DejaVuSerif-Bold-2d" transform="translate(1737.255859 0)"/>
    <use xlink:href="#DejaVuSerif-Bold-6d" transform="translate(1778.759766 0)"/>
    <use xlink:href="#DejaVuSerif-Bold-69" transform="translate(1884.570312 0)"/>
    <use xlink:href="#DejaVuSerif-Bold-6e" transform="translate(1922.558594 0)"/>
    <use xlink:href="#DejaVuSerif-Bold-69" transform="translate(1995.263672 0)"/>
   </g>
  </g>
 </g>
 <defs>
  <clipPath id="p7fb7c86195">
   <rect x="51.69375" y="65.060719" width="370.22625" height="316.608969"/>
  </clipPath>
  <clipPath id="p622450325d">
   <rect x="479.37375" y="65.060719" width="370.22625" height="316.608969"/>
  </clipPath>
  <clipPath id="pe523d32e0b">
   <rect x="907.05375" y="65.060719" width="370.22625" height="316.608969"/>
  </clipPath>
 </defs>
</svg>
