<?xml version="1.0" encoding="utf-8" standalone="no"?>
<!DOCTYPE svg PUBLIC "-//W3C//DTD SVG 1.1//EN"
  "http://www.w3.org/Graphics/SVG/1.1/DTD/svg11.dtd">
<svg xmlns:xlink="http://www.w3.org/1999/xlink" width="708.48pt" height="420.48pt" viewBox="0 0 708.48 420.48" xmlns="http://www.w3.org/2000/svg" version="1.1">
 <metadata>
  <rdf:RDF xmlns:dc="http://purl.org/dc/elements/1.1/" xmlns:cc="http://creativecommons.org/ns#" xmlns:rdf="http://www.w3.org/1999/02/22-rdf-syntax-ns#">
   <cc:Work>
    <dc:type rdf:resource="http://purl.org/dc/dcmitype/StillImage"/>
    <dc:date>2026-05-08T00:15:39.439521</dc:date>
    <dc:format>image/svg+xml</dc:format>
    <dc:creator>
     <cc:Agent>
      <dc:title>Matplotlib v3.10.7, https://matplotlib.org/</dc:title>
     </cc:Agent>
    </dc:creator>
   </cc:Work>
  </rdf:RDF>
 </metadata>
 <defs>
  <style type="text/css">*{stroke-linejoin: round; stroke-linecap: butt}</style>
 </defs>
 <g id="figure_1">
  <g id="patch_1">
   <path d="M 0 420.48 
L 708.48 420.48 
L 708.48 0 
L 0 0 
z
" style="fill: #ffffff"/>
  </g>
  <g id="axes_1">
   <g id="patch_2">
    <path d="M 46.31125 377.349687 
L 701.28 377.349687 
L 701.28 23.077969 
L 46.31125 23.077969 
z
" style="fill: #ffffff"/>
   </g>
   <g id="matplotlib.axis_1">
    <g id="xtick_1">
     <g id="text_1">
      <!-- MFF -->
      <g style="fill: #262626" transform="translate(142.208255 395.207969) scale(0.11 -0.11)">
       <defs>
        <path id="DejaVuSerif-4d" d="M 353 0 
L 353 331 
L 947 331 
L 947 4331 
L 319 4331 
L 319 4666 
L 1678 4666 
L 3316 1344 
L 4953 4666 
L 6228 4666 
L 6228 4331 
L 5606 4331 
L 5606 331 
L 6203 331 
L 6203 0 
L 4378 0 
L 4378 331 
L 4972 331 
L 4972 3938 
L 3372 684 
L 2931 684 
L 1331 3938 
L 1331 331 
L 1925 331 
L 1925 0 
L 353 0 
z
" transform="scale(0.015625)"/>
        <path id="DejaVuSerif-46" d="M 353 0 
L 353 331 
L 947 331 
L 947 4331 
L 353 4331 
L 353 4666 
L 4172 4666 
L 4172 3628 
L 3788 3628 
L 3788 4281 
L 1581 4281 
L 1581 2719 
L 3175 2719 
L 3175 3303 
L 3559 3303 
L 3559 1753 
L 3175 1753 
L 3175 2338 
L 1581 2338 
L 1581 331 
L 2328 331 
L 2328 0 
L 353 0 
z
" transform="scale(0.015625)"/>
       </defs>
       <use xlink:href="#DejaVuSerif-4d"/>
       <use xlink:href="#DejaVuSerif-46" transform="translate(102.392578 0)"/>
       <use xlink:href="#DejaVuSerif-46" transform="translate(171.777344 0)"/>
      </g>
     </g>
    </g>
    <g id="xtick_2">
     <g id="text_2">
      <!-- LWFF -->
      <g style="fill: #262626" transform="translate(357.338594 395.207969) scale(0.11 -0.11)">
       <defs>
        <path id="DejaVuSerif-4c" d="M 353 0 
L 353 331 
L 947 331 
L 947 4331 
L 353 4331 
L 353 4666 
L 2175 4666 
L 2175 4331 
L 1581 4331 
L 1581 384 
L 3713 384 
L 3713 1166 
L 4097 1166 
L 4097 0 
L 353 0 
z
" transform="scale(0.015625)"/>
        <path id="DejaVuSerif-57" d="M 4878 0 
L 4366 0 
L 3297 3794 
L 2228 0 
L 1716 0 
L 494 4331 
L 31 4331 
L 31 4666 
L 1734 4666 
L 1734 4331 
L 1153 4331 
L 2125 884 
L 3188 4666 
L 3694 4666 
L 4775 844 
L 5753 4331 
L 5216 4331 
L 5216 4666 
L 6559 4666 
L 6559 4331 
L 6100 4331 
L 4878 0 
z
" transform="scale(0.015625)"/>
       </defs>
       <use xlink:href="#DejaVuSerif-4c"/>
       <use xlink:href="#DejaVuSerif-57" transform="translate(57.65625 0)"/>
       <use xlink:href="#DejaVuSerif-46" transform="translate(160.439453 0)"/>
       <use xlink:href="#DejaVuSerif-46" transform="translate(229.824219 0)"/>
      </g>
     </g>
    </g>
    <g id="xtick_3">
     <g id="text_3">
      <!-- LFF -->
      <g style="fill: #262626" transform="translate(580.833229 395.207969) scale(0.11 -0.11)">
       <use xlink:href="#DejaVuSerif-4c"/>
       <use xlink:href="#DejaVuSerif-46" transform="translate(66.40625 0)"/>
       <use xlink:href="#DejaVuSerif-46" transform="translate(135.791016 0)"/>
      </g>
     </g>
    </g>
    <g id="text_4">
     <!-- VM Placement Policy -->
     <g style="fill: #262626" transform="translate(309.546875 410.61375) scale(0.12 -0.12)">
      <defs>
       <path id="DejaVuSerif-56" d="M 1119 4331 
L 2497 750 
L 3872 4331 
L 3347 4331 
L 3347 4666 
L 4716 4666 
L 4716 4331 
L 4263 4331 
L 2597 0 
L 2059 0 
L 403 4331 
L -63 4331 
L -63 4666 
L 1638 4666 
L 1638 4331 
L 1119 4331 
z
" transform="scale(0.015625)"/>
       <path id="DejaVuSerif-20" transform="scale(0.015625)"/>
       <path id="DejaVuSerif-50" d="M 1581 2375 
L 2406 2375 
Q 2872 2375 3115 2626 
Q 3359 2878 3359 3353 
Q 3359 3831 3115 4081 
Q 2872 4331 2406 4331 
L 1581 4331 
L 1581 2375 
z
M 353 0 
L 353 331 
L 947 331 
L 947 4331 
L 353 4331 
L 353 4666 
L 2559 4666 
Q 3259 4666 3668 4311 
Q 4078 3956 4078 3353 
Q 4078 2753 3668 2397 
Q 3259 2041 2559 2041 
L 1581 2041 
L 1581 331 
L 2303 331 
L 2303 0 
L 353 0 
z
" transform="scale(0.015625)"/>
       <path id="DejaVuSerif-6c" d="M 1313 331 
L 1856 331 
L 1856 0 
L 184 0 
L 184 331 
L 738 331 
L 738 4531 
L 184 4531 
L 184 4863 
L 1313 4863 
L 1313 331 
z
" transform="scale(0.015625)"/>
       <path id="DejaVuSerif-61" d="M 2547 1044 
L 2547 1747 
L 1806 1747 
Q 1378 1747 1168 1562 
Q 959 1378 959 997 
Q 959 650 1171 447 
Q 1384 244 1747 244 
Q 2106 244 2326 466 
Q 2547 688 2547 1044 
z
M 3122 2075 
L 3122 331 
L 3634 331 
L 3634 0 
L 2547 0 
L 2547 359 
Q 2356 128 2106 18 
Q 1856 -91 1522 -91 
Q 969 -91 644 203 
Q 319 497 319 997 
Q 319 1513 691 1797 
Q 1063 2081 1741 2081 
L 2547 2081 
L 2547 2309 
Q 2547 2688 2317 2895 
Q 2088 3103 1672 3103 
Q 1328 3103 1125 2947 
Q 922 2791 872 2484 
L 575 2484 
L 575 3156 
Q 875 3284 1158 3348 
Q 1441 3413 1709 3413 
Q 2400 3413 2761 3070 
Q 3122 2728 3122 2075 
z
" transform="scale(0.015625)"/>
       <path id="DejaVuSerif-63" d="M 3291 997 
Q 3169 466 2822 187 
Q 2475 -91 1925 -91 
Q 1200 -91 759 389 
Q 319 869 319 1663 
Q 319 2459 759 2936 
Q 1200 3413 1925 3413 
Q 2241 3413 2553 3339 
Q 2866 3266 3181 3116 
L 3181 2266 
L 2847 2266 
Q 2781 2703 2561 2903 
Q 2341 3103 1931 3103 
Q 1466 3103 1228 2742 
Q 991 2381 991 1663 
Q 991 944 1227 581 
Q 1463 219 1931 219 
Q 2303 219 2525 412 
Q 2747 606 2828 997 
L 3291 997 
z
" transform="scale(0.015625)"/>
       <path id="DejaVuSerif-65" d="M 3469 1600 
L 991 1600 
L 991 1575 
Q 991 903 1244 561 
Q 1497 219 1991 219 
Q 2369 219 2611 417 
Q 2853 616 2950 1006 
L 3413 1006 
Q 3275 459 2904 184 
Q 2534 -91 1931 -91 
Q 1203 -91 761 389 
Q 319 869 319 1663 
Q 319 2450 753 2931 
Q 1188 3413 1894 3413 
Q 2647 3413 3050 2948 
Q 3453 2484 3469 1600 
z
M 2791 1931 
Q 2772 2513 2545 2808 
Q 2319 3103 1894 3103 
Q 1497 3103 1269 2806 
Q 1041 2509 991 1931 
L 2791 1931 
z
" transform="scale(0.015625)"/>
       <path id="DejaVuSerif-6d" d="M 3316 2675 
Q 3481 3041 3739 3227 
Q 3997 3413 4341 3413 
Q 4863 3413 5119 3089 
Q 5375 2766 5375 2113 
L 5375 331 
L 5894 331 
L 5894 0 
L 4300 0 
L 4300 331 
L 4800 331 
L 4800 2047 
Q 4800 2556 4650 2772 
Q 4500 2988 4153 2988 
Q 3769 2988 3567 2697 
Q 3366 2406 3366 1850 
L 3366 331 
L 3866 331 
L 3866 0 
L 2291 0 
L 2291 331 
L 2791 331 
L 2791 2069 
Q 2791 2566 2641 2777 
Q 2491 2988 2144 2988 
Q 1759 2988 1557 2697 
Q 1356 2406 1356 1850 
L 1356 331 
L 1856 331 
L 1856 0 
L 263 0 
L 263 331 
L 781 331 
L 781 2994 
L 231 2994 
L 231 3322 
L 1356 3322 
L 1356 2731 
Q 1516 3063 1762 3238 
Q 2009 3413 2322 3413 
Q 2709 3413 2968 3220 
Q 3228 3028 3316 2675 
z
" transform="scale(0.015625)"/>
       <path id="DejaVuSerif-6e" d="M 263 0 
L 263 331 
L 781 331 
L 781 2988 
L 231 2988 
L 231 3322 
L 1356 3322 
L 1356 2731 
Q 1516 3069 1770 3241 
Q 2025 3413 2363 3413 
Q 2913 3413 3172 3097 
Q 3431 2781 3431 2113 
L 3431 331 
L 3944 331 
L 3944 0 
L 2356 0 
L 2356 331 
L 2853 331 
L 2853 1931 
Q 2853 2541 2703 2767 
Q 2553 2994 2175 2994 
Q 1775 2994 1565 2701 
Q 1356 2409 1356 1850 
L 1356 331 
L 1856 331 
L 1856 0 
L 263 0 
z
" transform="scale(0.015625)"/>
       <path id="DejaVuSerif-74" d="M 691 2988 
L 184 2988 
L 184 3322 
L 691 3322 
L 691 4353 
L 1269 4353 
L 1269 3322 
L 2350 3322 
L 2350 2988 
L 1269 2988 
L 1269 878 
Q 1269 456 1350 337 
Q 1431 219 1650 219 
Q 1875 219 1978 351 
Q 2081 484 2088 781 
L 2522 781 
Q 2497 328 2275 118 
Q 2053 -91 1600 -91 
Q 1103 -91 897 129 
Q 691 350 691 878 
L 691 2988 
z
" transform="scale(0.015625)"/>
       <path id="DejaVuSerif-6f" d="M 1925 219 
Q 2388 219 2623 584 
Q 2859 950 2859 1663 
Q 2859 2375 2623 2739 
Q 2388 3103 1925 3103 
Q 1463 3103 1227 2739 
Q 991 2375 991 1663 
Q 991 950 1228 584 
Q 1466 219 1925 219 
z
M 1925 -91 
Q 1200 -91 759 389 
Q 319 869 319 1663 
Q 319 2456 758 2934 
Q 1197 3413 1925 3413 
Q 2653 3413 3092 2934 
Q 3531 2456 3531 1663 
Q 3531 869 3092 389 
Q 2653 -91 1925 -91 
z
" transform="scale(0.015625)"/>
       <path id="DejaVuSerif-69" d="M 622 4353 
Q 622 4497 726 4603 
Q 831 4709 978 4709 
Q 1122 4709 1226 4603 
Q 1331 4497 1331 4353 
Q 1331 4206 1228 4103 
Q 1125 4000 978 4000 
Q 831 4000 726 4103 
Q 622 4206 622 4353 
z
M 1356 331 
L 1900 331 
L 1900 0 
L 231 0 
L 231 331 
L 781 331 
L 781 2988 
L 231 2988 
L 231 3322 
L 1356 3322 
L 1356 331 
z
" transform="scale(0.015625)"/>
       <path id="DejaVuSerif-79" d="M 1381 -609 
L 1600 -56 
L 359 2988 
L -19 2988 
L -19 3322 
L 1509 3322 
L 1509 2988 
L 978 2988 
L 1913 703 
L 2847 2988 
L 2350 2988 
L 2350 3322 
L 3597 3322 
L 3597 2988 
L 3225 2988 
L 1703 -750 
Q 1547 -1138 1356 -1280 
Q 1166 -1422 819 -1422 
Q 672 -1422 517 -1397 
Q 363 -1372 206 -1325 
L 206 -691 
L 500 -691 
Q 519 -903 608 -995 
Q 697 -1088 884 -1088 
Q 1056 -1088 1161 -992 
Q 1266 -897 1381 -609 
z
" transform="scale(0.015625)"/>
      </defs>
      <use xlink:href="#DejaVuSerif-56"/>
      <use xlink:href="#DejaVuSerif-4d" transform="translate(72.216797 0)"/>
      <use xlink:href="#DejaVuSerif-20" transform="translate(174.609375 0)"/>
      <use xlink:href="#DejaVuSerif-50" transform="translate(206.396484 0)"/>
      <use xlink:href="#DejaVuSerif-6c" transform="translate(273.681641 0)"/>
      <use xlink:href="#DejaVuSerif-61" transform="translate(305.664062 0)"/>
      <use xlink:href="#DejaVuSerif-63" transform="translate(365.283203 0)"/>
      <use xlink:href="#DejaVuSerif-65" transform="translate(421.289062 0)"/>
      <use xlink:href="#DejaVuSerif-6d" transform="translate(480.46875 0)"/>
      <use xlink:href="#DejaVuSerif-65" transform="translate(575.292969 0)"/>
      <use xlink:href="#DejaVuSerif-6e" transform="translate(634.472656 0)"/>
      <use xlink:href="#DejaVuSerif-74" transform="translate(698.876953 0)"/>
      <use xlink:href="#DejaVuSerif-20" transform="translate(739.0625 0)"/>
      <use xlink:href="#DejaVuSerif-50" transform="translate(770.849609 0)"/>
      <use xlink:href="#DejaVuSerif-6f" transform="translate(834.134766 0)"/>
      <use xlink:href="#DejaVuSerif-6c" transform="translate(894.339844 0)"/>
      <use xlink:href="#DejaVuSerif-69" transform="translate(926.322266 0)"/>
      <use xlink:href="#DejaVuSerif-63" transform="translate(958.304688 0)"/>
      <use xlink:href="#DejaVuSerif-79" transform="translate(1014.310547 0)"/>
     </g>
    </g>
   </g>
   <g id="matplotlib.axis_2">
    <g id="ytick_1">
     <g id="line2d_1">
      <path d="M 46.31125 361.246428 
L 701.28 361.246428 
" clip-path="url(#p5390a5f290)" style="fill: none; stroke-dasharray: 3.7,1.6; stroke-dashoffset: 0; stroke: #dddddd; stroke-opacity: 0.7"/>
     </g>
     <g id="text_5">
      <!-- 0 -->
      <g style="fill: #262626" transform="translate(29.8125 365.425568) scale(0.11 -0.11)">
       <defs>
        <path id="DejaVuSerif-30" d="M 2034 219 
Q 2513 219 2750 744 
Q 2988 1269 2988 2328 
Q 2988 3391 2750 3916 
Q 2513 4441 2034 4441 
Q 1556 4441 1318 3916 
Q 1081 3391 1081 2328 
Q 1081 1269 1318 744 
Q 1556 219 2034 219 
z
M 2034 -91 
Q 1275 -91 848 546 
Q 422 1184 422 2328 
Q 422 3475 848 4112 
Q 1275 4750 2034 4750 
Q 2797 4750 3222 4112 
Q 3647 3475 3647 2328 
Q 3647 1184 3222 546 
Q 2797 -91 2034 -91 
z
" transform="scale(0.015625)"/>
       </defs>
       <use xlink:href="#DejaVuSerif-30"/>
      </g>
     </g>
    </g>
    <g id="ytick_2">
     <g id="line2d_2">
      <path d="M 46.31125 303.990392 
L 701.28 303.990392 
" clip-path="url(#p5390a5f290)" style="fill: none; stroke-dasharray: 3.7,1.6; stroke-dashoffset: 0; stroke: #dddddd; stroke-opacity: 0.7"/>
     </g>
     <g id="text_6">
      <!-- 5 -->
      <g style="fill: #262626" transform="translate(29.8125 308.169533) scale(0.11 -0.11)">
       <defs>
        <path id="DejaVuSerif-35" d="M 3219 4666 
L 3219 4153 
L 1081 4153 
L 1081 2816 
Q 1244 2928 1461 2984 
Q 1678 3041 1947 3041 
Q 2703 3041 3140 2622 
Q 3578 2203 3578 1478 
Q 3578 738 3136 323 
Q 2694 -91 1894 -91 
Q 1572 -91 1234 -12 
Q 897 66 544 225 
L 544 1131 
L 897 1131 
Q 925 688 1179 453 
Q 1434 219 1894 219 
Q 2388 219 2653 544 
Q 2919 869 2919 1478 
Q 2919 2084 2655 2407 
Q 2391 2731 1894 2731 
Q 1613 2731 1398 2631 
Q 1184 2531 1019 2322 
L 750 2322 
L 750 4666 
L 3219 4666 
z
" transform="scale(0.015625)"/>
       </defs>
       <use xlink:href="#DejaVuSerif-35"/>
      </g>
     </g>
    </g>
    <g id="ytick_3">
     <g id="line2d_3">
      <path d="M 46.31125 246.734357 
L 701.28 246.734357 
" clip-path="url(#p5390a5f290)" style="fill: none; stroke-dasharray: 3.7,1.6; stroke-dashoffset: 0; stroke: #dddddd; stroke-opacity: 0.7"/>
     </g>
     <g id="text_7">
      <!-- 10 -->
      <g style="fill: #262626" transform="translate(22.81375 250.913497) scale(0.11 -0.11)">
       <defs>
        <path id="DejaVuSerif-31" d="M 909 0 
L 909 331 
L 1722 331 
L 1722 4213 
L 781 3603 
L 781 4013 
L 1919 4750 
L 2350 4750 
L 2350 331 
L 3163 331 
L 3163 0 
L 909 0 
z
" transform="scale(0.015625)"/>
       </defs>
       <use xlink:href="#DejaVuSerif-31"/>
       <use xlink:href="#DejaVuSerif-30" transform="translate(63.623047 0)"/>
      </g>
     </g>
    </g>
    <g id="ytick_4">
     <g id="line2d_4">
      <path d="M 46.31125 189.478321 
L 701.28 189.478321 
" clip-path="url(#p5390a5f290)" style="fill: none; stroke-dasharray: 3.7,1.6; stroke-dashoffset: 0; stroke: #dddddd; stroke-opacity: 0.7"/>
     </g>
     <g id="text_8">
      <!-- 15 -->
      <g style="fill: #262626" transform="translate(22.81375 193.657462) scale(0.11 -0.11)">
       <use xlink:href="#DejaVuSerif-31"/>
       <use xlink:href="#DejaVuSerif-35" transform="translate(63.623047 0)"/>
      </g>
     </g>
    </g>
    <g id="ytick_5">
     <g id="line2d_5">
      <path d="M 46.31125 132.222286 
L 701.28 132.222286 
" clip-path="url(#p5390a5f290)" style="fill: none; stroke-dasharray: 3.7,1.6; stroke-dashoffset: 0; stroke: #dddddd; stroke-opacity: 0.7"/>
     </g>
     <g id="text_9">
      <!-- 20 -->
      <g style="fill: #262626" transform="translate(22.81375 136.401427) scale(0.11 -0.11)">
       <defs>
        <path id="DejaVuSerif-32" d="M 819 3553 
L 469 3553 
L 469 4384 
Q 803 4563 1142 4656 
Q 1481 4750 1806 4750 
Q 2534 4750 2956 4397 
Q 3378 4044 3378 3438 
Q 3378 2753 2422 1800 
Q 2347 1728 2309 1691 
L 1131 513 
L 3078 513 
L 3078 1088 
L 3444 1088 
L 3444 0 
L 434 0 
L 434 341 
L 1850 1753 
Q 2319 2222 2519 2614 
Q 2719 3006 2719 3438 
Q 2719 3909 2473 4175 
Q 2228 4441 1797 4441 
Q 1350 4441 1106 4219 
Q 863 3997 819 3553 
z
" transform="scale(0.015625)"/>
       </defs>
       <use xlink:href="#DejaVuSerif-32"/>
       <use xlink:href="#DejaVuSerif-30" transform="translate(63.623047 0)"/>
      </g>
     </g>
    </g>
    <g id="ytick_6">
     <g id="line2d_6">
      <path d="M 46.31125 74.966251 
L 701.28 74.966251 
" clip-path="url(#p5390a5f290)" style="fill: none; stroke-dasharray: 3.7,1.6; stroke-dashoffset: 0; stroke: #dddddd; stroke-opacity: 0.7"/>
     </g>
     <g id="text_10">
      <!-- 25 -->
      <g style="fill: #262626" transform="translate(22.81375 79.145391) scale(0.11 -0.11)">
       <use xlink:href="#DejaVuSerif-32"/>
       <use xlink:href="#DejaVuSerif-35" transform="translate(63.623047 0)"/>
      </g>
     </g>
    </g>
    <g id="text_11">
     <!-- CPU Utilization (%) -->
     <g style="fill: #262626" transform="translate(16.318125 259.761016) rotate(-90) scale(0.12 -0.12)">
      <defs>
       <path id="DejaVuSerif-43" d="M 4513 1234 
Q 4306 581 3820 245 
Q 3334 -91 2591 -91 
Q 2134 -91 1743 65 
Q 1353 222 1050 525 
Q 700 875 529 1320 
Q 359 1766 359 2328 
Q 359 3416 987 4083 
Q 1616 4750 2644 4750 
Q 3025 4750 3456 4650 
Q 3888 4550 4384 4347 
L 4384 3272 
L 4031 3272 
Q 3916 3859 3567 4137 
Q 3219 4416 2591 4416 
Q 1844 4416 1459 3886 
Q 1075 3356 1075 2328 
Q 1075 1303 1459 773 
Q 1844 244 2591 244 
Q 3113 244 3450 492 
Q 3788 741 3938 1234 
L 4513 1234 
z
" transform="scale(0.015625)"/>
       <path id="DejaVuSerif-55" d="M 897 4331 
L 300 4331 
L 300 4666 
L 2125 4666 
L 2125 4331 
L 1528 4331 
L 1528 1919 
Q 1528 1025 1820 672 
Q 2113 319 2828 319 
Q 3544 319 3836 672 
Q 4128 1025 4128 1919 
L 4128 4331 
L 3531 4331 
L 3531 4666 
L 5106 4666 
L 5106 4331 
L 4513 4331 
L 4513 1856 
Q 4513 791 4103 350 
Q 3694 -91 2713 -91 
Q 1731 -91 1314 353 
Q 897 797 897 1856 
L 897 4331 
z
" transform="scale(0.015625)"/>
       <path id="DejaVuSerif-7a" d="M 256 0 
L 256 269 
L 2338 2988 
L 691 2988 
L 691 2413 
L 359 2413 
L 359 3322 
L 3078 3322 
L 3078 3053 
L 997 331 
L 2803 331 
L 2803 934 
L 3138 934 
L 3138 0 
L 256 0 
z
" transform="scale(0.015625)"/>
       <path id="DejaVuSerif-28" d="M 2041 -997 
Q 1281 -656 893 83 
Q 506 822 506 1931 
Q 506 3044 893 3783 
Q 1281 4522 2041 4863 
L 2041 4556 
Q 1559 4225 1350 3623 
Q 1141 3022 1141 1931 
Q 1141 844 1350 242 
Q 1559 -359 2041 -691 
L 2041 -997 
z
" transform="scale(0.015625)"/>
       <path id="DejaVuSerif-25" d="M 1434 4459 
Q 1159 4459 1004 4200 
Q 850 3941 850 3475 
Q 850 3016 1008 2753 
Q 1166 2491 1434 2491 
Q 1700 2491 1854 2752 
Q 2009 3013 2009 3475 
Q 2009 3938 1854 4198 
Q 1700 4459 1434 4459 
z
M 4653 2169 
Q 4381 2169 4226 1906 
Q 4072 1644 4072 1178 
Q 4072 719 4228 458 
Q 4384 197 4653 197 
Q 4922 197 5075 458 
Q 5228 719 5228 1178 
Q 5228 1641 5073 1905 
Q 4919 2169 4653 2169 
z
M 4653 2450 
Q 5147 2450 5437 2106 
Q 5728 1763 5728 1178 
Q 5728 594 5436 251 
Q 5144 -91 4653 -91 
Q 4153 -91 3862 251 
Q 3572 594 3572 1178 
Q 3572 1766 3864 2108 
Q 4156 2450 4653 2450 
z
M 4263 4750 
L 4738 4750 
L 1819 -91 
L 1344 -91 
L 4263 4750 
z
M 1428 4750 
Q 1922 4750 2215 4408 
Q 2509 4066 2509 3481 
Q 2509 2891 2217 2550 
Q 1925 2209 1428 2209 
Q 931 2209 642 2551 
Q 353 2894 353 3481 
Q 353 4063 643 4406 
Q 934 4750 1428 4750 
z
" transform="scale(0.015625)"/>
       <path id="DejaVuSerif-29" d="M 453 -997 
L 453 -691 
Q 934 -359 1145 242 
Q 1356 844 1356 1931 
Q 1356 3022 1145 3623 
Q 934 4225 453 4556 
L 453 4863 
Q 1216 4522 1603 3783 
Q 1991 3044 1991 1931 
Q 1991 822 1603 83 
Q 1216 -656 453 -997 
z
" transform="scale(0.015625)"/>
      </defs>
      <use xlink:href="#DejaVuSerif-43"/>
      <use xlink:href="#DejaVuSerif-50" transform="translate(76.513672 0)"/>
      <use xlink:href="#DejaVuSerif-55" transform="translate(142.048828 0)"/>
      <use xlink:href="#DejaVuSerif-20" transform="translate(226.326172 0)"/>
      <use xlink:href="#DejaVuSerif-55" transform="translate(258.113281 0)"/>
      <use xlink:href="#DejaVuSerif-74" transform="translate(342.390625 0)"/>
      <use xlink:href="#DejaVuSerif-69" transform="translate(382.576172 0)"/>
      <use xlink:href="#DejaVuSerif-6c" transform="translate(414.558594 0)"/>
      <use xlink:href="#DejaVuSerif-69" transform="translate(446.541016 0)"/>
      <use xlink:href="#DejaVuSerif-7a" transform="translate(478.523438 0)"/>
      <use xlink:href="#DejaVuSerif-61" transform="translate(531.208984 0)"/>
      <use xlink:href="#DejaVuSerif-74" transform="translate(590.828125 0)"/>
      <use xlink:href="#DejaVuSerif-69" transform="translate(631.013672 0)"/>
      <use xlink:href="#DejaVuSerif-6f" transform="translate(662.996094 0)"/>
      <use xlink:href="#DejaVuSerif-6e" transform="translate(723.201172 0)"/>
      <use xlink:href="#DejaVuSerif-20" transform="translate(787.605469 0)"/>
      <use xlink:href="#DejaVuSerif-28" transform="translate(819.392578 0)"/>
      <use xlink:href="#DejaVuSerif-25" transform="translate(858.40625 0)"/>
      <use xlink:href="#DejaVuSerif-29" transform="translate(953.425781 0)"/>
     </g>
    </g>
   </g>
   <g id="patch_3">
    <path d="M 68.143542 361.246428 
L 242.801875 361.246428 
L 242.801875 280.730128 
L 68.143542 280.730128 
L 68.143542 361.246428 
z
" clip-path="url(#p5390a5f290)" style="fill: #3274a1; stroke: #3d3d3d; stroke-linejoin: miter"/>
   </g>
   <g id="line2d_7">
    <path d="M 155.472708 361.246428 
L 155.472708 361.246428 
" clip-path="url(#p5390a5f290)" style="fill: none; stroke: #3d3d3d"/>
   </g>
   <g id="line2d_8">
    <path d="M 155.472708 280.730128 
L 155.472708 280.730128 
" clip-path="url(#p5390a5f290)" style="fill: none; stroke: #3d3d3d"/>
   </g>
   <g id="line2d_9">
    <path d="M 111.808125 361.246428 
L 199.137292 361.246428 
" clip-path="url(#p5390a5f290)" style="fill: none; stroke: #3d3d3d; stroke-linecap: round"/>
   </g>
   <g id="line2d_10">
    <path d="M 111.808125 280.730128 
L 199.137292 280.730128 
" clip-path="url(#p5390a5f290)" style="fill: none; stroke: #3d3d3d; stroke-linecap: round"/>
   </g>
   <g id="line2d_11">
    <defs>
     <path id="m83ffc1ec43" d="M 0 1 
C 0.265203 1 0.51958 0.894634 0.707107 0.707107 
C 0.894634 0.51958 1 0.265203 1 0 
C 1 -0.265203 0.894634 -0.51958 0.707107 -0.707107 
C 0.51958 -0.894634 0.265203 -1 0 -1 
C -0.265203 -1 -0.51958 -0.894634 -0.707107 -0.707107 
C -0.894634 -0.51958 -1 -0.265203 -1 0 
C -1 0.265203 -0.894634 0.51958 -0.707107 0.707107 
C -0.51958 0.894634 -0.265203 1 0 1 
z
" style="stroke: #3d3d3d"/>
    </defs>
    <g clip-path="url(#p5390a5f290)">
     <use xlink:href="#m83ffc1ec43" x="155.472708" y="39.181229" style="fill-opacity: 0; stroke: #3d3d3d"/>
     <use xlink:href="#m83ffc1ec43" x="155.472708" y="39.181229" style="fill-opacity: 0; stroke: #3d3d3d"/>
     <use xlink:href="#m83ffc1ec43" x="155.472708" y="39.181229" style="fill-opacity: 0; stroke: #3d3d3d"/>
     <use xlink:href="#m83ffc1ec43" x="155.472708" y="39.181229" style="fill-opacity: 0; stroke: #3d3d3d"/>
     <use xlink:href="#m83ffc1ec43" x="155.472708" y="39.181229" style="fill-opacity: 0; stroke: #3d3d3d"/>
     <use xlink:href="#m83ffc1ec43" x="155.472708" y="39.181229" style="fill-opacity: 0; stroke: #3d3d3d"/>
     <use xlink:href="#m83ffc1ec43" x="155.472708" y="39.181229" style="fill-opacity: 0; stroke: #3d3d3d"/>
     <use xlink:href="#m83ffc1ec43" x="155.472708" y="39.181229" style="fill-opacity: 0; stroke: #3d3d3d"/>
     <use xlink:href="#m83ffc1ec43" x="155.472708" y="39.181229" style="fill-opacity: 0; stroke: #3d3d3d"/>
     <use xlink:href="#m83ffc1ec43" x="155.472708" y="39.181229" style="fill-opacity: 0; stroke: #3d3d3d"/>
     <use xlink:href="#m83ffc1ec43" x="155.472708" y="39.181229" style="fill-opacity: 0; stroke: #3d3d3d"/>
     <use xlink:href="#m83ffc1ec43" x="155.472708" y="39.181229" style="fill-opacity: 0; stroke: #3d3d3d"/>
     <use xlink:href="#m83ffc1ec43" x="155.472708" y="39.181229" style="fill-opacity: 0; stroke: #3d3d3d"/>
     <use xlink:href="#m83ffc1ec43" x="155.472708" y="39.181229" style="fill-opacity: 0; stroke: #3d3d3d"/>
     <use xlink:href="#m83ffc1ec43" x="155.472708" y="39.181229" style="fill-opacity: 0; stroke: #3d3d3d"/>
     <use xlink:href="#m83ffc1ec43" x="155.472708" y="39.181229" style="fill-opacity: 0; stroke: #3d3d3d"/>
     <use xlink:href="#m83ffc1ec43" x="155.472708" y="39.181229" style="fill-opacity: 0; stroke: #3d3d3d"/>
     <use xlink:href="#m83ffc1ec43" x="155.472708" y="39.181229" style="fill-opacity: 0; stroke: #3d3d3d"/>
     <use xlink:href="#m83ffc1ec43" x="155.472708" y="39.181229" style="fill-opacity: 0; stroke: #3d3d3d"/>
     <use xlink:href="#m83ffc1ec43" x="155.472708" y="39.181229" style="fill-opacity: 0; stroke: #3d3d3d"/>
     <use xlink:href="#m83ffc1ec43" x="155.472708" y="39.181229" style="fill-opacity: 0; stroke: #3d3d3d"/>
     <use xlink:href="#m83ffc1ec43" x="155.472708" y="39.181229" style="fill-opacity: 0; stroke: #3d3d3d"/>
     <use xlink:href="#m83ffc1ec43" x="155.472708" y="39.181229" style="fill-opacity: 0; stroke: #3d3d3d"/>
     <use xlink:href="#m83ffc1ec43" x="155.472708" y="39.181229" style="fill-opacity: 0; stroke: #3d3d3d"/>
     <use xlink:href="#m83ffc1ec43" x="155.472708" y="39.181229" style="fill-opacity: 0; stroke: #3d3d3d"/>
     <use xlink:href="#m83ffc1ec43" x="155.472708" y="39.181229" style="fill-opacity: 0; stroke: #3d3d3d"/>
     <use xlink:href="#m83ffc1ec43" x="155.472708" y="39.181229" style="fill-opacity: 0; stroke: #3d3d3d"/>
     <use xlink:href="#m83ffc1ec43" x="155.472708" y="39.181229" style="fill-opacity: 0; stroke: #3d3d3d"/>
     <use xlink:href="#m83ffc1ec43" x="155.472708" y="39.181229" style="fill-opacity: 0; stroke: #3d3d3d"/>
     <use xlink:href="#m83ffc1ec43" x="155.472708" y="39.181229" style="fill-opacity: 0; stroke: #3d3d3d"/>
     <use xlink:href="#m83ffc1ec43" x="155.472708" y="39.181229" style="fill-opacity: 0; stroke: #3d3d3d"/>
     <use xlink:href="#m83ffc1ec43" x="155.472708" y="39.181229" style="fill-opacity: 0; stroke: #3d3d3d"/>
     <use xlink:href="#m83ffc1ec43" x="155.472708" y="39.181229" style="fill-opacity: 0; stroke: #3d3d3d"/>
     <use xlink:href="#m83ffc1ec43" x="155.472708" y="39.181229" style="fill-opacity: 0; stroke: #3d3d3d"/>
    </g>
   </g>
   <g id="patch_4">
    <path d="M 286.466458 298.622639 
L 461.124792 298.622639 
L 461.124792 271.783872 
L 286.466458 271.783872 
L 286.466458 298.622639 
z
" clip-path="url(#p5390a5f290)" style="fill: #3a923a; stroke: #3d3d3d; stroke-linejoin: miter"/>
   </g>
   <g id="line2d_12">
    <path d="M 373.795625 298.622639 
L 373.795625 325.461405 
" clip-path="url(#p5390a5f290)" style="fill: none; stroke: #3d3d3d"/>
   </g>
   <g id="line2d_13">
    <path d="M 373.795625 271.783872 
L 373.795625 271.783872 
" clip-path="url(#p5390a5f290)" style="fill: none; stroke: #3d3d3d"/>
   </g>
   <g id="line2d_14">
    <path d="M 330.131042 325.461405 
L 417.460208 325.461405 
" clip-path="url(#p5390a5f290)" style="fill: none; stroke: #3d3d3d; stroke-linecap: round"/>
   </g>
   <g id="line2d_15">
    <path d="M 330.131042 271.783872 
L 417.460208 271.783872 
" clip-path="url(#p5390a5f290)" style="fill: none; stroke: #3d3d3d; stroke-linecap: round"/>
   </g>
   <g id="line2d_16">
    <g clip-path="url(#p5390a5f290)">
     <use xlink:href="#m83ffc1ec43" x="373.795625" y="218.106339" style="fill-opacity: 0; stroke: #3d3d3d"/>
     <use xlink:href="#m83ffc1ec43" x="373.795625" y="218.106339" style="fill-opacity: 0; stroke: #3d3d3d"/>
     <use xlink:href="#m83ffc1ec43" x="373.795625" y="218.106339" style="fill-opacity: 0; stroke: #3d3d3d"/>
     <use xlink:href="#m83ffc1ec43" x="373.795625" y="218.106339" style="fill-opacity: 0; stroke: #3d3d3d"/>
     <use xlink:href="#m83ffc1ec43" x="373.795625" y="218.106339" style="fill-opacity: 0; stroke: #3d3d3d"/>
     <use xlink:href="#m83ffc1ec43" x="373.795625" y="218.106339" style="fill-opacity: 0; stroke: #3d3d3d"/>
     <use xlink:href="#m83ffc1ec43" x="373.795625" y="218.106339" style="fill-opacity: 0; stroke: #3d3d3d"/>
     <use xlink:href="#m83ffc1ec43" x="373.795625" y="218.106339" style="fill-opacity: 0; stroke: #3d3d3d"/>
     <use xlink:href="#m83ffc1ec43" x="373.795625" y="218.106339" style="fill-opacity: 0; stroke: #3d3d3d"/>
     <use xlink:href="#m83ffc1ec43" x="373.795625" y="218.106339" style="fill-opacity: 0; stroke: #3d3d3d"/>
     <use xlink:href="#m83ffc1ec43" x="373.795625" y="218.106339" style="fill-opacity: 0; stroke: #3d3d3d"/>
     <use xlink:href="#m83ffc1ec43" x="373.795625" y="218.106339" style="fill-opacity: 0; stroke: #3d3d3d"/>
     <use xlink:href="#m83ffc1ec43" x="373.795625" y="218.106339" style="fill-opacity: 0; stroke: #3d3d3d"/>
     <use xlink:href="#m83ffc1ec43" x="373.795625" y="218.106339" style="fill-opacity: 0; stroke: #3d3d3d"/>
     <use xlink:href="#m83ffc1ec43" x="373.795625" y="218.106339" style="fill-opacity: 0; stroke: #3d3d3d"/>
     <use xlink:href="#m83ffc1ec43" x="373.795625" y="218.106339" style="fill-opacity: 0; stroke: #3d3d3d"/>
     <use xlink:href="#m83ffc1ec43" x="373.795625" y="218.106339" style="fill-opacity: 0; stroke: #3d3d3d"/>
     <use xlink:href="#m83ffc1ec43" x="373.795625" y="218.106339" style="fill-opacity: 0; stroke: #3d3d3d"/>
     <use xlink:href="#m83ffc1ec43" x="373.795625" y="218.106339" style="fill-opacity: 0; stroke: #3d3d3d"/>
     <use xlink:href="#m83ffc1ec43" x="373.795625" y="218.106339" style="fill-opacity: 0; stroke: #3d3d3d"/>
     <use xlink:href="#m83ffc1ec43" x="373.795625" y="218.106339" style="fill-opacity: 0; stroke: #3d3d3d"/>
     <use xlink:href="#m83ffc1ec43" x="373.795625" y="218.106339" style="fill-opacity: 0; stroke: #3d3d3d"/>
     <use xlink:href="#m83ffc1ec43" x="373.795625" y="218.106339" style="fill-opacity: 0; stroke: #3d3d3d"/>
     <use xlink:href="#m83ffc1ec43" x="373.795625" y="218.106339" style="fill-opacity: 0; stroke: #3d3d3d"/>
     <use xlink:href="#m83ffc1ec43" x="373.795625" y="218.106339" style="fill-opacity: 0; stroke: #3d3d3d"/>
     <use xlink:href="#m83ffc1ec43" x="373.795625" y="218.106339" style="fill-opacity: 0; stroke: #3d3d3d"/>
     <use xlink:href="#m83ffc1ec43" x="373.795625" y="218.106339" style="fill-opacity: 0; stroke: #3d3d3d"/>
     <use xlink:href="#m83ffc1ec43" x="373.795625" y="218.106339" style="fill-opacity: 0; stroke: #3d3d3d"/>
     <use xlink:href="#m83ffc1ec43" x="373.795625" y="218.106339" style="fill-opacity: 0; stroke: #3d3d3d"/>
     <use xlink:href="#m83ffc1ec43" x="373.795625" y="218.106339" style="fill-opacity: 0; stroke: #3d3d3d"/>
     <use xlink:href="#m83ffc1ec43" x="373.795625" y="218.106339" style="fill-opacity: 0; stroke: #3d3d3d"/>
     <use xlink:href="#m83ffc1ec43" x="373.795625" y="218.106339" style="fill-opacity: 0; stroke: #3d3d3d"/>
     <use xlink:href="#m83ffc1ec43" x="373.795625" y="218.106339" style="fill-opacity: 0; stroke: #3d3d3d"/>
     <use xlink:href="#m83ffc1ec43" x="373.795625" y="218.106339" style="fill-opacity: 0; stroke: #3d3d3d"/>
     <use xlink:href="#m83ffc1ec43" x="373.795625" y="218.106339" style="fill-opacity: 0; stroke: #3d3d3d"/>
     <use xlink:href="#m83ffc1ec43" x="373.795625" y="218.106339" style="fill-opacity: 0; stroke: #3d3d3d"/>
     <use xlink:href="#m83ffc1ec43" x="373.795625" y="218.106339" style="fill-opacity: 0; stroke: #3d3d3d"/>
     <use xlink:href="#m83ffc1ec43" x="373.795625" y="218.106339" style="fill-opacity: 0; stroke: #3d3d3d"/>
     <use xlink:href="#m83ffc1ec43" x="373.795625" y="218.106339" style="fill-opacity: 0; stroke: #3d3d3d"/>
     <use xlink:href="#m83ffc1ec43" x="373.795625" y="218.106339" style="fill-opacity: 0; stroke: #3d3d3d"/>
     <use xlink:href="#m83ffc1ec43" x="373.795625" y="218.106339" style="fill-opacity: 0; stroke: #3d3d3d"/>
     <use xlink:href="#m83ffc1ec43" x="373.795625" y="218.106339" style="fill-opacity: 0; stroke: #3d3d3d"/>
     <use xlink:href="#m83ffc1ec43" x="373.795625" y="218.106339" style="fill-opacity: 0; stroke: #3d3d3d"/>
     <use xlink:href="#m83ffc1ec43" x="373.795625" y="218.106339" style="fill-opacity: 0; stroke: #3d3d3d"/>
     <use xlink:href="#m83ffc1ec43" x="373.795625" y="218.106339" style="fill-opacity: 0; stroke: #3d3d3d"/>
     <use xlink:href="#m83ffc1ec43" x="373.795625" y="218.106339" style="fill-opacity: 0; stroke: #3d3d3d"/>
     <use xlink:href="#m83ffc1ec43" x="373.795625" y="218.106339" style="fill-opacity: 0; stroke: #3d3d3d"/>
     <use xlink:href="#m83ffc1ec43" x="373.795625" y="218.106339" style="fill-opacity: 0; stroke: #3d3d3d"/>
     <use xlink:href="#m83ffc1ec43" x="373.795625" y="218.106339" style="fill-opacity: 0; stroke: #3d3d3d"/>
     <use xlink:href="#m83ffc1ec43" x="373.795625" y="218.106339" style="fill-opacity: 0; stroke: #3d3d3d"/>
     <use xlink:href="#m83ffc1ec43" x="373.795625" y="218.106339" style="fill-opacity: 0; stroke: #3d3d3d"/>
     <use xlink:href="#m83ffc1ec43" x="373.795625" y="218.106339" style="fill-opacity: 0; stroke: #3d3d3d"/>
     <use xlink:href="#m83ffc1ec43" x="373.795625" y="218.106339" style="fill-opacity: 0; stroke: #3d3d3d"/>
     <use xlink:href="#m83ffc1ec43" x="373.795625" y="218.106339" style="fill-opacity: 0; stroke: #3d3d3d"/>
     <use xlink:href="#m83ffc1ec43" x="373.795625" y="218.106339" style="fill-opacity: 0; stroke: #3d3d3d"/>
     <use xlink:href="#m83ffc1ec43" x="373.795625" y="218.106339" style="fill-opacity: 0; stroke: #3d3d3d"/>
     <use xlink:href="#m83ffc1ec43" x="373.795625" y="218.106339" style="fill-opacity: 0; stroke: #3d3d3d"/>
     <use xlink:href="#m83ffc1ec43" x="373.795625" y="218.106339" style="fill-opacity: 0; stroke: #3d3d3d"/>
     <use xlink:href="#m83ffc1ec43" x="373.795625" y="218.106339" style="fill-opacity: 0; stroke: #3d3d3d"/>
     <use xlink:href="#m83ffc1ec43" x="373.795625" y="218.106339" style="fill-opacity: 0; stroke: #3d3d3d"/>
     <use xlink:href="#m83ffc1ec43" x="373.795625" y="218.106339" style="fill-opacity: 0; stroke: #3d3d3d"/>
     <use xlink:href="#m83ffc1ec43" x="373.795625" y="218.106339" style="fill-opacity: 0; stroke: #3d3d3d"/>
     <use xlink:href="#m83ffc1ec43" x="373.795625" y="218.106339" style="fill-opacity: 0; stroke: #3d3d3d"/>
     <use xlink:href="#m83ffc1ec43" x="373.795625" y="218.106339" style="fill-opacity: 0; stroke: #3d3d3d"/>
     <use xlink:href="#m83ffc1ec43" x="373.795625" y="218.106339" style="fill-opacity: 0; stroke: #3d3d3d"/>
     <use xlink:href="#m83ffc1ec43" x="373.795625" y="218.106339" style="fill-opacity: 0; stroke: #3d3d3d"/>
     <use xlink:href="#m83ffc1ec43" x="373.795625" y="218.106339" style="fill-opacity: 0; stroke: #3d3d3d"/>
     <use xlink:href="#m83ffc1ec43" x="373.795625" y="218.106339" style="fill-opacity: 0; stroke: #3d3d3d"/>
     <use xlink:href="#m83ffc1ec43" x="373.795625" y="218.106339" style="fill-opacity: 0; stroke: #3d3d3d"/>
     <use xlink:href="#m83ffc1ec43" x="373.795625" y="218.106339" style="fill-opacity: 0; stroke: #3d3d3d"/>
     <use xlink:href="#m83ffc1ec43" x="373.795625" y="218.106339" style="fill-opacity: 0; stroke: #3d3d3d"/>
     <use xlink:href="#m83ffc1ec43" x="373.795625" y="218.106339" style="fill-opacity: 0; stroke: #3d3d3d"/>
     <use xlink:href="#m83ffc1ec43" x="373.795625" y="218.106339" style="fill-opacity: 0; stroke: #3d3d3d"/>
     <use xlink:href="#m83ffc1ec43" x="373.795625" y="218.106339" style="fill-opacity: 0; stroke: #3d3d3d"/>
     <use xlink:href="#m83ffc1ec43" x="373.795625" y="218.106339" style="fill-opacity: 0; stroke: #3d3d3d"/>
     <use xlink:href="#m83ffc1ec43" x="373.795625" y="218.106339" style="fill-opacity: 0; stroke: #3d3d3d"/>
     <use xlink:href="#m83ffc1ec43" x="373.795625" y="218.106339" style="fill-opacity: 0; stroke: #3d3d3d"/>
     <use xlink:href="#m83ffc1ec43" x="373.795625" y="218.106339" style="fill-opacity: 0; stroke: #3d3d3d"/>
     <use xlink:href="#m83ffc1ec43" x="373.795625" y="218.106339" style="fill-opacity: 0; stroke: #3d3d3d"/>
     <use xlink:href="#m83ffc1ec43" x="373.795625" y="218.106339" style="fill-opacity: 0; stroke: #3d3d3d"/>
     <use xlink:href="#m83ffc1ec43" x="373.795625" y="218.106339" style="fill-opacity: 0; stroke: #3d3d3d"/>
     <use xlink:href="#m83ffc1ec43" x="373.795625" y="218.106339" style="fill-opacity: 0; stroke: #3d3d3d"/>
     <use xlink:href="#m83ffc1ec43" x="373.795625" y="218.106339" style="fill-opacity: 0; stroke: #3d3d3d"/>
     <use xlink:href="#m83ffc1ec43" x="373.795625" y="218.106339" style="fill-opacity: 0; stroke: #3d3d3d"/>
     <use xlink:href="#m83ffc1ec43" x="373.795625" y="218.106339" style="fill-opacity: 0; stroke: #3d3d3d"/>
     <use xlink:href="#m83ffc1ec43" x="373.795625" y="218.106339" style="fill-opacity: 0; stroke: #3d3d3d"/>
     <use xlink:href="#m83ffc1ec43" x="373.795625" y="218.106339" style="fill-opacity: 0; stroke: #3d3d3d"/>
     <use xlink:href="#m83ffc1ec43" x="373.795625" y="218.106339" style="fill-opacity: 0; stroke: #3d3d3d"/>
    </g>
   </g>
   <g id="patch_5">
    <path d="M 504.789375 298.622639 
L 679.447708 298.622639 
L 679.447708 271.783872 
L 504.789375 271.783872 
L 504.789375 298.622639 
z
" clip-path="url(#p5390a5f290)" style="fill: #e1812c; stroke: #3d3d3d; stroke-linejoin: miter"/>
   </g>
   <g id="line2d_17">
    <path d="M 592.118542 298.622639 
L 592.118542 325.461405 
" clip-path="url(#p5390a5f290)" style="fill: none; stroke: #3d3d3d"/>
   </g>
   <g id="line2d_18">
    <path d="M 592.118542 271.783872 
L 592.118542 271.783872 
" clip-path="url(#p5390a5f290)" style="fill: none; stroke: #3d3d3d"/>
   </g>
   <g id="line2d_19">
    <path d="M 548.453958 325.461405 
L 635.783125 325.461405 
" clip-path="url(#p5390a5f290)" style="fill: none; stroke: #3d3d3d; stroke-linecap: round"/>
   </g>
   <g id="line2d_20">
    <path d="M 548.453958 271.783872 
L 635.783125 271.783872 
" clip-path="url(#p5390a5f290)" style="fill: none; stroke: #3d3d3d; stroke-linecap: round"/>
   </g>
   <g id="line2d_21">
    <g clip-path="url(#p5390a5f290)">
     <use xlink:href="#m83ffc1ec43" x="592.118542" y="218.106339" style="fill-opacity: 0; stroke: #3d3d3d"/>
     <use xlink:href="#m83ffc1ec43" x="592.118542" y="218.106339" style="fill-opacity: 0; stroke: #3d3d3d"/>
     <use xlink:href="#m83ffc1ec43" x="592.118542" y="218.106339" style="fill-opacity: 0; stroke: #3d3d3d"/>
     <use xlink:href="#m83ffc1ec43" x="592.118542" y="218.106339" style="fill-opacity: 0; stroke: #3d3d3d"/>
     <use xlink:href="#m83ffc1ec43" x="592.118542" y="218.106339" style="fill-opacity: 0; stroke: #3d3d3d"/>
     <use xlink:href="#m83ffc1ec43" x="592.118542" y="218.106339" style="fill-opacity: 0; stroke: #3d3d3d"/>
     <use xlink:href="#m83ffc1ec43" x="592.118542" y="218.106339" style="fill-opacity: 0; stroke: #3d3d3d"/>
     <use xlink:href="#m83ffc1ec43" x="592.118542" y="218.106339" style="fill-opacity: 0; stroke: #3d3d3d"/>
     <use xlink:href="#m83ffc1ec43" x="592.118542" y="218.106339" style="fill-opacity: 0; stroke: #3d3d3d"/>
     <use xlink:href="#m83ffc1ec43" x="592.118542" y="218.106339" style="fill-opacity: 0; stroke: #3d3d3d"/>
     <use xlink:href="#m83ffc1ec43" x="592.118542" y="218.106339" style="fill-opacity: 0; stroke: #3d3d3d"/>
     <use xlink:href="#m83ffc1ec43" x="592.118542" y="218.106339" style="fill-opacity: 0; stroke: #3d3d3d"/>
     <use xlink:href="#m83ffc1ec43" x="592.118542" y="218.106339" style="fill-opacity: 0; stroke: #3d3d3d"/>
     <use xlink:href="#m83ffc1ec43" x="592.118542" y="218.106339" style="fill-opacity: 0; stroke: #3d3d3d"/>
     <use xlink:href="#m83ffc1ec43" x="592.118542" y="218.106339" style="fill-opacity: 0; stroke: #3d3d3d"/>
     <use xlink:href="#m83ffc1ec43" x="592.118542" y="218.106339" style="fill-opacity: 0; stroke: #3d3d3d"/>
     <use xlink:href="#m83ffc1ec43" x="592.118542" y="218.106339" style="fill-opacity: 0; stroke: #3d3d3d"/>
     <use xlink:href="#m83ffc1ec43" x="592.118542" y="218.106339" style="fill-opacity: 0; stroke: #3d3d3d"/>
     <use xlink:href="#m83ffc1ec43" x="592.118542" y="218.106339" style="fill-opacity: 0; stroke: #3d3d3d"/>
     <use xlink:href="#m83ffc1ec43" x="592.118542" y="218.106339" style="fill-opacity: 0; stroke: #3d3d3d"/>
     <use xlink:href="#m83ffc1ec43" x="592.118542" y="218.106339" style="fill-opacity: 0; stroke: #3d3d3d"/>
     <use xlink:href="#m83ffc1ec43" x="592.118542" y="218.106339" style="fill-opacity: 0; stroke: #3d3d3d"/>
     <use xlink:href="#m83ffc1ec43" x="592.118542" y="218.106339" style="fill-opacity: 0; stroke: #3d3d3d"/>
     <use xlink:href="#m83ffc1ec43" x="592.118542" y="218.106339" style="fill-opacity: 0; stroke: #3d3d3d"/>
     <use xlink:href="#m83ffc1ec43" x="592.118542" y="218.106339" style="fill-opacity: 0; stroke: #3d3d3d"/>
     <use xlink:href="#m83ffc1ec43" x="592.118542" y="218.106339" style="fill-opacity: 0; stroke: #3d3d3d"/>
     <use xlink:href="#m83ffc1ec43" x="592.118542" y="218.106339" style="fill-opacity: 0; stroke: #3d3d3d"/>
     <use xlink:href="#m83ffc1ec43" x="592.118542" y="218.106339" style="fill-opacity: 0; stroke: #3d3d3d"/>
     <use xlink:href="#m83ffc1ec43" x="592.118542" y="218.106339" style="fill-opacity: 0; stroke: #3d3d3d"/>
     <use xlink:href="#m83ffc1ec43" x="592.118542" y="218.106339" style="fill-opacity: 0; stroke: #3d3d3d"/>
     <use xlink:href="#m83ffc1ec43" x="592.118542" y="218.106339" style="fill-opacity: 0; stroke: #3d3d3d"/>
     <use xlink:href="#m83ffc1ec43" x="592.118542" y="218.106339" style="fill-opacity: 0; stroke: #3d3d3d"/>
     <use xlink:href="#m83ffc1ec43" x="592.118542" y="218.106339" style="fill-opacity: 0; stroke: #3d3d3d"/>
     <use xlink:href="#m83ffc1ec43" x="592.118542" y="218.106339" style="fill-opacity: 0; stroke: #3d3d3d"/>
     <use xlink:href="#m83ffc1ec43" x="592.118542" y="218.106339" style="fill-opacity: 0; stroke: #3d3d3d"/>
     <use xlink:href="#m83ffc1ec43" x="592.118542" y="218.106339" style="fill-opacity: 0; stroke: #3d3d3d"/>
     <use xlink:href="#m83ffc1ec43" x="592.118542" y="218.106339" style="fill-opacity: 0; stroke: #3d3d3d"/>
     <use xlink:href="#m83ffc1ec43" x="592.118542" y="218.106339" style="fill-opacity: 0; stroke: #3d3d3d"/>
     <use xlink:href="#m83ffc1ec43" x="592.118542" y="218.106339" style="fill-opacity: 0; stroke: #3d3d3d"/>
     <use xlink:href="#m83ffc1ec43" x="592.118542" y="218.106339" style="fill-opacity: 0; stroke: #3d3d3d"/>
     <use xlink:href="#m83ffc1ec43" x="592.118542" y="218.106339" style="fill-opacity: 0; stroke: #3d3d3d"/>
     <use xlink:href="#m83ffc1ec43" x="592.118542" y="218.106339" style="fill-opacity: 0; stroke: #3d3d3d"/>
     <use xlink:href="#m83ffc1ec43" x="592.118542" y="218.106339" style="fill-opacity: 0; stroke: #3d3d3d"/>
     <use xlink:href="#m83ffc1ec43" x="592.118542" y="218.106339" style="fill-opacity: 0; stroke: #3d3d3d"/>
     <use xlink:href="#m83ffc1ec43" x="592.118542" y="218.106339" style="fill-opacity: 0; stroke: #3d3d3d"/>
     <use xlink:href="#m83ffc1ec43" x="592.118542" y="218.106339" style="fill-opacity: 0; stroke: #3d3d3d"/>
     <use xlink:href="#m83ffc1ec43" x="592.118542" y="218.106339" style="fill-opacity: 0; stroke: #3d3d3d"/>
     <use xlink:href="#m83ffc1ec43" x="592.118542" y="218.106339" style="fill-opacity: 0; stroke: #3d3d3d"/>
     <use xlink:href="#m83ffc1ec43" x="592.118542" y="218.106339" style="fill-opacity: 0; stroke: #3d3d3d"/>
     <use xlink:href="#m83ffc1ec43" x="592.118542" y="218.106339" style="fill-opacity: 0; stroke: #3d3d3d"/>
     <use xlink:href="#m83ffc1ec43" x="592.118542" y="218.106339" style="fill-opacity: 0; stroke: #3d3d3d"/>
     <use xlink:href="#m83ffc1ec43" x="592.118542" y="218.106339" style="fill-opacity: 0; stroke: #3d3d3d"/>
     <use xlink:href="#m83ffc1ec43" x="592.118542" y="218.106339" style="fill-opacity: 0; stroke: #3d3d3d"/>
     <use xlink:href="#m83ffc1ec43" x="592.118542" y="218.106339" style="fill-opacity: 0; stroke: #3d3d3d"/>
     <use xlink:href="#m83ffc1ec43" x="592.118542" y="218.106339" style="fill-opacity: 0; stroke: #3d3d3d"/>
     <use xlink:href="#m83ffc1ec43" x="592.118542" y="218.106339" style="fill-opacity: 0; stroke: #3d3d3d"/>
     <use xlink:href="#m83ffc1ec43" x="592.118542" y="218.106339" style="fill-opacity: 0; stroke: #3d3d3d"/>
     <use xlink:href="#m83ffc1ec43" x="592.118542" y="218.106339" style="fill-opacity: 0; stroke: #3d3d3d"/>
     <use xlink:href="#m83ffc1ec43" x="592.118542" y="218.106339" style="fill-opacity: 0; stroke: #3d3d3d"/>
     <use xlink:href="#m83ffc1ec43" x="592.118542" y="218.106339" style="fill-opacity: 0; stroke: #3d3d3d"/>
     <use xlink:href="#m83ffc1ec43" x="592.118542" y="218.106339" style="fill-opacity: 0; stroke: #3d3d3d"/>
     <use xlink:href="#m83ffc1ec43" x="592.118542" y="218.106339" style="fill-opacity: 0; stroke: #3d3d3d"/>
     <use xlink:href="#m83ffc1ec43" x="592.118542" y="218.106339" style="fill-opacity: 0; stroke: #3d3d3d"/>
     <use xlink:href="#m83ffc1ec43" x="592.118542" y="218.106339" style="fill-opacity: 0; stroke: #3d3d3d"/>
     <use xlink:href="#m83ffc1ec43" x="592.118542" y="218.106339" style="fill-opacity: 0; stroke: #3d3d3d"/>
     <use xlink:href="#m83ffc1ec43" x="592.118542" y="218.106339" style="fill-opacity: 0; stroke: #3d3d3d"/>
     <use xlink:href="#m83ffc1ec43" x="592.118542" y="218.106339" style="fill-opacity: 0; stroke: #3d3d3d"/>
     <use xlink:href="#m83ffc1ec43" x="592.118542" y="218.106339" style="fill-opacity: 0; stroke: #3d3d3d"/>
     <use xlink:href="#m83ffc1ec43" x="592.118542" y="218.106339" style="fill-opacity: 0; stroke: #3d3d3d"/>
     <use xlink:href="#m83ffc1ec43" x="592.118542" y="218.106339" style="fill-opacity: 0; stroke: #3d3d3d"/>
     <use xlink:href="#m83ffc1ec43" x="592.118542" y="218.106339" style="fill-opacity: 0; stroke: #3d3d3d"/>
     <use xlink:href="#m83ffc1ec43" x="592.118542" y="218.106339" style="fill-opacity: 0; stroke: #3d3d3d"/>
     <use xlink:href="#m83ffc1ec43" x="592.118542" y="218.106339" style="fill-opacity: 0; stroke: #3d3d3d"/>
     <use xlink:href="#m83ffc1ec43" x="592.118542" y="218.106339" style="fill-opacity: 0; stroke: #3d3d3d"/>
     <use xlink:href="#m83ffc1ec43" x="592.118542" y="218.106339" style="fill-opacity: 0; stroke: #3d3d3d"/>
     <use xlink:href="#m83ffc1ec43" x="592.118542" y="218.106339" style="fill-opacity: 0; stroke: #3d3d3d"/>
     <use xlink:href="#m83ffc1ec43" x="592.118542" y="218.106339" style="fill-opacity: 0; stroke: #3d3d3d"/>
     <use xlink:href="#m83ffc1ec43" x="592.118542" y="218.106339" style="fill-opacity: 0; stroke: #3d3d3d"/>
     <use xlink:href="#m83ffc1ec43" x="592.118542" y="218.106339" style="fill-opacity: 0; stroke: #3d3d3d"/>
    </g>
   </g>
   <g id="line2d_22">
    <path d="M 68.143542 361.246428 
L 242.801875 361.246428 
" clip-path="url(#p5390a5f290)" style="fill: none; stroke: #3d3d3d"/>
   </g>
   <g id="line2d_23">
    <path d="M 286.466458 289.676383 
L 461.124792 289.676383 
" clip-path="url(#p5390a5f290)" style="fill: none; stroke: #3d3d3d"/>
   </g>
   <g id="line2d_24">
    <path d="M 504.789375 289.676383 
L 679.447708 289.676383 
" clip-path="url(#p5390a5f290)" style="fill: none; stroke: #3d3d3d"/>
   </g>
   <g id="patch_6">
    <path d="M 46.31125 377.349687 
L 46.31125 23.077969 
" style="fill: none; stroke: #000000; stroke-width: 1.5; stroke-linejoin: miter; stroke-linecap: square"/>
   </g>
   <g id="patch_7">
    <path d="M 701.28 377.349687 
L 701.28 23.077969 
" style="fill: none; stroke: #000000; stroke-width: 1.5; stroke-linejoin: miter; stroke-linecap: square"/>
   </g>
   <g id="patch_8">
    <path d="M 46.31125 377.349687 
L 701.28 377.349687 
" style="fill: none; stroke: #000000; stroke-width: 1.5; stroke-linejoin: miter; stroke-linecap: square"/>
   </g>
   <g id="patch_9">
    <path d="M 46.31125 23.077969 
L 701.28 23.077969 
" style="fill: none; stroke: #000000; stroke-width: 1.5; stroke-linejoin: miter; stroke-linecap: square"/>
   </g>
   <g id="text_12">
    <!-- Impact of VM Placement Policy on CPU Utilization — dataset-mini -->
    <g style="fill: #262626" transform="translate(132.484141 17.077969) scale(0.13 -0.13)">
     <defs>
      <path id="DejaVuSerif-Bold-49" d="M 300 0 
L 300 378 
L 897 378 
L 897 4288 
L 300 4288 
L 300 4666 
L 2700 4666 
L 2700 4288 
L 2100 4288 
L 2100 378 
L 2700 378 
L 2700 0 
L 300 0 
z
" transform="scale(0.015625)"/>
      <path id="DejaVuSerif-Bold-6d" d="M 3884 2778 
Q 4116 3109 4384 3261 
Q 4653 3413 5013 3413 
Q 5584 3413 5867 3089 
Q 6150 2766 6150 2113 
L 6150 378 
L 6625 378 
L 6625 0 
L 4647 0 
L 4647 378 
L 5044 378 
L 5044 1947 
Q 5044 2569 4948 2731 
Q 4853 2894 4594 2894 
Q 4300 2894 4137 2667 
Q 3975 2441 3975 2022 
L 3975 378 
L 4372 378 
L 4372 0 
L 2472 0 
L 2472 378 
L 2869 378 
L 2869 1947 
Q 2869 2569 2772 2731 
Q 2675 2894 2419 2894 
Q 2122 2894 1959 2667 
Q 1797 2441 1797 2022 
L 1797 378 
L 2194 378 
L 2194 0 
L 219 0 
L 219 378 
L 691 378 
L 691 2944 
L 219 2944 
L 219 3322 
L 1797 3322 
L 1797 2853 
Q 1991 3144 2241 3278 
Q 2491 3413 2834 3413 
Q 3241 3413 3494 3258 
Q 3747 3103 3884 2778 
z
" transform="scale(0.015625)"/>
      <path id="DejaVuSerif-Bold-70" d="M 1728 1825 
L 1728 1497 
Q 1728 916 1876 656 
Q 2025 397 2356 397 
Q 2697 397 2836 672 
Q 2975 947 2975 1663 
Q 2975 2378 2836 2651 
Q 2697 2925 2356 2925 
Q 2025 2925 1876 2665 
Q 1728 2406 1728 1825 
z
M 622 2944 
L 147 2944 
L 147 3322 
L 1728 3322 
L 1728 2900 
Q 1869 3159 2106 3286 
Q 2344 3413 2694 3413 
Q 3403 3413 3811 2945 
Q 4219 2478 4219 1663 
Q 4219 847 3811 378 
Q 3403 -91 2694 -91 
Q 2344 -91 2106 36 
Q 1869 163 1728 422 
L 1728 -953 
L 2241 -953 
L 2241 -1331 
L 147 -1331 
L 147 -953 
L 622 -953 
L 622 2944 
z
" transform="scale(0.015625)"/>
      <path id="DejaVuSerif-Bold-61" d="M 3525 2041 
L 3525 378 
L 4000 378 
L 4000 0 
L 2419 0 
L 2419 422 
Q 2200 159 1931 34 
Q 1663 -91 1319 -91 
Q 809 -91 536 182 
Q 263 456 263 966 
Q 263 1525 655 1803 
Q 1047 2081 1838 2081 
L 2419 2081 
L 2419 2278 
Q 2419 2681 2228 2873 
Q 2038 3066 1638 3066 
Q 1306 3066 1126 2930 
Q 947 2794 872 2484 
L 519 2484 
L 519 3200 
Q 816 3306 1134 3359 
Q 1453 3413 1806 3413 
Q 2697 3413 3111 3081 
Q 3525 2750 3525 2041 
z
M 2419 1044 
L 2419 1709 
L 2003 1709 
Q 1694 1709 1528 1540 
Q 1363 1372 1363 1056 
Q 1363 741 1483 584 
Q 1603 428 1850 428 
Q 2106 428 2262 597 
Q 2419 766 2419 1044 
z
" transform="scale(0.015625)"/>
      <path id="DejaVuSerif-Bold-63" d="M 3609 1038 
Q 3491 469 3123 189 
Q 2756 -91 2125 -91 
Q 1238 -91 750 368 
Q 263 828 263 1663 
Q 263 2488 744 2950 
Q 1225 3413 2081 3413 
Q 2428 3413 2781 3347 
Q 3134 3281 3500 3150 
L 3500 2228 
L 3150 2228 
Q 3100 2650 2903 2854 
Q 2706 3059 2350 3059 
Q 1888 3059 1692 2746 
Q 1497 2434 1497 1663 
Q 1497 909 1687 586 
Q 1878 263 2309 263 
Q 2644 263 2845 463 
Q 3047 663 3091 1038 
L 3609 1038 
z
" transform="scale(0.015625)"/>
      <path id="DejaVuSerif-Bold-74" d="M 634 2944 
L 153 2944 
L 153 3322 
L 634 3322 
L 634 4353 
L 1741 4353 
L 1741 3322 
L 2663 3322 
L 2663 2944 
L 1741 2944 
L 1741 909 
Q 1741 475 1809 369 
Q 1878 263 2059 263 
Q 2259 263 2356 397 
Q 2453 531 2459 813 
L 2925 813 
Q 2897 313 2651 111 
Q 2406 -91 1806 -91 
Q 1122 -91 878 123 
Q 634 338 634 909 
L 634 2944 
z
" transform="scale(0.015625)"/>
      <path id="DejaVuSerif-Bold-20" transform="scale(0.015625)"/>
      <path id="DejaVuSerif-Bold-6f" d="M 2138 263 
Q 2488 263 2630 563 
Q 2772 863 2772 1663 
Q 2772 2463 2631 2761 
Q 2491 3059 2138 3059 
Q 1784 3059 1640 2757 
Q 1497 2456 1497 1663 
Q 1497 869 1640 566 
Q 1784 263 2138 263 
z
M 2138 -91 
Q 1259 -91 761 376 
Q 263 844 263 1663 
Q 263 2484 761 2948 
Q 1259 3413 2138 3413 
Q 3019 3413 3516 2948 
Q 4013 2484 4013 1663 
Q 4013 844 3514 376 
Q 3016 -91 2138 -91 
z
" transform="scale(0.015625)"/>
      <path id="DejaVuSerif-Bold-66" d="M 3097 4031 
L 2747 4031 
Q 2722 4275 2605 4394 
Q 2488 4513 2272 4513 
Q 2022 4513 1909 4333 
Q 1797 4153 1797 3750 
L 1797 3322 
L 2631 3322 
L 2631 2944 
L 1797 2944 
L 1797 378 
L 2438 378 
L 2438 0 
L 219 0 
L 219 378 
L 691 378 
L 691 2944 
L 197 2944 
L 197 3322 
L 691 3322 
L 691 3738 
Q 691 4291 1044 4577 
Q 1397 4863 2081 4863 
Q 2347 4863 2600 4833 
Q 2853 4803 3097 4744 
L 3097 4031 
z
" transform="scale(0.015625)"/>
      <path id="DejaVuSerif-Bold-56" d="M 5056 4666 
L 5056 4288 
L 4666 4288 
L 2906 0 
L 2163 0 
L 403 4288 
L -38 4288 
L -38 4666 
L 2150 4666 
L 2150 4288 
L 1697 4288 
L 2956 1197 
L 4225 4288 
L 3669 4288 
L 3669 4666 
L 5056 4666 
z
" transform="scale(0.015625)"/>
      <path id="DejaVuSerif-Bold-4d" d="M 269 0 
L 269 378 
L 863 378 
L 863 4288 
L 269 4288 
L 269 4666 
L 2194 4666 
L 3525 1672 
L 4863 4666 
L 6784 4666 
L 6784 4288 
L 6188 4288 
L 6188 378 
L 6784 378 
L 6784 0 
L 4384 0 
L 4384 378 
L 4978 378 
L 4978 3938 
L 3531 684 
L 2741 684 
L 1300 3938 
L 1300 378 
L 1894 378 
L 1894 0 
L 269 0 
z
" transform="scale(0.015625)"/>
      <path id="DejaVuSerif-Bold-50" d="M 300 0 
L 300 378 
L 897 378 
L 897 4288 
L 300 4288 
L 300 4666 
L 2956 4666 
Q 3734 4666 4193 4295 
Q 4653 3925 4653 3303 
Q 4653 2678 4192 2304 
Q 3731 1931 2956 1931 
L 2100 1931 
L 2100 378 
L 2853 378 
L 2853 0 
L 300 0 
z
M 2100 2309 
L 2450 2309 
Q 2856 2309 3098 2579 
Q 3341 2850 3341 3303 
Q 3341 3753 3100 4020 
Q 2859 4288 2450 4288 
L 2100 4288 
L 2100 2309 
z
" transform="scale(0.015625)"/>
      <path id="DejaVuSerif-Bold-6c" d="M 1797 378 
L 2272 378 
L 2272 0 
L 219 0 
L 219 378 
L 691 378 
L 691 4488 
L 219 4488 
L 219 4863 
L 1797 4863 
L 1797 378 
z
" transform="scale(0.015625)"/>
      <path id="DejaVuSerif-Bold-65" d="M 2566 1875 
Q 2566 2531 2444 2795 
Q 2322 3059 2028 3059 
Q 1744 3059 1620 2800 
Q 1497 2541 1497 1931 
L 1497 1875 
L 2566 1875 
z
M 3781 1503 
L 1497 1503 
L 1497 1478 
Q 1497 834 1690 548 
Q 1884 263 2316 263 
Q 2675 263 2897 453 
Q 3119 644 3181 1006 
L 3700 1006 
Q 3566 441 3166 175 
Q 2766 -91 2047 -91 
Q 1184 -91 723 364 
Q 263 819 263 1663 
Q 263 2488 734 2950 
Q 1206 3413 2047 3413 
Q 2872 3413 3312 2927 
Q 3753 2441 3781 1503 
z
" transform="scale(0.015625)"/>
      <path id="DejaVuSerif-Bold-6e" d="M 219 0 
L 219 378 
L 691 378 
L 691 2944 
L 219 2944 
L 219 3322 
L 1797 3322 
L 1797 2853 
Q 1997 3150 2253 3281 
Q 2509 3413 2900 3413 
Q 3459 3413 3745 3083 
Q 4031 2753 4031 2113 
L 4031 378 
L 4506 378 
L 4506 0 
L 2522 0 
L 2522 378 
L 2925 378 
L 2925 2144 
Q 2925 2566 2817 2730 
Q 2709 2894 2444 2894 
Q 2109 2894 1953 2648 
Q 1797 2403 1797 1869 
L 1797 378 
L 2203 378 
L 2203 0 
L 219 0 
z
" transform="scale(0.015625)"/>
      <path id="DejaVuSerif-Bold-69" d="M 588 4263 
Q 588 4516 763 4689 
Q 938 4863 1191 4863 
Q 1438 4863 1611 4689 
Q 1784 4516 1784 4263 
Q 1784 4016 1611 3842 
Q 1438 3669 1191 3669 
Q 938 3669 763 3841 
Q 588 4013 588 4263 
z
M 1797 378 
L 2272 378 
L 2272 0 
L 219 0 
L 219 378 
L 691 378 
L 691 2944 
L 219 2944 
L 219 3322 
L 1797 3322 
L 1797 378 
z
" transform="scale(0.015625)"/>
      <path id="DejaVuSerif-Bold-79" d="M 1997 -750 
Q 1847 -1116 1634 -1269 
Q 1422 -1422 1063 -1422 
Q 909 -1422 721 -1387 
Q 534 -1353 313 -1288 
L 313 -594 
L 666 -597 
Q 675 -838 779 -953 
Q 884 -1069 1094 -1069 
Q 1297 -1069 1422 -958 
Q 1547 -847 1672 -538 
L 1722 -422 
L 275 2944 
L -84 2944 
L -84 3322 
L 1831 3322 
L 1831 2944 
L 1434 2944 
L 2278 978 
L 3066 2944 
L 2625 2944 
L 2625 3322 
L 3872 3322 
L 3872 2944 
L 3469 2944 
L 1997 -750 
z
" transform="scale(0.015625)"/>
      <path id="DejaVuSerif-Bold-43" d="M 4769 1331 
Q 4584 609 4106 259 
Q 3628 -91 2822 -91 
Q 1641 -91 955 561 
Q 269 1213 269 2328 
Q 269 3447 955 4098 
Q 1641 4750 2822 4750 
Q 3238 4750 3688 4650 
Q 4138 4550 4641 4347 
L 4641 3200 
L 4244 3200 
Q 4122 3788 3800 4080 
Q 3478 4372 2950 4372 
Q 2269 4372 1937 3870 
Q 1606 3369 1606 2328 
Q 1606 1288 1937 788 
Q 2269 288 2956 288 
Q 3422 288 3717 547 
Q 4013 806 4147 1331 
L 4769 1331 
z
" transform="scale(0.015625)"/>
      <path id="DejaVuSerif-Bold-55" d="M 813 4288 
L 219 4288 
L 219 4666 
L 2619 4666 
L 2619 4288 
L 2022 4288 
L 2022 1953 
Q 2022 1081 2294 732 
Q 2566 384 3225 384 
Q 3869 384 4139 736 
Q 4409 1088 4409 1953 
L 4409 4288 
L 3816 4288 
L 3816 4666 
L 5441 4666 
L 5441 4288 
L 4844 4288 
L 4844 1888 
Q 4844 819 4381 364 
Q 3919 -91 2828 -91 
Q 1744 -91 1278 368 
Q 813 828 813 1894 
L 813 4288 
z
" transform="scale(0.015625)"/>
      <path id="DejaVuSerif-Bold-7a" d="M 225 0 
L 225 378 
L 2131 2956 
L 697 2956 
L 697 2388 
L 325 2388 
L 325 3322 
L 3419 3322 
L 3419 2950 
L 1509 372 
L 3047 372 
L 3047 972 
L 3419 972 
L 3419 0 
L 225 0 
z
" transform="scale(0.015625)"/>
      <path id="DejaVuSerif-Bold-2014" d="M 344 2075 
L 6056 2075 
L 6056 1325 
L 344 1325 
L 344 2075 
z
" transform="scale(0.015625)"/>
      <path id="DejaVuSerif-Bold-64" d="M 2747 1497 
L 2747 1825 
Q 2747 2406 2597 2665 
Q 2447 2925 2119 2925 
Q 1775 2925 1636 2651 
Q 1497 2378 1497 1663 
Q 1497 947 1637 672 
Q 1778 397 2119 397 
Q 2447 397 2597 656 
Q 2747 916 2747 1497 
z
M 3853 378 
L 4325 378 
L 4325 0 
L 2747 0 
L 2747 422 
Q 2606 163 2367 36 
Q 2128 -91 1778 -91 
Q 1072 -91 667 378 
Q 263 847 263 1663 
Q 263 2481 667 2947 
Q 1072 3413 1778 3413 
Q 2128 3413 2367 3286 
Q 2606 3159 2747 2900 
L 2747 4488 
L 2272 4488 
L 2272 4863 
L 3853 4863 
L 3853 378 
z
" transform="scale(0.015625)"/>
      <path id="DejaVuSerif-Bold-73" d="M 300 97 
L 300 1025 
L 653 1025 
Q 697 653 931 458 
Q 1166 263 1569 263 
Q 1906 263 2086 380 
Q 2266 497 2266 716 
Q 2266 916 2152 1025 
Q 2038 1134 1709 1216 
L 1253 1331 
Q 738 1459 506 1698 
Q 275 1938 275 2344 
Q 275 2884 650 3148 
Q 1025 3413 1806 3413 
Q 2100 3413 2433 3364 
Q 2766 3316 3169 3213 
L 3169 2375 
L 2816 2375 
Q 2788 2716 2573 2887 
Q 2359 3059 1959 3059 
Q 1622 3059 1448 2951 
Q 1275 2844 1275 2638 
Q 1275 2469 1375 2372 
Q 1475 2275 1734 2209 
L 2188 2094 
Q 2841 1928 3091 1684 
Q 3341 1441 3341 1006 
Q 3341 444 2939 176 
Q 2538 -91 1691 -91 
Q 1381 -91 1034 -44 
Q 688 3 300 97 
z
" transform="scale(0.015625)"/>
      <path id="DejaVuSerif-Bold-2d" d="M 347 2138 
L 2309 2138 
L 2309 1294 
L 347 1294 
L 347 2138 
z
" transform="scale(0.015625)"/>
     </defs>
     <use xlink:href="#DejaVuSerif-Bold-49"/>
     <use xlink:href="#DejaVuSerif-Bold-6d" transform="translate(46.777344 0)"/>
     <use xlink:href="#DejaVuSerif-Bold-70" transform="translate(152.587891 0)"/>
     <use xlink:href="#DejaVuSerif-Bold-61" transform="translate(222.509766 0)"/>
     <use xlink:href="#DejaVuSerif-Bold-63" transform="translate(287.304688 0)"/>
     <use xlink:href="#DejaVuSerif-Bold-74" transform="translate(348.193359 0)"/>
     <use xlink:href="#DejaVuSerif-Bold-20" transform="translate(394.384766 0)"/>
     <use xlink:href="#DejaVuSerif-Bold-6f" transform="translate(429.199219 0)"/>
     <use xlink:href="#DejaVuSerif-Bold-66" transform="translate(495.898438 0)"/>
     <use xlink:href="#DejaVuSerif-Bold-20" transform="translate(538.916016 0)"/>
     <use xlink:href="#DejaVuSerif-Bold-56" transform="translate(573.730469 0)"/>
     <use xlink:href="#DejaVuSerif-Bold-4d" transform="translate(651.318359 0)"/>
     <use xlink:href="#DejaVuSerif-Bold-20" transform="translate(762.011719 0)"/>
     <use xlink:href="#DejaVuSerif-Bold-50" transform="translate(796.826172 0)"/>
     <use xlink:href="#DejaVuSerif-Bold-6c" transform="translate(872.021484 0)"/>
     <use xlink:href="#DejaVuSerif-Bold-61" transform="translate(910.009766 0)"/>
     <use xlink:href="#DejaVuSerif-Bold-63" transform="translate(974.804688 0)"/>
     <use xlink:href="#DejaVuSerif-Bold-65" transform="translate(1035.693359 0)"/>
     <use xlink:href="#DejaVuSerif-Bold-6d" transform="translate(1099.316406 0)"/>
     <use xlink:href="#DejaVuSerif-Bold-65" transform="translate(1205.126953 0)"/>
     <use xlink:href="#DejaVuSerif-Bold-6e" transform="translate(1268.75 0)"/>
     <use xlink:href="#DejaVuSerif-Bold-74" transform="translate(1341.455078 0)"/>
     <use xlink:href="#DejaVuSerif-Bold-20" transform="translate(1387.646484 0)"/>
     <use xlink:href="#DejaVuSerif-Bold-50" transform="translate(1422.460938 0)"/>
     <use xlink:href="#DejaVuSerif-Bold-6f" transform="translate(1495.03125 0)"/>
     <use xlink:href="#DejaVuSerif-Bold-6c" transform="translate(1561.730469 0)"/>
     <use xlink:href="#DejaVuSerif-Bold-69" transform="translate(1599.71875 0)"/>
     <use xlink:href="#DejaVuSerif-Bold-63" transform="translate(1637.707031 0)"/>
     <use xlink:href="#DejaVuSerif-Bold-79" transform="translate(1698.595703 0)"/>
     <use xlink:href="#DejaVuSerif-Bold-20" transform="translate(1756.701172 0)"/>
     <use xlink:href="#DejaVuSerif-Bold-6f" transform="translate(1791.515625 0)"/>
     <use xlink:href="#DejaVuSerif-Bold-6e" transform="translate(1858.214844 0)"/>
     <use xlink:href="#DejaVuSerif-Bold-20" transform="translate(1930.919922 0)"/>
     <use xlink:href="#DejaVuSerif-Bold-43" transform="translate(1965.734375 0)"/>
     <use xlink:href="#DejaVuSerif-Bold-50" transform="translate(2045.324219 0)"/>
     <use xlink:href="#DejaVuSerif-Bold-55" transform="translate(2120.519531 0)"/>
     <use xlink:href="#DejaVuSerif-Bold-20" transform="translate(2207.726562 0)"/>
     <use xlink:href="#DejaVuSerif-Bold-55" transform="translate(2242.541016 0)"/>
     <use xlink:href="#DejaVuSerif-Bold-74" transform="translate(2329.748047 0)"/>
     <use xlink:href="#DejaVuSerif-Bold-69" transform="translate(2375.939453 0)"/>
     <use xlink:href="#DejaVuSerif-Bold-6c" transform="translate(2413.927734 0)"/>
     <use xlink:href="#DejaVuSerif-Bold-69" transform="translate(2451.916016 0)"/>
     <use xlink:href="#DejaVuSerif-Bold-7a" transform="translate(2489.904297 0)"/>
     <use xlink:href="#DejaVuSerif-Bold-61" transform="translate(2546.691406 0)"/>
     <use xlink:href="#DejaVuSerif-Bold-74" transform="translate(2611.486328 0)"/>
     <use xlink:href="#DejaVuSerif-Bold-69" transform="translate(2657.677734 0)"/>
     <use xlink:href="#DejaVuSerif-Bold-6f" transform="translate(2695.666016 0)"/>
     <use xlink:href="#DejaVuSerif-Bold-6e" transform="translate(2762.365234 0)"/>
     <use xlink:href="#DejaVuSerif-Bold-20" transform="translate(2835.070312 0)"/>
     <use xlink:href="#DejaVuSerif-Bold-2014" transform="translate(2869.884766 0)"/>
     <use xlink:href="#DejaVuSerif-Bold-20" transform="translate(2969.884766 0)"/>
     <use xlink:href="#DejaVuSerif-Bold-64" transform="translate(3004.699219 0)"/>
     <use xlink:href="#DejaVuSerif-Bold-61" transform="translate(3074.621094 0)"/>
     <use xlink:href="#DejaVuSerif-Bold-74" transform="translate(3139.416016 0)"/>
     <use xlink:href="#DejaVuSerif-Bold-61" transform="translate(3185.607422 0)"/>
     <use xlink:href="#DejaVuSerif-Bold-73" transform="translate(3250.402344 0)"/>
     <use xlink:href="#DejaVuSerif-Bold-65" transform="translate(3306.701172 0)"/>
     <use xlink:href="#DejaVuSerif-Bold-74" transform="translate(3370.324219 0)"/>
     <use xlink:href="#DejaVuSerif-Bold-2d" transform="translate(3416.515625 0)"/>
     <use xlink:href="#DejaVuSerif-Bold-6d" transform="translate(3458.019531 0)"/>
     <use xlink:href="#DejaVuSerif-Bold-69" transform="translate(3563.830078 0)"/>
     <use xlink:href="#DejaVuSerif-Bold-6e" transform="translate(3601.818359 0)"/>
     <use xlink:href="#DejaVuSerif-Bold-69" transform="translate(3674.523438 0)"/>
    </g>
   </g>
  </g>
 </g>
 <defs>
  <clipPath id="p5390a5f290">
   <rect x="46.31125" y="23.077969" width="654.96875" height="354.271719"/>
  </clipPath>
 </defs>
</svg>
