<?xml version="1.0" encoding="utf-8" standalone="no"?>
<!DOCTYPE svg PUBLIC "-//W3C//DTD SVG 1.1//EN"
  "http://www.w3.org/Graphics/SVG/1.1/DTD/svg11.dtd">
<svg xmlns:xlink="http://www.w3.org/1999/xlink" width="708.48pt" height="420.48pt" viewBox="0 0 708.48 420.48" xmlns="http://www.w3.org/2000/svg" version="1.1">
 <metadata>
  <rdf:RDF xmlns:dc="http://purl.org/dc/elements/1.1/" xmlns:cc="http://creativecommons.org/ns#" xmlns:rdf="http://www.w3.org/1999/02/22-rdf-syntax-ns#">
   <cc:Work>
    <dc:type rdf:resource="http://purl.org/dc/dcmitype/StillImage"/>
    <dc:date>2026-05-01T19:30:03.875243</dc:date>
    <dc:format>image/svg+xml</dc:format>
    <dc:creator>
     <cc:Agent>
      <dc:title>Matplotlib v3.10.7, https://matplotlib.org/</dc:title>
     </cc:Agent>
    </dc:creator>
   </cc:Work>
  </rdf:RDF>
 </metadata>
 <defs>
  <style type="text/css">*{stroke-linejoin: round; stroke-linecap: butt}</style>
 </defs>
 <g id="figure_1">
  <g id="patch_1">
   <path d="M 0 420.48 
L 708.48 420.48 
L 708.48 0 
L 0 0 
z
" style="fill: #ffffff"/>
  </g>
  <g id="axes_1">
   <g id="patch_2">
    <path d="M 49.977812 377.349687 
L 701.28 377.349687 
L 701.28 23.077969 
L 49.977812 23.077969 
z
" style="fill: #ffffff"/>
   </g>
   <g id="matplotlib.axis_1">
    <g id="xtick_1">
     <g id="text_1">
      <!-- MFF -->
      <g style="fill: #262626" transform="translate(145.263724 395.207969) scale(0.11 -0.11)">
       <defs>
        <path id="DejaVuSerif-4d" d="M 353 0 
L 353 331 
L 947 331 
L 947 4331 
L 319 4331 
L 319 4666 
L 1678 4666 
L 3316 1344 
L 4953 4666 
L 6228 4666 
L 6228 4331 
L 5606 4331 
L 5606 331 
L 6203 331 
L 6203 0 
L 4378 0 
L 4378 331 
L 4972 331 
L 4972 3938 
L 3372 684 
L 2931 684 
L 1331 3938 
L 1331 331 
L 1925 331 
L 1925 0 
L 353 0 
z
" transform="scale(0.015625)"/>
        <path id="DejaVuSerif-46" d="M 353 0 
L 353 331 
L 947 331 
L 947 4331 
L 353 4331 
L 353 4666 
L 4172 4666 
L 4172 3628 
L 3788 3628 
L 3788 4281 
L 1581 4281 
L 1581 2719 
L 3175 2719 
L 3175 3303 
L 3559 3303 
L 3559 1753 
L 3175 1753 
L 3175 2338 
L 1581 2338 
L 1581 331 
L 2328 331 
L 2328 0 
L 353 0 
z
" transform="scale(0.015625)"/>
       </defs>
       <use xlink:href="#DejaVuSerif-4d"/>
       <use xlink:href="#DejaVuSerif-46" transform="translate(102.392578 0)"/>
       <use xlink:href="#DejaVuSerif-46" transform="translate(171.777344 0)"/>
      </g>
     </g>
    </g>
    <g id="xtick_2">
     <g id="text_2">
      <!-- LWFF -->
      <g style="fill: #262626" transform="translate(359.171875 395.207969) scale(0.11 -0.11)">
       <defs>
        <path id="DejaVuSerif-4c" d="M 353 0 
L 353 331 
L 947 331 
L 947 4331 
L 353 4331 
L 353 4666 
L 2175 4666 
L 2175 4331 
L 1581 4331 
L 1581 384 
L 3713 384 
L 3713 1166 
L 4097 1166 
L 4097 0 
L 353 0 
z
" transform="scale(0.015625)"/>
        <path id="DejaVuSerif-57" d="M 4878 0 
L 4366 0 
L 3297 3794 
L 2228 0 
L 1716 0 
L 494 4331 
L 31 4331 
L 31 4666 
L 1734 4666 
L 1734 4331 
L 1153 4331 
L 2125 884 
L 3188 4666 
L 3694 4666 
L 4775 844 
L 5753 4331 
L 5216 4331 
L 5216 4666 
L 6559 4666 
L 6559 4331 
L 6100 4331 
L 4878 0 
z
" transform="scale(0.015625)"/>
       </defs>
       <use xlink:href="#DejaVuSerif-4c"/>
       <use xlink:href="#DejaVuSerif-57" transform="translate(57.65625 0)"/>
       <use xlink:href="#DejaVuSerif-46" transform="translate(160.439453 0)"/>
       <use xlink:href="#DejaVuSerif-46" transform="translate(229.824219 0)"/>
      </g>
     </g>
    </g>
    <g id="xtick_3">
     <g id="text_3">
      <!-- LFF -->
      <g style="fill: #262626" transform="translate(581.444323 395.207969) scale(0.11 -0.11)">
       <use xlink:href="#DejaVuSerif-4c"/>
       <use xlink:href="#DejaVuSerif-46" transform="translate(66.40625 0)"/>
       <use xlink:href="#DejaVuSerif-46" transform="translate(135.791016 0)"/>
      </g>
     </g>
    </g>
    <g id="text_4">
     <!-- VM Policy -->
     <g style="fill: #262626" transform="translate(345.248281 410.61375) scale(0.12 -0.12)">
      <defs>
       <path id="DejaVuSerif-56" d="M 1119 4331 
L 2497 750 
L 3872 4331 
L 3347 4331 
L 3347 4666 
L 4716 4666 
L 4716 4331 
L 4263 4331 
L 2597 0 
L 2059 0 
L 403 4331 
L -63 4331 
L -63 4666 
L 1638 4666 
L 1638 4331 
L 1119 4331 
z
" transform="scale(0.015625)"/>
       <path id="DejaVuSerif-20" transform="scale(0.015625)"/>
       <path id="DejaVuSerif-50" d="M 1581 2375 
L 2406 2375 
Q 2872 2375 3115 2626 
Q 3359 2878 3359 3353 
Q 3359 3831 3115 4081 
Q 2872 4331 2406 4331 
L 1581 4331 
L 1581 2375 
z
M 353 0 
L 353 331 
L 947 331 
L 947 4331 
L 353 4331 
L 353 4666 
L 2559 4666 
Q 3259 4666 3668 4311 
Q 4078 3956 4078 3353 
Q 4078 2753 3668 2397 
Q 3259 2041 2559 2041 
L 1581 2041 
L 1581 331 
L 2303 331 
L 2303 0 
L 353 0 
z
" transform="scale(0.015625)"/>
       <path id="DejaVuSerif-6f" d="M 1925 219 
Q 2388 219 2623 584 
Q 2859 950 2859 1663 
Q 2859 2375 2623 2739 
Q 2388 3103 1925 3103 
Q 1463 3103 1227 2739 
Q 991 2375 991 1663 
Q 991 950 1228 584 
Q 1466 219 1925 219 
z
M 1925 -91 
Q 1200 -91 759 389 
Q 319 869 319 1663 
Q 319 2456 758 2934 
Q 1197 3413 1925 3413 
Q 2653 3413 3092 2934 
Q 3531 2456 3531 1663 
Q 3531 869 3092 389 
Q 2653 -91 1925 -91 
z
" transform="scale(0.015625)"/>
       <path id="DejaVuSerif-6c" d="M 1313 331 
L 1856 331 
L 1856 0 
L 184 0 
L 184 331 
L 738 331 
L 738 4531 
L 184 4531 
L 184 4863 
L 1313 4863 
L 1313 331 
z
" transform="scale(0.015625)"/>
       <path id="DejaVuSerif-69" d="M 622 4353 
Q 622 4497 726 4603 
Q 831 4709 978 4709 
Q 1122 4709 1226 4603 
Q 1331 4497 1331 4353 
Q 1331 4206 1228 4103 
Q 1125 4000 978 4000 
Q 831 4000 726 4103 
Q 622 4206 622 4353 
z
M 1356 331 
L 1900 331 
L 1900 0 
L 231 0 
L 231 331 
L 781 331 
L 781 2988 
L 231 2988 
L 231 3322 
L 1356 3322 
L 1356 331 
z
" transform="scale(0.015625)"/>
       <path id="DejaVuSerif-63" d="M 3291 997 
Q 3169 466 2822 187 
Q 2475 -91 1925 -91 
Q 1200 -91 759 389 
Q 319 869 319 1663 
Q 319 2459 759 2936 
Q 1200 3413 1925 3413 
Q 2241 3413 2553 3339 
Q 2866 3266 3181 3116 
L 3181 2266 
L 2847 2266 
Q 2781 2703 2561 2903 
Q 2341 3103 1931 3103 
Q 1466 3103 1228 2742 
Q 991 2381 991 1663 
Q 991 944 1227 581 
Q 1463 219 1931 219 
Q 2303 219 2525 412 
Q 2747 606 2828 997 
L 3291 997 
z
" transform="scale(0.015625)"/>
       <path id="DejaVuSerif-79" d="M 1381 -609 
L 1600 -56 
L 359 2988 
L -19 2988 
L -19 3322 
L 1509 3322 
L 1509 2988 
L 978 2988 
L 1913 703 
L 2847 2988 
L 2350 2988 
L 2350 3322 
L 3597 3322 
L 3597 2988 
L 3225 2988 
L 1703 -750 
Q 1547 -1138 1356 -1280 
Q 1166 -1422 819 -1422 
Q 672 -1422 517 -1397 
Q 363 -1372 206 -1325 
L 206 -691 
L 500 -691 
Q 519 -903 608 -995 
Q 697 -1088 884 -1088 
Q 1056 -1088 1161 -992 
Q 1266 -897 1381 -609 
z
" transform="scale(0.015625)"/>
      </defs>
      <use xlink:href="#DejaVuSerif-56"/>
      <use xlink:href="#DejaVuSerif-4d" transform="translate(72.216797 0)"/>
      <use xlink:href="#DejaVuSerif-20" transform="translate(174.609375 0)"/>
      <use xlink:href="#DejaVuSerif-50" transform="translate(206.396484 0)"/>
      <use xlink:href="#DejaVuSerif-6f" transform="translate(269.681641 0)"/>
      <use xlink:href="#DejaVuSerif-6c" transform="translate(329.886719 0)"/>
      <use xlink:href="#DejaVuSerif-69" transform="translate(361.869141 0)"/>
      <use xlink:href="#DejaVuSerif-63" transform="translate(393.851562 0)"/>
      <use xlink:href="#DejaVuSerif-79" transform="translate(449.857422 0)"/>
     </g>
    </g>
   </g>
   <g id="matplotlib.axis_2">
    <g id="ytick_1">
     <g id="line2d_1">
      <path d="M 49.977812 361.464636 
L 701.28 361.464636 
" clip-path="url(#p40fe7696b9)" style="fill: none; stroke-dasharray: 3.7,1.6; stroke-dashoffset: 0; stroke: #dddddd; stroke-opacity: 0.7"/>
     </g>
     <g id="text_5">
      <!-- 0.0 -->
      <g style="fill: #262626" transform="translate(22.984375 365.643776) scale(0.11 -0.11)">
       <defs>
        <path id="DejaVuSerif-30" d="M 2034 219 
Q 2513 219 2750 744 
Q 2988 1269 2988 2328 
Q 2988 3391 2750 3916 
Q 2513 4441 2034 4441 
Q 1556 4441 1318 3916 
Q 1081 3391 1081 2328 
Q 1081 1269 1318 744 
Q 1556 219 2034 219 
z
M 2034 -91 
Q 1275 -91 848 546 
Q 422 1184 422 2328 
Q 422 3475 848 4112 
Q 1275 4750 2034 4750 
Q 2797 4750 3222 4112 
Q 3647 3475 3647 2328 
Q 3647 1184 3222 546 
Q 2797 -91 2034 -91 
z
" transform="scale(0.015625)"/>
        <path id="DejaVuSerif-2e" d="M 603 325 
Q 603 500 722 622 
Q 841 744 1019 744 
Q 1191 744 1312 622 
Q 1434 500 1434 325 
Q 1434 153 1312 31 
Q 1191 -91 1019 -91 
Q 841 -91 722 29 
Q 603 150 603 325 
z
" transform="scale(0.015625)"/>
       </defs>
       <use xlink:href="#DejaVuSerif-30"/>
       <use xlink:href="#DejaVuSerif-2e" transform="translate(63.623047 0)"/>
       <use xlink:href="#DejaVuSerif-30" transform="translate(95.410156 0)"/>
      </g>
     </g>
    </g>
    <g id="ytick_2">
     <g id="line2d_2">
      <path d="M 49.977812 311.871908 
L 701.28 311.871908 
" clip-path="url(#p40fe7696b9)" style="fill: none; stroke-dasharray: 3.7,1.6; stroke-dashoffset: 0; stroke: #dddddd; stroke-opacity: 0.7"/>
     </g>
     <g id="text_6">
      <!-- 0.5 -->
      <g style="fill: #262626" transform="translate(22.984375 316.051048) scale(0.11 -0.11)">
       <defs>
        <path id="DejaVuSerif-35" d="M 3219 4666 
L 3219 4153 
L 1081 4153 
L 1081 2816 
Q 1244 2928 1461 2984 
Q 1678 3041 1947 3041 
Q 2703 3041 3140 2622 
Q 3578 2203 3578 1478 
Q 3578 738 3136 323 
Q 2694 -91 1894 -91 
Q 1572 -91 1234 -12 
Q 897 66 544 225 
L 544 1131 
L 897 1131 
Q 925 688 1179 453 
Q 1434 219 1894 219 
Q 2388 219 2653 544 
Q 2919 869 2919 1478 
Q 2919 2084 2655 2407 
Q 2391 2731 1894 2731 
Q 1613 2731 1398 2631 
Q 1184 2531 1019 2322 
L 750 2322 
L 750 4666 
L 3219 4666 
z
" transform="scale(0.015625)"/>
       </defs>
       <use xlink:href="#DejaVuSerif-30"/>
       <use xlink:href="#DejaVuSerif-2e" transform="translate(63.623047 0)"/>
       <use xlink:href="#DejaVuSerif-35" transform="translate(95.410156 0)"/>
      </g>
     </g>
    </g>
    <g id="ytick_3">
     <g id="line2d_3">
      <path d="M 49.977812 262.27918 
L 701.28 262.27918 
" clip-path="url(#p40fe7696b9)" style="fill: none; stroke-dasharray: 3.7,1.6; stroke-dashoffset: 0; stroke: #dddddd; stroke-opacity: 0.7"/>
     </g>
     <g id="text_7">
      <!-- 1.0 -->
      <g style="fill: #262626" transform="translate(22.984375 266.458321) scale(0.11 -0.11)">
       <defs>
        <path id="DejaVuSerif-31" d="M 909 0 
L 909 331 
L 1722 331 
L 1722 4213 
L 781 3603 
L 781 4013 
L 1919 4750 
L 2350 4750 
L 2350 331 
L 3163 331 
L 3163 0 
L 909 0 
z
" transform="scale(0.015625)"/>
       </defs>
       <use xlink:href="#DejaVuSerif-31"/>
       <use xlink:href="#DejaVuSerif-2e" transform="translate(63.623047 0)"/>
       <use xlink:href="#DejaVuSerif-30" transform="translate(95.410156 0)"/>
      </g>
     </g>
    </g>
    <g id="ytick_4">
     <g id="line2d_4">
      <path d="M 49.977812 212.686452 
L 701.28 212.686452 
" clip-path="url(#p40fe7696b9)" style="fill: none; stroke-dasharray: 3.7,1.6; stroke-dashoffset: 0; stroke: #dddddd; stroke-opacity: 0.7"/>
     </g>
     <g id="text_8">
      <!-- 1.5 -->
      <g style="fill: #262626" transform="translate(22.984375 216.865593) scale(0.11 -0.11)">
       <use xlink:href="#DejaVuSerif-31"/>
       <use xlink:href="#DejaVuSerif-2e" transform="translate(63.623047 0)"/>
       <use xlink:href="#DejaVuSerif-35" transform="translate(95.410156 0)"/>
      </g>
     </g>
    </g>
    <g id="ytick_5">
     <g id="line2d_5">
      <path d="M 49.977812 163.093725 
L 701.28 163.093725 
" clip-path="url(#p40fe7696b9)" style="fill: none; stroke-dasharray: 3.7,1.6; stroke-dashoffset: 0; stroke: #dddddd; stroke-opacity: 0.7"/>
     </g>
     <g id="text_9">
      <!-- 2.0 -->
      <g style="fill: #262626" transform="translate(22.984375 167.272865) scale(0.11 -0.11)">
       <defs>
        <path id="DejaVuSerif-32" d="M 819 3553 
L 469 3553 
L 469 4384 
Q 803 4563 1142 4656 
Q 1481 4750 1806 4750 
Q 2534 4750 2956 4397 
Q 3378 4044 3378 3438 
Q 3378 2753 2422 1800 
Q 2347 1728 2309 1691 
L 1131 513 
L 3078 513 
L 3078 1088 
L 3444 1088 
L 3444 0 
L 434 0 
L 434 341 
L 1850 1753 
Q 2319 2222 2519 2614 
Q 2719 3006 2719 3438 
Q 2719 3909 2473 4175 
Q 2228 4441 1797 4441 
Q 1350 4441 1106 4219 
Q 863 3997 819 3553 
z
" transform="scale(0.015625)"/>
       </defs>
       <use xlink:href="#DejaVuSerif-32"/>
       <use xlink:href="#DejaVuSerif-2e" transform="translate(63.623047 0)"/>
       <use xlink:href="#DejaVuSerif-30" transform="translate(95.410156 0)"/>
      </g>
     </g>
    </g>
    <g id="ytick_6">
     <g id="line2d_6">
      <path d="M 49.977812 113.500997 
L 701.28 113.500997 
" clip-path="url(#p40fe7696b9)" style="fill: none; stroke-dasharray: 3.7,1.6; stroke-dashoffset: 0; stroke: #dddddd; stroke-opacity: 0.7"/>
     </g>
     <g id="text_10">
      <!-- 2.5 -->
      <g style="fill: #262626" transform="translate(22.984375 117.680138) scale(0.11 -0.11)">
       <use xlink:href="#DejaVuSerif-32"/>
       <use xlink:href="#DejaVuSerif-2e" transform="translate(63.623047 0)"/>
       <use xlink:href="#DejaVuSerif-35" transform="translate(95.410156 0)"/>
      </g>
     </g>
    </g>
    <g id="ytick_7">
     <g id="line2d_7">
      <path d="M 49.977812 63.908269 
L 701.28 63.908269 
" clip-path="url(#p40fe7696b9)" style="fill: none; stroke-dasharray: 3.7,1.6; stroke-dashoffset: 0; stroke: #dddddd; stroke-opacity: 0.7"/>
     </g>
     <g id="text_11">
      <!-- 3.0 -->
      <g style="fill: #262626" transform="translate(22.984375 68.08741) scale(0.11 -0.11)">
       <defs>
        <path id="DejaVuSerif-33" d="M 622 4469 
Q 988 4606 1323 4678 
Q 1659 4750 1953 4750 
Q 2638 4750 3022 4454 
Q 3406 4159 3406 3634 
Q 3406 3213 3140 2930 
Q 2875 2647 2388 2547 
Q 2963 2466 3280 2130 
Q 3597 1794 3597 1259 
Q 3597 606 3158 257 
Q 2719 -91 1894 -91 
Q 1528 -91 1179 -12 
Q 831 66 488 225 
L 488 1131 
L 838 1131 
Q 869 681 1141 450 
Q 1413 219 1906 219 
Q 2384 219 2661 495 
Q 2938 772 2938 1253 
Q 2938 1803 2653 2086 
Q 2369 2369 1819 2369 
L 1522 2369 
L 1522 2688 
L 1678 2688 
Q 2225 2688 2498 2914 
Q 2772 3141 2772 3597 
Q 2772 4006 2547 4223 
Q 2322 4441 1900 4441 
Q 1478 4441 1245 4241 
Q 1013 4041 972 3647 
L 622 3647 
L 622 4469 
z
" transform="scale(0.015625)"/>
       </defs>
       <use xlink:href="#DejaVuSerif-33"/>
       <use xlink:href="#DejaVuSerif-2e" transform="translate(63.623047 0)"/>
       <use xlink:href="#DejaVuSerif-30" transform="translate(95.410156 0)"/>
      </g>
     </g>
    </g>
    <g id="text_12">
     <!-- Packet Delay (ms) -->
     <g style="fill: #262626" transform="translate(16.318125 255.028516) rotate(-90) scale(0.12 -0.12)">
      <defs>
       <path id="DejaVuSerif-61" d="M 2547 1044 
L 2547 1747 
L 1806 1747 
Q 1378 1747 1168 1562 
Q 959 1378 959 997 
Q 959 650 1171 447 
Q 1384 244 1747 244 
Q 2106 244 2326 466 
Q 2547 688 2547 1044 
z
M 3122 2075 
L 3122 331 
L 3634 331 
L 3634 0 
L 2547 0 
L 2547 359 
Q 2356 128 2106 18 
Q 1856 -91 1522 -91 
Q 969 -91 644 203 
Q 319 497 319 997 
Q 319 1513 691 1797 
Q 1063 2081 1741 2081 
L 2547 2081 
L 2547 2309 
Q 2547 2688 2317 2895 
Q 2088 3103 1672 3103 
Q 1328 3103 1125 2947 
Q 922 2791 872 2484 
L 575 2484 
L 575 3156 
Q 875 3284 1158 3348 
Q 1441 3413 1709 3413 
Q 2400 3413 2761 3070 
Q 3122 2728 3122 2075 
z
" transform="scale(0.015625)"/>
       <path id="DejaVuSerif-6b" d="M 1831 0 
L 219 0 
L 219 331 
L 738 331 
L 738 4531 
L 184 4531 
L 184 4863 
L 1313 4863 
L 1313 1697 
L 2713 2988 
L 2234 2988 
L 2234 3322 
L 3738 3322 
L 3738 2988 
L 3169 2988 
L 2181 2075 
L 3444 331 
L 3922 331 
L 3922 0 
L 2284 0 
L 2284 331 
L 2759 331 
L 1766 1697 
L 1313 1275 
L 1313 331 
L 1831 331 
L 1831 0 
z
" transform="scale(0.015625)"/>
       <path id="DejaVuSerif-65" d="M 3469 1600 
L 991 1600 
L 991 1575 
Q 991 903 1244 561 
Q 1497 219 1991 219 
Q 2369 219 2611 417 
Q 2853 616 2950 1006 
L 3413 1006 
Q 3275 459 2904 184 
Q 2534 -91 1931 -91 
Q 1203 -91 761 389 
Q 319 869 319 1663 
Q 319 2450 753 2931 
Q 1188 3413 1894 3413 
Q 2647 3413 3050 2948 
Q 3453 2484 3469 1600 
z
M 2791 1931 
Q 2772 2513 2545 2808 
Q 2319 3103 1894 3103 
Q 1497 3103 1269 2806 
Q 1041 2509 991 1931 
L 2791 1931 
z
" transform="scale(0.015625)"/>
       <path id="DejaVuSerif-74" d="M 691 2988 
L 184 2988 
L 184 3322 
L 691 3322 
L 691 4353 
L 1269 4353 
L 1269 3322 
L 2350 3322 
L 2350 2988 
L 1269 2988 
L 1269 878 
Q 1269 456 1350 337 
Q 1431 219 1650 219 
Q 1875 219 1978 351 
Q 2081 484 2088 781 
L 2522 781 
Q 2497 328 2275 118 
Q 2053 -91 1600 -91 
Q 1103 -91 897 129 
Q 691 350 691 878 
L 691 2988 
z
" transform="scale(0.015625)"/>
       <path id="DejaVuSerif-44" d="M 1581 331 
L 2163 331 
Q 3072 331 3558 850 
Q 4044 1369 4044 2338 
Q 4044 3306 3559 3818 
Q 3075 4331 2163 4331 
L 1581 4331 
L 1581 331 
z
M 353 0 
L 353 331 
L 947 331 
L 947 4331 
L 353 4331 
L 353 4666 
L 2209 4666 
Q 3416 4666 4089 4050 
Q 4763 3434 4763 2338 
Q 4763 1238 4088 619 
Q 3413 0 2209 0 
L 353 0 
z
" transform="scale(0.015625)"/>
       <path id="DejaVuSerif-28" d="M 2041 -997 
Q 1281 -656 893 83 
Q 506 822 506 1931 
Q 506 3044 893 3783 
Q 1281 4522 2041 4863 
L 2041 4556 
Q 1559 4225 1350 3623 
Q 1141 3022 1141 1931 
Q 1141 844 1350 242 
Q 1559 -359 2041 -691 
L 2041 -997 
z
" transform="scale(0.015625)"/>
       <path id="DejaVuSerif-6d" d="M 3316 2675 
Q 3481 3041 3739 3227 
Q 3997 3413 4341 3413 
Q 4863 3413 5119 3089 
Q 5375 2766 5375 2113 
L 5375 331 
L 5894 331 
L 5894 0 
L 4300 0 
L 4300 331 
L 4800 331 
L 4800 2047 
Q 4800 2556 4650 2772 
Q 4500 2988 4153 2988 
Q 3769 2988 3567 2697 
Q 3366 2406 3366 1850 
L 3366 331 
L 3866 331 
L 3866 0 
L 2291 0 
L 2291 331 
L 2791 331 
L 2791 2069 
Q 2791 2566 2641 2777 
Q 2491 2988 2144 2988 
Q 1759 2988 1557 2697 
Q 1356 2406 1356 1850 
L 1356 331 
L 1856 331 
L 1856 0 
L 263 0 
L 263 331 
L 781 331 
L 781 2994 
L 231 2994 
L 231 3322 
L 1356 3322 
L 1356 2731 
Q 1516 3063 1762 3238 
Q 2009 3413 2322 3413 
Q 2709 3413 2968 3220 
Q 3228 3028 3316 2675 
z
" transform="scale(0.015625)"/>
       <path id="DejaVuSerif-73" d="M 359 184 
L 359 959 
L 691 959 
Q 703 588 923 403 
Q 1144 219 1575 219 
Q 1963 219 2166 364 
Q 2369 509 2369 788 
Q 2369 1006 2220 1140 
Q 2072 1275 1594 1428 
L 1178 1569 
Q 750 1706 558 1912 
Q 366 2119 366 2438 
Q 366 2894 700 3153 
Q 1034 3413 1625 3413 
Q 1888 3413 2178 3344 
Q 2469 3275 2778 3144 
L 2778 2419 
L 2447 2419 
Q 2434 2741 2221 2922 
Q 2009 3103 1644 3103 
Q 1281 3103 1095 2975 
Q 909 2847 909 2591 
Q 909 2381 1050 2254 
Q 1191 2128 1613 1997 
L 2069 1856 
Q 2541 1709 2748 1489 
Q 2956 1269 2956 922 
Q 2956 450 2595 179 
Q 2234 -91 1600 -91 
Q 1278 -91 972 -22 
Q 666 47 359 184 
z
" transform="scale(0.015625)"/>
       <path id="DejaVuSerif-29" d="M 453 -997 
L 453 -691 
Q 934 -359 1145 242 
Q 1356 844 1356 1931 
Q 1356 3022 1145 3623 
Q 934 4225 453 4556 
L 453 4863 
Q 1216 4522 1603 3783 
Q 1991 3044 1991 1931 
Q 1991 822 1603 83 
Q 1216 -656 453 -997 
z
" transform="scale(0.015625)"/>
      </defs>
      <use xlink:href="#DejaVuSerif-50"/>
      <use xlink:href="#DejaVuSerif-61" transform="translate(62.785156 0)"/>
      <use xlink:href="#DejaVuSerif-63" transform="translate(122.404297 0)"/>
      <use xlink:href="#DejaVuSerif-6b" transform="translate(178.410156 0)"/>
      <use xlink:href="#DejaVuSerif-65" transform="translate(239.005859 0)"/>
      <use xlink:href="#DejaVuSerif-74" transform="translate(298.185547 0)"/>
      <use xlink:href="#DejaVuSerif-20" transform="translate(338.371094 0)"/>
      <use xlink:href="#DejaVuSerif-44" transform="translate(370.158203 0)"/>
      <use xlink:href="#DejaVuSerif-65" transform="translate(450.333984 0)"/>
      <use xlink:href="#DejaVuSerif-6c" transform="translate(509.513672 0)"/>
      <use xlink:href="#DejaVuSerif-61" transform="translate(541.496094 0)"/>
      <use xlink:href="#DejaVuSerif-79" transform="translate(601.115234 0)"/>
      <use xlink:href="#DejaVuSerif-20" transform="translate(657.609375 0)"/>
      <use xlink:href="#DejaVuSerif-28" transform="translate(689.396484 0)"/>
      <use xlink:href="#DejaVuSerif-6d" transform="translate(728.410156 0)"/>
      <use xlink:href="#DejaVuSerif-73" transform="translate(823.234375 0)"/>
      <use xlink:href="#DejaVuSerif-29" transform="translate(874.552734 0)"/>
     </g>
    </g>
    <g id="text_13">
     <!-- 1e6 -->
     <g style="fill: #262626" transform="translate(49.977812 20.077969) scale(0.11 -0.11)">
      <defs>
       <path id="DejaVuSerif-36" d="M 2094 219 
Q 2534 219 2771 542 
Q 3009 866 3009 1472 
Q 3009 2078 2771 2401 
Q 2534 2725 2094 2725 
Q 1647 2725 1412 2412 
Q 1178 2100 1178 1509 
Q 1178 888 1415 553 
Q 1653 219 2094 219 
z
M 1075 2569 
Q 1288 2803 1556 2918 
Q 1825 3034 2163 3034 
Q 2859 3034 3264 2615 
Q 3669 2197 3669 1472 
Q 3669 763 3233 336 
Q 2797 -91 2069 -91 
Q 1278 -91 853 498 
Q 428 1088 428 2181 
Q 428 3406 931 4078 
Q 1434 4750 2350 4750 
Q 2597 4750 2869 4703 
Q 3141 4656 3425 4563 
L 3425 3794 
L 3072 3794 
Q 3034 4109 2831 4275 
Q 2628 4441 2284 4441 
Q 1678 4441 1381 3981 
Q 1084 3522 1075 2569 
z
" transform="scale(0.015625)"/>
      </defs>
      <use xlink:href="#DejaVuSerif-31"/>
      <use xlink:href="#DejaVuSerif-65" transform="translate(63.623047 0)"/>
      <use xlink:href="#DejaVuSerif-36" transform="translate(122.802734 0)"/>
     </g>
    </g>
   </g>
   <g id="patch_3">
    <path d="M 158.528177 361.464636 
L 158.528177 361.464636 
L 158.528177 361.464636 
L 158.528177 361.464636 
z
" clip-path="url(#p40fe7696b9)" style="fill: #3274a1; stroke: #3f3f3f; stroke-width: 1.5; stroke-linejoin: miter"/>
   </g>
   <g id="patch_4">
    <path d="M 158.528177 361.464636 
L 158.528177 361.464636 
L 158.528177 361.464636 
L 158.528177 361.464636 
z
" clip-path="url(#p40fe7696b9)" style="fill: #c03d3e; stroke: #3f3f3f; stroke-width: 1.5; stroke-linejoin: miter"/>
   </g>
   <g id="patch_5">
    <path d="M 71.687885 360.076039 
L 158.528177 360.076039 
L 158.528177 348.394472 
L 71.687885 348.394472 
L 71.687885 360.076039 
z
" clip-path="url(#p40fe7696b9)" style="fill: #3274a1; stroke: #3f3f3f; stroke-width: 1.5; stroke-linejoin: miter"/>
   </g>
   <g id="line2d_8">
    <path d="M 115.108031 360.076039 
L 115.108031 361.246428 
" clip-path="url(#p40fe7696b9)" style="fill: none; stroke: #3f3f3f; stroke-width: 1.5"/>
   </g>
   <g id="line2d_9">
    <path d="M 115.108031 348.394472 
L 115.108031 340.747769 
" clip-path="url(#p40fe7696b9)" style="fill: none; stroke: #3f3f3f; stroke-width: 1.5"/>
   </g>
   <g id="line2d_10">
    <path d="M 93.397958 361.246428 
L 136.818104 361.246428 
" clip-path="url(#p40fe7696b9)" style="fill: none; stroke: #3f3f3f; stroke-width: 1.5; stroke-linecap: round"/>
   </g>
   <g id="line2d_11">
    <path d="M 93.397958 340.747769 
L 136.818104 340.747769 
" clip-path="url(#p40fe7696b9)" style="fill: none; stroke: #3f3f3f; stroke-width: 1.5; stroke-linecap: round"/>
   </g>
   <g id="line2d_12">
    <defs>
     <path id="m358d111675" d="M 0 1 
C 0.265203 1 0.51958 0.894634 0.707107 0.707107 
C 0.894634 0.51958 1 0.265203 1 0 
C 1 -0.265203 0.894634 -0.51958 0.707107 -0.707107 
C 0.51958 -0.894634 0.265203 -1 0 -1 
C -0.265203 -1 -0.51958 -0.894634 -0.707107 -0.707107 
C -0.894634 -0.51958 -1 -0.265203 -1 0 
C -1 0.265203 -0.894634 0.51958 -0.707107 0.707107 
C -0.51958 0.894634 -0.265203 1 0 1 
z
" style="stroke: #3f3f3f"/>
    </defs>
    <g clip-path="url(#p40fe7696b9)">
     <use xlink:href="#m358d111675" x="115.108031" y="320.848192" style="fill-opacity: 0; stroke: #3f3f3f"/>
     <use xlink:href="#m358d111675" x="115.108031" y="321.165585" style="fill-opacity: 0; stroke: #3f3f3f"/>
     <use xlink:href="#m358d111675" x="115.108031" y="320.907703" style="fill-opacity: 0; stroke: #3f3f3f"/>
     <use xlink:href="#m358d111675" x="115.108031" y="320.957296" style="fill-opacity: 0; stroke: #3f3f3f"/>
     <use xlink:href="#m358d111675" x="115.108031" y="311.534677" style="fill-opacity: 0; stroke: #3f3f3f"/>
     <use xlink:href="#m358d111675" x="115.108031" y="311.524759" style="fill-opacity: 0; stroke: #3f3f3f"/>
     <use xlink:href="#m358d111675" x="115.108031" y="311.008994" style="fill-opacity: 0; stroke: #3f3f3f"/>
     <use xlink:href="#m358d111675" x="115.108031" y="311.385899" style="fill-opacity: 0; stroke: #3f3f3f"/>
     <use xlink:href="#m358d111675" x="115.108031" y="262.150239" style="fill-opacity: 0; stroke: #3f3f3f"/>
     <use xlink:href="#m358d111675" x="115.108031" y="261.862601" style="fill-opacity: 0; stroke: #3f3f3f"/>
     <use xlink:href="#m358d111675" x="115.108031" y="261.951868" style="fill-opacity: 0; stroke: #3f3f3f"/>
     <use xlink:href="#m358d111675" x="115.108031" y="261.713823" style="fill-opacity: 0; stroke: #3f3f3f"/>
     <use xlink:href="#m358d111675" x="115.108031" y="261.485697" style="fill-opacity: 0; stroke: #3f3f3f"/>
     <use xlink:href="#m358d111675" x="115.108031" y="261.614638" style="fill-opacity: 0; stroke: #3f3f3f"/>
     <use xlink:href="#m358d111675" x="115.108031" y="261.356755" style="fill-opacity: 0; stroke: #3f3f3f"/>
     <use xlink:href="#m358d111675" x="115.108031" y="261.713823" style="fill-opacity: 0; stroke: #3f3f3f"/>
     <use xlink:href="#m358d111675" x="115.108031" y="262.110565" style="fill-opacity: 0; stroke: #3f3f3f"/>
     <use xlink:href="#m358d111675" x="115.108031" y="261.505534" style="fill-opacity: 0; stroke: #3f3f3f"/>
     <use xlink:href="#m358d111675" x="115.108031" y="261.594801" style="fill-opacity: 0; stroke: #3f3f3f"/>
     <use xlink:href="#m358d111675" x="115.108031" y="261.327" style="fill-opacity: 0; stroke: #3f3f3f"/>
     <use xlink:href="#m358d111675" x="115.108031" y="320.939442" style="fill-opacity: 0; stroke: #3f3f3f"/>
     <use xlink:href="#m358d111675" x="115.108031" y="320.952336" style="fill-opacity: 0; stroke: #3f3f3f"/>
     <use xlink:href="#m358d111675" x="115.108031" y="320.986059" style="fill-opacity: 0; stroke: #3f3f3f"/>
     <use xlink:href="#m358d111675" x="115.108031" y="320.942418" style="fill-opacity: 0; stroke: #3f3f3f"/>
     <use xlink:href="#m358d111675" x="115.108031" y="310.999076" style="fill-opacity: 0; stroke: #3f3f3f"/>
     <use xlink:href="#m358d111675" x="115.108031" y="311.026848" style="fill-opacity: 0; stroke: #3f3f3f"/>
     <use xlink:href="#m358d111675" x="115.108031" y="311.062555" style="fill-opacity: 0; stroke: #3f3f3f"/>
     <use xlink:href="#m358d111675" x="115.108031" y="311.064538" style="fill-opacity: 0; stroke: #3f3f3f"/>
     <use xlink:href="#m358d111675" x="115.108031" y="261.443047" style="fill-opacity: 0; stroke: #3f3f3f"/>
     <use xlink:href="#m358d111675" x="115.108031" y="261.421226" style="fill-opacity: 0; stroke: #3f3f3f"/>
     <use xlink:href="#m358d111675" x="115.108031" y="261.448998" style="fill-opacity: 0; stroke: #3f3f3f"/>
     <use xlink:href="#m358d111675" x="115.108031" y="261.475778" style="fill-opacity: 0; stroke: #3f3f3f"/>
     <use xlink:href="#m358d111675" x="115.108031" y="261.451973" style="fill-opacity: 0; stroke: #3f3f3f"/>
     <use xlink:href="#m358d111675" x="115.108031" y="261.461892" style="fill-opacity: 0; stroke: #3f3f3f"/>
     <use xlink:href="#m358d111675" x="115.108031" y="261.44503" style="fill-opacity: 0; stroke: #3f3f3f"/>
     <use xlink:href="#m358d111675" x="115.108031" y="261.4609" style="fill-opacity: 0; stroke: #3f3f3f"/>
     <use xlink:href="#m358d111675" x="115.108031" y="261.478754" style="fill-opacity: 0; stroke: #3f3f3f"/>
     <use xlink:href="#m358d111675" x="115.108031" y="261.484705" style="fill-opacity: 0; stroke: #3f3f3f"/>
     <use xlink:href="#m358d111675" x="115.108031" y="261.427177" style="fill-opacity: 0; stroke: #3f3f3f"/>
     <use xlink:href="#m358d111675" x="115.108031" y="261.462884" style="fill-opacity: 0; stroke: #3f3f3f"/>
     <use xlink:href="#m358d111675" x="115.108031" y="320.848192" style="fill-opacity: 0; stroke: #3f3f3f"/>
     <use xlink:href="#m358d111675" x="115.108031" y="321.165585" style="fill-opacity: 0; stroke: #3f3f3f"/>
     <use xlink:href="#m358d111675" x="115.108031" y="320.907703" style="fill-opacity: 0; stroke: #3f3f3f"/>
     <use xlink:href="#m358d111675" x="115.108031" y="320.957296" style="fill-opacity: 0; stroke: #3f3f3f"/>
     <use xlink:href="#m358d111675" x="115.108031" y="311.534677" style="fill-opacity: 0; stroke: #3f3f3f"/>
     <use xlink:href="#m358d111675" x="115.108031" y="311.524759" style="fill-opacity: 0; stroke: #3f3f3f"/>
     <use xlink:href="#m358d111675" x="115.108031" y="311.008994" style="fill-opacity: 0; stroke: #3f3f3f"/>
     <use xlink:href="#m358d111675" x="115.108031" y="311.385899" style="fill-opacity: 0; stroke: #3f3f3f"/>
     <use xlink:href="#m358d111675" x="115.108031" y="262.150239" style="fill-opacity: 0; stroke: #3f3f3f"/>
     <use xlink:href="#m358d111675" x="115.108031" y="261.862601" style="fill-opacity: 0; stroke: #3f3f3f"/>
     <use xlink:href="#m358d111675" x="115.108031" y="261.951868" style="fill-opacity: 0; stroke: #3f3f3f"/>
     <use xlink:href="#m358d111675" x="115.108031" y="261.713823" style="fill-opacity: 0; stroke: #3f3f3f"/>
     <use xlink:href="#m358d111675" x="115.108031" y="261.485697" style="fill-opacity: 0; stroke: #3f3f3f"/>
     <use xlink:href="#m358d111675" x="115.108031" y="261.614638" style="fill-opacity: 0; stroke: #3f3f3f"/>
     <use xlink:href="#m358d111675" x="115.108031" y="261.356755" style="fill-opacity: 0; stroke: #3f3f3f"/>
     <use xlink:href="#m358d111675" x="115.108031" y="261.713823" style="fill-opacity: 0; stroke: #3f3f3f"/>
     <use xlink:href="#m358d111675" x="115.108031" y="262.110565" style="fill-opacity: 0; stroke: #3f3f3f"/>
     <use xlink:href="#m358d111675" x="115.108031" y="261.505534" style="fill-opacity: 0; stroke: #3f3f3f"/>
     <use xlink:href="#m358d111675" x="115.108031" y="261.594801" style="fill-opacity: 0; stroke: #3f3f3f"/>
     <use xlink:href="#m358d111675" x="115.108031" y="261.327" style="fill-opacity: 0; stroke: #3f3f3f"/>
    </g>
   </g>
   <g id="patch_6">
    <path d="M 288.788615 359.599453 
L 375.628906 359.599453 
L 375.628906 330.757462 
L 288.788615 330.757462 
L 288.788615 359.599453 
z
" clip-path="url(#p40fe7696b9)" style="fill: #3274a1; stroke: #3f3f3f; stroke-width: 1.5; stroke-linejoin: miter"/>
   </g>
   <g id="line2d_13">
    <path d="M 332.20876 359.599453 
L 332.20876 361.246428 
" clip-path="url(#p40fe7696b9)" style="fill: none; stroke: #3f3f3f; stroke-width: 1.5"/>
   </g>
   <g id="line2d_14">
    <path d="M 332.20876 330.757462 
L 332.20876 301.022902 
" clip-path="url(#p40fe7696b9)" style="fill: none; stroke: #3f3f3f; stroke-width: 1.5"/>
   </g>
   <g id="line2d_15">
    <path d="M 310.498687 361.246428 
L 353.918833 361.246428 
" clip-path="url(#p40fe7696b9)" style="fill: none; stroke: #3f3f3f; stroke-width: 1.5; stroke-linecap: round"/>
   </g>
   <g id="line2d_16">
    <path d="M 310.498687 301.022902 
L 353.918833 301.022902 
" clip-path="url(#p40fe7696b9)" style="fill: none; stroke: #3f3f3f; stroke-width: 1.5; stroke-linecap: round"/>
   </g>
   <g id="line2d_17">
    <g clip-path="url(#p40fe7696b9)">
     <use xlink:href="#m358d111675" x="332.20876" y="261.862601" style="fill-opacity: 0; stroke: #3f3f3f"/>
     <use xlink:href="#m358d111675" x="332.20876" y="261.713823" style="fill-opacity: 0; stroke: #3f3f3f"/>
     <use xlink:href="#m358d111675" x="332.20876" y="261.951868" style="fill-opacity: 0; stroke: #3f3f3f"/>
     <use xlink:href="#m358d111675" x="332.20876" y="261.485697" style="fill-opacity: 0; stroke: #3f3f3f"/>
     <use xlink:href="#m358d111675" x="332.20876" y="261.614638" style="fill-opacity: 0; stroke: #3f3f3f"/>
     <use xlink:href="#m358d111675" x="332.20876" y="261.356755" style="fill-opacity: 0; stroke: #3f3f3f"/>
     <use xlink:href="#m358d111675" x="332.20876" y="261.713823" style="fill-opacity: 0; stroke: #3f3f3f"/>
     <use xlink:href="#m358d111675" x="332.20876" y="261.505534" style="fill-opacity: 0; stroke: #3f3f3f"/>
     <use xlink:href="#m358d111675" x="332.20876" y="261.594801" style="fill-opacity: 0; stroke: #3f3f3f"/>
     <use xlink:href="#m358d111675" x="332.20876" y="261.327" style="fill-opacity: 0; stroke: #3f3f3f"/>
     <use xlink:href="#m358d111675" x="332.20876" y="241.561222" style="fill-opacity: 0; stroke: #3f3f3f"/>
     <use xlink:href="#m358d111675" x="332.20876" y="212.325317" style="fill-opacity: 0; stroke: #3f3f3f"/>
     <use xlink:href="#m358d111675" x="332.20876" y="212.339303" style="fill-opacity: 0; stroke: #3f3f3f"/>
     <use xlink:href="#m358d111675" x="332.20876" y="211.811536" style="fill-opacity: 0; stroke: #3f3f3f"/>
     <use xlink:href="#m358d111675" x="332.20876" y="211.962298" style="fill-opacity: 0; stroke: #3f3f3f"/>
     <use xlink:href="#m358d111675" x="332.20876" y="63.660205" style="fill-opacity: 0; stroke: #3f3f3f"/>
     <use xlink:href="#m358d111675" x="332.20876" y="63.739654" style="fill-opacity: 0; stroke: #3f3f3f"/>
     <use xlink:href="#m358d111675" x="332.20876" y="261.428169" style="fill-opacity: 0; stroke: #3f3f3f"/>
     <use xlink:href="#m358d111675" x="332.20876" y="261.433128" style="fill-opacity: 0; stroke: #3f3f3f"/>
     <use xlink:href="#m358d111675" x="332.20876" y="261.470819" style="fill-opacity: 0; stroke: #3f3f3f"/>
     <use xlink:href="#m358d111675" x="332.20876" y="261.478754" style="fill-opacity: 0; stroke: #3f3f3f"/>
     <use xlink:href="#m358d111675" x="332.20876" y="261.47677" style="fill-opacity: 0; stroke: #3f3f3f"/>
     <use xlink:href="#m358d111675" x="332.20876" y="261.438087" style="fill-opacity: 0; stroke: #3f3f3f"/>
     <use xlink:href="#m358d111675" x="332.20876" y="261.468835" style="fill-opacity: 0; stroke: #3f3f3f"/>
     <use xlink:href="#m358d111675" x="332.20876" y="261.480737" style="fill-opacity: 0; stroke: #3f3f3f"/>
     <use xlink:href="#m358d111675" x="332.20876" y="261.452965" style="fill-opacity: 0; stroke: #3f3f3f"/>
     <use xlink:href="#m358d111675" x="332.20876" y="261.484705" style="fill-opacity: 0; stroke: #3f3f3f"/>
     <use xlink:href="#m358d111675" x="332.20876" y="241.526507" style="fill-opacity: 0; stroke: #3f3f3f"/>
     <use xlink:href="#m358d111675" x="332.20876" y="211.889993" style="fill-opacity: 0; stroke: #3f3f3f"/>
     <use xlink:href="#m358d111675" x="332.20876" y="211.822447" style="fill-opacity: 0; stroke: #3f3f3f"/>
     <use xlink:href="#m358d111675" x="332.20876" y="211.818479" style="fill-opacity: 0; stroke: #3f3f3f"/>
     <use xlink:href="#m358d111675" x="332.20876" y="211.642921" style="fill-opacity: 0; stroke: #3f3f3f"/>
     <use xlink:href="#m358d111675" x="332.20876" y="63.081063" style="fill-opacity: 0; stroke: #3f3f3f"/>
     <use xlink:href="#m358d111675" x="332.20876" y="62.941111" style="fill-opacity: 0; stroke: #3f3f3f"/>
     <use xlink:href="#m358d111675" x="332.20876" y="261.862601" style="fill-opacity: 0; stroke: #3f3f3f"/>
     <use xlink:href="#m358d111675" x="332.20876" y="261.713823" style="fill-opacity: 0; stroke: #3f3f3f"/>
     <use xlink:href="#m358d111675" x="332.20876" y="261.951868" style="fill-opacity: 0; stroke: #3f3f3f"/>
     <use xlink:href="#m358d111675" x="332.20876" y="261.485697" style="fill-opacity: 0; stroke: #3f3f3f"/>
     <use xlink:href="#m358d111675" x="332.20876" y="261.614638" style="fill-opacity: 0; stroke: #3f3f3f"/>
     <use xlink:href="#m358d111675" x="332.20876" y="261.356755" style="fill-opacity: 0; stroke: #3f3f3f"/>
     <use xlink:href="#m358d111675" x="332.20876" y="261.713823" style="fill-opacity: 0; stroke: #3f3f3f"/>
     <use xlink:href="#m358d111675" x="332.20876" y="261.505534" style="fill-opacity: 0; stroke: #3f3f3f"/>
     <use xlink:href="#m358d111675" x="332.20876" y="261.594801" style="fill-opacity: 0; stroke: #3f3f3f"/>
     <use xlink:href="#m358d111675" x="332.20876" y="261.327" style="fill-opacity: 0; stroke: #3f3f3f"/>
     <use xlink:href="#m358d111675" x="332.20876" y="241.561222" style="fill-opacity: 0; stroke: #3f3f3f"/>
     <use xlink:href="#m358d111675" x="332.20876" y="212.325317" style="fill-opacity: 0; stroke: #3f3f3f"/>
     <use xlink:href="#m358d111675" x="332.20876" y="212.339303" style="fill-opacity: 0; stroke: #3f3f3f"/>
     <use xlink:href="#m358d111675" x="332.20876" y="211.811536" style="fill-opacity: 0; stroke: #3f3f3f"/>
     <use xlink:href="#m358d111675" x="332.20876" y="211.962298" style="fill-opacity: 0; stroke: #3f3f3f"/>
     <use xlink:href="#m358d111675" x="332.20876" y="63.660205" style="fill-opacity: 0; stroke: #3f3f3f"/>
     <use xlink:href="#m358d111675" x="332.20876" y="63.739654" style="fill-opacity: 0; stroke: #3f3f3f"/>
    </g>
   </g>
   <g id="patch_7">
    <path d="M 505.889344 358.189431 
L 592.729635 358.189431 
L 592.729635 330.697201 
L 505.889344 330.697201 
L 505.889344 358.189431 
z
" clip-path="url(#p40fe7696b9)" style="fill: #3274a1; stroke: #3f3f3f; stroke-width: 1.5; stroke-linejoin: miter"/>
   </g>
   <g id="line2d_18">
    <path d="M 549.30949 358.189431 
L 549.30949 360.837677 
" clip-path="url(#p40fe7696b9)" style="fill: none; stroke: #3f3f3f; stroke-width: 1.5"/>
   </g>
   <g id="line2d_19">
    <path d="M 549.30949 330.697201 
L 549.30949 300.835442 
" clip-path="url(#p40fe7696b9)" style="fill: none; stroke: #3f3f3f; stroke-width: 1.5"/>
   </g>
   <g id="line2d_20">
    <path d="M 527.599417 360.837677 
L 571.019562 360.837677 
" clip-path="url(#p40fe7696b9)" style="fill: none; stroke: #3f3f3f; stroke-width: 1.5; stroke-linecap: round"/>
   </g>
   <g id="line2d_21">
    <path d="M 527.599417 300.835442 
L 571.019562 300.835442 
" clip-path="url(#p40fe7696b9)" style="fill: none; stroke: #3f3f3f; stroke-width: 1.5; stroke-linecap: round"/>
   </g>
   <g id="line2d_22">
    <g clip-path="url(#p40fe7696b9)">
     <use xlink:href="#m358d111675" x="549.30949" y="262.110565" style="fill-opacity: 0; stroke: #3f3f3f"/>
     <use xlink:href="#m358d111675" x="549.30949" y="241.380704" style="fill-opacity: 0; stroke: #3f3f3f"/>
     <use xlink:href="#m358d111675" x="549.30949" y="241.579075" style="fill-opacity: 0; stroke: #3f3f3f"/>
     <use xlink:href="#m358d111675" x="549.30949" y="241.511623" style="fill-opacity: 0; stroke: #3f3f3f"/>
     <use xlink:href="#m358d111675" x="549.30949" y="212.325311" style="fill-opacity: 0; stroke: #3f3f3f"/>
     <use xlink:href="#m358d111675" x="549.30949" y="211.81153" style="fill-opacity: 0; stroke: #3f3f3f"/>
     <use xlink:href="#m358d111675" x="549.30949" y="212.327295" style="fill-opacity: 0; stroke: #3f3f3f"/>
     <use xlink:href="#m358d111675" x="549.30949" y="211.962292" style="fill-opacity: 0; stroke: #3f3f3f"/>
     <use xlink:href="#m358d111675" x="549.30949" y="162.766413" style="fill-opacity: 0; stroke: #3f3f3f"/>
     <use xlink:href="#m358d111675" x="549.30949" y="162.284352" style="fill-opacity: 0; stroke: #3f3f3f"/>
     <use xlink:href="#m358d111675" x="549.30949" y="162.528368" style="fill-opacity: 0; stroke: #3f3f3f"/>
     <use xlink:href="#m358d111675" x="549.30949" y="161.982828" style="fill-opacity: 0; stroke: #3f3f3f"/>
     <use xlink:href="#m358d111675" x="549.30949" y="63.479688" style="fill-opacity: 0; stroke: #3f3f3f"/>
     <use xlink:href="#m358d111675" x="549.30949" y="63.660199" style="fill-opacity: 0; stroke: #3f3f3f"/>
     <use xlink:href="#m358d111675" x="549.30949" y="63.33091" style="fill-opacity: 0; stroke: #3f3f3f"/>
     <use xlink:href="#m358d111675" x="549.30949" y="63.005581" style="fill-opacity: 0; stroke: #3f3f3f"/>
     <use xlink:href="#m358d111675" x="549.30949" y="62.747699" style="fill-opacity: 0; stroke: #3f3f3f"/>
     <use xlink:href="#m358d111675" x="549.30949" y="63.22389" style="fill-opacity: 0; stroke: #3f3f3f"/>
     <use xlink:href="#m358d111675" x="549.30949" y="62.896477" style="fill-opacity: 0; stroke: #3f3f3f"/>
     <use xlink:href="#m358d111675" x="549.30949" y="261.41825" style="fill-opacity: 0; stroke: #3f3f3f"/>
     <use xlink:href="#m358d111675" x="549.30949" y="241.587996" style="fill-opacity: 0; stroke: #3f3f3f"/>
     <use xlink:href="#m358d111675" x="549.30949" y="241.494768" style="fill-opacity: 0; stroke: #3f3f3f"/>
     <use xlink:href="#m358d111675" x="549.30949" y="241.345989" style="fill-opacity: 0; stroke: #3f3f3f"/>
     <use xlink:href="#m358d111675" x="549.30949" y="211.864099" style="fill-opacity: 0; stroke: #3f3f3f"/>
     <use xlink:href="#m358d111675" x="549.30949" y="211.867074" style="fill-opacity: 0; stroke: #3f3f3f"/>
     <use xlink:href="#m358d111675" x="549.30949" y="211.866082" style="fill-opacity: 0; stroke: #3f3f3f"/>
     <use xlink:href="#m358d111675" x="549.30949" y="211.652834" style="fill-opacity: 0; stroke: #3f3f3f"/>
     <use xlink:href="#m358d111675" x="549.30949" y="162.270485" style="fill-opacity: 0; stroke: #3f3f3f"/>
     <use xlink:href="#m358d111675" x="549.30949" y="162.274453" style="fill-opacity: 0; stroke: #3f3f3f"/>
     <use xlink:href="#m358d111675" x="549.30949" y="162.24071" style="fill-opacity: 0; stroke: #3f3f3f"/>
     <use xlink:href="#m358d111675" x="549.30949" y="162.086973" style="fill-opacity: 0; stroke: #3f3f3f"/>
     <use xlink:href="#m358d111675" x="549.30949" y="63.055274" style="fill-opacity: 0; stroke: #3f3f3f"/>
     <use xlink:href="#m358d111675" x="549.30949" y="63.070052" style="fill-opacity: 0; stroke: #3f3f3f"/>
     <use xlink:href="#m358d111675" x="549.30949" y="63.090881" style="fill-opacity: 0; stroke: #3f3f3f"/>
     <use xlink:href="#m358d111675" x="549.30949" y="62.980779" style="fill-opacity: 0; stroke: #3f3f3f"/>
     <use xlink:href="#m358d111675" x="549.30949" y="62.818121" style="fill-opacity: 0; stroke: #3f3f3f"/>
     <use xlink:href="#m358d111675" x="549.30949" y="62.840933" style="fill-opacity: 0; stroke: #3f3f3f"/>
     <use xlink:href="#m358d111675" x="549.30949" y="62.856803" style="fill-opacity: 0; stroke: #3f3f3f"/>
     <use xlink:href="#m358d111675" x="549.30949" y="262.110565" style="fill-opacity: 0; stroke: #3f3f3f"/>
     <use xlink:href="#m358d111675" x="549.30949" y="241.380704" style="fill-opacity: 0; stroke: #3f3f3f"/>
     <use xlink:href="#m358d111675" x="549.30949" y="241.579075" style="fill-opacity: 0; stroke: #3f3f3f"/>
     <use xlink:href="#m358d111675" x="549.30949" y="241.511623" style="fill-opacity: 0; stroke: #3f3f3f"/>
     <use xlink:href="#m358d111675" x="549.30949" y="212.325311" style="fill-opacity: 0; stroke: #3f3f3f"/>
     <use xlink:href="#m358d111675" x="549.30949" y="211.81153" style="fill-opacity: 0; stroke: #3f3f3f"/>
     <use xlink:href="#m358d111675" x="549.30949" y="212.327295" style="fill-opacity: 0; stroke: #3f3f3f"/>
     <use xlink:href="#m358d111675" x="549.30949" y="211.962292" style="fill-opacity: 0; stroke: #3f3f3f"/>
     <use xlink:href="#m358d111675" x="549.30949" y="162.766413" style="fill-opacity: 0; stroke: #3f3f3f"/>
     <use xlink:href="#m358d111675" x="549.30949" y="162.284352" style="fill-opacity: 0; stroke: #3f3f3f"/>
     <use xlink:href="#m358d111675" x="549.30949" y="162.528368" style="fill-opacity: 0; stroke: #3f3f3f"/>
     <use xlink:href="#m358d111675" x="549.30949" y="161.982828" style="fill-opacity: 0; stroke: #3f3f3f"/>
     <use xlink:href="#m358d111675" x="549.30949" y="63.479688" style="fill-opacity: 0; stroke: #3f3f3f"/>
     <use xlink:href="#m358d111675" x="549.30949" y="63.660199" style="fill-opacity: 0; stroke: #3f3f3f"/>
     <use xlink:href="#m358d111675" x="549.30949" y="63.33091" style="fill-opacity: 0; stroke: #3f3f3f"/>
     <use xlink:href="#m358d111675" x="549.30949" y="63.005581" style="fill-opacity: 0; stroke: #3f3f3f"/>
     <use xlink:href="#m358d111675" x="549.30949" y="62.747699" style="fill-opacity: 0; stroke: #3f3f3f"/>
     <use xlink:href="#m358d111675" x="549.30949" y="63.22389" style="fill-opacity: 0; stroke: #3f3f3f"/>
     <use xlink:href="#m358d111675" x="549.30949" y="62.896477" style="fill-opacity: 0; stroke: #3f3f3f"/>
    </g>
   </g>
   <g id="patch_8">
    <path d="M 158.528177 360.076039 
L 245.368469 360.076039 
L 245.368469 348.395216 
L 158.528177 348.395216 
L 158.528177 360.076039 
z
" clip-path="url(#p40fe7696b9)" style="fill: #c03d3e; stroke: #3f3f3f; stroke-width: 1.5; stroke-linejoin: miter"/>
   </g>
   <g id="line2d_23">
    <path d="M 201.948323 360.076039 
L 201.948323 361.246428 
" clip-path="url(#p40fe7696b9)" style="fill: none; stroke: #3f3f3f; stroke-width: 1.5"/>
   </g>
   <g id="line2d_24">
    <path d="M 201.948323 348.395216 
L 201.948323 340.746778 
" clip-path="url(#p40fe7696b9)" style="fill: none; stroke: #3f3f3f; stroke-width: 1.5"/>
   </g>
   <g id="line2d_25">
    <path d="M 180.23825 361.246428 
L 223.658396 361.246428 
" clip-path="url(#p40fe7696b9)" style="fill: none; stroke: #3f3f3f; stroke-width: 1.5; stroke-linecap: round"/>
   </g>
   <g id="line2d_26">
    <path d="M 180.23825 340.746778 
L 223.658396 340.746778 
" clip-path="url(#p40fe7696b9)" style="fill: none; stroke: #3f3f3f; stroke-width: 1.5; stroke-linecap: round"/>
   </g>
   <g id="line2d_27">
    <g clip-path="url(#p40fe7696b9)">
     <use xlink:href="#m358d111675" x="201.948323" y="320.848192" style="fill-opacity: 0; stroke: #3f3f3f"/>
     <use xlink:href="#m358d111675" x="201.948323" y="321.165585" style="fill-opacity: 0; stroke: #3f3f3f"/>
     <use xlink:href="#m358d111675" x="201.948323" y="320.907703" style="fill-opacity: 0; stroke: #3f3f3f"/>
     <use xlink:href="#m358d111675" x="201.948323" y="320.957296" style="fill-opacity: 0; stroke: #3f3f3f"/>
     <use xlink:href="#m358d111675" x="201.948323" y="311.534677" style="fill-opacity: 0; stroke: #3f3f3f"/>
     <use xlink:href="#m358d111675" x="201.948323" y="311.524759" style="fill-opacity: 0; stroke: #3f3f3f"/>
     <use xlink:href="#m358d111675" x="201.948323" y="311.008994" style="fill-opacity: 0; stroke: #3f3f3f"/>
     <use xlink:href="#m358d111675" x="201.948323" y="311.385899" style="fill-opacity: 0; stroke: #3f3f3f"/>
     <use xlink:href="#m358d111675" x="201.948323" y="262.150239" style="fill-opacity: 0; stroke: #3f3f3f"/>
     <use xlink:href="#m358d111675" x="201.948323" y="261.862601" style="fill-opacity: 0; stroke: #3f3f3f"/>
     <use xlink:href="#m358d111675" x="201.948323" y="261.951868" style="fill-opacity: 0; stroke: #3f3f3f"/>
     <use xlink:href="#m358d111675" x="201.948323" y="261.713823" style="fill-opacity: 0; stroke: #3f3f3f"/>
     <use xlink:href="#m358d111675" x="201.948323" y="261.485697" style="fill-opacity: 0; stroke: #3f3f3f"/>
     <use xlink:href="#m358d111675" x="201.948323" y="261.614638" style="fill-opacity: 0; stroke: #3f3f3f"/>
     <use xlink:href="#m358d111675" x="201.948323" y="261.356755" style="fill-opacity: 0; stroke: #3f3f3f"/>
     <use xlink:href="#m358d111675" x="201.948323" y="261.713823" style="fill-opacity: 0; stroke: #3f3f3f"/>
     <use xlink:href="#m358d111675" x="201.948323" y="262.110565" style="fill-opacity: 0; stroke: #3f3f3f"/>
     <use xlink:href="#m358d111675" x="201.948323" y="261.505534" style="fill-opacity: 0; stroke: #3f3f3f"/>
     <use xlink:href="#m358d111675" x="201.948323" y="261.594801" style="fill-opacity: 0; stroke: #3f3f3f"/>
     <use xlink:href="#m358d111675" x="201.948323" y="261.327" style="fill-opacity: 0; stroke: #3f3f3f"/>
     <use xlink:href="#m358d111675" x="201.948323" y="320.91167" style="fill-opacity: 0; stroke: #3f3f3f"/>
     <use xlink:href="#m358d111675" x="201.948323" y="320.995978" style="fill-opacity: 0; stroke: #3f3f3f"/>
     <use xlink:href="#m358d111675" x="201.948323" y="320.960271" style="fill-opacity: 0; stroke: #3f3f3f"/>
     <use xlink:href="#m358d111675" x="201.948323" y="320.977133" style="fill-opacity: 0; stroke: #3f3f3f"/>
     <use xlink:href="#m358d111675" x="201.948323" y="311.072473" style="fill-opacity: 0; stroke: #3f3f3f"/>
     <use xlink:href="#m358d111675" x="201.948323" y="311.020897" style="fill-opacity: 0; stroke: #3f3f3f"/>
     <use xlink:href="#m358d111675" x="201.948323" y="311.066522" style="fill-opacity: 0; stroke: #3f3f3f"/>
     <use xlink:href="#m358d111675" x="201.948323" y="311.067514" style="fill-opacity: 0; stroke: #3f3f3f"/>
     <use xlink:href="#m358d111675" x="201.948323" y="261.425193" style="fill-opacity: 0; stroke: #3f3f3f"/>
     <use xlink:href="#m358d111675" x="201.948323" y="261.427177" style="fill-opacity: 0; stroke: #3f3f3f"/>
     <use xlink:href="#m358d111675" x="201.948323" y="261.446022" style="fill-opacity: 0; stroke: #3f3f3f"/>
     <use xlink:href="#m358d111675" x="201.948323" y="261.472802" style="fill-opacity: 0; stroke: #3f3f3f"/>
     <use xlink:href="#m358d111675" x="201.948323" y="261.469827" style="fill-opacity: 0; stroke: #3f3f3f"/>
     <use xlink:href="#m358d111675" x="201.948323" y="261.483713" style="fill-opacity: 0; stroke: #3f3f3f"/>
     <use xlink:href="#m358d111675" x="201.948323" y="261.443047" style="fill-opacity: 0; stroke: #3f3f3f"/>
     <use xlink:href="#m358d111675" x="201.948323" y="261.458916" style="fill-opacity: 0; stroke: #3f3f3f"/>
     <use xlink:href="#m358d111675" x="201.948323" y="261.467843" style="fill-opacity: 0; stroke: #3f3f3f"/>
     <use xlink:href="#m358d111675" x="201.948323" y="261.475778" style="fill-opacity: 0; stroke: #3f3f3f"/>
     <use xlink:href="#m358d111675" x="201.948323" y="261.432136" style="fill-opacity: 0; stroke: #3f3f3f"/>
     <use xlink:href="#m358d111675" x="201.948323" y="261.47677" style="fill-opacity: 0; stroke: #3f3f3f"/>
     <use xlink:href="#m358d111675" x="201.948323" y="320.848192" style="fill-opacity: 0; stroke: #3f3f3f"/>
     <use xlink:href="#m358d111675" x="201.948323" y="321.165585" style="fill-opacity: 0; stroke: #3f3f3f"/>
     <use xlink:href="#m358d111675" x="201.948323" y="320.907703" style="fill-opacity: 0; stroke: #3f3f3f"/>
     <use xlink:href="#m358d111675" x="201.948323" y="320.957296" style="fill-opacity: 0; stroke: #3f3f3f"/>
     <use xlink:href="#m358d111675" x="201.948323" y="311.534677" style="fill-opacity: 0; stroke: #3f3f3f"/>
     <use xlink:href="#m358d111675" x="201.948323" y="311.524759" style="fill-opacity: 0; stroke: #3f3f3f"/>
     <use xlink:href="#m358d111675" x="201.948323" y="311.008994" style="fill-opacity: 0; stroke: #3f3f3f"/>
     <use xlink:href="#m358d111675" x="201.948323" y="311.385899" style="fill-opacity: 0; stroke: #3f3f3f"/>
     <use xlink:href="#m358d111675" x="201.948323" y="262.150239" style="fill-opacity: 0; stroke: #3f3f3f"/>
     <use xlink:href="#m358d111675" x="201.948323" y="261.862601" style="fill-opacity: 0; stroke: #3f3f3f"/>
     <use xlink:href="#m358d111675" x="201.948323" y="261.951868" style="fill-opacity: 0; stroke: #3f3f3f"/>
     <use xlink:href="#m358d111675" x="201.948323" y="261.713823" style="fill-opacity: 0; stroke: #3f3f3f"/>
     <use xlink:href="#m358d111675" x="201.948323" y="261.485697" style="fill-opacity: 0; stroke: #3f3f3f"/>
     <use xlink:href="#m358d111675" x="201.948323" y="261.614638" style="fill-opacity: 0; stroke: #3f3f3f"/>
     <use xlink:href="#m358d111675" x="201.948323" y="261.356755" style="fill-opacity: 0; stroke: #3f3f3f"/>
     <use xlink:href="#m358d111675" x="201.948323" y="261.713823" style="fill-opacity: 0; stroke: #3f3f3f"/>
     <use xlink:href="#m358d111675" x="201.948323" y="262.110565" style="fill-opacity: 0; stroke: #3f3f3f"/>
     <use xlink:href="#m358d111675" x="201.948323" y="261.505534" style="fill-opacity: 0; stroke: #3f3f3f"/>
     <use xlink:href="#m358d111675" x="201.948323" y="261.594801" style="fill-opacity: 0; stroke: #3f3f3f"/>
     <use xlink:href="#m358d111675" x="201.948323" y="261.327" style="fill-opacity: 0; stroke: #3f3f3f"/>
    </g>
   </g>
   <g id="patch_9">
    <path d="M 375.628906 359.581848 
L 462.469198 359.581848 
L 462.469198 320.560527 
L 375.628906 320.560527 
L 375.628906 359.581848 
z
" clip-path="url(#p40fe7696b9)" style="fill: #c03d3e; stroke: #3f3f3f; stroke-width: 1.5; stroke-linejoin: miter"/>
   </g>
   <g id="line2d_28">
    <path d="M 419.049052 359.581848 
L 419.049052 361.246428 
" clip-path="url(#p40fe7696b9)" style="fill: none; stroke: #3f3f3f; stroke-width: 1.5"/>
   </g>
   <g id="line2d_29">
    <path d="M 419.049052 320.560527 
L 419.049052 289.170234 
" clip-path="url(#p40fe7696b9)" style="fill: none; stroke: #3f3f3f; stroke-width: 1.5"/>
   </g>
   <g id="line2d_30">
    <path d="M 397.338979 361.246428 
L 440.759125 361.246428 
" clip-path="url(#p40fe7696b9)" style="fill: none; stroke: #3f3f3f; stroke-width: 1.5; stroke-linecap: round"/>
   </g>
   <g id="line2d_31">
    <path d="M 397.338979 289.170234 
L 440.759125 289.170234 
" clip-path="url(#p40fe7696b9)" style="fill: none; stroke: #3f3f3f; stroke-width: 1.5; stroke-linecap: round"/>
   </g>
   <g id="line2d_32">
    <g clip-path="url(#p40fe7696b9)">
     <use xlink:href="#m358d111675" x="419.049052" y="261.862601" style="fill-opacity: 0; stroke: #3f3f3f"/>
     <use xlink:href="#m358d111675" x="419.049052" y="261.713823" style="fill-opacity: 0; stroke: #3f3f3f"/>
     <use xlink:href="#m358d111675" x="419.049052" y="261.951868" style="fill-opacity: 0; stroke: #3f3f3f"/>
     <use xlink:href="#m358d111675" x="419.049052" y="261.485697" style="fill-opacity: 0; stroke: #3f3f3f"/>
     <use xlink:href="#m358d111675" x="419.049052" y="261.614638" style="fill-opacity: 0; stroke: #3f3f3f"/>
     <use xlink:href="#m358d111675" x="419.049052" y="261.356755" style="fill-opacity: 0; stroke: #3f3f3f"/>
     <use xlink:href="#m358d111675" x="419.049052" y="261.713823" style="fill-opacity: 0; stroke: #3f3f3f"/>
     <use xlink:href="#m358d111675" x="419.049052" y="261.505534" style="fill-opacity: 0; stroke: #3f3f3f"/>
     <use xlink:href="#m358d111675" x="419.049052" y="261.594801" style="fill-opacity: 0; stroke: #3f3f3f"/>
     <use xlink:href="#m358d111675" x="419.049052" y="261.327" style="fill-opacity: 0; stroke: #3f3f3f"/>
     <use xlink:href="#m358d111675" x="419.049052" y="236.847923" style="fill-opacity: 0; stroke: #3f3f3f"/>
     <use xlink:href="#m358d111675" x="419.049052" y="212.339303" style="fill-opacity: 0; stroke: #3f3f3f"/>
     <use xlink:href="#m358d111675" x="419.049052" y="210.633207" style="fill-opacity: 0; stroke: #3f3f3f"/>
     <use xlink:href="#m358d111675" x="419.049052" y="209.968664" style="fill-opacity: 0; stroke: #3f3f3f"/>
     <use xlink:href="#m358d111675" x="419.049052" y="188.395828" style="fill-opacity: 0; stroke: #3f3f3f"/>
     <use xlink:href="#m358d111675" x="419.049052" y="63.739654" style="fill-opacity: 0; stroke: #3f3f3f"/>
     <use xlink:href="#m358d111675" x="419.049052" y="51.876967" style="fill-opacity: 0; stroke: #3f3f3f"/>
     <use xlink:href="#m358d111675" x="419.049052" y="261.436104" style="fill-opacity: 0; stroke: #3f3f3f"/>
     <use xlink:href="#m358d111675" x="419.049052" y="261.438087" style="fill-opacity: 0; stroke: #3f3f3f"/>
     <use xlink:href="#m358d111675" x="419.049052" y="261.440071" style="fill-opacity: 0; stroke: #3f3f3f"/>
     <use xlink:href="#m358d111675" x="419.049052" y="261.447014" style="fill-opacity: 0; stroke: #3f3f3f"/>
     <use xlink:href="#m358d111675" x="419.049052" y="261.456933" style="fill-opacity: 0; stroke: #3f3f3f"/>
     <use xlink:href="#m358d111675" x="419.049052" y="261.439079" style="fill-opacity: 0; stroke: #3f3f3f"/>
     <use xlink:href="#m358d111675" x="419.049052" y="261.457925" style="fill-opacity: 0; stroke: #3f3f3f"/>
     <use xlink:href="#m358d111675" x="419.049052" y="261.465859" style="fill-opacity: 0; stroke: #3f3f3f"/>
     <use xlink:href="#m358d111675" x="419.049052" y="261.468835" style="fill-opacity: 0; stroke: #3f3f3f"/>
     <use xlink:href="#m358d111675" x="419.049052" y="261.475778" style="fill-opacity: 0; stroke: #3f3f3f"/>
     <use xlink:href="#m358d111675" x="419.049052" y="236.868752" style="fill-opacity: 0; stroke: #3f3f3f"/>
     <use xlink:href="#m358d111675" x="419.049052" y="211.87214" style="fill-opacity: 0; stroke: #3f3f3f"/>
     <use xlink:href="#m358d111675" x="419.049052" y="210.676848" style="fill-opacity: 0; stroke: #3f3f3f"/>
     <use xlink:href="#m358d111675" x="419.049052" y="209.507452" style="fill-opacity: 0; stroke: #3f3f3f"/>
     <use xlink:href="#m358d111675" x="419.049052" y="188.080418" style="fill-opacity: 0; stroke: #3f3f3f"/>
     <use xlink:href="#m358d111675" x="419.049052" y="63.073128" style="fill-opacity: 0; stroke: #3f3f3f"/>
     <use xlink:href="#m358d111675" x="419.049052" y="51.167791" style="fill-opacity: 0; stroke: #3f3f3f"/>
     <use xlink:href="#m358d111675" x="419.049052" y="261.862601" style="fill-opacity: 0; stroke: #3f3f3f"/>
     <use xlink:href="#m358d111675" x="419.049052" y="261.713823" style="fill-opacity: 0; stroke: #3f3f3f"/>
     <use xlink:href="#m358d111675" x="419.049052" y="261.951868" style="fill-opacity: 0; stroke: #3f3f3f"/>
     <use xlink:href="#m358d111675" x="419.049052" y="261.485697" style="fill-opacity: 0; stroke: #3f3f3f"/>
     <use xlink:href="#m358d111675" x="419.049052" y="261.614638" style="fill-opacity: 0; stroke: #3f3f3f"/>
     <use xlink:href="#m358d111675" x="419.049052" y="261.356755" style="fill-opacity: 0; stroke: #3f3f3f"/>
     <use xlink:href="#m358d111675" x="419.049052" y="261.713823" style="fill-opacity: 0; stroke: #3f3f3f"/>
     <use xlink:href="#m358d111675" x="419.049052" y="261.505534" style="fill-opacity: 0; stroke: #3f3f3f"/>
     <use xlink:href="#m358d111675" x="419.049052" y="261.594801" style="fill-opacity: 0; stroke: #3f3f3f"/>
     <use xlink:href="#m358d111675" x="419.049052" y="261.327" style="fill-opacity: 0; stroke: #3f3f3f"/>
     <use xlink:href="#m358d111675" x="419.049052" y="236.847923" style="fill-opacity: 0; stroke: #3f3f3f"/>
     <use xlink:href="#m358d111675" x="419.049052" y="212.339303" style="fill-opacity: 0; stroke: #3f3f3f"/>
     <use xlink:href="#m358d111675" x="419.049052" y="210.633207" style="fill-opacity: 0; stroke: #3f3f3f"/>
     <use xlink:href="#m358d111675" x="419.049052" y="209.968664" style="fill-opacity: 0; stroke: #3f3f3f"/>
     <use xlink:href="#m358d111675" x="419.049052" y="188.395828" style="fill-opacity: 0; stroke: #3f3f3f"/>
     <use xlink:href="#m358d111675" x="419.049052" y="63.739654" style="fill-opacity: 0; stroke: #3f3f3f"/>
     <use xlink:href="#m358d111675" x="419.049052" y="51.876967" style="fill-opacity: 0; stroke: #3f3f3f"/>
    </g>
   </g>
   <g id="patch_10">
    <path d="M 592.729635 357.065649 
L 679.569927 357.065649 
L 679.569927 325.056028 
L 592.729635 325.056028 
L 592.729635 357.065649 
z
" clip-path="url(#p40fe7696b9)" style="fill: #c03d3e; stroke: #3f3f3f; stroke-width: 1.5; stroke-linejoin: miter"/>
   </g>
   <g id="line2d_33">
    <path d="M 636.149781 357.065649 
L 636.149781 360.730551 
" clip-path="url(#p40fe7696b9)" style="fill: none; stroke: #3f3f3f; stroke-width: 1.5"/>
   </g>
   <g id="line2d_34">
    <path d="M 636.149781 325.056028 
L 636.149781 277.351295 
" clip-path="url(#p40fe7696b9)" style="fill: none; stroke: #3f3f3f; stroke-width: 1.5"/>
   </g>
   <g id="line2d_35">
    <path d="M 614.439708 360.730551 
L 657.859854 360.730551 
" clip-path="url(#p40fe7696b9)" style="fill: none; stroke: #3f3f3f; stroke-width: 1.5; stroke-linecap: round"/>
   </g>
   <g id="line2d_36">
    <path d="M 614.439708 277.351295 
L 657.859854 277.351295 
" clip-path="url(#p40fe7696b9)" style="fill: none; stroke: #3f3f3f; stroke-width: 1.5; stroke-linecap: round"/>
   </g>
   <g id="line2d_37">
    <g clip-path="url(#p40fe7696b9)">
     <use xlink:href="#m358d111675" x="636.149781" y="262.110565" style="fill-opacity: 0; stroke: #3f3f3f"/>
     <use xlink:href="#m358d111675" x="636.149781" y="241.083136" style="fill-opacity: 0; stroke: #3f3f3f"/>
     <use xlink:href="#m358d111675" x="636.149781" y="229.597466" style="fill-opacity: 0; stroke: #3f3f3f"/>
     <use xlink:href="#m358d111675" x="636.149781" y="218.012605" style="fill-opacity: 0; stroke: #3f3f3f"/>
     <use xlink:href="#m358d111675" x="636.149781" y="212.111064" style="fill-opacity: 0; stroke: #3f3f3f"/>
     <use xlink:href="#m358d111675" x="636.149781" y="211.704404" style="fill-opacity: 0; stroke: #3f3f3f"/>
     <use xlink:href="#m358d111675" x="636.149781" y="212.220168" style="fill-opacity: 0; stroke: #3f3f3f"/>
     <use xlink:href="#m358d111675" x="636.149781" y="209.81988" style="fill-opacity: 0; stroke: #3f3f3f"/>
     <use xlink:href="#m358d111675" x="636.149781" y="162.766413" style="fill-opacity: 0; stroke: #3f3f3f"/>
     <use xlink:href="#m358d111675" x="636.149781" y="162.284352" style="fill-opacity: 0; stroke: #3f3f3f"/>
     <use xlink:href="#m358d111675" x="636.149781" y="162.528368" style="fill-opacity: 0; stroke: #3f3f3f"/>
     <use xlink:href="#m358d111675" x="636.149781" y="161.982828" style="fill-opacity: 0; stroke: #3f3f3f"/>
     <use xlink:href="#m358d111675" x="636.149781" y="62.301358" style="fill-opacity: 0; stroke: #3f3f3f"/>
     <use xlink:href="#m358d111675" x="636.149781" y="62.58899" style="fill-opacity: 0; stroke: #3f3f3f"/>
     <use xlink:href="#m358d111675" x="636.149781" y="62.15258" style="fill-opacity: 0; stroke: #3f3f3f"/>
     <use xlink:href="#m358d111675" x="636.149781" y="63.22389" style="fill-opacity: 0; stroke: #3f3f3f"/>
     <use xlink:href="#m358d111675" x="636.149781" y="39.439111" style="fill-opacity: 0; stroke: #3f3f3f"/>
     <use xlink:href="#m358d111675" x="636.149781" y="39.181229" style="fill-opacity: 0; stroke: #3f3f3f"/>
     <use xlink:href="#m358d111675" x="636.149781" y="39.330007" style="fill-opacity: 0; stroke: #3f3f3f"/>
     <use xlink:href="#m358d111675" x="636.149781" y="261.475778" style="fill-opacity: 0; stroke: #3f3f3f"/>
     <use xlink:href="#m358d111675" x="636.149781" y="241.121818" style="fill-opacity: 0; stroke: #3f3f3f"/>
     <use xlink:href="#m358d111675" x="636.149781" y="229.727399" style="fill-opacity: 0; stroke: #3f3f3f"/>
     <use xlink:href="#m358d111675" x="636.149781" y="217.766625" style="fill-opacity: 0; stroke: #3f3f3f"/>
     <use xlink:href="#m358d111675" x="636.149781" y="211.741102" style="fill-opacity: 0; stroke: #3f3f3f"/>
     <use xlink:href="#m358d111675" x="636.149781" y="211.726225" style="fill-opacity: 0; stroke: #3f3f3f"/>
     <use xlink:href="#m358d111675" x="636.149781" y="211.640925" style="fill-opacity: 0; stroke: #3f3f3f"/>
     <use xlink:href="#m358d111675" x="636.149781" y="209.506454" style="fill-opacity: 0; stroke: #3f3f3f"/>
     <use xlink:href="#m358d111675" x="636.149781" y="162.254616" style="fill-opacity: 0; stroke: #3f3f3f"/>
     <use xlink:href="#m358d111675" x="636.149781" y="162.255608" style="fill-opacity: 0; stroke: #3f3f3f"/>
     <use xlink:href="#m358d111675" x="636.149781" y="162.253604" style="fill-opacity: 0; stroke: #3f3f3f"/>
     <use xlink:href="#m358d111675" x="636.149781" y="162.118712" style="fill-opacity: 0; stroke: #3f3f3f"/>
     <use xlink:href="#m358d111675" x="636.149781" y="63.107843" style="fill-opacity: 0; stroke: #3f3f3f"/>
     <use xlink:href="#m358d111675" x="636.149781" y="61.887755" style="fill-opacity: 0; stroke: #3f3f3f"/>
     <use xlink:href="#m358d111675" x="636.149781" y="61.923462" style="fill-opacity: 0; stroke: #3f3f3f"/>
     <use xlink:href="#m358d111675" x="636.149781" y="61.906594" style="fill-opacity: 0; stroke: #3f3f3f"/>
     <use xlink:href="#m358d111675" x="636.149781" y="39.254626" style="fill-opacity: 0; stroke: #3f3f3f"/>
     <use xlink:href="#m358d111675" x="636.149781" y="39.263553" style="fill-opacity: 0; stroke: #3f3f3f"/>
     <use xlink:href="#m358d111675" x="636.149781" y="39.231813" style="fill-opacity: 0; stroke: #3f3f3f"/>
     <use xlink:href="#m358d111675" x="636.149781" y="262.110565" style="fill-opacity: 0; stroke: #3f3f3f"/>
     <use xlink:href="#m358d111675" x="636.149781" y="241.083136" style="fill-opacity: 0; stroke: #3f3f3f"/>
     <use xlink:href="#m358d111675" x="636.149781" y="229.597466" style="fill-opacity: 0; stroke: #3f3f3f"/>
     <use xlink:href="#m358d111675" x="636.149781" y="218.012605" style="fill-opacity: 0; stroke: #3f3f3f"/>
     <use xlink:href="#m358d111675" x="636.149781" y="212.111064" style="fill-opacity: 0; stroke: #3f3f3f"/>
     <use xlink:href="#m358d111675" x="636.149781" y="211.704404" style="fill-opacity: 0; stroke: #3f3f3f"/>
     <use xlink:href="#m358d111675" x="636.149781" y="212.220168" style="fill-opacity: 0; stroke: #3f3f3f"/>
     <use xlink:href="#m358d111675" x="636.149781" y="209.81988" style="fill-opacity: 0; stroke: #3f3f3f"/>
     <use xlink:href="#m358d111675" x="636.149781" y="162.766413" style="fill-opacity: 0; stroke: #3f3f3f"/>
     <use xlink:href="#m358d111675" x="636.149781" y="162.284352" style="fill-opacity: 0; stroke: #3f3f3f"/>
     <use xlink:href="#m358d111675" x="636.149781" y="162.528368" style="fill-opacity: 0; stroke: #3f3f3f"/>
     <use xlink:href="#m358d111675" x="636.149781" y="161.982828" style="fill-opacity: 0; stroke: #3f3f3f"/>
     <use xlink:href="#m358d111675" x="636.149781" y="62.301358" style="fill-opacity: 0; stroke: #3f3f3f"/>
     <use xlink:href="#m358d111675" x="636.149781" y="62.58899" style="fill-opacity: 0; stroke: #3f3f3f"/>
     <use xlink:href="#m358d111675" x="636.149781" y="62.15258" style="fill-opacity: 0; stroke: #3f3f3f"/>
     <use xlink:href="#m358d111675" x="636.149781" y="63.22389" style="fill-opacity: 0; stroke: #3f3f3f"/>
     <use xlink:href="#m358d111675" x="636.149781" y="39.439111" style="fill-opacity: 0; stroke: #3f3f3f"/>
     <use xlink:href="#m358d111675" x="636.149781" y="39.181229" style="fill-opacity: 0; stroke: #3f3f3f"/>
     <use xlink:href="#m358d111675" x="636.149781" y="39.330007" style="fill-opacity: 0; stroke: #3f3f3f"/>
    </g>
   </g>
   <g id="line2d_38">
    <path d="M 71.687885 358.538665 
L 158.528177 358.538665 
" clip-path="url(#p40fe7696b9)" style="fill: none; stroke: #3f3f3f; stroke-width: 1.5"/>
   </g>
   <g id="line2d_39">
    <path d="M 288.788615 356.68588 
L 375.628906 356.68588 
" clip-path="url(#p40fe7696b9)" style="fill: none; stroke: #3f3f3f; stroke-width: 1.5"/>
   </g>
   <g id="line2d_40">
    <path d="M 505.889344 354.626687 
L 592.729635 354.626687 
" clip-path="url(#p40fe7696b9)" style="fill: none; stroke: #3f3f3f; stroke-width: 1.5"/>
   </g>
   <g id="line2d_41">
    <path d="M 158.528177 358.538665 
L 245.368469 358.538665 
" clip-path="url(#p40fe7696b9)" style="fill: none; stroke: #3f3f3f; stroke-width: 1.5"/>
   </g>
   <g id="line2d_42">
    <path d="M 375.628906 355.106848 
L 462.469198 355.106848 
" clip-path="url(#p40fe7696b9)" style="fill: none; stroke: #3f3f3f; stroke-width: 1.5"/>
   </g>
   <g id="line2d_43">
    <path d="M 592.729635 347.469461 
L 679.569927 347.469461 
" clip-path="url(#p40fe7696b9)" style="fill: none; stroke: #3f3f3f; stroke-width: 1.5"/>
   </g>
   <g id="patch_11">
    <path d="M 49.977812 377.349687 
L 49.977812 23.077969 
" style="fill: none; stroke: #000000; stroke-width: 1.5; stroke-linejoin: miter; stroke-linecap: square"/>
   </g>
   <g id="patch_12">
    <path d="M 701.28 377.349687 
L 701.28 23.077969 
" style="fill: none; stroke: #000000; stroke-width: 1.5; stroke-linejoin: miter; stroke-linecap: square"/>
   </g>
   <g id="patch_13">
    <path d="M 49.977813 377.349687 
L 701.28 377.349687 
" style="fill: none; stroke: #000000; stroke-width: 1.5; stroke-linejoin: miter; stroke-linecap: square"/>
   </g>
   <g id="patch_14">
    <path d="M 49.977813 23.077969 
L 701.28 23.077969 
" style="fill: none; stroke: #000000; stroke-width: 1.5; stroke-linejoin: miter; stroke-linecap: square"/>
   </g>
   <g id="text_14">
    <!-- Fig 5: Delay Distribution (Boxplot) — dataset-small -->
    <g style="fill: #262626" transform="translate(188.946875 17.077969) scale(0.13 -0.13)">
     <defs>
      <path id="DejaVuSerif-Bold-46" d="M 300 0 
L 300 378 
L 897 378 
L 897 4288 
L 300 4288 
L 300 4666 
L 4459 4666 
L 4459 3566 
L 4031 3566 
L 4031 4238 
L 2106 4238 
L 2106 2741 
L 3291 2741 
L 3291 3334 
L 3719 3334 
L 3719 1722 
L 3291 1722 
L 3291 2316 
L 2106 2316 
L 2106 378 
L 2841 378 
L 2841 0 
L 300 0 
z
" transform="scale(0.015625)"/>
      <path id="DejaVuSerif-Bold-69" d="M 588 4263 
Q 588 4516 763 4689 
Q 938 4863 1191 4863 
Q 1438 4863 1611 4689 
Q 1784 4516 1784 4263 
Q 1784 4016 1611 3842 
Q 1438 3669 1191 3669 
Q 938 3669 763 3841 
Q 588 4013 588 4263 
z
M 1797 378 
L 2272 378 
L 2272 0 
L 219 0 
L 219 378 
L 691 378 
L 691 2944 
L 219 2944 
L 219 3322 
L 1797 3322 
L 1797 378 
z
" transform="scale(0.015625)"/>
      <path id="DejaVuSerif-Bold-67" d="M 3853 2944 
L 3853 44 
Q 3853 -656 3354 -1039 
Q 2856 -1422 1947 -1422 
Q 1616 -1422 1275 -1370 
Q 934 -1319 575 -1216 
L 575 -422 
L 928 -422 
Q 975 -750 1192 -909 
Q 1409 -1069 1813 -1069 
Q 2325 -1069 2536 -823 
Q 2747 -578 2747 44 
L 2747 422 
Q 2606 163 2367 36 
Q 2128 -91 1778 -91 
Q 1072 -91 667 378 
Q 263 847 263 1663 
Q 263 2481 667 2947 
Q 1072 3413 1778 3413 
Q 2128 3413 2367 3286 
Q 2606 3159 2747 2900 
L 2747 3322 
L 4325 3322 
L 4325 2944 
L 3853 2944 
z
M 2747 1825 
Q 2747 2406 2597 2665 
Q 2447 2925 2119 2925 
Q 1775 2925 1636 2651 
Q 1497 2378 1497 1663 
Q 1497 947 1637 672 
Q 1778 397 2119 397 
Q 2447 397 2597 656 
Q 2747 916 2747 1497 
L 2747 1825 
z
" transform="scale(0.015625)"/>
      <path id="DejaVuSerif-Bold-20" transform="scale(0.015625)"/>
      <path id="DejaVuSerif-Bold-35" d="M 3609 4666 
L 3609 3847 
L 1113 3847 
L 1113 2822 
Q 1319 2981 1572 3062 
Q 1825 3144 2106 3144 
Q 2969 3144 3469 2708 
Q 3969 2272 3969 1522 
Q 3969 759 3469 334 
Q 2969 -91 2069 -91 
Q 1688 -91 1311 -28 
Q 934 34 525 166 
L 525 1184 
L 900 1184 
Q 919 725 1139 500 
Q 1359 275 1791 275 
Q 2250 275 2472 583 
Q 2694 891 2694 1522 
Q 2694 2144 2476 2451 
Q 2259 2759 1819 2759 
Q 1581 2759 1395 2661 
Q 1209 2563 1050 2356 
L 738 2356 
L 738 4666 
L 3609 4666 
z
" transform="scale(0.015625)"/>
      <path id="DejaVuSerif-Bold-3a" d="M 588 2541 
Q 588 2788 761 2963 
Q 934 3138 1178 3138 
Q 1422 3138 1597 2961 
Q 1772 2784 1772 2541 
Q 1772 2297 1598 2125 
Q 1425 1953 1178 1953 
Q 931 1953 759 2125 
Q 588 2297 588 2541 
z
M 588 506 
Q 588 750 761 925 
Q 934 1100 1178 1100 
Q 1422 1100 1597 925 
Q 1772 750 1772 506 
Q 1772 259 1597 84 
Q 1422 -91 1178 -91 
Q 934 -91 761 84 
Q 588 259 588 506 
z
" transform="scale(0.015625)"/>
      <path id="DejaVuSerif-Bold-44" d="M 2100 378 
L 2534 378 
Q 3266 378 3605 847 
Q 3944 1316 3944 2338 
Q 3944 3353 3606 3820 
Q 3269 4288 2534 4288 
L 2100 4288 
L 2100 378 
z
M 300 0 
L 300 378 
L 897 378 
L 897 4288 
L 300 4288 
L 300 4666 
L 2694 4666 
Q 3950 4666 4615 4066 
Q 5281 3466 5281 2338 
Q 5281 1203 4614 601 
Q 3947 0 2694 0 
L 300 0 
z
" transform="scale(0.015625)"/>
      <path id="DejaVuSerif-Bold-65" d="M 2566 1875 
Q 2566 2531 2444 2795 
Q 2322 3059 2028 3059 
Q 1744 3059 1620 2800 
Q 1497 2541 1497 1931 
L 1497 1875 
L 2566 1875 
z
M 3781 1503 
L 1497 1503 
L 1497 1478 
Q 1497 834 1690 548 
Q 1884 263 2316 263 
Q 2675 263 2897 453 
Q 3119 644 3181 1006 
L 3700 1006 
Q 3566 441 3166 175 
Q 2766 -91 2047 -91 
Q 1184 -91 723 364 
Q 263 819 263 1663 
Q 263 2488 734 2950 
Q 1206 3413 2047 3413 
Q 2872 3413 3312 2927 
Q 3753 2441 3781 1503 
z
" transform="scale(0.015625)"/>
      <path id="DejaVuSerif-Bold-6c" d="M 1797 378 
L 2272 378 
L 2272 0 
L 219 0 
L 219 378 
L 691 378 
L 691 4488 
L 219 4488 
L 219 4863 
L 1797 4863 
L 1797 378 
z
" transform="scale(0.015625)"/>
      <path id="DejaVuSerif-Bold-61" d="M 3525 2041 
L 3525 378 
L 4000 378 
L 4000 0 
L 2419 0 
L 2419 422 
Q 2200 159 1931 34 
Q 1663 -91 1319 -91 
Q 809 -91 536 182 
Q 263 456 263 966 
Q 263 1525 655 1803 
Q 1047 2081 1838 2081 
L 2419 2081 
L 2419 2278 
Q 2419 2681 2228 2873 
Q 2038 3066 1638 3066 
Q 1306 3066 1126 2930 
Q 947 2794 872 2484 
L 519 2484 
L 519 3200 
Q 816 3306 1134 3359 
Q 1453 3413 1806 3413 
Q 2697 3413 3111 3081 
Q 3525 2750 3525 2041 
z
M 2419 1044 
L 2419 1709 
L 2003 1709 
Q 1694 1709 1528 1540 
Q 1363 1372 1363 1056 
Q 1363 741 1483 584 
Q 1603 428 1850 428 
Q 2106 428 2262 597 
Q 2419 766 2419 1044 
z
" transform="scale(0.015625)"/>
      <path id="DejaVuSerif-Bold-79" d="M 1997 -750 
Q 1847 -1116 1634 -1269 
Q 1422 -1422 1063 -1422 
Q 909 -1422 721 -1387 
Q 534 -1353 313 -1288 
L 313 -594 
L 666 -597 
Q 675 -838 779 -953 
Q 884 -1069 1094 -1069 
Q 1297 -1069 1422 -958 
Q 1547 -847 1672 -538 
L 1722 -422 
L 275 2944 
L -84 2944 
L -84 3322 
L 1831 3322 
L 1831 2944 
L 1434 2944 
L 2278 978 
L 3066 2944 
L 2625 2944 
L 2625 3322 
L 3872 3322 
L 3872 2944 
L 3469 2944 
L 1997 -750 
z
" transform="scale(0.015625)"/>
      <path id="DejaVuSerif-Bold-73" d="M 300 97 
L 300 1025 
L 653 1025 
Q 697 653 931 458 
Q 1166 263 1569 263 
Q 1906 263 2086 380 
Q 2266 497 2266 716 
Q 2266 916 2152 1025 
Q 2038 1134 1709 1216 
L 1253 1331 
Q 738 1459 506 1698 
Q 275 1938 275 2344 
Q 275 2884 650 3148 
Q 1025 3413 1806 3413 
Q 2100 3413 2433 3364 
Q 2766 3316 3169 3213 
L 3169 2375 
L 2816 2375 
Q 2788 2716 2573 2887 
Q 2359 3059 1959 3059 
Q 1622 3059 1448 2951 
Q 1275 2844 1275 2638 
Q 1275 2469 1375 2372 
Q 1475 2275 1734 2209 
L 2188 2094 
Q 2841 1928 3091 1684 
Q 3341 1441 3341 1006 
Q 3341 444 2939 176 
Q 2538 -91 1691 -91 
Q 1381 -91 1034 -44 
Q 688 3 300 97 
z
" transform="scale(0.015625)"/>
      <path id="DejaVuSerif-Bold-74" d="M 634 2944 
L 153 2944 
L 153 3322 
L 634 3322 
L 634 4353 
L 1741 4353 
L 1741 3322 
L 2663 3322 
L 2663 2944 
L 1741 2944 
L 1741 909 
Q 1741 475 1809 369 
Q 1878 263 2059 263 
Q 2259 263 2356 397 
Q 2453 531 2459 813 
L 2925 813 
Q 2897 313 2651 111 
Q 2406 -91 1806 -91 
Q 1122 -91 878 123 
Q 634 338 634 909 
L 634 2944 
z
" transform="scale(0.015625)"/>
      <path id="DejaVuSerif-Bold-72" d="M 3438 3359 
L 3438 2369 
L 3084 2369 
Q 3066 2634 2941 2764 
Q 2816 2894 2578 2894 
Q 2216 2894 2006 2575 
Q 1797 2256 1797 1691 
L 1797 378 
L 2400 378 
L 2400 0 
L 219 0 
L 219 378 
L 691 378 
L 691 2944 
L 184 2944 
L 184 3322 
L 1797 3322 
L 1797 2731 
Q 1959 3078 2226 3245 
Q 2494 3413 2881 3413 
Q 2978 3413 3117 3398 
Q 3256 3384 3438 3359 
z
" transform="scale(0.015625)"/>
      <path id="DejaVuSerif-Bold-62" d="M 622 378 
L 622 4488 
L 147 4488 
L 147 4863 
L 1728 4863 
L 1728 2900 
Q 1869 3159 2106 3286 
Q 2344 3413 2694 3413 
Q 3403 3413 3811 2945 
Q 4219 2478 4219 1663 
Q 4219 847 3811 378 
Q 3403 -91 2694 -91 
Q 2344 -91 2106 36 
Q 1869 163 1728 422 
L 1728 0 
L 147 0 
L 147 378 
L 622 378 
z
M 1728 1497 
Q 1728 916 1876 656 
Q 2025 397 2356 397 
Q 2697 397 2836 672 
Q 2975 947 2975 1663 
Q 2975 2378 2836 2651 
Q 2697 2925 2356 2925 
Q 2025 2925 1876 2665 
Q 1728 2406 1728 1825 
L 1728 1497 
z
" transform="scale(0.015625)"/>
      <path id="DejaVuSerif-Bold-75" d="M 3963 3322 
L 3963 378 
L 4434 378 
L 4434 0 
L 2853 0 
L 2853 469 
Q 2656 172 2400 40 
Q 2144 -91 1753 -91 
Q 1194 -91 908 239 
Q 622 569 622 1209 
L 622 2944 
L 147 2944 
L 147 3322 
L 1728 3322 
L 1728 1381 
Q 1728 763 1831 595 
Q 1934 428 2209 428 
Q 2544 428 2698 675 
Q 2853 922 2853 1459 
L 2853 2944 
L 2450 2944 
L 2450 3322 
L 3963 3322 
z
" transform="scale(0.015625)"/>
      <path id="DejaVuSerif-Bold-6f" d="M 2138 263 
Q 2488 263 2630 563 
Q 2772 863 2772 1663 
Q 2772 2463 2631 2761 
Q 2491 3059 2138 3059 
Q 1784 3059 1640 2757 
Q 1497 2456 1497 1663 
Q 1497 869 1640 566 
Q 1784 263 2138 263 
z
M 2138 -91 
Q 1259 -91 761 376 
Q 263 844 263 1663 
Q 263 2484 761 2948 
Q 1259 3413 2138 3413 
Q 3019 3413 3516 2948 
Q 4013 2484 4013 1663 
Q 4013 844 3514 376 
Q 3016 -91 2138 -91 
z
" transform="scale(0.015625)"/>
      <path id="DejaVuSerif-Bold-6e" d="M 219 0 
L 219 378 
L 691 378 
L 691 2944 
L 219 2944 
L 219 3322 
L 1797 3322 
L 1797 2853 
Q 1997 3150 2253 3281 
Q 2509 3413 2900 3413 
Q 3459 3413 3745 3083 
Q 4031 2753 4031 2113 
L 4031 378 
L 4506 378 
L 4506 0 
L 2522 0 
L 2522 378 
L 2925 378 
L 2925 2144 
Q 2925 2566 2817 2730 
Q 2709 2894 2444 2894 
Q 2109 2894 1953 2648 
Q 1797 2403 1797 1869 
L 1797 378 
L 2203 378 
L 2203 0 
L 219 0 
z
" transform="scale(0.015625)"/>
      <path id="DejaVuSerif-Bold-28" d="M 2694 -997 
Q 1641 -606 1122 122 
Q 603 850 603 1931 
Q 603 3013 1115 3731 
Q 1628 4450 2694 4863 
L 2694 4488 
Q 2200 4188 1983 3598 
Q 1766 3009 1766 1931 
Q 1766 856 1983 267 
Q 2200 -322 2694 -622 
L 2694 -997 
z
" transform="scale(0.015625)"/>
      <path id="DejaVuSerif-Bold-42" d="M 300 0 
L 300 378 
L 897 378 
L 897 4288 
L 300 4288 
L 300 4666 
L 3066 4666 
Q 3919 4666 4347 4378 
Q 4775 4091 4775 3513 
Q 4775 3097 4479 2853 
Q 4184 2609 3603 2547 
Q 4306 2481 4681 2172 
Q 5056 1863 5056 1350 
Q 5056 656 4532 328 
Q 4009 0 2894 0 
L 300 0 
z
M 2100 2719 
L 2509 2719 
Q 3047 2719 3306 2914 
Q 3566 3109 3566 3513 
Q 3566 3919 3314 4103 
Q 3063 4288 2509 4288 
L 2100 4288 
L 2100 2719 
z
M 2100 378 
L 2547 378 
Q 3144 378 3431 615 
Q 3719 853 3719 1350 
Q 3719 1850 3428 2097 
Q 3138 2344 2547 2344 
L 2100 2344 
L 2100 378 
z
" transform="scale(0.015625)"/>
      <path id="DejaVuSerif-Bold-78" d="M 2247 2119 
L 2834 2944 
L 2425 2944 
L 2425 3322 
L 3719 3322 
L 3719 2944 
L 3278 2944 
L 2431 1759 
L 3419 378 
L 3859 378 
L 3859 0 
L 1747 0 
L 1747 378 
L 2175 378 
L 1550 1253 
L 922 378 
L 1369 378 
L 1369 0 
L 0 0 
L 0 378 
L 475 378 
L 1356 1619 
L 403 2944 
L 31 2944 
L 31 3322 
L 2059 3322 
L 2059 2944 
L 1656 2944 
L 2247 2119 
z
" transform="scale(0.015625)"/>
      <path id="DejaVuSerif-Bold-70" d="M 1728 1825 
L 1728 1497 
Q 1728 916 1876 656 
Q 2025 397 2356 397 
Q 2697 397 2836 672 
Q 2975 947 2975 1663 
Q 2975 2378 2836 2651 
Q 2697 2925 2356 2925 
Q 2025 2925 1876 2665 
Q 1728 2406 1728 1825 
z
M 622 2944 
L 147 2944 
L 147 3322 
L 1728 3322 
L 1728 2900 
Q 1869 3159 2106 3286 
Q 2344 3413 2694 3413 
Q 3403 3413 3811 2945 
Q 4219 2478 4219 1663 
Q 4219 847 3811 378 
Q 3403 -91 2694 -91 
Q 2344 -91 2106 36 
Q 1869 163 1728 422 
L 1728 -953 
L 2241 -953 
L 2241 -1331 
L 147 -1331 
L 147 -953 
L 622 -953 
L 622 2944 
z
" transform="scale(0.015625)"/>
      <path id="DejaVuSerif-Bold-29" d="M 325 -997 
L 325 -622 
Q 819 -322 1036 267 
Q 1253 856 1253 1931 
Q 1253 3009 1036 3598 
Q 819 4188 325 4488 
L 325 4863 
Q 1391 4450 1905 3731 
Q 2419 3013 2419 1931 
Q 2419 850 1898 122 
Q 1378 -606 325 -997 
z
" transform="scale(0.015625)"/>
      <path id="DejaVuSerif-Bold-2014" d="M 344 2075 
L 6056 2075 
L 6056 1325 
L 344 1325 
L 344 2075 
z
" transform="scale(0.015625)"/>
      <path id="DejaVuSerif-Bold-64" d="M 2747 1497 
L 2747 1825 
Q 2747 2406 2597 2665 
Q 2447 2925 2119 2925 
Q 1775 2925 1636 2651 
Q 1497 2378 1497 1663 
Q 1497 947 1637 672 
Q 1778 397 2119 397 
Q 2447 397 2597 656 
Q 2747 916 2747 1497 
z
M 3853 378 
L 4325 378 
L 4325 0 
L 2747 0 
L 2747 422 
Q 2606 163 2367 36 
Q 2128 -91 1778 -91 
Q 1072 -91 667 378 
Q 263 847 263 1663 
Q 263 2481 667 2947 
Q 1072 3413 1778 3413 
Q 2128 3413 2367 3286 
Q 2606 3159 2747 2900 
L 2747 4488 
L 2272 4488 
L 2272 4863 
L 3853 4863 
L 3853 378 
z
" transform="scale(0.015625)"/>
      <path id="DejaVuSerif-Bold-2d" d="M 347 2138 
L 2309 2138 
L 2309 1294 
L 347 1294 
L 347 2138 
z
" transform="scale(0.015625)"/>
      <path id="DejaVuSerif-Bold-6d" d="M 3884 2778 
Q 4116 3109 4384 3261 
Q 4653 3413 5013 3413 
Q 5584 3413 5867 3089 
Q 6150 2766 6150 2113 
L 6150 378 
L 6625 378 
L 6625 0 
L 4647 0 
L 4647 378 
L 5044 378 
L 5044 1947 
Q 5044 2569 4948 2731 
Q 4853 2894 4594 2894 
Q 4300 2894 4137 2667 
Q 3975 2441 3975 2022 
L 3975 378 
L 4372 378 
L 4372 0 
L 2472 0 
L 2472 378 
L 2869 378 
L 2869 1947 
Q 2869 2569 2772 2731 
Q 2675 2894 2419 2894 
Q 2122 2894 1959 2667 
Q 1797 2441 1797 2022 
L 1797 378 
L 2194 378 
L 2194 0 
L 219 0 
L 219 378 
L 691 378 
L 691 2944 
L 219 2944 
L 219 3322 
L 1797 3322 
L 1797 2853 
Q 1991 3144 2241 3278 
Q 2491 3413 2834 3413 
Q 3241 3413 3494 3258 
Q 3747 3103 3884 2778 
z
" transform="scale(0.015625)"/>
     </defs>
     <use xlink:href="#DejaVuSerif-Bold-46"/>
     <use xlink:href="#DejaVuSerif-Bold-69" transform="translate(70.996094 0)"/>
     <use xlink:href="#DejaVuSerif-Bold-67" transform="translate(108.984375 0)"/>
     <use xlink:href="#DejaVuSerif-Bold-20" transform="translate(178.90625 0)"/>
     <use xlink:href="#DejaVuSerif-Bold-35" transform="translate(213.720703 0)"/>
     <use xlink:href="#DejaVuSerif-Bold-3a" transform="translate(283.300781 0)"/>
     <use xlink:href="#DejaVuSerif-Bold-20" transform="translate(320.214844 0)"/>
     <use xlink:href="#DejaVuSerif-Bold-44" transform="translate(355.029297 0)"/>
     <use xlink:href="#DejaVuSerif-Bold-65" transform="translate(441.748047 0)"/>
     <use xlink:href="#DejaVuSerif-Bold-6c" transform="translate(505.371094 0)"/>
     <use xlink:href="#DejaVuSerif-Bold-61" transform="translate(543.359375 0)"/>
     <use xlink:href="#DejaVuSerif-Bold-79" transform="translate(608.154297 0)"/>
     <use xlink:href="#DejaVuSerif-Bold-20" transform="translate(666.259766 0)"/>
     <use xlink:href="#DejaVuSerif-Bold-44" transform="translate(701.074219 0)"/>
     <use xlink:href="#DejaVuSerif-Bold-69" transform="translate(787.792969 0)"/>
     <use xlink:href="#DejaVuSerif-Bold-73" transform="translate(825.78125 0)"/>
     <use xlink:href="#DejaVuSerif-Bold-74" transform="translate(882.080078 0)"/>
     <use xlink:href="#DejaVuSerif-Bold-72" transform="translate(928.271484 0)"/>
     <use xlink:href="#DejaVuSerif-Bold-69" transform="translate(980.957031 0)"/>
     <use xlink:href="#DejaVuSerif-Bold-62" transform="translate(1018.945312 0)"/>
     <use xlink:href="#DejaVuSerif-Bold-75" transform="translate(1088.867188 0)"/>
     <use xlink:href="#DejaVuSerif-Bold-74" transform="translate(1161.572266 0)"/>
     <use xlink:href="#DejaVuSerif-Bold-69" transform="translate(1207.763672 0)"/>
     <use xlink:href="#DejaVuSerif-Bold-6f" transform="translate(1245.751953 0)"/>
     <use xlink:href="#DejaVuSerif-Bold-6e" transform="translate(1312.451172 0)"/>
     <use xlink:href="#DejaVuSerif-Bold-20" transform="translate(1385.15625 0)"/>
     <use xlink:href="#DejaVuSerif-Bold-28" transform="translate(1419.970703 0)"/>
     <use xlink:href="#DejaVuSerif-Bold-42" transform="translate(1467.285156 0)"/>
     <use xlink:href="#DejaVuSerif-Bold-6f" transform="translate(1551.806641 0)"/>
     <use xlink:href="#DejaVuSerif-Bold-78" transform="translate(1618.505859 0)"/>
     <use xlink:href="#DejaVuSerif-Bold-70" transform="translate(1678.125 0)"/>
     <use xlink:href="#DejaVuSerif-Bold-6c" transform="translate(1748.046875 0)"/>
     <use xlink:href="#DejaVuSerif-Bold-6f" transform="translate(1786.035156 0)"/>
     <use xlink:href="#DejaVuSerif-Bold-74" transform="translate(1852.734375 0)"/>
     <use xlink:href="#DejaVuSerif-Bold-29" transform="translate(1898.925781 0)"/>
     <use xlink:href="#DejaVuSerif-Bold-20" transform="translate(1946.240234 0)"/>
     <use xlink:href="#DejaVuSerif-Bold-2014" transform="translate(1981.054688 0)"/>
     <use xlink:href="#DejaVuSerif-Bold-20" transform="translate(2081.054688 0)"/>
     <use xlink:href="#DejaVuSerif-Bold-64" transform="translate(2115.869141 0)"/>
     <use xlink:href="#DejaVuSerif-Bold-61" transform="translate(2185.791016 0)"/>
     <use xlink:href="#DejaVuSerif-Bold-74" transform="translate(2250.585938 0)"/>
     <use xlink:href="#DejaVuSerif-Bold-61" transform="translate(2296.777344 0)"/>
     <use xlink:href="#DejaVuSerif-Bold-73" transform="translate(2361.572266 0)"/>
     <use xlink:href="#DejaVuSerif-Bold-65" transform="translate(2417.871094 0)"/>
     <use xlink:href="#DejaVuSerif-Bold-74" transform="translate(2481.494141 0)"/>
     <use xlink:href="#DejaVuSerif-Bold-2d" transform="translate(2527.685547 0)"/>
     <use xlink:href="#DejaVuSerif-Bold-73" transform="translate(2569.189453 0)"/>
     <use xlink:href="#DejaVuSerif-Bold-6d" transform="translate(2625.488281 0)"/>
     <use xlink:href="#DejaVuSerif-Bold-61" transform="translate(2731.298828 0)"/>
     <use xlink:href="#DejaVuSerif-Bold-6c" transform="translate(2796.09375 0)"/>
     <use xlink:href="#DejaVuSerif-Bold-6c" transform="translate(2834.082031 0)"/>
    </g>
   </g>
   <g id="legend_1">
    <g id="patch_15">
     <path d="M 57.677813 81.617344 
L 126.836562 81.617344 
Q 129.036563 81.617344 129.036563 79.417344 
L 129.036563 30.777969 
Q 129.036563 28.577969 126.836562 28.577969 
L 57.677813 28.577969 
Q 55.477812 28.577969 55.477812 30.777969 
L 55.477812 79.417344 
Q 55.477812 81.617344 57.677813 81.617344 
z
" style="fill: #ffffff; opacity: 0.8; stroke: #cccccc; stroke-linejoin: miter"/>
    </g>
    <g id="text_15">
     <!-- link_policy -->
     <g style="fill: #262626" transform="translate(59.877812 42.096094) scale(0.12 -0.12)">
      <defs>
       <path id="DejaVuSerif-6e" d="M 263 0 
L 263 331 
L 781 331 
L 781 2988 
L 231 2988 
L 231 3322 
L 1356 3322 
L 1356 2731 
Q 1516 3069 1770 3241 
Q 2025 3413 2363 3413 
Q 2913 3413 3172 3097 
Q 3431 2781 3431 2113 
L 3431 331 
L 3944 331 
L 3944 0 
L 2356 0 
L 2356 331 
L 2853 331 
L 2853 1931 
Q 2853 2541 2703 2767 
Q 2553 2994 2175 2994 
Q 1775 2994 1565 2701 
Q 1356 2409 1356 1850 
L 1356 331 
L 1856 331 
L 1856 0 
L 263 0 
z
" transform="scale(0.015625)"/>
       <path id="DejaVuSerif-5f" d="M 3200 -1259 
L 3200 -1509 
L 0 -1509 
L 0 -1259 
L 3200 -1259 
z
" transform="scale(0.015625)"/>
       <path id="DejaVuSerif-70" d="M 1313 1825 
L 1313 1497 
Q 1313 897 1542 583 
Q 1772 269 2209 269 
Q 2650 269 2876 622 
Q 3103 975 3103 1663 
Q 3103 2353 2876 2703 
Q 2650 3053 2209 3053 
Q 1772 3053 1542 2737 
Q 1313 2422 1313 1825 
z
M 738 2988 
L 184 2988 
L 184 3322 
L 1313 3322 
L 1313 2803 
Q 1481 3116 1742 3264 
Q 2003 3413 2388 3413 
Q 3000 3413 3387 2928 
Q 3775 2444 3775 1663 
Q 3775 881 3387 395 
Q 3000 -91 2388 -91 
Q 2003 -91 1742 57 
Q 1481 206 1313 519 
L 1313 -997 
L 1856 -997 
L 1856 -1331 
L 184 -1331 
L 184 -997 
L 738 -997 
L 738 2988 
z
" transform="scale(0.015625)"/>
      </defs>
      <use xlink:href="#DejaVuSerif-6c"/>
      <use xlink:href="#DejaVuSerif-69" transform="translate(31.982422 0)"/>
      <use xlink:href="#DejaVuSerif-6e" transform="translate(63.964844 0)"/>
      <use xlink:href="#DejaVuSerif-6b" transform="translate(128.369141 0)"/>
      <use xlink:href="#DejaVuSerif-5f" transform="translate(188.964844 0)"/>
      <use xlink:href="#DejaVuSerif-70" transform="translate(238.964844 0)"/>
      <use xlink:href="#DejaVuSerif-6f" transform="translate(302.978516 0)"/>
      <use xlink:href="#DejaVuSerif-6c" transform="translate(363.183594 0)"/>
      <use xlink:href="#DejaVuSerif-69" transform="translate(395.166016 0)"/>
      <use xlink:href="#DejaVuSerif-63" transform="translate(427.148438 0)"/>
      <use xlink:href="#DejaVuSerif-79" transform="translate(483.154297 0)"/>
     </g>
    </g>
    <g id="patch_16">
     <path d="M 63.620234 58.78375 
L 85.620234 58.78375 
L 85.620234 51.08375 
L 63.620234 51.08375 
z
" style="fill: #3274a1; stroke: #3f3f3f; stroke-width: 1.5; stroke-linejoin: miter"/>
    </g>
    <g id="text_16">
     <!-- BLA -->
     <g style="fill: #262626" transform="translate(94.420234 58.78375) scale(0.11 -0.11)">
      <defs>
       <path id="DejaVuSerif-42" d="M 1581 331 
L 2516 331 
Q 3078 331 3337 575 
Q 3597 819 3597 1350 
Q 3597 1878 3339 2120 
Q 3081 2363 2516 2363 
L 1581 2363 
L 1581 331 
z
M 1581 2694 
L 2375 2694 
Q 2888 2694 3123 2891 
Q 3359 3088 3359 3513 
Q 3359 3941 3123 4136 
Q 2888 4331 2375 4331 
L 1581 4331 
L 1581 2694 
z
M 353 0 
L 353 331 
L 947 331 
L 947 4331 
L 353 4331 
L 353 4666 
L 2656 4666 
Q 3363 4666 3720 4377 
Q 4078 4088 4078 3513 
Q 4078 3097 3829 2850 
Q 3581 2603 3103 2547 
Q 3697 2472 4005 2167 
Q 4313 1863 4313 1350 
Q 4313 656 3875 328 
Q 3438 0 2509 0 
L 353 0 
z
" transform="scale(0.015625)"/>
       <path id="DejaVuSerif-41" d="M 1281 1691 
L 2994 1691 
L 2138 3909 
L 1281 1691 
z
M -38 0 
L -38 331 
L 372 331 
L 2034 4666 
L 2559 4666 
L 4225 331 
L 4684 331 
L 4684 0 
L 2988 0 
L 2988 331 
L 3506 331 
L 3116 1356 
L 1153 1356 
L 763 331 
L 1275 331 
L 1275 0 
L -38 0 
z
" transform="scale(0.015625)"/>
      </defs>
      <use xlink:href="#DejaVuSerif-42"/>
      <use xlink:href="#DejaVuSerif-4c" transform="translate(73.486328 0)"/>
      <use xlink:href="#DejaVuSerif-41" transform="translate(139.892578 0)"/>
     </g>
    </g>
    <g id="patch_17">
     <path d="M 63.620234 74.929687 
L 85.620234 74.929687 
L 85.620234 67.229687 
L 63.620234 67.229687 
z
" style="fill: #c03d3e; stroke: #3f3f3f; stroke-width: 1.5; stroke-linejoin: miter"/>
    </g>
    <g id="text_17">
     <!-- First -->
     <g style="fill: #262626" transform="translate(94.420234 74.929687) scale(0.11 -0.11)">
      <defs>
       <path id="DejaVuSerif-72" d="M 3059 3328 
L 3059 2497 
L 2728 2497 
Q 2713 2744 2591 2866 
Q 2469 2988 2234 2988 
Q 1809 2988 1582 2694 
Q 1356 2400 1356 1850 
L 1356 331 
L 2022 331 
L 2022 0 
L 263 0 
L 263 331 
L 781 331 
L 781 2994 
L 231 2994 
L 231 3322 
L 1356 3322 
L 1356 2731 
Q 1525 3078 1790 3245 
Q 2056 3413 2438 3413 
Q 2578 3413 2733 3391 
Q 2888 3369 3059 3328 
z
" transform="scale(0.015625)"/>
      </defs>
      <use xlink:href="#DejaVuSerif-46"/>
      <use xlink:href="#DejaVuSerif-69" transform="translate(69.384766 0)"/>
      <use xlink:href="#DejaVuSerif-72" transform="translate(101.367188 0)"/>
      <use xlink:href="#DejaVuSerif-73" transform="translate(149.169922 0)"/>
      <use xlink:href="#DejaVuSerif-74" transform="translate(200.488281 0)"/>
     </g>
    </g>
   </g>
  </g>
 </g>
 <defs>
  <clipPath id="p40fe7696b9">
   <rect x="49.977812" y="23.077969" width="651.302187" height="354.271719"/>
  </clipPath>
 </defs>
</svg>
